<?xml version="1.0" standalone="yes"?>

<svg version="1.1" viewBox="0.0 0.0 533.3333333333334 533.3333333333334" fill="none" stroke="none" stroke-linecap="square" stroke-miterlimit="10" xmlns="http://www.w3.org/2000/svg" xmlns:xlink="http://www.w3.org/1999/xlink"><clipPath id="p.0"><path d="m0 0l533.3333 0l0 533.3333l-533.3333 0l0 -533.3333z" clip-rule="nonzero"></path></clipPath><g clip-path="url(#p.0)"><path fill="#000000" fill-opacity="0.0" d="m0 0l533.3333 0l0 533.3333l-533.3333 0z" fill-rule="nonzero"></path><path fill="#cccccc" d="m9.030184 446.30328l226.1584 -97.79199l243.55519 78.23358l-226.15839 97.79199z" fill-rule="nonzero"></path><path fill="#f1c232" fill-opacity="0.8" d="m42.462944 442.596l53.33767 -23.063385l57.440567 18.450714l-53.33767 23.063385z" fill-rule="nonzero"></path><path stroke="#ffffff" stroke-width="1.0" stroke-linejoin="round" stroke-linecap="butt" d="m42.462944 442.596l53.33767 -23.063385l57.440567 18.450714l-53.33767 23.063385z" fill-rule="nonzero"></path><path fill="#f1c232" fill-opacity="0.8" d="m42.462944 373.40585l53.33767 -23.063385l0 69.190155l-53.33767 23.063385z" fill-rule="nonzero"></path><path stroke="#ffffff" stroke-width="1.0" stroke-linejoin="round" stroke-linecap="butt" d="m42.462944 373.40585l53.33767 -23.063385l0 69.190155l-53.33767 23.063385z" fill-rule="nonzero"></path><path fill="#f1c232" fill-opacity="0.8" d="m95.96369 350.3388l57.27749 18.673004l0 68.97153l-57.442924 -18.727356z" fill-rule="nonzero"></path><path stroke="#ffffff" stroke-width="1.0" stroke-linejoin="round" stroke-linecap="butt" d="m95.96369 350.3388l57.27749 18.673004l0 68.97153l-57.442924 -18.727356z" fill-rule="nonzero"></path><path fill="#f1c232" fill-opacity="0.8" d="m42.626026 373.40216l57.277485 18.673035l0 68.97153l-57.44292 -18.727356z" fill-rule="nonzero"></path><path stroke="#ffffff" stroke-width="1.0" stroke-linejoin="round" stroke-linecap="butt" d="m42.626026 373.40216l57.277485 18.673035l0 68.97153l-57.44292 -18.727356z" fill-rule="nonzero"></path><path fill="#d1a82b" fill-opacity="0.8" d="m99.90351 391.85657l53.33767 -23.063385l0 69.190155l-53.33767 23.063385z" fill-rule="nonzero"></path><path stroke="#ffffff" stroke-width="1.0" stroke-linejoin="round" stroke-linecap="butt" d="m99.90351 391.85657l53.33767 -23.063385l0 69.190155l-53.33767 23.063385z" fill-rule="nonzero"></path><path fill="#d1a82b" fill-opacity="0.8" d="m42.462944 373.40585l53.33767 -23.063385l57.440567 18.450714l-53.33767 23.063385z" fill-rule="nonzero"></path><path stroke="#ffffff" stroke-width="1.0" stroke-linejoin="round" stroke-linecap="butt" d="m42.462944 373.40585l53.33767 -23.063385l57.440567 18.450714l-53.33767 23.063385z" fill-rule="nonzero"></path><path fill="#f1c232" fill-opacity="0.8" d="m115.10093 467.8952l53.33767 -23.063385l57.440567 18.450714l-53.33766 23.063385z" fill-rule="nonzero"></path><path stroke="#ffffff" stroke-width="1.0" stroke-linejoin="round" stroke-linecap="butt" d="m115.10093 467.8952l53.33767 -23.063385l57.440567 18.450714l-53.33766 23.063385z" fill-rule="nonzero"></path><path fill="#f1c232" fill-opacity="0.8" d="m115.10093 398.70508l53.33767 -23.063385l0 69.190125l-53.33767 23.063385z" fill-rule="nonzero"></path><path stroke="#ffffff" stroke-width="1.0" stroke-linejoin="round" stroke-linecap="butt" d="m115.10093 398.70508l53.33767 -23.063385l0 69.190125l-53.33767 23.063385z" fill-rule="nonzero"></path><path fill="#f1c232" fill-opacity="0.8" d="m168.60168 375.638l57.27748 18.673035l0 68.9715l-57.442917 -18.727325z" fill-rule="nonzero"></path><path stroke="#ffffff" stroke-width="1.0" stroke-linejoin="round" stroke-linecap="butt" d="m168.60168 375.638l57.27748 18.673035l0 68.9715l-57.442917 -18.727325z" fill-rule="nonzero"></path><path fill="#f1c232" fill-opacity="0.8" d="m115.26401 398.7014l57.277496 18.673035l0 68.9715l-57.442932 -18.727325z" fill-rule="nonzero"></path><path stroke="#ffffff" stroke-width="1.0" stroke-linejoin="round" stroke-linecap="butt" d="m115.26401 398.7014l57.277496 18.673035l0 68.9715l-57.442932 -18.727325z" fill-rule="nonzero"></path><path fill="#d1a82b" fill-opacity="0.8" d="m172.5415 417.15576l53.33766 -23.063385l0 69.190155l-53.33766 23.063385z" fill-rule="nonzero"></path><path stroke="#ffffff" stroke-width="1.0" stroke-linejoin="round" stroke-linecap="butt" d="m172.5415 417.15576l53.33766 -23.063385l0 69.190155l-53.33766 23.063385z" fill-rule="nonzero"></path><path fill="#f1c232" fill-opacity="0.8" d="m115.10093 398.70508l53.33767 -23.063385l57.440567 18.450684l-53.33766 23.063385z" fill-rule="nonzero"></path><path stroke="#ffffff" stroke-width="1.0" stroke-linejoin="round" stroke-linecap="butt" d="m115.10093 398.70508l53.33767 -23.063385l57.440567 18.450684l-53.33766 23.063385z" fill-rule="nonzero"></path><path fill="#f1c232" fill-opacity="0.8" d="m187.93437 493.19128l53.337677 -23.063385l57.440567 18.450714l-53.337677 23.063385z" fill-rule="nonzero"></path><path stroke="#ffffff" stroke-width="1.0" stroke-linejoin="round" stroke-linecap="butt" d="m187.93437 493.19128l53.337677 -23.063385l57.440567 18.450714l-53.337677 23.063385z" fill-rule="nonzero"></path><path fill="#f1c232" fill-opacity="0.8" d="m187.93437 424.00113l53.337677 -23.063385l0 69.190155l-53.337677 23.063385z" fill-rule="nonzero"></path><path stroke="#ffffff" stroke-width="1.0" stroke-linejoin="round" stroke-linecap="butt" d="m187.93437 424.00113l53.337677 -23.063385l0 69.190155l-53.337677 23.063385z" fill-rule="nonzero"></path><path fill="#f1c232" fill-opacity="0.8" d="m241.43512 400.93405l57.277496 18.673035l0 68.97153l-57.442932 -18.727356z" fill-rule="nonzero"></path><path stroke="#ffffff" stroke-width="1.0" stroke-linejoin="round" stroke-linecap="butt" d="m241.43512 400.93405l57.277496 18.673035l0 68.97153l-57.442932 -18.727356z" fill-rule="nonzero"></path><path fill="#f1c232" fill-opacity="0.8" d="m188.09746 423.99744l57.27748 18.673035l0 68.97153l-57.442917 -18.727356z" fill-rule="nonzero"></path><path stroke="#ffffff" stroke-width="1.0" stroke-linejoin="round" stroke-linecap="butt" d="m188.09746 423.99744l57.27748 18.673035l0 68.97153l-57.442917 -18.727356z" fill-rule="nonzero"></path><path fill="#f1c232" fill-opacity="0.8" d="m245.37494 442.45184l53.337677 -23.063385l0 69.190155l-53.337677 23.063385z" fill-rule="nonzero"></path><path stroke="#ffffff" stroke-width="1.0" stroke-linejoin="round" stroke-linecap="butt" d="m245.37494 442.45184l53.337677 -23.063385l0 69.190155l-53.337677 23.063385z" fill-rule="nonzero"></path><path fill="#f1c232" fill-opacity="0.8" d="m187.93437 424.00113l53.337677 -23.063385l57.440567 18.450714l-53.337677 23.063385z" fill-rule="nonzero"></path><path stroke="#ffffff" stroke-width="1.0" stroke-linejoin="round" stroke-linecap="butt" d="m187.93437 424.00113l53.337677 -23.063385l57.440567 18.450714l-53.337677 23.063385z" fill-rule="nonzero"></path><path fill="#f1c232" fill-opacity="0.8" d="m42.463974 357.18414l53.33767 -23.063385l57.440575 18.450714l-53.337677 23.063385z" fill-rule="nonzero"></path><path stroke="#ffffff" stroke-width="1.0" stroke-linejoin="round" stroke-linecap="butt" d="m42.463974 357.18414l53.33767 -23.063385l57.440575 18.450714l-53.337677 23.063385z" fill-rule="nonzero"></path><path fill="#f1c232" fill-opacity="0.8" d="m42.463974 287.994l53.33767 -23.063385l0 69.190155l-53.33767 23.063385z" fill-rule="nonzero"></path><path stroke="#ffffff" stroke-width="1.0" stroke-linejoin="round" stroke-linecap="butt" d="m42.463974 287.994l53.33767 -23.063385l0 69.190155l-53.33767 23.063385z" fill-rule="nonzero"></path><path fill="#f1c232" fill-opacity="0.8" d="m95.96473 264.92694l57.27749 18.673004l0 68.97153l-57.442924 -18.727356z" fill-rule="nonzero"></path><path stroke="#ffffff" stroke-width="1.0" stroke-linejoin="round" stroke-linecap="butt" d="m95.96473 264.92694l57.27749 18.673004l0 68.97153l-57.442924 -18.727356z" fill-rule="nonzero"></path><path fill="#f1c232" fill-opacity="0.8" d="m42.627056 287.9903l57.277485 18.673035l0 68.97153l-57.44292 -18.727356z" fill-rule="nonzero"></path><path stroke="#ffffff" stroke-width="1.0" stroke-linejoin="round" stroke-linecap="butt" d="m42.627056 287.9903l57.277485 18.673035l0 68.97153l-57.44292 -18.727356z" fill-rule="nonzero"></path><path fill="#f1c232" fill-opacity="0.8" d="m99.90454 306.4447l53.337677 -23.063385l0 69.190155l-53.337677 23.063385z" fill-rule="nonzero"></path><path stroke="#ffffff" stroke-width="1.0" stroke-linejoin="round" stroke-linecap="butt" d="m99.90454 306.4447l53.337677 -23.063385l0 69.190155l-53.337677 23.063385z" fill-rule="nonzero"></path><path fill="#d1a82b" fill-opacity="0.8" d="m42.463974 287.994l53.33767 -23.063385l57.440575 18.450714l-53.337677 23.063385z" fill-rule="nonzero"></path><path stroke="#ffffff" stroke-width="1.0" stroke-linejoin="round" stroke-linecap="butt" d="m42.463974 287.994l53.33767 -23.063385l57.440575 18.450714l-53.337677 23.063385z" fill-rule="nonzero"></path><path fill="#f1c232" fill-opacity="0.8" d="m42.463974 271.82327l53.33767 -23.06337l57.440575 18.450699l-53.337677 23.063385z" fill-rule="nonzero"></path><path stroke="#ffffff" stroke-width="1.0" stroke-linejoin="round" stroke-linecap="butt" d="m42.463974 271.82327l53.33767 -23.06337l57.440575 18.450699l-53.337677 23.063385z" fill-rule="nonzero"></path><path fill="#f1c232" fill-opacity="0.8" d="m42.463974 202.63313l53.33767 -23.063385l0 69.190155l-53.33767 23.06337z" fill-rule="nonzero"></path><path stroke="#ffffff" stroke-width="1.0" stroke-linejoin="round" stroke-linecap="butt" d="m42.463974 202.63313l53.33767 -23.063385l0 69.190155l-53.33767 23.06337z" fill-rule="nonzero"></path><path fill="#f1c232" fill-opacity="0.8" d="m95.96473 179.56606l57.27749 18.673035l0 68.97151l-57.442924 -18.72734z" fill-rule="nonzero"></path><path stroke="#ffffff" stroke-width="1.0" stroke-linejoin="round" stroke-linecap="butt" d="m95.96473 179.56606l57.27749 18.673035l0 68.97151l-57.442924 -18.72734z" fill-rule="nonzero"></path><path fill="#f1c232" fill-opacity="0.8" d="m42.627056 202.62944l57.277485 18.673035l0 68.97151l-57.44292 -18.727356z" fill-rule="nonzero"></path><path stroke="#ffffff" stroke-width="1.0" stroke-linejoin="round" stroke-linecap="butt" d="m42.627056 202.62944l57.277485 18.673035l0 68.97151l-57.44292 -18.727356z" fill-rule="nonzero"></path><path fill="#d1a82b" fill-opacity="0.8" d="m99.90454 221.08383l53.337677 -23.063385l0 69.190155l-53.337677 23.063385z" fill-rule="nonzero"></path><path stroke="#ffffff" stroke-width="1.0" stroke-linejoin="round" stroke-linecap="butt" d="m99.90454 221.08383l53.337677 -23.063385l0 69.190155l-53.337677 23.063385z" fill-rule="nonzero"></path><path fill="#d1a82b" fill-opacity="0.8" d="m42.463974 202.63313l53.33767 -23.063385l57.440575 18.450699l-53.337677 23.063385z" fill-rule="nonzero"></path><path stroke="#ffffff" stroke-width="1.0" stroke-linejoin="round" stroke-linecap="butt" d="m42.463974 202.63313l53.33767 -23.063385l57.440575 18.450699l-53.337677 23.063385z" fill-rule="nonzero"></path><path fill="#f1c232" fill-opacity="0.8" d="m42.463974 186.41455l53.33767 -23.063385l57.440575 18.450714l-53.337677 23.06337z" fill-rule="nonzero"></path><path stroke="#ffffff" stroke-width="1.0" stroke-linejoin="round" stroke-linecap="butt" d="m42.463974 186.41455l53.33767 -23.063385l57.440575 18.450714l-53.337677 23.06337z" fill-rule="nonzero"></path><path fill="#f1c232" fill-opacity="0.8" d="m42.463974 117.2244l53.33767 -23.063385l0 69.19015l-53.33767 23.063385z" fill-rule="nonzero"></path><path stroke="#ffffff" stroke-width="1.0" stroke-linejoin="round" stroke-linecap="butt" d="m42.463974 117.2244l53.33767 -23.063385l0 69.19015l-53.33767 23.063385z" fill-rule="nonzero"></path><path fill="#f1c232" fill-opacity="0.8" d="m95.96473 94.157326l57.27749 18.673035l0 68.97152l-57.442924 -18.727356z" fill-rule="nonzero"></path><path stroke="#ffffff" stroke-width="1.0" stroke-linejoin="round" stroke-linecap="butt" d="m95.96473 94.157326l57.27749 18.673035l0 68.97152l-57.442924 -18.727356z" fill-rule="nonzero"></path><path fill="#f1c232" fill-opacity="0.8" d="m42.627056 117.22071l57.277485 18.673027l0 68.97151l-57.44292 -18.72734z" fill-rule="nonzero"></path><path stroke="#ffffff" stroke-width="1.0" stroke-linejoin="round" stroke-linecap="butt" d="m42.627056 117.22071l57.277485 18.673027l0 68.97151l-57.44292 -18.72734z" fill-rule="nonzero"></path><path fill="#f1c232" fill-opacity="0.8" d="m99.90454 135.67511l53.337677 -23.063385l0 69.190155l-53.337677 23.06337z" fill-rule="nonzero"></path><path stroke="#ffffff" stroke-width="1.0" stroke-linejoin="round" stroke-linecap="butt" d="m99.90454 135.67511l53.337677 -23.063385l0 69.190155l-53.337677 23.06337z" fill-rule="nonzero"></path><path fill="#d1a82b" fill-opacity="0.8" d="m42.463974 117.2244l53.33767 -23.063385l57.440575 18.450706l-53.337677 23.063385z" fill-rule="nonzero"></path><path stroke="#ffffff" stroke-width="1.0" stroke-linejoin="round" stroke-linecap="butt" d="m42.463974 117.2244l53.33767 -23.063385l57.440575 18.450706l-53.337677 23.063385z" fill-rule="nonzero"></path><path fill="#f1c232" fill-opacity="0.8" d="m42.463974 101.05368l53.33767 -23.063385l57.440575 18.450706l-53.337677 23.063385z" fill-rule="nonzero"></path><path stroke="#ffffff" stroke-width="1.0" stroke-linejoin="round" stroke-linecap="butt" d="m42.463974 101.05368l53.33767 -23.063385l57.440575 18.450706l-53.337677 23.063385z" fill-rule="nonzero"></path><path fill="#f1c232" fill-opacity="0.8" d="m42.463974 31.86353l53.33767 -23.063381l0 69.19015l-53.33767 23.063385z" fill-rule="nonzero"></path><path stroke="#ffffff" stroke-width="1.0" stroke-linejoin="round" stroke-linecap="butt" d="m42.463974 31.86353l53.33767 -23.063381l0 69.19015l-53.33767 23.063385z" fill-rule="nonzero"></path><path fill="#f1c232" fill-opacity="0.8" d="m95.96473 8.796456l57.27749 18.67303l0 68.97151l-57.442924 -18.72734z" fill-rule="nonzero"></path><path stroke="#ffffff" stroke-width="1.0" stroke-linejoin="round" stroke-linecap="butt" d="m95.96473 8.796456l57.27749 18.67303l0 68.97151l-57.442924 -18.72734z" fill-rule="nonzero"></path><path fill="#f1c232" fill-opacity="0.8" d="m42.627056 31.85984l57.277485 18.67303l0 68.97151l-57.44292 -18.727348z" fill-rule="nonzero"></path><path stroke="#ffffff" stroke-width="1.0" stroke-linejoin="round" stroke-linecap="butt" d="m42.627056 31.85984l57.277485 18.67303l0 68.97151l-57.44292 -18.727348z" fill-rule="nonzero"></path><path fill="#d1a82b" fill-opacity="0.8" d="m99.90454 50.314236l53.337677 -23.063383l0 69.19015l-53.337677 23.063385z" fill-rule="nonzero"></path><path stroke="#ffffff" stroke-width="1.0" stroke-linejoin="round" stroke-linecap="butt" d="m99.90454 50.314236l53.337677 -23.063383l0 69.19015l-53.337677 23.063385z" fill-rule="nonzero"></path><path fill="#f1c232" fill-opacity="0.8" d="m42.463974 31.86353l53.33767 -23.063381l57.440575 18.450706l-53.337677 23.063383z" fill-rule="nonzero"></path><path stroke="#ffffff" stroke-width="1.0" stroke-linejoin="round" stroke-linecap="butt" d="m42.463974 31.86353l53.33767 -23.063381l57.440575 18.450706l-53.337677 23.063383z" fill-rule="nonzero"></path><path fill="#f1c232" fill-opacity="0.8" d="m115.10258 126.35288l53.33767 -23.063385l57.440567 18.450706l-53.33766 23.063385z" fill-rule="nonzero"></path><path stroke="#ffffff" stroke-width="1.0" stroke-linejoin="round" stroke-linecap="butt" d="m115.10258 126.35288l53.33767 -23.063385l57.440567 18.450706l-53.33766 23.063385z" fill-rule="nonzero"></path><path fill="#f1c232" fill-opacity="0.8" d="m115.10258 57.16273l53.33767 -23.063385l0 69.190155l-53.33767 23.063385z" fill-rule="nonzero"></path><path stroke="#ffffff" stroke-width="1.0" stroke-linejoin="round" stroke-linecap="butt" d="m115.10258 57.16273l53.33767 -23.063385l0 69.190155l-53.33767 23.063385z" fill-rule="nonzero"></path><path fill="#f1c232" fill-opacity="0.8" d="m168.60333 34.095657l57.27748 18.67303l0 68.97151l-57.442917 -18.727348z" fill-rule="nonzero"></path><path stroke="#ffffff" stroke-width="1.0" stroke-linejoin="round" stroke-linecap="butt" d="m168.60333 34.095657l57.27748 18.67303l0 68.97151l-57.442917 -18.727348z" fill-rule="nonzero"></path><path fill="#f1c232" fill-opacity="0.8" d="m115.26566 57.15904l57.27749 18.67303l0 68.97152l-57.442924 -18.727348z" fill-rule="nonzero"></path><path stroke="#ffffff" stroke-width="1.0" stroke-linejoin="round" stroke-linecap="butt" d="m115.26566 57.15904l57.27749 18.67303l0 68.97152l-57.442924 -18.727348z" fill-rule="nonzero"></path><path fill="#d1a82b" fill-opacity="0.8" d="m172.54315 75.613434l53.33766 -23.063381l0 69.190155l-53.33766 23.063385z" fill-rule="nonzero"></path><path stroke="#ffffff" stroke-width="1.0" stroke-linejoin="round" stroke-linecap="butt" d="m172.54315 75.613434l53.33766 -23.063381l0 69.190155l-53.33766 23.063385z" fill-rule="nonzero"></path><path fill="#f1c232" fill-opacity="0.8" d="m115.10258 57.16273l53.33767 -23.063385l57.440567 18.450706l-53.33766 23.063381z" fill-rule="nonzero"></path><path stroke="#ffffff" stroke-width="1.0" stroke-linejoin="round" stroke-linecap="butt" d="m115.10258 57.16273l53.33767 -23.063385l57.440567 18.450706l-53.33766 23.063381z" fill-rule="nonzero"></path><path fill="#f1c232" fill-opacity="0.8" d="m187.93437 151.65208l53.337677 -23.063385l57.440567 18.450699l-53.337677 23.063385z" fill-rule="nonzero"></path><path stroke="#ffffff" stroke-width="1.0" stroke-linejoin="round" stroke-linecap="butt" d="m187.93437 151.65208l53.337677 -23.063385l57.440567 18.450699l-53.337677 23.063385z" fill-rule="nonzero"></path><path fill="#f1c232" fill-opacity="0.8" d="m187.93437 82.46193l53.337677 -23.063381l0 69.190155l-53.337677 23.063385z" fill-rule="nonzero"></path><path stroke="#ffffff" stroke-width="1.0" stroke-linejoin="round" stroke-linecap="butt" d="m187.93437 82.46193l53.337677 -23.063381l0 69.190155l-53.337677 23.063385z" fill-rule="nonzero"></path><path fill="#f1c232" fill-opacity="0.8" d="m241.43512 59.394855l57.277496 18.67303l0 68.97151l-57.442932 -18.72734z" fill-rule="nonzero"></path><path stroke="#ffffff" stroke-width="1.0" stroke-linejoin="round" stroke-linecap="butt" d="m241.43512 59.394855l57.277496 18.67303l0 68.97151l-57.442932 -18.72734z" fill-rule="nonzero"></path><path fill="#f1c232" fill-opacity="0.8" d="m188.09746 82.45824l57.27748 18.673035l0 68.97151l-57.442917 -18.72734z" fill-rule="nonzero"></path><path stroke="#ffffff" stroke-width="1.0" stroke-linejoin="round" stroke-linecap="butt" d="m188.09746 82.45824l57.27748 18.673035l0 68.97151l-57.442917 -18.72734z" fill-rule="nonzero"></path><path fill="#f1c232" fill-opacity="0.8" d="m245.37494 100.912636l53.337677 -23.063385l0 69.19015l-53.337677 23.063385z" fill-rule="nonzero"></path><path stroke="#ffffff" stroke-width="1.0" stroke-linejoin="round" stroke-linecap="butt" d="m245.37494 100.912636l53.337677 -23.063385l0 69.19015l-53.337677 23.063385z" fill-rule="nonzero"></path><path fill="#f1c232" fill-opacity="0.8" d="m187.93437 82.46193l53.337677 -23.063381l57.440567 18.450703l-53.337677 23.063385z" fill-rule="nonzero"></path><path stroke="#ffffff" stroke-width="1.0" stroke-linejoin="round" stroke-linecap="butt" d="m187.93437 82.46193l53.337677 -23.063381l57.440567 18.450703l-53.337677 23.063385z" fill-rule="nonzero"></path><path fill="#f1c232" fill-opacity="0.8" d="m118.36157 297.12247l53.337677 -23.063385l57.440567 18.450714l-53.337677 23.063385z" fill-rule="nonzero"></path><path stroke="#ffffff" stroke-width="1.0" stroke-linejoin="round" stroke-linecap="butt" d="m118.36157 297.12247l53.337677 -23.063385l57.440567 18.450714l-53.337677 23.063385z" fill-rule="nonzero"></path><path fill="#f1c232" fill-opacity="0.8" d="m118.36157 227.93233l53.337677 -23.063385l0 69.19014l-53.337677 23.063385z" fill-rule="nonzero"></path><path stroke="#ffffff" stroke-width="1.0" stroke-linejoin="round" stroke-linecap="butt" d="m118.36157 227.93233l53.337677 -23.063385l0 69.19014l-53.337677 23.063385z" fill-rule="nonzero"></path><path fill="#f1c232" fill-opacity="0.8" d="m171.86232 204.86525l57.277496 18.673035l0 68.97151l-57.442932 -18.727325z" fill-rule="nonzero"></path><path stroke="#ffffff" stroke-width="1.0" stroke-linejoin="round" stroke-linecap="butt" d="m171.86232 204.86525l57.277496 18.673035l0 68.97151l-57.442932 -18.727325z" fill-rule="nonzero"></path><path fill="#f1c232" fill-opacity="0.8" d="m118.52466 227.92863l57.27748 18.673035l0 68.97151l-57.442917 -18.727325z" fill-rule="nonzero"></path><path stroke="#ffffff" stroke-width="1.0" stroke-linejoin="round" stroke-linecap="butt" d="m118.52466 227.92863l57.27748 18.673035l0 68.97151l-57.442917 -18.727325z" fill-rule="nonzero"></path><path fill="#f1c232" fill-opacity="0.8" d="m175.80214 246.38304l53.337677 -23.063385l0 69.19014l-53.337677 23.063385z" fill-rule="nonzero"></path><path stroke="#ffffff" stroke-width="1.0" stroke-linejoin="round" stroke-linecap="butt" d="m175.80214 246.38304l53.337677 -23.063385l0 69.19014l-53.337677 23.063385z" fill-rule="nonzero"></path><path fill="#f1c232" fill-opacity="0.8" d="m118.36157 227.93233l53.337677 -23.063385l57.440567 18.450714l-53.337677 23.063385z" fill-rule="nonzero"></path><path stroke="#ffffff" stroke-width="1.0" stroke-linejoin="round" stroke-linecap="butt" d="m118.36157 227.93233l53.337677 -23.063385l57.440567 18.450714l-53.337677 23.063385z" fill-rule="nonzero"></path><path fill="#93c47d" fill-opacity="0.8" d="m414.3174 387.7613l39.67865 -16.687988l42.730835 13.350372l-39.67865 16.687988z" fill-rule="nonzero"></path><path stroke="#ffffff" stroke-width="1.0" stroke-linejoin="round" stroke-linecap="butt" d="m414.3174 387.7613l39.67865 -16.687988l42.730835 13.350372l-39.67865 16.687988z" fill-rule="nonzero"></path><path fill="#93c47d" fill-opacity="0.8" d="m414.3174 337.69736l39.67865 -16.687988l0 50.063934l-39.67865 16.687988z" fill-rule="nonzero"></path><path stroke="#ffffff" stroke-width="1.0" stroke-linejoin="round" stroke-linecap="butt" d="m414.3174 337.69736l39.67865 -16.687988l0 50.063934l-39.67865 16.687988z" fill-rule="nonzero"></path><path fill="#93c47d" fill-opacity="0.8" d="m454.11737 321.0067l42.609528 13.511261l0 49.9057l-42.732605 -13.550537z" fill-rule="nonzero"></path><path stroke="#ffffff" stroke-width="1.0" stroke-linejoin="round" stroke-linecap="butt" d="m454.11737 321.0067l42.609528 13.511261l0 49.9057l-42.732605 -13.550537z" fill-rule="nonzero"></path><path fill="#7faa6c" fill-opacity="0.8" d="m414.43872 337.6947l42.609528 13.51123l0 49.90573l-42.732605 -13.550537z" fill-rule="nonzero"></path><path stroke="#ffffff" stroke-width="1.0" stroke-linejoin="round" stroke-linecap="butt" d="m414.43872 337.6947l42.609528 13.51123l0 49.90573l-42.732605 -13.550537z" fill-rule="nonzero"></path><path fill="#93c47d" fill-opacity="0.8" d="m457.04825 351.04773l39.67865 -16.687958l0 50.063904l-39.67865 16.687988z" fill-rule="nonzero"></path><path stroke="#ffffff" stroke-width="1.0" stroke-linejoin="round" stroke-linecap="butt" d="m457.04825 351.04773l39.67865 -16.687958l0 50.063904l-39.67865 16.687988z" fill-rule="nonzero"></path><path fill="#7faa6c" fill-opacity="0.8" d="m414.3174 337.69736l39.67865 -16.687988l42.730835 13.350403l-39.67865 16.687958z" fill-rule="nonzero"></path><path stroke="#ffffff" stroke-width="1.0" stroke-linejoin="round" stroke-linecap="butt" d="m414.3174 337.69736l39.67865 -16.687988l42.730835 13.350403l-39.67865 16.687958z" fill-rule="nonzero"></path><path fill="#93c47d" fill-opacity="0.8" d="m363.7614 432.5853l39.67865 -16.687988l42.730835 13.350372l-39.67865 16.687988z" fill-rule="nonzero"></path><path stroke="#ffffff" stroke-width="1.0" stroke-linejoin="round" stroke-linecap="butt" d="m363.7614 432.5853l39.67865 -16.687988l42.730835 13.350372l-39.67865 16.687988z" fill-rule="nonzero"></path><path fill="#93c47d" fill-opacity="0.8" d="m363.7614 382.52136l39.67865 -16.687988l0 50.063934l-39.67865 16.687988z" fill-rule="nonzero"></path><path stroke="#ffffff" stroke-width="1.0" stroke-linejoin="round" stroke-linecap="butt" d="m363.7614 382.52136l39.67865 -16.687988l0 50.063934l-39.67865 16.687988z" fill-rule="nonzero"></path><path fill="#93c47d" fill-opacity="0.8" d="m403.56137 365.83072l42.609528 13.51123l0 49.90573l-42.732605 -13.550537z" fill-rule="nonzero"></path><path stroke="#ffffff" stroke-width="1.0" stroke-linejoin="round" stroke-linecap="butt" d="m403.56137 365.83072l42.609528 13.51123l0 49.90573l-42.732605 -13.550537z" fill-rule="nonzero"></path><path fill="#7faa6c" fill-opacity="0.8" d="m363.88272 382.51868l42.609528 13.511261l0 49.90573l-42.732605 -13.550537z" fill-rule="nonzero"></path><path stroke="#ffffff" stroke-width="1.0" stroke-linejoin="round" stroke-linecap="butt" d="m363.88272 382.51868l42.609528 13.511261l0 49.90573l-42.732605 -13.550537z" fill-rule="nonzero"></path><path fill="#93c47d" fill-opacity="0.8" d="m406.49225 395.87173l39.67865 -16.687958l0 50.063904l-39.67865 16.687988z" fill-rule="nonzero"></path><path stroke="#ffffff" stroke-width="1.0" stroke-linejoin="round" stroke-linecap="butt" d="m406.49225 395.87173l39.67865 -16.687958l0 50.063904l-39.67865 16.687988z" fill-rule="nonzero"></path><path fill="#93c47d" fill-opacity="0.8" d="m363.7614 382.52136l39.67865 -16.687988l42.730835 13.350403l-39.67865 16.687958z" fill-rule="nonzero"></path><path stroke="#ffffff" stroke-width="1.0" stroke-linejoin="round" stroke-linecap="butt" d="m363.7614 382.52136l39.67865 -16.687988l42.730835 13.350403l-39.67865 16.687958z" fill-rule="nonzero"></path><path fill="#93c47d" fill-opacity="0.8" d="m441.8934 320.5253l39.67865 -16.687988l42.730865 13.350372l-39.67865 16.687988z" fill-rule="nonzero"></path><path stroke="#ffffff" stroke-width="1.0" stroke-linejoin="round" stroke-linecap="butt" d="m441.8934 320.5253l39.67865 -16.687988l42.730865 13.350372l-39.67865 16.687988z" fill-rule="nonzero"></path><path fill="#93c47d" fill-opacity="0.8" d="m441.8934 270.46136l39.67865 -16.687988l0 50.063934l-39.67865 16.687988z" fill-rule="nonzero"></path><path stroke="#ffffff" stroke-width="1.0" stroke-linejoin="round" stroke-linecap="butt" d="m441.8934 270.46136l39.67865 -16.687988l0 50.063934l-39.67865 16.687988z" fill-rule="nonzero"></path><path fill="#93c47d" fill-opacity="0.8" d="m481.6934 253.77072l42.609528 13.51123l0 49.90573l-42.732605 -13.550537z" fill-rule="nonzero"></path><path stroke="#ffffff" stroke-width="1.0" stroke-linejoin="round" stroke-linecap="butt" d="m481.6934 253.77072l42.609528 13.51123l0 49.90573l-42.732605 -13.550537z" fill-rule="nonzero"></path><path fill="#93c47d" fill-opacity="0.8" d="m442.01474 270.45868l42.609528 13.511261l0 49.90573l-42.732605 -13.550568z" fill-rule="nonzero"></path><path stroke="#ffffff" stroke-width="1.0" stroke-linejoin="round" stroke-linecap="butt" d="m442.01474 270.45868l42.609528 13.511261l0 49.90573l-42.732605 -13.550568z" fill-rule="nonzero"></path><path fill="#93c47d" fill-opacity="0.8" d="m484.62427 283.81174l39.67865 -16.687958l0 50.063904l-39.67865 16.687988z" fill-rule="nonzero"></path><path stroke="#ffffff" stroke-width="1.0" stroke-linejoin="round" stroke-linecap="butt" d="m484.62427 283.81174l39.67865 -16.687958l0 50.063904l-39.67865 16.687988z" fill-rule="nonzero"></path><path fill="#7faa6c" fill-opacity="0.8" d="m441.8934 270.46136l39.67865 -16.687988l42.730865 13.350403l-39.67865 16.687958z" fill-rule="nonzero"></path><path stroke="#ffffff" stroke-width="1.0" stroke-linejoin="round" stroke-linecap="butt" d="m441.8934 270.46136l39.67865 -16.687988l42.730865 13.350403l-39.67865 16.687958z" fill-rule="nonzero"></path><path fill="#93c47d" fill-opacity="0.8" d="m441.8934 257.7717l39.67865 -16.687988l42.730865 13.350388l-39.67865 16.687973z" fill-rule="nonzero"></path><path stroke="#ffffff" stroke-width="1.0" stroke-linejoin="round" stroke-linecap="butt" d="m441.8934 257.7717l39.67865 -16.687988l42.730865 13.350388l-39.67865 16.687973z" fill-rule="nonzero"></path><path fill="#93c47d" fill-opacity="0.8" d="m441.8934 207.70776l39.67865 -16.687973l0 50.06392l-39.67865 16.687988z" fill-rule="nonzero"></path><path stroke="#ffffff" stroke-width="1.0" stroke-linejoin="round" stroke-linecap="butt" d="m441.8934 207.70776l39.67865 -16.687973l0 50.06392l-39.67865 16.687988z" fill-rule="nonzero"></path><path fill="#93c47d" fill-opacity="0.8" d="m481.6934 191.01712l42.609528 13.511246l0 49.90573l-42.732605 -13.550552z" fill-rule="nonzero"></path><path stroke="#ffffff" stroke-width="1.0" stroke-linejoin="round" stroke-linecap="butt" d="m481.6934 191.01712l42.609528 13.511246l0 49.90573l-42.732605 -13.550552z" fill-rule="nonzero"></path><path fill="#93c47d" fill-opacity="0.8" d="m442.01474 207.7051l42.609528 13.511246l0 49.90573l-42.732605 -13.550537z" fill-rule="nonzero"></path><path stroke="#ffffff" stroke-width="1.0" stroke-linejoin="round" stroke-linecap="butt" d="m442.01474 207.7051l42.609528 13.511246l0 49.90573l-42.732605 -13.550537z" fill-rule="nonzero"></path><path fill="#93c47d" fill-opacity="0.8" d="m484.62427 221.05814l39.67865 -16.687973l0 50.063934l-39.67865 16.687973z" fill-rule="nonzero"></path><path stroke="#ffffff" stroke-width="1.0" stroke-linejoin="round" stroke-linecap="butt" d="m484.62427 221.05814l39.67865 -16.687973l0 50.063934l-39.67865 16.687973z" fill-rule="nonzero"></path><path fill="#7faa6c" fill-opacity="0.8" d="m441.8934 207.70776l39.67865 -16.687973l42.730865 13.350372l-39.67865 16.687973z" fill-rule="nonzero"></path><path stroke="#ffffff" stroke-width="1.0" stroke-linejoin="round" stroke-linecap="butt" d="m441.8934 207.70776l39.67865 -16.687973l42.730865 13.350372l-39.67865 16.687973z" fill-rule="nonzero"></path><path fill="#93c47d" fill-opacity="0.8" d="m423.5094 191.11394l39.67865 -16.687973l42.730865 13.350372l-39.67865 16.687973z" fill-rule="nonzero"></path><path stroke="#ffffff" stroke-width="1.0" stroke-linejoin="round" stroke-linecap="butt" d="m423.5094 191.11394l39.67865 -16.687973l42.730865 13.350372l-39.67865 16.687973z" fill-rule="nonzero"></path><path fill="#93c47d" fill-opacity="0.8" d="m423.5094 141.05l39.67865 -16.687973l0 50.063934l-39.67865 16.687973z" fill-rule="nonzero"></path><path stroke="#ffffff" stroke-width="1.0" stroke-linejoin="round" stroke-linecap="butt" d="m423.5094 141.05l39.67865 -16.687973l0 50.063934l-39.67865 16.687973z" fill-rule="nonzero"></path><path fill="#93c47d" fill-opacity="0.8" d="m463.3094 124.35936l42.609528 13.511246l0 49.90573l-42.732605 -13.550552z" fill-rule="nonzero"></path><path stroke="#ffffff" stroke-width="1.0" stroke-linejoin="round" stroke-linecap="butt" d="m463.3094 124.35936l42.609528 13.511246l0 49.90573l-42.732605 -13.550552z" fill-rule="nonzero"></path><path fill="#7faa6c" fill-opacity="0.8" d="m423.63074 141.04733l42.609528 13.511246l0 49.90573l-42.732605 -13.550537z" fill-rule="nonzero"></path><path stroke="#ffffff" stroke-width="1.0" stroke-linejoin="round" stroke-linecap="butt" d="m423.63074 141.04733l42.609528 13.511246l0 49.90573l-42.732605 -13.550537z" fill-rule="nonzero"></path><path fill="#93c47d" fill-opacity="0.8" d="m466.24026 154.40039l39.67865 -16.687973l0 50.06392l-39.67865 16.687973z" fill-rule="nonzero"></path><path stroke="#ffffff" stroke-width="1.0" stroke-linejoin="round" stroke-linecap="butt" d="m466.24026 154.40039l39.67865 -16.687973l0 50.06392l-39.67865 16.687973z" fill-rule="nonzero"></path><path fill="#93c47d" fill-opacity="0.8" d="m423.5094 141.05l39.67865 -16.687973l42.730865 13.350388l-39.67865 16.687973z" fill-rule="nonzero"></path><path stroke="#ffffff" stroke-width="1.0" stroke-linejoin="round" stroke-linecap="butt" d="m423.5094 141.05l39.67865 -16.687973l42.730865 13.350388l-39.67865 16.687973z" fill-rule="nonzero"></path><path fill="#93c47d" fill-opacity="0.8" d="m363.53442 180.8381l39.67865 -16.687973l42.730835 13.350388l-39.67865 16.687973z" fill-rule="nonzero"></path><path stroke="#ffffff" stroke-width="1.0" stroke-linejoin="round" stroke-linecap="butt" d="m363.53442 180.8381l39.67865 -16.687973l42.730835 13.350388l-39.67865 16.687973z" fill-rule="nonzero"></path><path fill="#93c47d" fill-opacity="0.8" d="m363.53442 130.77419l39.67865 -16.687973l0 50.06392l-39.67865 16.687973z" fill-rule="nonzero"></path><path stroke="#ffffff" stroke-width="1.0" stroke-linejoin="round" stroke-linecap="butt" d="m363.53442 130.77419l39.67865 -16.687973l0 50.06392l-39.67865 16.687973z" fill-rule="nonzero"></path><path fill="#93c47d" fill-opacity="0.8" d="m403.33438 114.08354l42.609528 13.511246l0 49.90573l-42.732605 -13.550552z" fill-rule="nonzero"></path><path stroke="#ffffff" stroke-width="1.0" stroke-linejoin="round" stroke-linecap="butt" d="m403.33438 114.08354l42.609528 13.511246l0 49.90573l-42.732605 -13.550552z" fill-rule="nonzero"></path><path fill="#7faa6c" fill-opacity="0.8" d="m363.65573 130.77151l42.609528 13.511246l0 49.90573l-42.732605 -13.550552z" fill-rule="nonzero"></path><path stroke="#ffffff" stroke-width="1.0" stroke-linejoin="round" stroke-linecap="butt" d="m363.65573 130.77151l42.609528 13.511246l0 49.90573l-42.732605 -13.550552z" fill-rule="nonzero"></path><path fill="#93c47d" fill-opacity="0.8" d="m406.26526 144.12457l39.67865 -16.68798l0 50.063927l-39.67865 16.687973z" fill-rule="nonzero"></path><path stroke="#ffffff" stroke-width="1.0" stroke-linejoin="round" stroke-linecap="butt" d="m406.26526 144.12457l39.67865 -16.68798l0 50.063927l-39.67865 16.687973z" fill-rule="nonzero"></path><path fill="#93c47d" fill-opacity="0.8" d="m363.53442 130.77419l39.67865 -16.687973l42.730835 13.35038l-39.67865 16.68798z" fill-rule="nonzero"></path><path stroke="#ffffff" stroke-width="1.0" stroke-linejoin="round" stroke-linecap="butt" d="m363.53442 130.77419l39.67865 -16.687973l42.730835 13.35038l-39.67865 16.68798z" fill-rule="nonzero"></path><path fill="#93c47d" fill-opacity="0.8" d="m308.6 455.5796l39.67865 -16.687988l42.730835 13.350372l-39.67865 16.687988z" fill-rule="nonzero"></path><path stroke="#ffffff" stroke-width="1.0" stroke-linejoin="round" stroke-linecap="butt" d="m308.6 455.5796l39.67865 -16.687988l42.730835 13.350372l-39.67865 16.687988z" fill-rule="nonzero"></path><path fill="#93c47d" fill-opacity="0.8" d="m308.6 405.51566l39.67865 -16.687988l0 50.063934l-39.67865 16.687988z" fill-rule="nonzero"></path><path stroke="#ffffff" stroke-width="1.0" stroke-linejoin="round" stroke-linecap="butt" d="m308.6 405.51566l39.67865 -16.687988l0 50.063934l-39.67865 16.687988z" fill-rule="nonzero"></path><path fill="#93c47d" fill-opacity="0.8" d="m348.39996 388.825l42.609528 13.51123l0 49.90573l-42.732605 -13.550537z" fill-rule="nonzero"></path><path stroke="#ffffff" stroke-width="1.0" stroke-linejoin="round" stroke-linecap="butt" d="m348.39996 388.825l42.609528 13.51123l0 49.90573l-42.732605 -13.550537z" fill-rule="nonzero"></path><path fill="#93c47d" fill-opacity="0.8" d="m308.7213 405.51297l42.609528 13.511261l0 49.90573l-42.732605 -13.550537z" fill-rule="nonzero"></path><path stroke="#ffffff" stroke-width="1.0" stroke-linejoin="round" stroke-linecap="butt" d="m308.7213 405.51297l42.609528 13.511261l0 49.90573l-42.732605 -13.550537z" fill-rule="nonzero"></path><path fill="#93c47d" fill-opacity="0.8" d="m351.33084 418.86603l39.67865 -16.687958l0 50.063904l-39.67865 16.687988z" fill-rule="nonzero"></path><path stroke="#ffffff" stroke-width="1.0" stroke-linejoin="round" stroke-linecap="butt" d="m351.33084 418.86603l39.67865 -16.687958l0 50.063904l-39.67865 16.687988z" fill-rule="nonzero"></path><path fill="#7faa6c" fill-opacity="0.8" d="m308.6 405.51566l39.67865 -16.687988l42.730835 13.350403l-39.67865 16.687958z" fill-rule="nonzero"></path><path stroke="#ffffff" stroke-width="1.0" stroke-linejoin="round" stroke-linecap="butt" d="m308.6 405.51566l39.67865 -16.687988l42.730835 13.350403l-39.67865 16.687958z" fill-rule="nonzero"></path><path fill="#93c47d" fill-opacity="0.8" d="m308.6094 392.82193l39.67865 -16.687958l42.730865 13.350372l-39.67865 16.687958z" fill-rule="nonzero"></path><path stroke="#ffffff" stroke-width="1.0" stroke-linejoin="round" stroke-linecap="butt" d="m308.6094 392.82193l39.67865 -16.687958l42.730865 13.350372l-39.67865 16.687958z" fill-rule="nonzero"></path><path fill="#93c47d" fill-opacity="0.8" d="m308.6094 342.758l39.67865 -16.687958l0 50.063934l-39.67865 16.687958z" fill-rule="nonzero"></path><path stroke="#ffffff" stroke-width="1.0" stroke-linejoin="round" stroke-linecap="butt" d="m308.6094 342.758l39.67865 -16.687958l0 50.063934l-39.67865 16.687958z" fill-rule="nonzero"></path><path fill="#93c47d" fill-opacity="0.8" d="m348.40936 326.06735l42.60956 13.511261l0 49.90573l-42.732605 -13.550568z" fill-rule="nonzero"></path><path stroke="#ffffff" stroke-width="1.0" stroke-linejoin="round" stroke-linecap="butt" d="m348.40936 326.06735l42.60956 13.511261l0 49.90573l-42.732605 -13.550568z" fill-rule="nonzero"></path><path fill="#93c47d" fill-opacity="0.8" d="m308.73074 342.75534l42.609528 13.51123l0 49.90573l-42.732605 -13.550537z" fill-rule="nonzero"></path><path stroke="#ffffff" stroke-width="1.0" stroke-linejoin="round" stroke-linecap="butt" d="m308.73074 342.75534l42.609528 13.51123l0 49.90573l-42.732605 -13.550537z" fill-rule="nonzero"></path><path fill="#93c47d" fill-opacity="0.8" d="m351.34027 356.1084l39.67865 -16.687988l0 50.063934l-39.67865 16.687958z" fill-rule="nonzero"></path><path stroke="#ffffff" stroke-width="1.0" stroke-linejoin="round" stroke-linecap="butt" d="m351.34027 356.1084l39.67865 -16.687988l0 50.063934l-39.67865 16.687958z" fill-rule="nonzero"></path><path fill="#7faa6c" fill-opacity="0.8" d="m308.6094 342.758l39.67865 -16.687958l42.730865 13.350372l-39.67865 16.687988z" fill-rule="nonzero"></path><path stroke="#ffffff" stroke-width="1.0" stroke-linejoin="round" stroke-linecap="butt" d="m308.6094 342.758l39.67865 -16.687958l42.730865 13.350372l-39.67865 16.687988z" fill-rule="nonzero"></path><path fill="#93c47d" fill-opacity="0.8" d="m308.6094 330.06833l39.67865 -16.687958l42.730865 13.350372l-39.67865 16.687958z" fill-rule="nonzero"></path><path stroke="#ffffff" stroke-width="1.0" stroke-linejoin="round" stroke-linecap="butt" d="m308.6094 330.06833l39.67865 -16.687958l42.730865 13.350372l-39.67865 16.687958z" fill-rule="nonzero"></path><path fill="#93c47d" fill-opacity="0.8" d="m308.6094 280.0044l39.67865 -16.687958l0 50.063934l-39.67865 16.687958z" fill-rule="nonzero"></path><path stroke="#ffffff" stroke-width="1.0" stroke-linejoin="round" stroke-linecap="butt" d="m308.6094 280.0044l39.67865 -16.687958l0 50.063934l-39.67865 16.687958z" fill-rule="nonzero"></path><path fill="#93c47d" fill-opacity="0.8" d="m348.40936 263.31375l42.60956 13.511261l0 49.90573l-42.732605 -13.550537z" fill-rule="nonzero"></path><path stroke="#ffffff" stroke-width="1.0" stroke-linejoin="round" stroke-linecap="butt" d="m348.40936 263.31375l42.60956 13.511261l0 49.90573l-42.732605 -13.550537z" fill-rule="nonzero"></path><path fill="#93c47d" fill-opacity="0.8" d="m308.73074 280.00174l42.609528 13.51123l0 49.90573l-42.732605 -13.550537z" fill-rule="nonzero"></path><path stroke="#ffffff" stroke-width="1.0" stroke-linejoin="round" stroke-linecap="butt" d="m308.73074 280.00174l42.609528 13.51123l0 49.90573l-42.732605 -13.550537z" fill-rule="nonzero"></path><path fill="#93c47d" fill-opacity="0.8" d="m351.34027 293.3548l39.67865 -16.687988l0 50.063934l-39.67865 16.687958z" fill-rule="nonzero"></path><path stroke="#ffffff" stroke-width="1.0" stroke-linejoin="round" stroke-linecap="butt" d="m351.34027 293.3548l39.67865 -16.687988l0 50.063934l-39.67865 16.687958z" fill-rule="nonzero"></path><path fill="#7faa6c" fill-opacity="0.8" d="m308.6094 280.0044l39.67865 -16.687958l42.730865 13.350372l-39.67865 16.687988z" fill-rule="nonzero"></path><path stroke="#ffffff" stroke-width="1.0" stroke-linejoin="round" stroke-linecap="butt" d="m308.6094 280.0044l39.67865 -16.687958l42.730865 13.350372l-39.67865 16.687988z" fill-rule="nonzero"></path><path fill="#93c47d" fill-opacity="0.8" d="m308.6094 267.31473l39.67865 -16.687973l42.730865 13.350388l-39.67865 16.687958z" fill-rule="nonzero"></path><path stroke="#ffffff" stroke-width="1.0" stroke-linejoin="round" stroke-linecap="butt" d="m308.6094 267.31473l39.67865 -16.687973l42.730865 13.350388l-39.67865 16.687958z" fill-rule="nonzero"></path><path fill="#93c47d" fill-opacity="0.8" d="m308.6094 217.25081l39.67865 -16.687973l0 50.06392l-39.67865 16.687973z" fill-rule="nonzero"></path><path stroke="#ffffff" stroke-width="1.0" stroke-linejoin="round" stroke-linecap="butt" d="m308.6094 217.25081l39.67865 -16.687973l0 50.06392l-39.67865 16.687973z" fill-rule="nonzero"></path><path fill="#93c47d" fill-opacity="0.8" d="m348.40936 200.56017l42.60956 13.511246l0 49.90573l-42.732605 -13.550552z" fill-rule="nonzero"></path><path stroke="#ffffff" stroke-width="1.0" stroke-linejoin="round" stroke-linecap="butt" d="m348.40936 200.56017l42.60956 13.511246l0 49.90573l-42.732605 -13.550552z" fill-rule="nonzero"></path><path fill="#93c47d" fill-opacity="0.8" d="m308.73074 217.24814l42.609528 13.511246l0 49.905716l-42.732605 -13.550537z" fill-rule="nonzero"></path><path stroke="#ffffff" stroke-width="1.0" stroke-linejoin="round" stroke-linecap="butt" d="m308.73074 217.24814l42.609528 13.511246l0 49.905716l-42.732605 -13.550537z" fill-rule="nonzero"></path><path fill="#93c47d" fill-opacity="0.8" d="m351.34027 230.60118l39.67865 -16.687973l0 50.063934l-39.67865 16.687958z" fill-rule="nonzero"></path><path stroke="#ffffff" stroke-width="1.0" stroke-linejoin="round" stroke-linecap="butt" d="m351.34027 230.60118l39.67865 -16.687973l0 50.063934l-39.67865 16.687958z" fill-rule="nonzero"></path><path fill="#7faa6c" fill-opacity="0.8" d="m308.6094 217.25081l39.67865 -16.687973l42.730865 13.350372l-39.67865 16.687973z" fill-rule="nonzero"></path><path stroke="#ffffff" stroke-width="1.0" stroke-linejoin="round" stroke-linecap="butt" d="m308.6094 217.25081l39.67865 -16.687973l42.730865 13.350372l-39.67865 16.687973z" fill-rule="nonzero"></path><path fill="#93c47d" fill-opacity="0.8" d="m308.62082 203.67152l39.67865 -16.687973l42.730865 13.350388l-39.67865 16.687973z" fill-rule="nonzero"></path><path stroke="#ffffff" stroke-width="1.0" stroke-linejoin="round" stroke-linecap="butt" d="m308.62082 203.67152l39.67865 -16.687973l42.730865 13.350388l-39.67865 16.687973z" fill-rule="nonzero"></path><path fill="#93c47d" fill-opacity="0.8" d="m308.62082 153.6076l39.67865 -16.687973l0 50.06392l-39.67865 16.687973z" fill-rule="nonzero"></path><path stroke="#ffffff" stroke-width="1.0" stroke-linejoin="round" stroke-linecap="butt" d="m308.62082 153.6076l39.67865 -16.687973l0 50.06392l-39.67865 16.687973z" fill-rule="nonzero"></path><path fill="#93c47d" fill-opacity="0.8" d="m348.4208 136.91696l42.609528 13.511246l0 49.90573l-42.732605 -13.550552z" fill-rule="nonzero"></path><path stroke="#ffffff" stroke-width="1.0" stroke-linejoin="round" stroke-linecap="butt" d="m348.4208 136.91696l42.609528 13.511246l0 49.90573l-42.732605 -13.550552z" fill-rule="nonzero"></path><path fill="#93c47d" fill-opacity="0.8" d="m308.74216 153.60493l42.609528 13.511246l0 49.90573l-42.732605 -13.550552z" fill-rule="nonzero"></path><path stroke="#ffffff" stroke-width="1.0" stroke-linejoin="round" stroke-linecap="butt" d="m308.74216 153.60493l42.609528 13.511246l0 49.90573l-42.732605 -13.550552z" fill-rule="nonzero"></path><path fill="#93c47d" fill-opacity="0.8" d="m351.35168 166.95798l39.67865 -16.687973l0 50.063934l-39.67865 16.687973z" fill-rule="nonzero"></path><path stroke="#ffffff" stroke-width="1.0" stroke-linejoin="round" stroke-linecap="butt" d="m351.35168 166.95798l39.67865 -16.687973l0 50.063934l-39.67865 16.687973z" fill-rule="nonzero"></path><path fill="#93c47d" fill-opacity="0.8" d="m308.62082 153.6076l39.67865 -16.687973l42.730865 13.350372l-39.67865 16.687973z" fill-rule="nonzero"></path><path stroke="#ffffff" stroke-width="1.0" stroke-linejoin="round" stroke-linecap="butt" d="m308.62082 153.6076l39.67865 -16.687973l42.730865 13.350372l-39.67865 16.687973z" fill-rule="nonzero"></path><path fill="#444444" fill-opacity="0.6423" d="m405.42163 84.0859l13.493378 -5.8180847l14.531342 4.6544647l-13.493378 5.8180847z" fill-rule="nonzero"></path><path stroke="#ffffff" stroke-width="1.0" stroke-linejoin="round" stroke-linecap="butt" d="m405.42163 84.0859l13.493378 -5.8180847l14.531342 4.6544647l-13.493378 5.8180847z" fill-rule="nonzero"></path><path fill="#444444" fill-opacity="0.6423" d="m405.42163 66.63165l13.493378 -5.818077l0 17.454239l-13.493378 5.8180847z" fill-rule="nonzero"></path><path stroke="#ffffff" stroke-width="1.0" stroke-linejoin="round" stroke-linecap="butt" d="m405.42163 66.63165l13.493378 -5.818077l0 17.454239l-13.493378 5.8180847z" fill-rule="nonzero"></path><path fill="#444444" fill-opacity="0.6423" d="m418.95627 60.812645l14.490082 4.7105484l0 17.399086l-14.531921 -4.724251z" fill-rule="nonzero"></path><path stroke="#ffffff" stroke-width="1.0" stroke-linejoin="round" stroke-linecap="butt" d="m418.95627 60.812645l14.490082 4.7105484l0 17.399086l-14.531921 -4.724251z" fill-rule="nonzero"></path><path fill="#000000" fill-opacity="0.6423" d="m405.4629 66.63072l14.490082 4.7105484l0 17.399094l-14.531921 -4.724251z" fill-rule="nonzero"></path><path stroke="#ffffff" stroke-width="1.0" stroke-linejoin="round" stroke-linecap="butt" d="m405.4629 66.63072l14.490082 4.7105484l0 17.399094l-14.531921 -4.724251z" fill-rule="nonzero"></path><path fill="#444444" fill-opacity="0.6423" d="m419.95297 71.28612l13.493378 -5.818077l0 17.454239l-13.493378 5.8180847z" fill-rule="nonzero"></path><path stroke="#ffffff" stroke-width="1.0" stroke-linejoin="round" stroke-linecap="butt" d="m419.95297 71.28612l13.493378 -5.818077l0 17.454239l-13.493378 5.8180847z" fill-rule="nonzero"></path><path fill="#000000" fill-opacity="0.6423" d="m405.42163 66.63165l13.493378 -5.818077l14.531342 4.6544647l-13.493378 5.818077z" fill-rule="nonzero"></path><path stroke="#ffffff" stroke-width="1.0" stroke-linejoin="round" stroke-linecap="butt" d="m405.42163 66.63165l13.493378 -5.818077l14.531342 4.6544647l-13.493378 5.818077z" fill-rule="nonzero"></path><path fill="#444444" fill-opacity="0.6423" d="m334.8545 119.904785l13.493378 -5.818077l14.531311 4.654457l-13.493378 5.8180847z" fill-rule="nonzero"></path><path stroke="#ffffff" stroke-width="1.0" stroke-linejoin="round" stroke-linecap="butt" d="m334.8545 119.904785l13.493378 -5.818077l14.531311 4.654457l-13.493378 5.8180847z" fill-rule="nonzero"></path><path fill="#444444" fill-opacity="0.6423" d="m334.8545 102.45055l13.493378 -5.8180847l0 17.454247l-13.493378 5.818077z" fill-rule="nonzero"></path><path stroke="#ffffff" stroke-width="1.0" stroke-linejoin="round" stroke-linecap="butt" d="m334.8545 102.45055l13.493378 -5.8180847l0 17.454247l-13.493378 5.818077z" fill-rule="nonzero"></path><path fill="#444444" fill-opacity="0.6423" d="m348.38913 96.63153l14.490051 4.7105484l0 17.399086l-14.531921 -4.724243z" fill-rule="nonzero"></path><path stroke="#ffffff" stroke-width="1.0" stroke-linejoin="round" stroke-linecap="butt" d="m348.38913 96.63153l14.490051 4.7105484l0 17.399086l-14.531921 -4.724243z" fill-rule="nonzero"></path><path fill="#444444" fill-opacity="0.6423" d="m334.89575 102.449615l14.490051 4.7105484l0 17.399086l-14.531921 -4.724251z" fill-rule="nonzero"></path><path stroke="#ffffff" stroke-width="1.0" stroke-linejoin="round" stroke-linecap="butt" d="m334.89575 102.449615l14.490051 4.7105484l0 17.399086l-14.531921 -4.724251z" fill-rule="nonzero"></path><path fill="#444444" fill-opacity="0.6423" d="m349.3858 107.10501l13.493378 -5.8180847l0 17.454239l-13.493378 5.8180847z" fill-rule="nonzero"></path><path stroke="#ffffff" stroke-width="1.0" stroke-linejoin="round" stroke-linecap="butt" d="m349.3858 107.10501l13.493378 -5.8180847l0 17.454239l-13.493378 5.8180847z" fill-rule="nonzero"></path><path fill="#000000" fill-opacity="0.6423" d="m334.8545 102.45055l13.493378 -5.8180847l14.531311 4.6544647l-13.493378 5.8180847z" fill-rule="nonzero"></path><path stroke="#ffffff" stroke-width="1.0" stroke-linejoin="round" stroke-linecap="butt" d="m334.8545 102.45055l13.493378 -5.8180847l14.531311 4.6544647l-13.493378 5.8180847z" fill-rule="nonzero"></path><path fill="#444444" fill-opacity="0.6423" d="m334.8577 98.022606l13.493378 -5.818077l14.531311 4.6544647l-13.493378 5.818077z" fill-rule="nonzero"></path><path stroke="#ffffff" stroke-width="1.0" stroke-linejoin="round" stroke-linecap="butt" d="m334.8577 98.022606l13.493378 -5.818077l14.531311 4.6544647l-13.493378 5.818077z" fill-rule="nonzero"></path><path fill="#444444" fill-opacity="0.6423" d="m334.8577 80.56837l13.493378 -5.8180847l0 17.454247l-13.493378 5.818077z" fill-rule="nonzero"></path><path stroke="#ffffff" stroke-width="1.0" stroke-linejoin="round" stroke-linecap="butt" d="m334.8577 80.56837l13.493378 -5.8180847l0 17.454247l-13.493378 5.818077z" fill-rule="nonzero"></path><path fill="#444444" fill-opacity="0.6423" d="m348.39233 74.74935l14.490051 4.7105484l0 17.399094l-14.531921 -4.724251z" fill-rule="nonzero"></path><path stroke="#ffffff" stroke-width="1.0" stroke-linejoin="round" stroke-linecap="butt" d="m348.39233 74.74935l14.490051 4.7105484l0 17.399094l-14.531921 -4.724251z" fill-rule="nonzero"></path><path fill="#444444" fill-opacity="0.6423" d="m334.89896 80.56744l14.490051 4.7105484l0 17.399086l-14.531921 -4.724251z" fill-rule="nonzero"></path><path stroke="#ffffff" stroke-width="1.0" stroke-linejoin="round" stroke-linecap="butt" d="m334.89896 80.56744l14.490051 4.7105484l0 17.399086l-14.531921 -4.724251z" fill-rule="nonzero"></path><path fill="#444444" fill-opacity="0.6423" d="m349.389 85.22283l13.493378 -5.8180847l0 17.454247l-13.493378 5.818077z" fill-rule="nonzero"></path><path stroke="#ffffff" stroke-width="1.0" stroke-linejoin="round" stroke-linecap="butt" d="m349.389 85.22283l13.493378 -5.8180847l0 17.454247l-13.493378 5.818077z" fill-rule="nonzero"></path><path fill="#000000" fill-opacity="0.6423" d="m334.8577 80.56837l13.493378 -5.8180847l14.531311 4.6544647l-13.493378 5.8180847z" fill-rule="nonzero"></path><path stroke="#ffffff" stroke-width="1.0" stroke-linejoin="round" stroke-linecap="butt" d="m334.8577 80.56837l13.493378 -5.8180847l14.531311 4.6544647l-13.493378 5.8180847z" fill-rule="nonzero"></path><path fill="#444444" fill-opacity="0.6423" d="m334.8577 76.14184l13.493378 -5.818077l14.531311 4.654457l-13.493378 5.8180847z" fill-rule="nonzero"></path><path stroke="#ffffff" stroke-width="1.0" stroke-linejoin="round" stroke-linecap="butt" d="m334.8577 76.14184l13.493378 -5.818077l14.531311 4.654457l-13.493378 5.8180847z" fill-rule="nonzero"></path><path fill="#444444" fill-opacity="0.6423" d="m334.8577 58.6876l13.493378 -5.818081l0 17.454243l-13.493378 5.818077z" fill-rule="nonzero"></path><path stroke="#ffffff" stroke-width="1.0" stroke-linejoin="round" stroke-linecap="butt" d="m334.8577 58.6876l13.493378 -5.818081l0 17.454243l-13.493378 5.818077z" fill-rule="nonzero"></path><path fill="#444444" fill-opacity="0.6423" d="m348.39233 52.868587l14.490051 4.7105484l0 17.399082l-14.531921 -4.724243z" fill-rule="nonzero"></path><path stroke="#ffffff" stroke-width="1.0" stroke-linejoin="round" stroke-linecap="butt" d="m348.39233 52.868587l14.490051 4.7105484l0 17.399082l-14.531921 -4.724243z" fill-rule="nonzero"></path><path fill="#444444" fill-opacity="0.6423" d="m334.89896 58.68667l14.490051 4.7105484l0 17.399086l-14.531921 -4.724251z" fill-rule="nonzero"></path><path stroke="#ffffff" stroke-width="1.0" stroke-linejoin="round" stroke-linecap="butt" d="m334.89896 58.68667l14.490051 4.7105484l0 17.399086l-14.531921 -4.724251z" fill-rule="nonzero"></path><path fill="#444444" fill-opacity="0.6423" d="m349.389 63.34206l13.493378 -5.818077l0 17.454235l-13.493378 5.8180847z" fill-rule="nonzero"></path><path stroke="#ffffff" stroke-width="1.0" stroke-linejoin="round" stroke-linecap="butt" d="m349.389 63.34206l13.493378 -5.818077l0 17.454235l-13.493378 5.8180847z" fill-rule="nonzero"></path><path fill="#444444" fill-opacity="0.6423" d="m334.8577 58.6876l13.493378 -5.818081l14.531311 4.6544647l-13.493378 5.818077z" fill-rule="nonzero"></path><path stroke="#ffffff" stroke-width="1.0" stroke-linejoin="round" stroke-linecap="butt" d="m334.8577 58.6876l13.493378 -5.818081l14.531311 4.6544647l-13.493378 5.818077z" fill-rule="nonzero"></path><path fill="#444444" fill-opacity="0.6423" d="m334.86157 39.99465l13.493378 -5.818081l14.531342 4.6544647l-13.493378 5.818077z" fill-rule="nonzero"></path><path stroke="#ffffff" stroke-width="1.0" stroke-linejoin="round" stroke-linecap="butt" d="m334.86157 39.99465l13.493378 -5.818081l14.531342 4.6544647l-13.493378 5.818077z" fill-rule="nonzero"></path><path fill="#444444" fill-opacity="0.6423" d="m334.86157 22.540411l13.493378 -5.818081l0 17.45424l-13.493378 5.818081z" fill-rule="nonzero"></path><path stroke="#ffffff" stroke-width="1.0" stroke-linejoin="round" stroke-linecap="butt" d="m334.86157 22.540411l13.493378 -5.818081l0 17.45424l-13.493378 5.818081z" fill-rule="nonzero"></path><path fill="#444444" fill-opacity="0.6423" d="m348.3962 16.7214l14.490082 4.7105484l0 17.399088l-14.531952 -4.724251z" fill-rule="nonzero"></path><path stroke="#ffffff" stroke-width="1.0" stroke-linejoin="round" stroke-linecap="butt" d="m348.3962 16.7214l14.490082 4.7105484l0 17.399088l-14.531952 -4.724251z" fill-rule="nonzero"></path><path fill="#444444" fill-opacity="0.6423" d="m334.90283 22.53948l14.490082 4.7105484l0 17.399084l-14.531921 -4.724247z" fill-rule="nonzero"></path><path stroke="#ffffff" stroke-width="1.0" stroke-linejoin="round" stroke-linecap="butt" d="m334.90283 22.53948l14.490082 4.7105484l0 17.399084l-14.531921 -4.724247z" fill-rule="nonzero"></path><path fill="#444444" fill-opacity="0.6423" d="m349.3929 27.194874l13.493378 -5.818079l0 17.45424l-13.493378 5.818077z" fill-rule="nonzero"></path><path stroke="#ffffff" stroke-width="1.0" stroke-linejoin="round" stroke-linecap="butt" d="m349.3929 27.194874l13.493378 -5.818079l0 17.45424l-13.493378 5.818077z" fill-rule="nonzero"></path><path fill="#444444" fill-opacity="0.6423" d="m334.86157 22.540411l13.493378 -5.818081l14.531342 4.6544647l-13.493378 5.818079z" fill-rule="nonzero"></path><path stroke="#ffffff" stroke-width="1.0" stroke-linejoin="round" stroke-linecap="butt" d="m334.86157 22.540411l13.493378 -5.818081l14.531342 4.6544647l-13.493378 5.818079z" fill-rule="nonzero"></path><path fill="#444444" fill-opacity="0.6423" d="m309.85498 130.64354l13.493378 -5.8180695l14.531342 4.6544647l-13.493378 5.8180695z" fill-rule="nonzero"></path><path stroke="#ffffff" stroke-width="1.0" stroke-linejoin="round" stroke-linecap="butt" d="m309.85498 130.64354l13.493378 -5.8180695l14.531342 4.6544647l-13.493378 5.8180695z" fill-rule="nonzero"></path><path fill="#444444" fill-opacity="0.6423" d="m309.85498 113.18931l13.493378 -5.8180847l0 17.454247l-13.493378 5.8180695z" fill-rule="nonzero"></path><path stroke="#ffffff" stroke-width="1.0" stroke-linejoin="round" stroke-linecap="butt" d="m309.85498 113.18931l13.493378 -5.8180847l0 17.454247l-13.493378 5.8180695z" fill-rule="nonzero"></path><path fill="#444444" fill-opacity="0.6423" d="m323.38962 107.37029l14.490082 4.7105484l0 17.399094l-14.531952 -4.724251z" fill-rule="nonzero"></path><path stroke="#ffffff" stroke-width="1.0" stroke-linejoin="round" stroke-linecap="butt" d="m323.38962 107.37029l14.490082 4.7105484l0 17.399094l-14.531952 -4.724251z" fill-rule="nonzero"></path><path fill="#444444" fill-opacity="0.6423" d="m309.89624 113.18838l14.490082 4.7105484l0 17.399078l-14.531921 -4.724243z" fill-rule="nonzero"></path><path stroke="#ffffff" stroke-width="1.0" stroke-linejoin="round" stroke-linecap="butt" d="m309.89624 113.18838l14.490082 4.7105484l0 17.399078l-14.531921 -4.724243z" fill-rule="nonzero"></path><path fill="#444444" fill-opacity="0.6423" d="m324.38632 117.84377l13.493378 -5.8180847l0 17.454247l-13.493378 5.8180695z" fill-rule="nonzero"></path><path stroke="#ffffff" stroke-width="1.0" stroke-linejoin="round" stroke-linecap="butt" d="m324.38632 117.84377l13.493378 -5.8180847l0 17.454247l-13.493378 5.8180695z" fill-rule="nonzero"></path><path fill="#444444" fill-opacity="0.6423" d="m309.85498 113.18931l13.493378 -5.8180847l14.531342 4.6544647l-13.493378 5.8180847z" fill-rule="nonzero"></path><path stroke="#ffffff" stroke-width="1.0" stroke-linejoin="round" stroke-linecap="butt" d="m309.85498 113.18931l13.493378 -5.8180847l14.531342 4.6544647l-13.493378 5.8180847z" fill-rule="nonzero"></path><path fill="#444444" fill-opacity="0.6423" d="m388.2264 99.71643l13.493378 -5.8180847l14.531311 4.6544647l-13.493378 5.818077z" fill-rule="nonzero"></path><path stroke="#ffffff" stroke-width="1.0" stroke-linejoin="round" stroke-linecap="butt" d="m388.2264 99.71643l13.493378 -5.8180847l14.531311 4.6544647l-13.493378 5.818077z" fill-rule="nonzero"></path><path fill="#444444" fill-opacity="0.6423" d="m388.2264 82.262184l13.493378 -5.818077l0 17.454239l-13.493378 5.8180847z" fill-rule="nonzero"></path><path stroke="#ffffff" stroke-width="1.0" stroke-linejoin="round" stroke-linecap="butt" d="m388.2264 82.262184l13.493378 -5.818077l0 17.454239l-13.493378 5.8180847z" fill-rule="nonzero"></path><path fill="#444444" fill-opacity="0.6423" d="m401.76105 76.44318l14.490051 4.7105484l0 17.399086l-14.531921 -4.724251z" fill-rule="nonzero"></path><path stroke="#ffffff" stroke-width="1.0" stroke-linejoin="round" stroke-linecap="butt" d="m401.76105 76.44318l14.490051 4.7105484l0 17.399086l-14.531921 -4.724251z" fill-rule="nonzero"></path><path fill="#000000" fill-opacity="0.6423" d="m388.26767 82.26125l14.490051 4.7105484l0 17.399086l-14.531921 -4.724243z" fill-rule="nonzero"></path><path stroke="#ffffff" stroke-width="1.0" stroke-linejoin="round" stroke-linecap="butt" d="m388.26767 82.26125l14.490051 4.7105484l0 17.399086l-14.531921 -4.724243z" fill-rule="nonzero"></path><path fill="#444444" fill-opacity="0.6423" d="m402.75772 86.91665l13.493378 -5.818077l0 17.454239l-13.493378 5.818077z" fill-rule="nonzero"></path><path stroke="#ffffff" stroke-width="1.0" stroke-linejoin="round" stroke-linecap="butt" d="m402.75772 86.91665l13.493378 -5.818077l0 17.454239l-13.493378 5.818077z" fill-rule="nonzero"></path><path fill="#444444" fill-opacity="0.6423" d="m388.2264 82.262184l13.493378 -5.818077l14.531311 4.6544647l-13.493378 5.818077z" fill-rule="nonzero"></path><path stroke="#ffffff" stroke-width="1.0" stroke-linejoin="round" stroke-linecap="butt" d="m388.2264 82.262184l13.493378 -5.818077l14.531311 4.6544647l-13.493378 5.818077z" fill-rule="nonzero"></path><path fill="#444444" fill-opacity="0.6423" d="m405.42163 62.205128l13.493378 -5.818081l14.531342 4.6544647l-13.493378 5.818077z" fill-rule="nonzero"></path><path stroke="#ffffff" stroke-width="1.0" stroke-linejoin="round" stroke-linecap="butt" d="m405.42163 62.205128l13.493378 -5.818081l14.531342 4.6544647l-13.493378 5.818077z" fill-rule="nonzero"></path><path fill="#444444" fill-opacity="0.6423" d="m405.42163 44.75089l13.493378 -5.818081l0 17.454239l-13.493378 5.818081z" fill-rule="nonzero"></path><path stroke="#ffffff" stroke-width="1.0" stroke-linejoin="round" stroke-linecap="butt" d="m405.42163 44.75089l13.493378 -5.818081l0 17.454239l-13.493378 5.818081z" fill-rule="nonzero"></path><path fill="#444444" fill-opacity="0.6423" d="m418.95627 38.931877l14.490082 4.7105484l0 17.399086l-14.531921 -4.724251z" fill-rule="nonzero"></path><path stroke="#ffffff" stroke-width="1.0" stroke-linejoin="round" stroke-linecap="butt" d="m418.95627 38.931877l14.490082 4.7105484l0 17.399086l-14.531921 -4.724251z" fill-rule="nonzero"></path><path fill="#000000" fill-opacity="0.6423" d="m405.4629 44.749958l14.490082 4.7105484l0 17.399082l-14.531921 -4.724247z" fill-rule="nonzero"></path><path stroke="#ffffff" stroke-width="1.0" stroke-linejoin="round" stroke-linecap="butt" d="m405.4629 44.749958l14.490082 4.7105484l0 17.399082l-14.531921 -4.724247z" fill-rule="nonzero"></path><path fill="#444444" fill-opacity="0.6423" d="m419.95297 49.405354l13.493378 -5.818081l0 17.454239l-13.493378 5.818077z" fill-rule="nonzero"></path><path stroke="#ffffff" stroke-width="1.0" stroke-linejoin="round" stroke-linecap="butt" d="m419.95297 49.405354l13.493378 -5.818081l0 17.454239l-13.493378 5.818077z" fill-rule="nonzero"></path><path fill="#444444" fill-opacity="0.6423" d="m405.42163 44.75089l13.493378 -5.818081l14.531342 4.6544647l-13.493378 5.818081z" fill-rule="nonzero"></path><path stroke="#ffffff" stroke-width="1.0" stroke-linejoin="round" stroke-linecap="butt" d="m405.42163 44.75089l13.493378 -5.818081l14.531342 4.6544647l-13.493378 5.818081z" fill-rule="nonzero"></path><path fill="#444444" fill-opacity="0.6423" d="m388.22653 55.635567l13.493378 -5.818081l14.531311 4.6544647l-13.493378 5.818077z" fill-rule="nonzero"></path><path stroke="#ffffff" stroke-width="1.0" stroke-linejoin="round" stroke-linecap="butt" d="m388.22653 55.635567l13.493378 -5.818081l14.531311 4.6544647l-13.493378 5.818077z" fill-rule="nonzero"></path><path fill="#444444" fill-opacity="0.6423" d="m388.22653 38.181324l13.493378 -5.818077l0 17.454239l-13.493378 5.818081z" fill-rule="nonzero"></path><path stroke="#ffffff" stroke-width="1.0" stroke-linejoin="round" stroke-linecap="butt" d="m388.22653 38.181324l13.493378 -5.818077l0 17.454239l-13.493378 5.818081z" fill-rule="nonzero"></path><path fill="#444444" fill-opacity="0.6423" d="m401.76117 32.362316l14.490051 4.7105446l0 17.39909l-14.531921 -4.724251z" fill-rule="nonzero"></path><path stroke="#ffffff" stroke-width="1.0" stroke-linejoin="round" stroke-linecap="butt" d="m401.76117 32.362316l14.490051 4.7105446l0 17.39909l-14.531921 -4.724251z" fill-rule="nonzero"></path><path fill="#444444" fill-opacity="0.6423" d="m388.2678 38.180393l14.490051 4.7105484l0 17.399086l-14.531921 -4.724247z" fill-rule="nonzero"></path><path stroke="#ffffff" stroke-width="1.0" stroke-linejoin="round" stroke-linecap="butt" d="m388.2678 38.180393l14.490051 4.7105484l0 17.399086l-14.531921 -4.724247z" fill-rule="nonzero"></path><path fill="#444444" fill-opacity="0.6423" d="m402.75784 42.83579l13.493378 -5.818081l0 17.454243l-13.493378 5.818077z" fill-rule="nonzero"></path><path stroke="#ffffff" stroke-width="1.0" stroke-linejoin="round" stroke-linecap="butt" d="m402.75784 42.83579l13.493378 -5.818081l0 17.454243l-13.493378 5.818077z" fill-rule="nonzero"></path><path fill="#444444" fill-opacity="0.6423" d="m388.22653 38.181324l13.493378 -5.818077l14.531311 4.654461l-13.493378 5.818081z" fill-rule="nonzero"></path><path stroke="#ffffff" stroke-width="1.0" stroke-linejoin="round" stroke-linecap="butt" d="m388.22653 38.181324l13.493378 -5.818077l14.531311 4.654461l-13.493378 5.818081z" fill-rule="nonzero"></path><path fill="#444444" fill-opacity="0.6423" d="m371.03757 96.59073l13.493378 -5.818077l14.531342 4.6544647l-13.493378 5.818077z" fill-rule="nonzero"></path><path stroke="#ffffff" stroke-width="1.0" stroke-linejoin="round" stroke-linecap="butt" d="m371.03757 96.59073l13.493378 -5.818077l14.531342 4.6544647l-13.493378 5.818077z" fill-rule="nonzero"></path><path fill="#444444" fill-opacity="0.6423" d="m371.03757 79.13649l13.493378 -5.818077l0 17.454239l-13.493378 5.818077z" fill-rule="nonzero"></path><path stroke="#ffffff" stroke-width="1.0" stroke-linejoin="round" stroke-linecap="butt" d="m371.03757 79.13649l13.493378 -5.818077l0 17.454239l-13.493378 5.818077z" fill-rule="nonzero"></path><path fill="#444444" fill-opacity="0.6423" d="m384.5722 73.31748l14.490082 4.7105484l0 17.399086l-14.531921 -4.724251z" fill-rule="nonzero"></path><path stroke="#ffffff" stroke-width="1.0" stroke-linejoin="round" stroke-linecap="butt" d="m384.5722 73.31748l14.490082 4.7105484l0 17.399086l-14.531921 -4.724251z" fill-rule="nonzero"></path><path fill="#444444" fill-opacity="0.6423" d="m371.07883 79.13556l14.490082 4.7105484l0 17.399086l-14.531921 -4.724251z" fill-rule="nonzero"></path><path stroke="#ffffff" stroke-width="1.0" stroke-linejoin="round" stroke-linecap="butt" d="m371.07883 79.13556l14.490082 4.7105484l0 17.399086l-14.531921 -4.724251z" fill-rule="nonzero"></path><path fill="#444444" fill-opacity="0.6423" d="m385.5689 83.790955l13.493378 -5.818077l0 17.454239l-13.493378 5.818077z" fill-rule="nonzero"></path><path stroke="#ffffff" stroke-width="1.0" stroke-linejoin="round" stroke-linecap="butt" d="m385.5689 83.790955l13.493378 -5.818077l0 17.454239l-13.493378 5.818077z" fill-rule="nonzero"></path><path fill="#000000" fill-opacity="0.6423" d="m371.03757 79.13649l13.493378 -5.818077l14.531342 4.6544647l-13.493378 5.818077z" fill-rule="nonzero"></path><path stroke="#ffffff" stroke-width="1.0" stroke-linejoin="round" stroke-linecap="butt" d="m371.03757 79.13649l13.493378 -5.818077l14.531342 4.6544647l-13.493378 5.818077z" fill-rule="nonzero"></path><path fill="#444444" fill-opacity="0.6423" d="m371.03757 74.70996l13.493378 -5.818077l14.531342 4.6544647l-13.493378 5.818077z" fill-rule="nonzero"></path><path stroke="#ffffff" stroke-width="1.0" stroke-linejoin="round" stroke-linecap="butt" d="m371.03757 74.70996l13.493378 -5.818077l14.531342 4.6544647l-13.493378 5.818077z" fill-rule="nonzero"></path><path fill="#444444" fill-opacity="0.6423" d="m371.03757 57.255722l13.493378 -5.818081l0 17.454243l-13.493378 5.818077z" fill-rule="nonzero"></path><path stroke="#ffffff" stroke-width="1.0" stroke-linejoin="round" stroke-linecap="butt" d="m371.03757 57.255722l13.493378 -5.818081l0 17.454243l-13.493378 5.818077z" fill-rule="nonzero"></path><path fill="#444444" fill-opacity="0.6423" d="m384.5722 51.43671l14.490082 4.7105484l0 17.39909l-14.531921 -4.724251z" fill-rule="nonzero"></path><path stroke="#ffffff" stroke-width="1.0" stroke-linejoin="round" stroke-linecap="butt" d="m384.5722 51.43671l14.490082 4.7105484l0 17.39909l-14.531921 -4.724251z" fill-rule="nonzero"></path><path fill="#444444" fill-opacity="0.6423" d="m371.07883 57.25479l14.490082 4.7105484l0 17.399086l-14.531921 -4.724251z" fill-rule="nonzero"></path><path stroke="#ffffff" stroke-width="1.0" stroke-linejoin="round" stroke-linecap="butt" d="m371.07883 57.25479l14.490082 4.7105484l0 17.399086l-14.531921 -4.724251z" fill-rule="nonzero"></path><path fill="#444444" fill-opacity="0.6423" d="m385.5689 61.910187l13.493378 -5.818081l0 17.454243l-13.493378 5.818077z" fill-rule="nonzero"></path><path stroke="#ffffff" stroke-width="1.0" stroke-linejoin="round" stroke-linecap="butt" d="m385.5689 61.910187l13.493378 -5.818081l0 17.454243l-13.493378 5.818077z" fill-rule="nonzero"></path><path fill="#444444" fill-opacity="0.6423" d="m371.03757 57.255722l13.493378 -5.818081l14.531342 4.6544647l-13.493378 5.818081z" fill-rule="nonzero"></path><path stroke="#ffffff" stroke-width="1.0" stroke-linejoin="round" stroke-linecap="butt" d="m371.03757 57.255722l13.493378 -5.818081l14.531342 4.6544647l-13.493378 5.818081z" fill-rule="nonzero"></path></g></svg>

