<svg viewBox="0 0 960 720" fill="none" stroke-linecap="square" stroke-miterlimit="10" xmlns="http://www.w3.org/2000/svg"><clipPath id="a"><path d="M0 0h960v720H0V0z"/></clipPath><g clip-path="url(#a)"><path d="M0 0h960v720H0z"/><path fill="#fff" fill-opacity=".589" d="M553.568 355.22l60.366-23.218 65.01 18.574-60.366 23.218z"/><path stroke="#000" stroke-linejoin="round" stroke-linecap="butt" d="M553.568 355.22l60.366-23.218 65.01 18.574-60.366 23.218z"/><path fill="#fff" fill-opacity=".589" d="M553.568 285.567l60.366-23.217v69.652l-60.366 23.218z"/><path stroke="#000" stroke-linejoin="round" stroke-linecap="butt" d="M553.568 285.567l60.366-23.217v69.652l-60.366 23.218z"/><path fill="#fff" fill-opacity=".589" d="M614.12 262.346l64.823 18.798v69.432l-65.012-18.852z"/><path stroke="#000" stroke-linejoin="round" stroke-linecap="butt" d="M614.12 262.346l64.823 18.798v69.432l-65.012-18.852z"/><path fill="#fff" fill-opacity=".589" d="M553.753 285.564l64.825 18.797v69.44l-65.012-18.85z"/><path stroke="#000" stroke-linejoin="round" stroke-linecap="butt" d="M553.753 285.564l64.825 18.797v69.44l-65.012-18.85z"/><path fill="#fff" fill-opacity=".589" d="M618.578 304.14l60.365-23.216v69.652l-60.365 23.218z"/><path stroke="#000" stroke-linejoin="round" stroke-linecap="butt" d="M618.578 304.14l60.365-23.216v69.652l-60.365 23.218z"/><path fill="#fff" fill-opacity=".589" d="M553.568 285.567l60.366-23.217 65.01 18.574-60.366 23.217z"/><path stroke="#000" stroke-linejoin="round" stroke-linecap="butt" d="M553.568 285.567l60.366-23.217 65.01 18.574-60.366 23.217z"/><path fill="#fff" fill-opacity=".589" d="M553.568 276.052l60.366-23.217 65.01 18.574-60.366 23.21z"/><path stroke="#000" stroke-linejoin="round" stroke-linecap="butt" d="M553.568 276.052l60.366-23.217 65.01 18.574-60.366 23.21z"/><path fill="#fff" fill-opacity=".589" d="M553.568 206.4l60.366-23.218v69.653l-60.366 23.217z"/><path stroke="#000" stroke-linejoin="round" stroke-linecap="butt" d="M553.568 206.4l60.366-23.218v69.653l-60.366 23.217z"/><path fill="#fff" fill-opacity=".589" d="M614.12 183.18l64.823 18.796v69.433l-65.013-18.86z"/><path stroke="#000" stroke-linejoin="round" stroke-linecap="butt" d="M614.12 183.18l64.823 18.796v69.433l-65.013-18.86z"/><path fill="#fff" fill-opacity=".589" d="M553.753 206.396l64.825 18.798v69.432l-65.012-18.852z"/><path stroke="#000" stroke-linejoin="round" stroke-linecap="butt" d="M553.753 206.396l64.825 18.798v69.432l-65.012-18.852z"/><path fill="#fff" fill-opacity=".589" d="M618.578 224.974l60.365-23.218v69.653l-60.365 23.21z"/><path stroke="#000" stroke-linejoin="round" stroke-linecap="butt" d="M618.578 224.974l60.365-23.218v69.653l-60.365 23.21z"/><path fill="#fff" fill-opacity=".589" d="M553.568 206.4l60.366-23.218 65.01 18.574-60.366 23.218z"/><path stroke="#000" stroke-linejoin="round" stroke-linecap="butt" d="M553.568 206.4l60.366-23.218 65.01 18.574-60.366 23.218z"/><path fill="#fff" fill-opacity=".589" d="M553.568 196.556l60.366-23.217 65.01 18.57-60.366 23.21z"/><path stroke="#000" stroke-linejoin="round" stroke-linecap="butt" d="M553.568 196.556l60.366-23.217 65.01 18.57-60.366 23.21z"/><path fill="#fff" fill-opacity=".589" d="M553.568 126.904l60.366-23.218v69.653l-60.366 23.21z"/><path stroke="#000" stroke-linejoin="round" stroke-linecap="butt" d="M553.568 126.904l60.366-23.218v69.653l-60.366 23.21z"/><path fill="#fff" fill-opacity=".589" d="M614.12 103.683l64.823 18.797v69.433L613.93 173.06z"/><path stroke="#000" stroke-linejoin="round" stroke-linecap="butt" d="M614.12 103.683l64.823 18.797v69.433L613.93 173.06z"/><path fill="#fff" fill-opacity=".589" d="M553.753 126.9l64.825 18.798v69.432l-65.012-18.852z"/><path stroke="#000" stroke-linejoin="round" stroke-linecap="butt" d="M553.753 126.9l64.825 18.798v69.432l-65.012-18.852z"/><path fill="#fff" fill-opacity=".589" d="M618.578 145.478l60.365-23.218v69.653l-60.365 23.217z"/><path stroke="#000" stroke-linejoin="round" stroke-linecap="butt" d="M618.578 145.478l60.365-23.218v69.653l-60.365 23.217z"/><path fill="#fff" fill-opacity=".589" d="M553.568 126.904l60.366-23.218 65.01 18.574-60.366 23.218z"/><path stroke="#000" stroke-linejoin="round" stroke-linecap="butt" d="M553.568 126.904l60.366-23.218 65.01 18.574-60.366 23.218z"/><path fill="#fff" fill-opacity=".589" d="M553.568 117.39l60.366-23.22 65.01 18.575-60.366 23.218z"/><path stroke="#000" stroke-linejoin="round" stroke-linecap="butt" d="M553.568 117.39l60.366-23.22 65.01 18.575-60.366 23.218z"/><path fill="#fff" fill-opacity=".589" d="M553.568 47.736l60.366-23.217v69.65l-60.366 23.22z"/><path stroke="#000" stroke-linejoin="round" stroke-linecap="butt" d="M553.568 47.736l60.366-23.217v69.65l-60.366 23.22z"/><path fill="#fff" fill-opacity=".589" d="M614.12 24.515l64.823 18.798v69.432L613.93 93.893z"/><path stroke="#000" stroke-linejoin="round" stroke-linecap="butt" d="M614.12 24.515l64.823 18.798v69.432L613.93 93.893z"/><path fill="#fff" fill-opacity=".589" d="M553.753 47.733l64.825 18.797v69.433l-65.012-18.853z"/><path stroke="#000" stroke-linejoin="round" stroke-linecap="butt" d="M553.753 47.733l64.825 18.797v69.433l-65.012-18.853z"/><path fill="#fff" fill-opacity=".589" d="M618.578 66.31l60.365-23.217v69.652l-60.365 23.218z"/><path stroke="#000" stroke-linejoin="round" stroke-linecap="butt" d="M618.578 66.31l60.365-23.217v69.652l-60.365 23.218z"/><path fill="#fff" fill-opacity=".589" d="M553.568 47.736l60.366-23.217 65.01 18.57-60.366 23.21z"/><path stroke="#000" stroke-linejoin="round" stroke-linecap="butt" d="M553.568 47.736l60.366-23.217 65.01 18.57-60.366 23.21z"/><path fill="#fff" fill-opacity=".589" d="M624.207 400.098l147.982-56.916 159.36 45.532-147.98 56.916z"/><path stroke="#000" stroke-linejoin="round" stroke-linecap="butt" d="M624.207 400.098l147.982-56.916 159.36 45.532-147.98 56.916z"/><path fill="#fff" fill-opacity=".589" d="M624.207 229.35l147.982-56.916v170.748L624.2 400.098z"/><path stroke="#000" stroke-linejoin="round" stroke-linecap="butt" d="M624.207 229.35l147.982-56.916v170.748L624.2 400.098z"/><path fill="#fff" fill-opacity=".589" d="M772.64 172.424l158.914 46.082v170.208L772.182 342.5z"/><path stroke="#000" stroke-linejoin="round" stroke-linecap="butt" d="M772.64 172.424l158.914 46.082v170.208L772.182 342.5z"/><path fill="#fff" fill-opacity=".589" d="M624.66 229.34l158.912 46.082V445.63l-159.37-46.215z"/><path stroke="#000" stroke-linejoin="round" stroke-linecap="butt" d="M624.66 229.34l158.912 46.082V445.63l-159.37-46.215z"/><path fill="#fff" fill-opacity=".589" d="M783.572 274.882l147.982-56.916v170.748L783.572 445.63z"/><path stroke="#000" stroke-linejoin="round" stroke-linecap="butt" d="M783.572 274.882l147.982-56.916v170.748L783.572 445.63z"/><path fill="#fff" fill-opacity=".589" d="M624.207 229.35l147.982-56.916 159.36 45.532-147.98 56.916z"/><path stroke="#000" stroke-linejoin="round" stroke-linecap="butt" d="M624.207 229.35l147.982-56.916 159.36 45.532-147.98 56.916z"/><path fill="#fff" fill-opacity=".808" d="M357.655 460.456l158.11-60.812 170.275 48.65-158.11 60.812z"/><path stroke="#000" stroke-linejoin="round" stroke-linecap="butt" d="M357.655 460.456l158.11-60.812 170.275 48.65-158.11 60.812z"/><path fill="#fff" fill-opacity=".808" d="M357.655 278.02l158.11-60.812v182.436l-158.11 60.812z"/><path stroke="#000" stroke-linejoin="round" stroke-linecap="butt" d="M357.655 278.02l158.11-60.812v182.436l-158.11 60.812z"/><path fill="#fff" fill-opacity=".808" d="M516.25 217.2l169.79 49.234v181.86l-170.28-49.38z"/><path stroke="#000" stroke-linejoin="round" stroke-linecap="butt" d="M516.25 217.2l169.79 49.234v181.86l-170.28-49.38z"/><path fill="#fff" fill-opacity=".808" d="M358.14 278.01l169.79 49.236v181.86l-170.282-49.38z"/><path stroke="#000" stroke-linejoin="round" stroke-linecap="butt" d="M358.14 278.01l169.79 49.236v181.86l-170.282-49.38z"/><path fill="#fff" fill-opacity=".808" d="M527.93 326.67l158.11-60.812v182.436l-158.11 60.812z"/><path stroke="#000" stroke-linejoin="round" stroke-linecap="butt" d="M527.93 326.67l158.11-60.812v182.436l-158.11 60.812z"/><path fill="#fff" fill-opacity=".808" d="M357.655 278.02l158.11-60.812 170.275 48.65-158.11 60.812z"/><path stroke="#000" stroke-linejoin="round" stroke-linecap="butt" d="M357.655 278.02l158.11-60.812 170.275 48.65-158.11 60.812z"/><path fill="#fff" fill-opacity=".808" d="M439.918 289.346l81.443-31.324 87.71 25.06-81.44 31.323z"/><path stroke="#000" stroke-linejoin="round" stroke-linecap="butt" d="M439.918 289.346l81.443-31.324 87.71 25.06-81.44 31.323z"/><path fill="#fff" fill-opacity=".808" d="M439.918 195.374l81.443-31.324v93.972l-81.44 31.324z"/><path stroke="#000" stroke-linejoin="round" stroke-linecap="butt" d="M439.918 195.374l81.443-31.324v93.972l-81.44 31.324z"/><path fill="#fff" fill-opacity=".808" d="M521.61 164.045l87.458 25.36v93.676l-87.71-25.43z"/><path stroke="#000" stroke-linejoin="round" stroke-linecap="butt" d="M521.61 164.045l87.458 25.36v93.676l-87.71-25.43z"/><path fill="#fff" fill-opacity=".808" d="M440.167 195.37l87.458 25.36v93.675l-87.71-25.435z"/><path stroke="#000" stroke-linejoin="round" stroke-linecap="butt" d="M440.167 195.37l87.458 25.36v93.675l-87.71-25.435z"/><path fill="#fff" fill-opacity=".808" d="M527.625 220.433l81.443-31.324v93.97l-81.443 31.32z"/><path stroke="#000" stroke-linejoin="round" stroke-linecap="butt" d="M527.625 220.433l81.443-31.324v93.97l-81.443 31.32z"/><path fill="#fff" fill-opacity=".808" d="M439.918 195.374l81.443-31.324 87.71 25.06-81.44 31.323z"/><path stroke="#000" stroke-linejoin="round" stroke-linecap="butt" d="M439.918 195.374l81.443-31.324 87.71 25.06-81.44 31.323z"/><path fill="#fff" fill-opacity=".735" d="M48.633 543.24l221.832-85.31 238.896 68.25-221.83 85.31z"/><path stroke="#000" stroke-linejoin="round" stroke-linecap="butt" d="M48.633 543.24l221.832-85.31 238.896 68.25-221.83 85.31z"/><path fill="#fff" fill-opacity=".735" d="M48.633 287.305l221.832-85.312V457.93L48.633 543.24z"/><path stroke="#000" stroke-linejoin="round" stroke-linecap="butt" d="M48.633 287.305l221.832-85.312V457.93L48.633 543.24z"/><path fill="#fff" fill-opacity=".735" d="M271.143 201.98l238.218 69.072V526.18l-238.9-69.274z"/><path stroke="#000" stroke-linejoin="round" stroke-linecap="butt" d="M271.143 201.98l238.218 69.072V526.18l-238.9-69.274z"/><path fill="#fff" fill-opacity=".735" d="M49.31 287.292l238.22 69.072V611.49L48.622 542.22z"/><path stroke="#000" stroke-linejoin="round" stroke-linecap="butt" d="M49.31 287.292l238.22 69.072V611.49L48.622 542.22z"/><path fill="#fff" fill-opacity=".735" d="M287.53 355.555l221.83-85.312V526.18l-221.83 85.31z"/><path stroke="#000" stroke-linejoin="round" stroke-linecap="butt" d="M287.53 355.555l221.83-85.312V526.18l-221.83 85.31z"/><path fill="#fff" fill-opacity=".735" d="M48.633 287.305l221.832-85.312 238.896 68.25-221.83 85.312z"/><path stroke="#000" stroke-linejoin="round" stroke-linecap="butt" d="M48.633 287.305l221.832-85.312 238.896 68.25-221.83 85.312z"/><path fill="#fff" fill-opacity=".808" d="M183.592 249.99l81.442-31.325 87.708 25.06-81.443 31.323z"/><path stroke="#000" stroke-linejoin="round" stroke-linecap="butt" d="M183.592 249.99l81.442-31.325 87.708 25.06-81.443 31.323z"/><path fill="#fff" fill-opacity=".808" d="M183.592 156.017l81.442-31.324v93.972l-81.442 31.324z"/><path stroke="#000" stroke-linejoin="round" stroke-linecap="butt" d="M183.592 156.017l81.442-31.324v93.972l-81.442 31.324z"/><path fill="#fff" fill-opacity=".808" d="M265.283 124.688l87.46 25.36v93.676L265.03 218.29z"/><path stroke="#000" stroke-linejoin="round" stroke-linecap="butt" d="M265.283 124.688l87.46 25.36v93.676L265.03 218.29z"/><path fill="#fff" fill-opacity=".808" d="M183.84 156.012l87.46 25.36v93.676l-87.712-25.435z"/><path stroke="#000" stroke-linejoin="round" stroke-linecap="butt" d="M183.84 156.012l87.46 25.36v93.676l-87.712-25.435z"/><path fill="#fff" fill-opacity=".808" d="M271.3 181.076l81.442-31.324v93.972L271.3 275.048z"/><path stroke="#000" stroke-linejoin="round" stroke-linecap="butt" d="M271.3 181.076l81.442-31.324v93.972L271.3 275.048z"/><path fill="#fff" fill-opacity=".808" d="M183.592 156.017l81.442-31.324 87.708 25.06-81.443 31.323z"/><path stroke="#000" stroke-linejoin="round" stroke-linecap="butt" d="M183.592 156.017l81.442-31.324 87.708 25.06-81.443 31.323z"/><path fill="#fff" fill-opacity=".808" d="M482.638 190.084l40.27-15.488 43.365 12.39-40.27 15.488z"/><path stroke="#000" stroke-linejoin="round" stroke-linecap="butt" d="M482.638 190.084l40.27-15.488 43.365 12.39-40.27 15.488z"/><path fill="#fff" fill-opacity=".808" d="M482.638 143.62l40.27-15.488v46.464l-40.27 15.488z"/><path stroke="#000" stroke-linejoin="round" stroke-linecap="butt" d="M482.638 143.62l40.27-15.488v46.464l-40.27 15.488z"/><path fill="#fff" fill-opacity=".808" d="M523.03 128.13l43.243 12.54v46.316l-43.368-12.576z"/><path stroke="#000" stroke-linejoin="round" stroke-linecap="butt" d="M523.03 128.13l43.243 12.54v46.316l-43.368-12.576z"/><path fill="#fff" fill-opacity=".808" d="M482.76 143.618l43.244 12.54v46.316l-43.368-12.576z"/><path stroke="#000" stroke-linejoin="round" stroke-linecap="butt" d="M482.76 143.618l43.244 12.54v46.316l-43.368-12.576z"/><path fill="#fff" fill-opacity=".808" d="M526.004 156.01l40.27-15.488v46.464l-40.27 15.488z"/><path stroke="#000" stroke-linejoin="round" stroke-linecap="butt" d="M526.004 156.01l40.27-15.488v46.464l-40.27 15.488z"/><path fill="#fff" fill-opacity=".808" d="M482.638 143.62l40.27-15.488 43.365 12.39-40.27 15.488z"/><path stroke="#000" stroke-linejoin="round" stroke-linecap="butt" d="M482.638 143.62l40.27-15.488 43.365 12.39-40.27 15.488z"/><path fill="#f1c232" fill-opacity=".8" d="M18.323 627.394l53.13-22.973 57.214 18.38-53.13 22.98z"/><path stroke="#fff" stroke-linejoin="round" stroke-linecap="butt" d="M18.323 627.394l53.13-22.973 57.214 18.38-53.13 22.98z"/><path fill="#f1c232" fill-opacity=".8" d="M18.323 558.475l53.13-22.972v68.918l-53.13 22.98z"/><path stroke="#fff" stroke-linejoin="round" stroke-linecap="butt" d="M18.323 558.475l53.13-22.972v68.918l-53.13 22.98z"/><path fill="#f1c232" fill-opacity=".8" d="M71.614 535.5l57.053 18.6v68.7L71.45 604.146z"/><path stroke="#fff" stroke-linejoin="round" stroke-linecap="butt" d="M71.614 535.5l57.053 18.6v68.7L71.45 604.146z"/><path fill="#f1c232" fill-opacity=".8" d="M18.486 558.472l57.052 18.6v68.7L18.32 627.12z"/><path stroke="#fff" stroke-linejoin="round" stroke-linecap="butt" d="M18.486 558.472l57.052 18.6v68.7L18.32 627.12z"/><path fill="#d1a82b" fill-opacity=".8" d="M75.538 576.854l53.13-22.973v68.92l-53.13 22.98z"/><path stroke="#fff" stroke-linejoin="round" stroke-linecap="butt" d="M75.538 576.854l53.13-22.973v68.92l-53.13 22.98z"/><path fill="#d1a82b" fill-opacity=".8" d="M18.323 558.475l53.13-22.972 57.214 18.378-53.13 22.98z"/><path stroke="#fff" stroke-linejoin="round" stroke-linecap="butt" d="M18.323 558.475l53.13-22.972 57.214 18.378-53.13 22.98z"/><path fill="#f1c232" fill-opacity=".8" d="M90.676 652.594l53.13-22.973L201.02 648l-53.128 22.973z"/><path stroke="#fff" stroke-linejoin="round" stroke-linecap="butt" d="M90.676 652.594l53.13-22.973L201.02 648l-53.128 22.973z"/><path fill="#f1c232" fill-opacity=".8" d="M90.676 583.676l53.13-22.973v68.918l-53.13 22.98z"/><path stroke="#fff" stroke-linejoin="round" stroke-linecap="butt" d="M90.676 583.676l53.13-22.973v68.918l-53.13 22.98z"/><path fill="#f1c232" fill-opacity=".8" d="M143.967 560.7l57.053 18.6V648l-57.218-18.654z"/><path stroke="#fff" stroke-linejoin="round" stroke-linecap="butt" d="M143.967 560.7l57.053 18.6V648l-57.218-18.654z"/><path fill="#f1c232" fill-opacity=".8" d="M90.84 583.672l57.052 18.6v68.7L90.674 652.32z"/><path stroke="#fff" stroke-linejoin="round" stroke-linecap="butt" d="M90.84 583.672l57.052 18.6v68.7L90.674 652.32z"/><path fill="#d1a82b" fill-opacity=".8" d="M147.892 602.054l53.128-22.973V648l-53.128 22.973z"/><path stroke="#fff" stroke-linejoin="round" stroke-linecap="butt" d="M147.892 602.054l53.128-22.973V648l-53.128 22.973z"/><path fill="#f1c232" fill-opacity=".8" d="M90.676 583.676l53.13-22.973 57.214 18.378-53.128 22.98z"/><path stroke="#fff" stroke-linejoin="round" stroke-linecap="butt" d="M90.676 583.676l53.13-22.973 57.214 18.378-53.128 22.98z"/><path fill="#f1c232" fill-opacity=".8" d="M163.224 677.79l53.13-22.972 57.214 18.38-53.13 22.972z"/><path stroke="#fff" stroke-linejoin="round" stroke-linecap="butt" d="M163.224 677.79l53.13-22.972 57.214 18.38-53.13 22.972z"/><path fill="#f1c232" fill-opacity=".8" d="M163.224 608.872l53.13-22.973v68.91l-53.13 22.97z"/><path stroke="#fff" stroke-linejoin="round" stroke-linecap="butt" d="M163.224 608.872l53.13-22.973v68.91l-53.13 22.97z"/><path fill="#f1c232" fill-opacity=".8" d="M216.515 585.896l57.053 18.6v68.7l-57.218-18.653z"/><path stroke="#fff" stroke-linejoin="round" stroke-linecap="butt" d="M216.515 585.896l57.053 18.6v68.7l-57.218-18.653z"/><path fill="#f1c232" fill-opacity=".8" d="M163.387 608.87l57.052 18.598v68.702l-57.22-18.654z"/><path stroke="#fff" stroke-linejoin="round" stroke-linecap="butt" d="M163.387 608.87l57.052 18.598v68.702l-57.22-18.654z"/><path fill="#f1c232" fill-opacity=".8" d="M220.44 627.25l53.128-22.972v68.92l-53.13 22.972z"/><path stroke="#fff" stroke-linejoin="round" stroke-linecap="butt" d="M220.44 627.25l53.128-22.972v68.92l-53.13 22.972z"/><path fill="#f1c232" fill-opacity=".8" d="M163.224 608.872l53.13-22.973 57.214 18.37-53.13 22.97z"/><path stroke="#fff" stroke-linejoin="round" stroke-linecap="butt" d="M163.224 608.872l53.13-22.973 57.214 18.37-53.13 22.97z"/><path fill="#f1c232" fill-opacity=".8" d="M18.324 542.317l53.13-22.973 57.214 18.38-53.13 22.972z"/><path stroke="#fff" stroke-linejoin="round" stroke-linecap="butt" d="M18.324 542.317l53.13-22.973 57.214 18.38-53.13 22.972z"/><path fill="#f1c232" fill-opacity=".8" d="M18.324 473.4l53.13-22.974v68.918l-53.13 22.973z"/><path stroke="#fff" stroke-linejoin="round" stroke-linecap="butt" d="M18.324 473.4l53.13-22.974v68.918l-53.13 22.973z"/><path fill="#f1c232" fill-opacity=".8" d="M71.615 450.422l57.053 18.6v68.7L71.45 519.07z"/><path stroke="#fff" stroke-linejoin="round" stroke-linecap="butt" d="M71.615 450.422l57.053 18.6v68.7L71.45 519.07z"/><path fill="#f1c232" fill-opacity=".8" d="M18.487 473.395l57.052 18.6v68.7l-57.22-18.652z"/><path stroke="#fff" stroke-linejoin="round" stroke-linecap="butt" d="M18.487 473.395l57.052 18.6v68.7l-57.22-18.652z"/><path fill="#f1c232" fill-opacity=".8" d="M75.54 491.777l53.128-22.973v68.92l-53.13 22.972z"/><path stroke="#fff" stroke-linejoin="round" stroke-linecap="butt" d="M75.54 491.777l53.128-22.973v68.92l-53.13 22.972z"/><path fill="#d1a82b" fill-opacity=".8" d="M18.324 473.4l53.13-22.974 57.214 18.378-53.13 22.973z"/><path stroke="#fff" stroke-linejoin="round" stroke-linecap="butt" d="M18.324 473.4l53.13-22.974 57.214 18.378-53.13 22.973z"/><path fill="#f1c232" fill-opacity=".8" d="M18.324 457.29l53.13-22.972 57.214 18.38-53.13 22.972z"/><path stroke="#fff" stroke-linejoin="round" stroke-linecap="butt" d="M18.324 457.29l53.13-22.972 57.214 18.38-53.13 22.972z"/><path fill="#f1c232" fill-opacity=".8" d="M18.324 388.372l53.13-22.973v68.91l-53.13 22.97z"/><path stroke="#fff" stroke-linejoin="round" stroke-linecap="butt" d="M18.324 388.372l53.13-22.973v68.91l-53.13 22.97z"/><path fill="#f1c232" fill-opacity=".8" d="M71.615 365.396l57.053 18.6v68.7L71.45 434.044z"/><path stroke="#fff" stroke-linejoin="round" stroke-linecap="butt" d="M71.615 365.396l57.053 18.6v68.7L71.45 434.044z"/><path fill="#f1c232" fill-opacity=".8" d="M18.487 388.37l57.052 18.6v68.7l-57.22-18.654z"/><path stroke="#fff" stroke-linejoin="round" stroke-linecap="butt" d="M18.487 388.37l57.052 18.6v68.7l-57.22-18.654z"/><path fill="#d1a82b" fill-opacity=".8" d="M75.54 406.75l53.128-22.972v68.92l-53.13 22.972z"/><path stroke="#fff" stroke-linejoin="round" stroke-linecap="butt" d="M75.54 406.75l53.128-22.972v68.92l-53.13 22.972z"/><path fill="#d1a82b" fill-opacity=".8" d="M18.324 388.372l53.13-22.973 57.214 18.37-53.13 22.97z"/><path stroke="#fff" stroke-linejoin="round" stroke-linecap="butt" d="M18.324 388.372l53.13-22.973 57.214 18.37-53.13 22.97z"/><path fill="#f1c232" fill-opacity=".8" d="M18.324 372.217l53.13-22.973 57.214 18.38-53.13 22.972z"/><path stroke="#fff" stroke-linejoin="round" stroke-linecap="butt" d="M18.324 372.217l53.13-22.973 57.214 18.38-53.13 22.972z"/><path fill="#f1c232" fill-opacity=".8" d="M18.324 303.3l53.13-22.974v68.918l-53.13 22.973z"/><path stroke="#fff" stroke-linejoin="round" stroke-linecap="butt" d="M18.324 303.3l53.13-22.974v68.918l-53.13 22.973z"/><path fill="#f1c232" fill-opacity=".8" d="M71.615 280.322l57.053 18.6v68.7L71.45 348.97z"/><path stroke="#fff" stroke-linejoin="round" stroke-linecap="butt" d="M71.615 280.322l57.053 18.6v68.7L71.45 348.97z"/><path fill="#f1c232" fill-opacity=".8" d="M18.487 303.295l57.052 18.6v68.7l-57.22-18.652z"/><path stroke="#fff" stroke-linejoin="round" stroke-linecap="butt" d="M18.487 303.295l57.052 18.6v68.7l-57.22-18.652z"/><path fill="#f1c232" fill-opacity=".8" d="M75.54 321.677l53.128-22.973v68.92l-53.13 22.972z"/><path stroke="#fff" stroke-linejoin="round" stroke-linecap="butt" d="M75.54 321.677l53.128-22.973v68.92l-53.13 22.972z"/><path fill="#d1a82b" fill-opacity=".8" d="M18.324 303.3l53.13-22.974 57.214 18.378-53.13 22.973z"/><path stroke="#fff" stroke-linejoin="round" stroke-linecap="butt" d="M18.324 303.3l53.13-22.974 57.214 18.378-53.13 22.973z"/><path fill="#f1c232" fill-opacity=".8" d="M18.324 287.19l53.13-22.972 57.214 18.38-53.13 22.972z"/><path stroke="#fff" stroke-linejoin="round" stroke-linecap="butt" d="M18.324 287.19l53.13-22.972 57.214 18.38-53.13 22.972z"/><path fill="#f1c232" fill-opacity=".8" d="M18.324 218.272l53.13-22.973v68.91l-53.13 22.97z"/><path stroke="#fff" stroke-linejoin="round" stroke-linecap="butt" d="M18.324 218.272l53.13-22.973v68.91l-53.13 22.97z"/><path fill="#f1c232" fill-opacity=".8" d="M71.615 195.296l57.053 18.6v68.7L71.45 263.944z"/><path stroke="#fff" stroke-linejoin="round" stroke-linecap="butt" d="M71.615 195.296l57.053 18.6v68.7L71.45 263.944z"/><path fill="#f1c232" fill-opacity=".8" d="M18.487 218.27l57.052 18.6v68.7l-57.22-18.654z"/><path stroke="#fff" stroke-linejoin="round" stroke-linecap="butt" d="M18.487 218.27l57.052 18.6v68.7l-57.22-18.654z"/><path fill="#d1a82b" fill-opacity=".8" d="M75.54 236.65l53.128-22.972v68.92l-53.13 22.972z"/><path stroke="#fff" stroke-linejoin="round" stroke-linecap="butt" d="M75.54 236.65l53.128-22.972v68.92l-53.13 22.972z"/><path fill="#f1c232" fill-opacity=".8" d="M18.324 218.272l53.13-22.973 57.214 18.37-53.13 22.97z"/><path stroke="#fff" stroke-linejoin="round" stroke-linecap="butt" d="M18.324 218.272l53.13-22.973 57.214 18.37-53.13 22.97z"/><path fill="#f1c232" fill-opacity=".8" d="M90.678 312.39l53.128-22.972 57.216 18.38-53.13 22.972z"/><path stroke="#fff" stroke-linejoin="round" stroke-linecap="butt" d="M90.678 312.39l53.128-22.972 57.216 18.38-53.13 22.972z"/><path fill="#f1c232" fill-opacity=".8" d="M90.678 243.472l53.128-22.973v68.91l-53.128 22.98z"/><path stroke="#fff" stroke-linejoin="round" stroke-linecap="butt" d="M90.678 243.472l53.128-22.973v68.91l-53.128 22.98z"/><path fill="#f1c232" fill-opacity=".8" d="M143.97 220.496l57.052 18.6v68.7l-57.218-18.653z"/><path stroke="#fff" stroke-linejoin="round" stroke-linecap="butt" d="M143.97 220.496l57.052 18.6v68.7l-57.218-18.653z"/><path fill="#f1c232" fill-opacity=".8" d="M90.84 243.47l57.053 18.598v68.702l-57.217-18.654z"/><path stroke="#fff" stroke-linejoin="round" stroke-linecap="butt" d="M90.84 243.47l57.053 18.598v68.702l-57.217-18.654z"/><path fill="#d1a82b" fill-opacity=".8" d="M147.893 261.85l53.13-22.972v68.92l-53.13 22.972z"/><path stroke="#fff" stroke-linejoin="round" stroke-linecap="butt" d="M147.893 261.85l53.13-22.972v68.92l-53.13 22.972z"/><path fill="#f1c232" fill-opacity=".8" d="M90.678 243.472l53.128-22.973 57.216 18.37-53.13 22.97z"/><path stroke="#fff" stroke-linejoin="round" stroke-linecap="butt" d="M90.678 243.472l53.128-22.973 57.216 18.37-53.13 22.97z"/><path fill="#f1c232" fill-opacity=".8" d="M163.224 337.59l53.13-22.972 57.214 18.38-53.13 22.972z"/><path stroke="#fff" stroke-linejoin="round" stroke-linecap="butt" d="M163.224 337.59l53.13-22.972 57.214 18.38-53.13 22.972z"/><path fill="#f1c232" fill-opacity=".8" d="M163.224 268.672l53.13-22.973v68.91l-53.13 22.97z"/><path stroke="#fff" stroke-linejoin="round" stroke-linecap="butt" d="M163.224 268.672l53.13-22.973v68.91l-53.13 22.97z"/><path fill="#f1c232" fill-opacity=".8" d="M216.515 245.696l57.053 18.6v68.7l-57.218-18.653z"/><path stroke="#fff" stroke-linejoin="round" stroke-linecap="butt" d="M216.515 245.696l57.053 18.6v68.7l-57.218-18.653z"/><path fill="#f1c232" fill-opacity=".8" d="M163.387 268.67l57.052 18.598v68.702l-57.22-18.654z"/><path stroke="#fff" stroke-linejoin="round" stroke-linecap="butt" d="M163.387 268.67l57.052 18.598v68.702l-57.22-18.654z"/><path fill="#f1c232" fill-opacity=".8" d="M220.44 287.05l53.128-22.972v68.92l-53.13 22.972z"/><path stroke="#fff" stroke-linejoin="round" stroke-linecap="butt" d="M220.44 287.05l53.128-22.972v68.92l-53.13 22.972z"/><path fill="#f1c232" fill-opacity=".8" d="M163.224 268.672l53.13-22.973 57.214 18.37-53.13 22.97z"/><path stroke="#fff" stroke-linejoin="round" stroke-linecap="butt" d="M163.224 268.672l53.13-22.973 57.214 18.37-53.13 22.97z"/><path fill="#f1c232" fill-opacity=".8" d="M93.924 482.49l53.13-22.972 57.214 18.38-53.13 22.972z"/><path stroke="#fff" stroke-linejoin="round" stroke-linecap="butt" d="M93.924 482.49l53.13-22.972 57.214 18.38-53.13 22.972z"/><path fill="#f1c232" fill-opacity=".8" d="M93.924 413.572l53.13-22.973v68.91l-53.13 22.97z"/><path stroke="#fff" stroke-linejoin="round" stroke-linecap="butt" d="M93.924 413.572l53.13-22.973v68.91l-53.13 22.97z"/><path fill="#f1c232" fill-opacity=".8" d="M147.215 390.596l57.053 18.6v68.7l-57.218-18.653z"/><path stroke="#fff" stroke-linejoin="round" stroke-linecap="butt" d="M147.215 390.596l57.053 18.6v68.7l-57.218-18.653z"/><path fill="#f1c232" fill-opacity=".8" d="M94.087 413.57l57.052 18.598v68.702l-57.22-18.654z"/><path stroke="#fff" stroke-linejoin="round" stroke-linecap="butt" d="M94.087 413.57l57.052 18.598v68.702l-57.22-18.654z"/><path fill="#f1c232" fill-opacity=".8" d="M151.14 431.95l53.128-22.972v68.92l-53.13 22.972z"/><path stroke="#fff" stroke-linejoin="round" stroke-linecap="butt" d="M151.14 431.95l53.128-22.972v68.92l-53.13 22.972z"/><path fill="#f1c232" fill-opacity=".8" d="M93.924 413.572l53.13-22.973 57.214 18.37-53.13 22.97z"/><path stroke="#fff" stroke-linejoin="round" stroke-linecap="butt" d="M93.924 413.572l53.13-22.973 57.214 18.37-53.13 22.97z"/><path fill="#93c47d" fill-opacity=".8" d="M414.405 602.396l40.66-17.102 43.787 13.68-40.66 17.103z"/><path stroke="#fff" stroke-linejoin="round" stroke-linecap="butt" d="M414.405 602.396l40.66-17.102 43.787 13.68-40.66 17.103z"/><path fill="#93c47d" fill-opacity=".8" d="M414.405 551.09l40.66-17.102v51.306l-40.66 17.102z"/><path stroke="#fff" stroke-linejoin="round" stroke-linecap="butt" d="M414.405 551.09l40.66-17.102v51.306l-40.66 17.102z"/><path fill="#93c47d" fill-opacity=".8" d="M455.19 533.985l43.662 13.846v51.15l-43.79-13.88z"/><path stroke="#fff" stroke-linejoin="round" stroke-linecap="butt" d="M455.19 533.985l43.662 13.846v51.15l-43.79-13.88z"/><path fill="#7faa6c" fill-opacity=".8" d="M414.53 551.087l43.662 13.846v51.144l-43.79-13.886z"/><path stroke="#fff" stroke-linejoin="round" stroke-linecap="butt" d="M414.53 551.087l43.662 13.846v51.144l-43.79-13.886z"/><path fill="#93c47d" fill-opacity=".8" d="M458.192 564.77l40.66-17.1v51.305l-40.66 17.102z"/><path stroke="#fff" stroke-linejoin="round" stroke-linecap="butt" d="M458.192 564.77l40.66-17.1v51.305l-40.66 17.102z"/><path fill="#7faa6c" fill-opacity=".8" d="M414.405 551.09l40.66-17.102 43.787 13.68-40.66 17.103z"/><path stroke="#fff" stroke-linejoin="round" stroke-linecap="butt" d="M414.405 551.09l40.66-17.102 43.787 13.68-40.66 17.103z"/><path fill="#93c47d" fill-opacity=".8" d="M362.6 648.332l40.66-17.102 43.786 13.68-40.66 17.103z"/><path stroke="#fff" stroke-linejoin="round" stroke-linecap="butt" d="M362.6 648.332l40.66-17.102 43.786 13.68-40.66 17.103z"/><path fill="#93c47d" fill-opacity=".8" d="M362.6 597.026l40.66-17.102v51.306l-40.66 17.102z"/><path stroke="#fff" stroke-linejoin="round" stroke-linecap="butt" d="M362.6 597.026l40.66-17.102v51.306l-40.66 17.102z"/><path fill="#93c47d" fill-opacity=".8" d="M403.383 579.92l43.663 13.848v51.143l-43.79-13.88z"/><path stroke="#fff" stroke-linejoin="round" stroke-linecap="butt" d="M403.383 579.92l43.663 13.848v51.143l-43.79-13.88z"/><path fill="#7faa6c" fill-opacity=".8" d="M362.724 597.023l43.663 13.846v51.14l-43.79-13.89z"/><path stroke="#fff" stroke-linejoin="round" stroke-linecap="butt" d="M362.724 597.023l43.663 13.846v51.14l-43.79-13.89z"/><path fill="#93c47d" fill-opacity=".8" d="M406.387 610.707l40.66-17.102v51.306l-40.66 17.11z"/><path stroke="#fff" stroke-linejoin="round" stroke-linecap="butt" d="M406.387 610.707l40.66-17.102v51.306l-40.66 17.11z"/><path fill="#93c47d" fill-opacity=".8" d="M362.6 597.026l40.66-17.102 43.786 13.68-40.66 17.103z"/><path stroke="#fff" stroke-linejoin="round" stroke-linecap="butt" d="M362.6 597.026l40.66-17.102 43.786 13.68-40.66 17.103z"/><path fill="#93c47d" fill-opacity=".8" d="M442.663 533.492l40.66-17.102 43.786 13.68-40.66 17.103z"/><path stroke="#fff" stroke-linejoin="round" stroke-linecap="butt" d="M442.663 533.492l40.66-17.102 43.786 13.68-40.66 17.103z"/><path fill="#93c47d" fill-opacity=".8" d="M442.663 482.186l40.66-17.102v51.306l-40.66 17.102z"/><path stroke="#fff" stroke-linejoin="round" stroke-linecap="butt" d="M442.663 482.186l40.66-17.102v51.306l-40.66 17.102z"/><path fill="#93c47d" fill-opacity=".8" d="M483.446 465.08l43.663 13.847v51.144l-43.79-13.88z"/><path stroke="#fff" stroke-linejoin="round" stroke-linecap="butt" d="M483.446 465.08l43.663 13.847v51.144l-43.79-13.88z"/><path fill="#93c47d" fill-opacity=".8" d="M442.787 482.183l43.663 13.846v51.14l-43.79-13.89z"/><path stroke="#fff" stroke-linejoin="round" stroke-linecap="butt" d="M442.787 482.183l43.663 13.846v51.14l-43.79-13.89z"/><path fill="#93c47d" fill-opacity=".8" d="M486.45 495.867l40.66-17.102v51.306l-40.66 17.11z"/><path stroke="#fff" stroke-linejoin="round" stroke-linecap="butt" d="M486.45 495.867l40.66-17.102v51.306l-40.66 17.11z"/><path fill="#7faa6c" fill-opacity=".8" d="M442.663 482.186l40.66-17.102 43.786 13.68-40.66 17.103z"/><path stroke="#fff" stroke-linejoin="round" stroke-linecap="butt" d="M442.663 482.186l40.66-17.102 43.786 13.68-40.66 17.103z"/><path fill="#93c47d" fill-opacity=".8" d="M442.663 469.18l40.66-17.1 43.786 13.68-40.66 17.103z"/><path stroke="#fff" stroke-linejoin="round" stroke-linecap="butt" d="M442.663 469.18l40.66-17.1 43.786 13.68-40.66 17.103z"/><path fill="#93c47d" fill-opacity=".8" d="M442.663 417.875l40.66-17.102v51.306l-40.66 17.1z"/><path stroke="#fff" stroke-linejoin="round" stroke-linecap="butt" d="M442.663 417.875l40.66-17.102v51.306l-40.66 17.1z"/><path fill="#93c47d" fill-opacity=".8" d="M483.446 400.77l43.663 13.847v51.144l-43.79-13.88z"/><path stroke="#fff" stroke-linejoin="round" stroke-linecap="butt" d="M483.446 400.77l43.663 13.847v51.144l-43.79-13.88z"/><path fill="#93c47d" fill-opacity=".8" d="M442.787 417.873l43.663 13.846v51.14l-43.79-13.89z"/><path stroke="#fff" stroke-linejoin="round" stroke-linecap="butt" d="M442.787 417.873l43.663 13.846v51.14l-43.79-13.89z"/><path fill="#93c47d" fill-opacity=".8" d="M486.45 431.557l40.66-17.102v51.306l-40.66 17.11z"/><path stroke="#fff" stroke-linejoin="round" stroke-linecap="butt" d="M486.45 431.557l40.66-17.102v51.306l-40.66 17.11z"/><path fill="#7faa6c" fill-opacity=".8" d="M442.663 417.875l40.66-17.102 43.786 13.682-40.66 17.102z"/><path stroke="#fff" stroke-linejoin="round" stroke-linecap="butt" d="M442.663 417.875l40.66-17.102 43.786 13.682-40.66 17.102z"/><path fill="#93c47d" fill-opacity=".8" d="M423.824 400.87l40.66-17.102 43.787 13.68-40.66 17.103z"/><path stroke="#fff" stroke-linejoin="round" stroke-linecap="butt" d="M423.824 400.87l40.66-17.102 43.787 13.68-40.66 17.103z"/><path fill="#93c47d" fill-opacity=".8" d="M423.824 349.564l40.66-17.102v51.306l-40.66 17.102z"/><path stroke="#fff" stroke-linejoin="round" stroke-linecap="butt" d="M423.824 349.564l40.66-17.102v51.306l-40.66 17.102z"/><path fill="#93c47d" fill-opacity=".8" d="M464.608 332.46l43.663 13.846v51.143l-43.78-13.89z"/><path stroke="#fff" stroke-linejoin="round" stroke-linecap="butt" d="M464.608 332.46l43.663 13.846v51.143l-43.78-13.89z"/><path fill="#7faa6c" fill-opacity=".8" d="M423.95 349.56l43.66 13.848v51.143l-43.788-13.88z"/><path stroke="#fff" stroke-linejoin="round" stroke-linecap="butt" d="M423.95 349.56l43.66 13.848v51.143l-43.788-13.88z"/><path fill="#93c47d" fill-opacity=".8" d="M467.61 363.246l40.66-17.102v51.305l-40.66 17.1z"/><path stroke="#fff" stroke-linejoin="round" stroke-linecap="butt" d="M467.61 363.246l40.66-17.102v51.305l-40.66 17.1z"/><path fill="#93c47d" fill-opacity=".8" d="M423.824 349.564l40.66-17.102 43.787 13.682-40.66 17.102z"/><path stroke="#fff" stroke-linejoin="round" stroke-linecap="butt" d="M423.824 349.564l40.66-17.102 43.787 13.682-40.66 17.102z"/><path fill="#93c47d" fill-opacity=".8" d="M362.367 390.34l40.66-17.103 43.786 13.682-40.66 17.1z"/><path stroke="#fff" stroke-linejoin="round" stroke-linecap="butt" d="M362.367 390.34l40.66-17.103 43.786 13.682-40.66 17.1z"/><path fill="#93c47d" fill-opacity=".8" d="M362.367 339.033l40.66-17.102v51.31l-40.66 17.1z"/><path stroke="#fff" stroke-linejoin="round" stroke-linecap="butt" d="M362.367 339.033l40.66-17.102v51.31l-40.66 17.1z"/><path fill="#93c47d" fill-opacity=".8" d="M403.15 321.928l43.663 13.847v51.144l-43.79-13.89z"/><path stroke="#fff" stroke-linejoin="round" stroke-linecap="butt" d="M403.15 321.928l43.663 13.847v51.144l-43.79-13.89z"/><path fill="#7faa6c" fill-opacity=".8" d="M362.49 339.03l43.664 13.847v51.144l-43.79-13.88z"/><path stroke="#fff" stroke-linejoin="round" stroke-linecap="butt" d="M362.49 339.03l43.664 13.847v51.144l-43.79-13.88z"/><path fill="#93c47d" fill-opacity=".8" d="M406.154 352.715l40.66-17.102v51.306l-40.66 17.1z"/><path stroke="#fff" stroke-linejoin="round" stroke-linecap="butt" d="M406.154 352.715l40.66-17.102v51.306l-40.66 17.1z"/><path fill="#93c47d" fill-opacity=".8" d="M362.367 339.033l40.66-17.102 43.786 13.69-40.66 17.1z"/><path stroke="#fff" stroke-linejoin="round" stroke-linecap="butt" d="M362.367 339.033l40.66-17.102 43.786 13.69-40.66 17.1z"/><path fill="#93c47d" fill-opacity=".8" d="M306.075 671.896l40.66-17.102 43.786 13.682-40.65 17.102z"/><path stroke="#fff" stroke-linejoin="round" stroke-linecap="butt" d="M306.075 671.896l40.66-17.102 43.786 13.682-40.65 17.102z"/><path fill="#93c47d" fill-opacity=".8" d="M306.075 620.59l40.66-17.1v51.304l-40.66 17.102z"/><path stroke="#fff" stroke-linejoin="round" stroke-linecap="butt" d="M306.075 620.59l40.66-17.1v51.304l-40.66 17.102z"/><path fill="#93c47d" fill-opacity=".8" d="M346.858 603.486l43.663 13.846v51.144l-43.78-13.886z"/><path stroke="#fff" stroke-linejoin="round" stroke-linecap="butt" d="M346.858 603.486l43.663 13.846v51.144l-43.78-13.886z"/><path fill="#93c47d" fill-opacity=".8" d="M306.2 620.588l43.662 13.846v51.144l-43.79-13.887z"/><path stroke="#fff" stroke-linejoin="round" stroke-linecap="butt" d="M306.2 620.588l43.662 13.846v51.144l-43.79-13.887z"/><path fill="#93c47d" fill-opacity=".8" d="M349.862 634.272l40.66-17.102v51.306l-40.66 17.102z"/><path stroke="#fff" stroke-linejoin="round" stroke-linecap="butt" d="M349.862 634.272l40.66-17.102v51.306l-40.66 17.102z"/><path fill="#7faa6c" fill-opacity=".8" d="M306.075 620.59l40.66-17.1 43.786 13.68-40.65 17.102z"/><path stroke="#fff" stroke-linejoin="round" stroke-linecap="butt" d="M306.075 620.59l40.66-17.1 43.786 13.68-40.65 17.102z"/><path fill="#93c47d" fill-opacity=".8" d="M306.084 607.582l40.66-17.102 43.787 13.682-40.66 17.1z"/><path stroke="#fff" stroke-linejoin="round" stroke-linecap="butt" d="M306.084 607.582l40.66-17.102 43.787 13.682-40.66 17.1z"/><path fill="#93c47d" fill-opacity=".8" d="M306.084 556.276l40.66-17.102v51.306l-40.66 17.102z"/><path stroke="#fff" stroke-linejoin="round" stroke-linecap="butt" d="M306.084 556.276l40.66-17.102v51.306l-40.66 17.102z"/><path fill="#93c47d" fill-opacity=".8" d="M346.868 539.17l43.663 13.848v51.143l-43.78-13.88z"/><path stroke="#fff" stroke-linejoin="round" stroke-linecap="butt" d="M346.868 539.17l43.663 13.848v51.143l-43.78-13.88z"/><path fill="#93c47d" fill-opacity=".8" d="M306.21 556.273l43.66 13.847v51.143l-43.788-13.886z"/><path stroke="#fff" stroke-linejoin="round" stroke-linecap="butt" d="M306.21 556.273l43.66 13.847v51.143l-43.788-13.886z"/><path fill="#93c47d" fill-opacity=".8" d="M349.87 569.957l40.66-17.1v51.304l-40.66 17.11z"/><path stroke="#fff" stroke-linejoin="round" stroke-linecap="butt" d="M349.87 569.957l40.66-17.1v51.304l-40.66 17.11z"/><path fill="#7faa6c" fill-opacity=".8" d="M306.084 556.276l40.66-17.102 43.787 13.682-40.66 17.102z"/><path stroke="#fff" stroke-linejoin="round" stroke-linecap="butt" d="M306.084 556.276l40.66-17.102 43.787 13.682-40.66 17.102z"/><path fill="#93c47d" fill-opacity=".8" d="M306.084 543.27l40.66-17.1 43.787 13.68-40.66 17.103z"/><path stroke="#fff" stroke-linejoin="round" stroke-linecap="butt" d="M306.084 543.27l40.66-17.1 43.787 13.68-40.66 17.103z"/><path fill="#93c47d" fill-opacity=".8" d="M306.084 491.966l40.66-17.102v51.306l-40.66 17.1z"/><path stroke="#fff" stroke-linejoin="round" stroke-linecap="butt" d="M306.084 491.966l40.66-17.102v51.306l-40.66 17.1z"/><path fill="#93c47d" fill-opacity=".8" d="M346.868 474.86l43.663 13.847v51.144l-43.78-13.88z"/><path stroke="#fff" stroke-linejoin="round" stroke-linecap="butt" d="M346.868 474.86l43.663 13.847v51.144l-43.78-13.88z"/><path fill="#93c47d" fill-opacity=".8" d="M306.21 491.963l43.66 13.846v51.14l-43.788-13.89z"/><path stroke="#fff" stroke-linejoin="round" stroke-linecap="butt" d="M306.21 491.963l43.66 13.846v51.14l-43.788-13.89z"/><path fill="#93c47d" fill-opacity=".8" d="M349.87 505.647l40.66-17.102v51.306l-40.66 17.11z"/><path stroke="#fff" stroke-linejoin="round" stroke-linecap="butt" d="M349.87 505.647l40.66-17.102v51.306l-40.66 17.11z"/><path fill="#7faa6c" fill-opacity=".8" d="M306.084 491.966l40.66-17.102 43.787 13.68-40.66 17.103z"/><path stroke="#fff" stroke-linejoin="round" stroke-linecap="butt" d="M306.084 491.966l40.66-17.102 43.787 13.68-40.66 17.103z"/><path fill="#93c47d" fill-opacity=".8" d="M306.084 478.96l40.66-17.1 43.787 13.68-40.66 17.103z"/><path stroke="#fff" stroke-linejoin="round" stroke-linecap="butt" d="M306.084 478.96l40.66-17.1 43.787 13.68-40.66 17.103z"/><path fill="#93c47d" fill-opacity=".8" d="M306.084 427.655l40.66-17.102v51.306l-40.66 17.1z"/><path stroke="#fff" stroke-linejoin="round" stroke-linecap="butt" d="M306.084 427.655l40.66-17.102v51.306l-40.66 17.1z"/><path fill="#93c47d" fill-opacity=".8" d="M346.868 410.55l43.663 13.847v51.144l-43.78-13.88z"/><path stroke="#fff" stroke-linejoin="round" stroke-linecap="butt" d="M346.868 410.55l43.663 13.847v51.144l-43.78-13.88z"/><path fill="#93c47d" fill-opacity=".8" d="M306.21 427.652l43.66 13.847v51.14l-43.788-13.89z"/><path stroke="#fff" stroke-linejoin="round" stroke-linecap="butt" d="M306.21 427.652l43.66 13.847v51.14l-43.788-13.89z"/><path fill="#93c47d" fill-opacity=".8" d="M349.87 441.337l40.66-17.102v51.306l-40.66 17.11z"/><path stroke="#fff" stroke-linejoin="round" stroke-linecap="butt" d="M349.87 441.337l40.66-17.102v51.306l-40.66 17.11z"/><path fill="#7faa6c" fill-opacity=".8" d="M306.084 427.655l40.66-17.102 43.787 13.682-40.66 17.102z"/><path stroke="#fff" stroke-linejoin="round" stroke-linecap="butt" d="M306.084 427.655l40.66-17.102 43.787 13.682-40.66 17.102z"/><path fill="#93c47d" fill-opacity=".8" d="M306.096 413.74l40.66-17.103 43.786 13.682-40.66 17.1z"/><path stroke="#fff" stroke-linejoin="round" stroke-linecap="butt" d="M306.096 413.74l40.66-17.103 43.786 13.682-40.66 17.1z"/><path fill="#93c47d" fill-opacity=".8" d="M306.096 362.433l40.66-17.102v51.31l-40.66 17.1z"/><path stroke="#fff" stroke-linejoin="round" stroke-linecap="butt" d="M306.096 362.433l40.66-17.102v51.31l-40.66 17.1z"/><path fill="#93c47d" fill-opacity=".8" d="M346.88 345.328l43.662 13.847v51.144l-43.788-13.89z"/><path stroke="#fff" stroke-linejoin="round" stroke-linecap="butt" d="M346.88 345.328l43.662 13.847v51.144l-43.788-13.89z"/><path fill="#93c47d" fill-opacity=".8" d="M306.22 362.43l43.663 13.847v51.144l-43.79-13.88z"/><path stroke="#fff" stroke-linejoin="round" stroke-linecap="butt" d="M306.22 362.43l43.663 13.847v51.144l-43.79-13.88z"/><path fill="#93c47d" fill-opacity=".8" d="M349.883 376.115l40.66-17.102v51.306l-40.66 17.1z"/><path stroke="#fff" stroke-linejoin="round" stroke-linecap="butt" d="M349.883 376.115l40.66-17.102v51.306l-40.66 17.1z"/><path fill="#93c47d" fill-opacity=".8" d="M306.096 362.433l40.66-17.102 43.786 13.69-40.66 17.1z"/><path stroke="#fff" stroke-linejoin="round" stroke-linecap="butt" d="M306.096 362.433l40.66-17.102 43.786 13.69-40.66 17.1z"/><path d="M226.543 700.937l-3.37-1.134"/><path stroke="#000" stroke-linejoin="round" stroke-linecap="butt" d="M226.543 700.937l-3.37-1.134"/><path fill="#fff" fill-opacity=".808" d="M215.666 157.905l25.73-9.896 27.708 7.91-25.73 9.89z"/><path stroke="#000" stroke-linejoin="round" stroke-linecap="butt" d="M215.666 157.905l25.73-9.896 27.708 7.91-25.73 9.89z"/><path fill="#fff" fill-opacity=".808" d="M215.666 128.217l25.73-9.896v29.69l-25.73 9.9z"/><path stroke="#000" stroke-linejoin="round" stroke-linecap="butt" d="M215.666 128.217l25.73-9.896v29.69l-25.73 9.9z"/><path fill="#fff" fill-opacity=".808" d="M241.474 118.32l27.63 8.01v29.595l-27.71-8.035z"/><path stroke="#000" stroke-linejoin="round" stroke-linecap="butt" d="M241.474 118.32l27.63 8.01v29.595l-27.71-8.035z"/><path fill="#fff" fill-opacity=".808" d="M215.745 128.215l27.63 8.012v29.594l-27.71-8.03z"/><path stroke="#000" stroke-linejoin="round" stroke-linecap="butt" d="M215.745 128.215l27.63 8.012v29.594l-27.71-8.03z"/><path fill="#fff" fill-opacity=".808" d="M243.375 136.133l25.73-9.896v29.688l-25.73 9.896z"/><path stroke="#000" stroke-linejoin="round" stroke-linecap="butt" d="M243.375 136.133l25.73-9.896v29.688l-25.73 9.896z"/><path fill="#fff" fill-opacity=".808" d="M215.666 128.217l25.73-9.896 27.708 7.92-25.73 9.9z"/><path stroke="#000" stroke-linejoin="round" stroke-linecap="butt" d="M215.666 128.217l25.73-9.896 27.708 7.92-25.73 9.9z"/><path fill="#fff" fill-opacity=".808" d="M285.42 147.2l22.547-8.67 24.28 6.937-22.546 8.672z"/><path stroke="#000" stroke-linejoin="round" stroke-linecap="butt" d="M285.42 147.2l22.547-8.67 24.28 6.937-22.546 8.672z"/><path fill="#fff" fill-opacity=".808" d="M285.42 121.185l22.547-8.672v26.016l-22.548 8.67z"/><path stroke="#000" stroke-linejoin="round" stroke-linecap="butt" d="M285.42 121.185l22.547-8.672v26.016l-22.548 8.67z"/><path fill="#fff" fill-opacity=".808" d="M308.036 112.512l24.212 7.02v25.935l-24.282-7.042z"/><path stroke="#000" stroke-linejoin="round" stroke-linecap="butt" d="M308.036 112.512l24.212 7.02v25.935l-24.282-7.042z"/><path fill="#fff" fill-opacity=".808" d="M285.488 121.184l24.213 7.02v25.935l-24.28-7.05z"/><path stroke="#000" stroke-linejoin="round" stroke-linecap="butt" d="M285.488 121.184l24.213 7.02v25.935l-24.28-7.05z"/><path fill="#fff" fill-opacity=".808" d="M309.7 128.123l22.548-8.672v26.02l-22.548 8.67z"/><path stroke="#000" stroke-linejoin="round" stroke-linecap="butt" d="M309.7 128.123l22.548-8.672v26.02l-22.548 8.67z"/><path fill="#fff" fill-opacity=".808" d="M285.42 121.185l22.547-8.672 24.28 6.938-22.546 8.68z"/><path stroke="#000" stroke-linejoin="round" stroke-linecap="butt" d="M285.42 121.185l22.547-8.672 24.28 6.938-22.546 8.68z"/><path fill="#444" fill-opacity=".642" d="M872.31 194.76l15.31-6.6 16.49 5.28-15.31 6.602z"/><path stroke="#fff" stroke-linejoin="round" stroke-linecap="butt" d="M872.31 194.76l15.31-6.6 16.49 5.28-15.31 6.602z"/><path fill="#444" fill-opacity=".642" d="M872.31 174.955l15.31-6.602v19.806l-15.31 6.6z"/><path stroke="#fff" stroke-linejoin="round" stroke-linecap="butt" d="M872.31 174.955l15.31-6.602v19.806l-15.31 6.6z"/><path fill="#444" fill-opacity=".642" d="M887.668 168.352l16.442 5.345v19.743l-16.49-5.36z"/><path stroke="#fff" stroke-linejoin="round" stroke-linecap="butt" d="M887.668 168.352l16.442 5.345v19.743l-16.49-5.36z"/><path fill="#000" fill-opacity=".642" d="M872.357 174.954L888.8 180.3v19.742l-16.49-5.36z"/><path stroke="#fff" stroke-linejoin="round" stroke-linecap="butt" d="M872.357 174.954L888.8 180.3v19.742l-16.49-5.36z"/><path fill="#444" fill-opacity=".642" d="M888.8 180.236l15.31-6.6v19.804l-15.31 6.602z"/><path stroke="#fff" stroke-linejoin="round" stroke-linecap="butt" d="M888.8 180.236l15.31-6.6v19.804l-15.31 6.602z"/><path fill="#000" fill-opacity=".642" d="M872.31 174.955l15.31-6.602 16.49 5.282-15.31 6.6z"/><path stroke="#fff" stroke-linejoin="round" stroke-linecap="butt" d="M872.31 174.955l15.31-6.602 16.49 5.282-15.31 6.6z"/><path fill="#444" fill-opacity=".642" d="M792.237 235.404l15.31-6.602 16.49 5.282-15.31 6.602z"/><path stroke="#fff" stroke-linejoin="round" stroke-linecap="butt" d="M792.237 235.404l15.31-6.602 16.49 5.282-15.31 6.602z"/><path fill="#444" fill-opacity=".642" d="M792.237 215.6l15.31-6.603v19.805l-15.31 6.602z"/><path stroke="#fff" stroke-linejoin="round" stroke-linecap="butt" d="M792.237 215.6l15.31-6.603v19.805l-15.31 6.602z"/><path fill="#444" fill-opacity=".642" d="M807.595 208.996l16.442 5.345v19.75l-16.49-5.36z"/><path stroke="#fff" stroke-linejoin="round" stroke-linecap="butt" d="M807.595 208.996l16.442 5.345v19.75l-16.49-5.36z"/><path fill="#444" fill-opacity=".642" d="M792.284 215.598l16.442 5.345v19.743l-16.49-5.36z"/><path stroke="#fff" stroke-linejoin="round" stroke-linecap="butt" d="M792.284 215.598l16.442 5.345v19.743l-16.49-5.36z"/><path fill="#444" fill-opacity=".642" d="M808.726 220.88l15.31-6.602v19.806l-15.31 6.602z"/><path stroke="#fff" stroke-linejoin="round" stroke-linecap="butt" d="M808.726 220.88l15.31-6.602v19.806l-15.31 6.602z"/><path fill="#000" fill-opacity=".642" d="M792.237 215.6l15.31-6.603 16.49 5.28-15.31 6.603z"/><path stroke="#fff" stroke-linejoin="round" stroke-linecap="butt" d="M792.237 215.6l15.31-6.603 16.49 5.28-15.31 6.603z"/><path fill="#444" fill-opacity=".642" d="M792.24 210.574l15.312-6.6 16.488 5.28-15.31 6.602z"/><path stroke="#fff" stroke-linejoin="round" stroke-linecap="butt" d="M792.24 210.574l15.312-6.6 16.488 5.28-15.31 6.602z"/><path fill="#444" fill-opacity=".642" d="M792.24 190.77l15.312-6.603v19.806l-15.31 6.6z"/><path stroke="#fff" stroke-linejoin="round" stroke-linecap="butt" d="M792.24 190.77l15.312-6.603v19.806l-15.31 6.6z"/><path fill="#444" fill-opacity=".642" d="M807.598 184.166l16.442 5.345v19.75l-16.49-5.36z"/><path stroke="#fff" stroke-linejoin="round" stroke-linecap="butt" d="M807.598 184.166l16.442 5.345v19.75l-16.49-5.36z"/><path fill="#444" fill-opacity=".642" d="M792.288 190.768l16.442 5.345v19.743l-16.49-5.36z"/><path stroke="#fff" stroke-linejoin="round" stroke-linecap="butt" d="M792.288 190.768l16.442 5.345v19.743l-16.49-5.36z"/><path fill="#444" fill-opacity=".642" d="M808.73 196.05l15.31-6.6v19.804l-15.31 6.602z"/><path stroke="#fff" stroke-linejoin="round" stroke-linecap="butt" d="M808.73 196.05l15.31-6.6v19.804l-15.31 6.602z"/><path fill="#000" fill-opacity=".642" d="M792.24 190.77l15.312-6.603 16.488 5.282-15.31 6.6z"/><path stroke="#fff" stroke-linejoin="round" stroke-linecap="butt" d="M792.24 190.77l15.312-6.603 16.488 5.282-15.31 6.6z"/><path fill="#444" fill-opacity=".642" d="M792.24 185.746l15.312-6.602 16.488 5.282-15.31 6.602z"/><path stroke="#fff" stroke-linejoin="round" stroke-linecap="butt" d="M792.24 185.746l15.312-6.602 16.488 5.282-15.31 6.602z"/><path fill="#444" fill-opacity=".642" d="M792.24 165.94l15.312-6.6v19.804l-15.31 6.602z"/><path stroke="#fff" stroke-linejoin="round" stroke-linecap="butt" d="M792.24 165.94l15.312-6.6v19.804l-15.31 6.602z"/><path fill="#444" fill-opacity=".642" d="M807.598 159.338l16.442 5.345v19.743l-16.49-5.36z"/><path stroke="#fff" stroke-linejoin="round" stroke-linecap="butt" d="M807.598 159.338l16.442 5.345v19.743l-16.49-5.36z"/><path fill="#444" fill-opacity=".642" d="M792.288 165.94l16.442 5.345v19.743l-16.49-5.36z"/><path stroke="#fff" stroke-linejoin="round" stroke-linecap="butt" d="M792.288 165.94l16.442 5.345v19.743l-16.49-5.36z"/><path fill="#444" fill-opacity=".642" d="M808.73 171.222l15.31-6.602v19.806l-15.31 6.602z"/><path stroke="#fff" stroke-linejoin="round" stroke-linecap="butt" d="M808.73 171.222l15.31-6.602v19.806l-15.31 6.602z"/><path fill="#444" fill-opacity=".642" d="M792.24 165.94l15.312-6.6 16.488 5.28-15.31 6.602z"/><path stroke="#fff" stroke-linejoin="round" stroke-linecap="butt" d="M792.24 165.94l15.312-6.6 16.488 5.28-15.31 6.602z"/><path fill="#444" fill-opacity=".642" d="M792.245 144.73l15.31-6.602 16.49 5.28-15.31 6.603z"/><path stroke="#fff" stroke-linejoin="round" stroke-linecap="butt" d="M792.245 144.73l15.31-6.602 16.49 5.28-15.31 6.603z"/><path fill="#444" fill-opacity=".642" d="M792.245 124.924l15.31-6.6v19.804l-15.31 6.602z"/><path stroke="#fff" stroke-linejoin="round" stroke-linecap="butt" d="M792.245 124.924l15.31-6.6v19.804l-15.31 6.602z"/><path fill="#444" fill-opacity=".642" d="M807.603 118.32l16.442 5.347v19.742l-16.49-5.36z"/><path stroke="#fff" stroke-linejoin="round" stroke-linecap="butt" d="M807.603 118.32l16.442 5.347v19.742l-16.49-5.36z"/><path fill="#444" fill-opacity=".642" d="M792.292 124.923l16.442 5.345v19.743l-16.49-5.36z"/><path stroke="#fff" stroke-linejoin="round" stroke-linecap="butt" d="M792.292 124.923l16.442 5.345v19.743l-16.49-5.36z"/><path fill="#444" fill-opacity=".642" d="M808.734 130.206l15.31-6.602v19.805l-15.31 6.6z"/><path stroke="#fff" stroke-linejoin="round" stroke-linecap="butt" d="M808.734 130.206l15.31-6.602v19.805l-15.31 6.6z"/><path fill="#444" fill-opacity=".642" d="M792.245 124.924l15.31-6.6 16.49 5.28-15.31 6.602z"/><path stroke="#fff" stroke-linejoin="round" stroke-linecap="butt" d="M792.245 124.924l15.31-6.6 16.49 5.28-15.31 6.602z"/><path fill="#444" fill-opacity=".642" d="M754.79 251.604l15.31-6.6 16.487 5.28-15.31 6.6z"/><path stroke="#fff" stroke-linejoin="round" stroke-linecap="butt" d="M754.79 251.604l15.31-6.6 16.487 5.28-15.31 6.6z"/><path fill="#444" fill-opacity=".642" d="M754.79 231.804l15.31-6.6v19.8l-15.31 6.6z"/><path stroke="#fff" stroke-linejoin="round" stroke-linecap="butt" d="M754.79 231.804l15.31-6.6v19.8l-15.31 6.6z"/><path fill="#444" fill-opacity=".642" d="M770.147 225.203l16.44 5.344v19.737l-16.487-5.36z"/><path stroke="#fff" stroke-linejoin="round" stroke-linecap="butt" d="M770.147 225.203l16.44 5.344v19.737l-16.487-5.36z"/><path fill="#444" fill-opacity=".642" d="M754.838 231.803l16.44 5.344v19.737l-16.487-5.36z"/><path stroke="#fff" stroke-linejoin="round" stroke-linecap="butt" d="M754.838 231.803l16.44 5.344v19.737l-16.487-5.36z"/><path fill="#444" fill-opacity=".642" d="M771.278 237.084l15.31-6.6v19.8l-15.31 6.6z"/><path stroke="#fff" stroke-linejoin="round" stroke-linecap="butt" d="M771.278 237.084l15.31-6.6v19.8l-15.31 6.6z"/><path fill="#444" fill-opacity=".642" d="M754.79 231.804l15.31-6.6 16.487 5.28-15.31 6.6z"/><path stroke="#fff" stroke-linejoin="round" stroke-linecap="butt" d="M754.79 231.804l15.31-6.6 16.487 5.28-15.31 6.6z"/><path fill="#444" fill-opacity=".642" d="M852.798 212.496l15.31-6.6 16.49 5.28-15.31 6.602z"/><path stroke="#fff" stroke-linejoin="round" stroke-linecap="butt" d="M852.798 212.496l15.31-6.6 16.49 5.28-15.31 6.602z"/><path fill="#444" fill-opacity=".642" d="M852.798 192.69l15.31-6.6v19.805l-15.31 6.6z"/><path stroke="#fff" stroke-linejoin="round" stroke-linecap="butt" d="M852.798 192.69l15.31-6.6v19.805l-15.31 6.6z"/><path fill="#444" fill-opacity=".642" d="M868.156 186.088l16.442 5.345v19.743l-16.49-5.36z"/><path stroke="#fff" stroke-linejoin="round" stroke-linecap="butt" d="M868.156 186.088l16.442 5.345v19.743l-16.49-5.36z"/><path fill="#000" fill-opacity=".642" d="M852.845 192.69l16.442 5.345v19.743l-16.49-5.36z"/><path stroke="#fff" stroke-linejoin="round" stroke-linecap="butt" d="M852.845 192.69l16.442 5.345v19.743l-16.49-5.36z"/><path fill="#444" fill-opacity=".642" d="M869.287 197.972l15.31-6.6v19.804l-15.31 6.602z"/><path stroke="#fff" stroke-linejoin="round" stroke-linecap="butt" d="M869.287 197.972l15.31-6.6v19.804l-15.31 6.602z"/><path fill="#444" fill-opacity=".642" d="M852.798 192.69l15.31-6.6 16.49 5.28-15.31 6.602z"/><path stroke="#fff" stroke-linejoin="round" stroke-linecap="butt" d="M852.798 192.69l15.31-6.6 16.49 5.28-15.31 6.602z"/><path fill="#444" fill-opacity=".642" d="M872.31 169.932l15.31-6.602 16.49 5.282-15.31 6.602z"/><path stroke="#fff" stroke-linejoin="round" stroke-linecap="butt" d="M872.31 169.932l15.31-6.602 16.49 5.282-15.31 6.602z"/><path fill="#444" fill-opacity=".642" d="M872.31 150.127l15.31-6.602v19.805l-15.31 6.602z"/><path stroke="#fff" stroke-linejoin="round" stroke-linecap="butt" d="M872.31 150.127l15.31-6.602v19.805l-15.31 6.602z"/><path fill="#444" fill-opacity=".642" d="M887.668 143.524l16.442 5.345v19.74l-16.49-5.36z"/><path stroke="#fff" stroke-linejoin="round" stroke-linecap="butt" d="M887.668 143.524l16.442 5.345v19.74l-16.49-5.36z"/><path fill="#000" fill-opacity=".642" d="M872.357 150.126l16.442 5.345v19.75l-16.49-5.36z"/><path stroke="#fff" stroke-linejoin="round" stroke-linecap="butt" d="M872.357 150.126l16.442 5.345v19.75l-16.49-5.36z"/><path fill="#444" fill-opacity=".642" d="M888.8 155.408l15.31-6.602v19.806l-15.31 6.602z"/><path stroke="#fff" stroke-linejoin="round" stroke-linecap="butt" d="M888.8 155.408l15.31-6.602v19.806l-15.31 6.602z"/><path fill="#444" fill-opacity=".642" d="M872.31 150.127l15.31-6.602 16.49 5.28-15.31 6.603z"/><path stroke="#fff" stroke-linejoin="round" stroke-linecap="butt" d="M872.31 150.127l15.31-6.602 16.49 5.28-15.31 6.603z"/><path fill="#444" fill-opacity=".642" d="M852.8 162.478l15.31-6.602 16.488 5.28-15.31 6.603z"/><path stroke="#fff" stroke-linejoin="round" stroke-linecap="butt" d="M852.8 162.478l15.31-6.602 16.488 5.28-15.31 6.603z"/><path fill="#444" fill-opacity=".642" d="M852.8 142.672l15.31-6.602v19.806l-15.31 6.602z"/><path stroke="#fff" stroke-linejoin="round" stroke-linecap="butt" d="M852.8 142.672l15.31-6.602v19.806l-15.31 6.602z"/><path fill="#444" fill-opacity=".642" d="M868.156 136.07l16.442 5.344v19.743l-16.49-5.36z"/><path stroke="#fff" stroke-linejoin="round" stroke-linecap="butt" d="M868.156 136.07l16.442 5.344v19.743l-16.49-5.36z"/><path fill="#444" fill-opacity=".642" d="M852.845 142.67l16.442 5.346v19.743l-16.49-5.37z"/><path stroke="#fff" stroke-linejoin="round" stroke-linecap="butt" d="M852.845 142.67l16.442 5.346v19.743l-16.49-5.37z"/><path fill="#444" fill-opacity=".642" d="M869.287 147.954l15.31-6.602v19.805l-15.31 6.602z"/><path stroke="#fff" stroke-linejoin="round" stroke-linecap="butt" d="M869.287 147.954l15.31-6.602v19.805l-15.31 6.602z"/><path fill="#444" fill-opacity=".642" d="M852.8 142.672l15.31-6.602 16.488 5.282-15.31 6.602z"/><path stroke="#fff" stroke-linejoin="round" stroke-linecap="butt" d="M852.8 142.672l15.31-6.602 16.488 5.282-15.31 6.602z"/><path fill="#444" fill-opacity=".642" d="M833.294 208.95l15.31-6.602 16.49 5.28-15.31 6.603z"/><path stroke="#fff" stroke-linejoin="round" stroke-linecap="butt" d="M833.294 208.95l15.31-6.602 16.49 5.28-15.31 6.603z"/><path fill="#444" fill-opacity=".642" d="M833.294 189.144l15.31-6.602v19.806l-15.31 6.602z"/><path stroke="#fff" stroke-linejoin="round" stroke-linecap="butt" d="M833.294 189.144l15.31-6.602v19.806l-15.31 6.602z"/><path fill="#444" fill-opacity=".642" d="M848.652 182.54l16.442 5.346v19.743l-16.49-5.36z"/><path stroke="#fff" stroke-linejoin="round" stroke-linecap="butt" d="M848.652 182.54l16.442 5.346v19.743l-16.49-5.36z"/><path fill="#444" fill-opacity=".642" d="M833.34 189.143l16.443 5.345v19.743l-16.49-5.36z"/><path stroke="#fff" stroke-linejoin="round" stroke-linecap="butt" d="M833.34 189.143l16.443 5.345v19.743l-16.49-5.36z"/><path fill="#444" fill-opacity=".642" d="M849.783 194.426l15.31-6.602v19.805l-15.31 6.6z"/><path stroke="#fff" stroke-linejoin="round" stroke-linecap="butt" d="M849.783 194.426l15.31-6.602v19.805l-15.31 6.6z"/><path fill="#000" fill-opacity=".642" d="M833.294 189.144l15.31-6.602 16.49 5.282-15.31 6.602z"/><path stroke="#fff" stroke-linejoin="round" stroke-linecap="butt" d="M833.294 189.144l15.31-6.602 16.49 5.282-15.31 6.602z"/><path fill="#444" fill-opacity=".642" d="M833.294 184.12l15.31-6.6 16.49 5.28-15.31 6.603z"/><path stroke="#fff" stroke-linejoin="round" stroke-linecap="butt" d="M833.294 184.12l15.31-6.6 16.49 5.28-15.31 6.603z"/><path fill="#444" fill-opacity=".642" d="M833.294 164.316l15.31-6.602v19.806l-15.31 6.6z"/><path stroke="#fff" stroke-linejoin="round" stroke-linecap="butt" d="M833.294 164.316l15.31-6.602v19.806l-15.31 6.6z"/><path fill="#444" fill-opacity=".642" d="M848.652 157.713l16.442 5.345V182.8l-16.49-5.36z"/><path stroke="#fff" stroke-linejoin="round" stroke-linecap="butt" d="M848.652 157.713l16.442 5.345V182.8l-16.49-5.36z"/><path fill="#444" fill-opacity=".642" d="M833.34 164.315l16.443 5.345v19.743l-16.49-5.36z"/><path stroke="#fff" stroke-linejoin="round" stroke-linecap="butt" d="M833.34 164.315l16.443 5.345v19.743l-16.49-5.36z"/><path fill="#444" fill-opacity=".642" d="M849.783 169.597l15.31-6.6V182.8l-15.31 6.603z"/><path stroke="#fff" stroke-linejoin="round" stroke-linecap="butt" d="M849.783 169.597l15.31-6.6V182.8l-15.31 6.603z"/><path fill="#444" fill-opacity=".642" d="M833.294 164.316l15.31-6.602 16.49 5.282-15.31 6.6z"/><path stroke="#fff" stroke-linejoin="round" stroke-linecap="butt" d="M833.294 164.316l15.31-6.602 16.49 5.282-15.31 6.6z"/><path d="M389.16 717.756l337.575-144.662"/><path stroke="#fff" stroke-width="4" stroke-linejoin="round" stroke-linecap="butt" stroke-dasharray="16 12" d="M389.16 717.756l337.575-144.662"/><path d="M728.97 573.084l228.79 79.622"/><path stroke="#fff" stroke-width="4" stroke-linejoin="round" stroke-linecap="butt" stroke-dasharray="16 12" d="M728.97 573.084l228.79 79.622"/><path fill="#6d9eeb" fill-opacity=".8" d="M661.674 522.37l42.026-18.175 45.26 14.54-42.027 18.177z"/><path stroke="#fff" stroke-linejoin="round" stroke-linecap="butt" d="M661.674 522.37l42.026-18.175 45.26 14.54-42.027 18.177z"/><path fill="#6d9eeb" fill-opacity=".8" d="M661.674 467.843l42.026-18.176v54.528l-42.026 18.176z"/><path stroke="#fff" stroke-linejoin="round" stroke-linecap="butt" d="M661.674 467.843l42.026-18.176v54.528l-42.026 18.176z"/><path fill="#6d9eeb" fill-opacity=".8" d="M703.83 449.664l45.13 14.716v54.356l-45.262-14.76z"/><path stroke="#fff" stroke-linejoin="round" stroke-linecap="butt" d="M703.83 449.664l45.13 14.716v54.356l-45.262-14.76z"/><path fill="#5e88cd" fill-opacity=".8" d="M661.802 467.84l45.13 14.716v54.356l-45.26-14.76z"/><path stroke="#fff" stroke-linejoin="round" stroke-linecap="butt" d="M661.802 467.84l45.13 14.716v54.356l-45.26-14.76z"/><path fill="#6d9eeb" fill-opacity=".8" d="M706.933 482.384l42.027-18.176v54.528l-42.027 18.176z"/><path stroke="#fff" stroke-linejoin="round" stroke-linecap="butt" d="M706.933 482.384l42.027-18.176v54.528l-42.027 18.176z"/><path fill="#5e88cd" fill-opacity=".8" d="M661.674 467.843l42.026-18.176 45.26 14.54-42.027 18.177z"/><path stroke="#fff" stroke-linejoin="round" stroke-linecap="butt" d="M661.674 467.843l42.026-18.176 45.26 14.54-42.027 18.177z"/><path fill="#6d9eeb" fill-opacity=".8" d="M603.28 546.44l42.026-18.177 45.26 14.54-42.028 18.177z"/><path stroke="#fff" stroke-linejoin="round" stroke-linecap="butt" d="M603.28 546.44l42.026-18.177 45.26 14.54-42.028 18.177z"/><path fill="#6d9eeb" fill-opacity=".8" d="M603.28 491.91l42.026-18.175v54.528L603.28 546.44z"/><path stroke="#fff" stroke-linejoin="round" stroke-linecap="butt" d="M603.28 491.91l42.026-18.175v54.528L603.28 546.44z"/><path fill="#6d9eeb" fill-opacity=".8" d="M645.434 473.732l45.13 14.716v54.356l-45.26-14.76z"/><path stroke="#fff" stroke-linejoin="round" stroke-linecap="butt" d="M645.434 473.732l45.13 14.716v54.356l-45.26-14.76z"/><path fill="#5e88cd" fill-opacity=".8" d="M603.408 491.908l45.13 14.716v54.356l-45.26-14.76z"/><path stroke="#fff" stroke-linejoin="round" stroke-linecap="butt" d="M603.408 491.908l45.13 14.716v54.356l-45.26-14.76z"/><path fill="#6d9eeb" fill-opacity=".8" d="M648.538 506.452l42.027-18.176v54.528l-42.027 18.176z"/><path stroke="#fff" stroke-linejoin="round" stroke-linecap="butt" d="M648.538 506.452l42.027-18.176v54.528l-42.027 18.176z"/><path fill="#6d9eeb" fill-opacity=".8" d="M603.28 491.91l42.026-18.175 45.26 14.54-42.028 18.177z"/><path stroke="#fff" stroke-linejoin="round" stroke-linecap="butt" d="M603.28 491.91l42.026-18.175 45.26 14.54-42.028 18.177z"/><path fill="#6d9eeb" fill-opacity=".8" d="M544.527 571.997l42.026-18.176 45.26 14.54-42.027 18.18z"/><path stroke="#fff" stroke-linejoin="round" stroke-linecap="butt" d="M544.527 571.997l42.026-18.176 45.26 14.54-42.027 18.18z"/><path fill="#6d9eeb" fill-opacity=".8" d="M544.527 517.47l42.026-18.177v54.528L544.527 572z"/><path stroke="#fff" stroke-linejoin="round" stroke-linecap="butt" d="M544.527 517.47l42.026-18.177v54.528L544.527 572z"/><path fill="#6d9eeb" fill-opacity=".8" d="M586.682 499.29l45.13 14.716v54.355l-45.26-14.75z"/><path stroke="#fff" stroke-linejoin="round" stroke-linecap="butt" d="M586.682 499.29l45.13 14.716v54.355l-45.26-14.75z"/><path fill="#6d9eeb" fill-opacity=".8" d="M544.655 517.466l45.13 14.716v54.355l-45.26-14.758z"/><path stroke="#fff" stroke-linejoin="round" stroke-linecap="butt" d="M544.655 517.466l45.13 14.716v54.355l-45.26-14.758z"/><path fill="#6d9eeb" fill-opacity=".8" d="M589.786 532.01l42.027-18.177v54.528l-42.027 18.18z"/><path stroke="#fff" stroke-linejoin="round" stroke-linecap="butt" d="M589.786 532.01l42.027-18.177v54.528l-42.027 18.18z"/><path fill="#5e88cd" fill-opacity=".8" d="M544.527 517.47l42.026-18.177 45.26 14.54-42.027 18.176z"/><path stroke="#fff" stroke-linejoin="round" stroke-linecap="butt" d="M544.527 517.47l42.026-18.177 45.26 14.54-42.027 18.176z"/><path fill="#6d9eeb" fill-opacity=".8" d="M544.697 493.87l42.027-18.175 45.26 14.54-42.027 18.177z"/><path stroke="#fff" stroke-linejoin="round" stroke-linecap="butt" d="M544.697 493.87l42.027-18.175 45.26 14.54-42.027 18.177z"/><path fill="#6d9eeb" fill-opacity=".8" d="M544.697 439.343l42.027-18.176v54.528l-42.027 18.176z"/><path stroke="#fff" stroke-linejoin="round" stroke-linecap="butt" d="M544.697 439.343l42.027-18.176v54.528l-42.027 18.176z"/><path fill="#6d9eeb" fill-opacity=".8" d="M586.852 421.164l45.13 14.716v54.356l-45.26-14.76z"/><path stroke="#fff" stroke-linejoin="round" stroke-linecap="butt" d="M586.852 421.164l45.13 14.716v54.356l-45.26-14.76z"/><path fill="#6d9eeb" fill-opacity=".8" d="M544.826 439.34l45.13 14.716v54.356l-45.26-14.76z"/><path stroke="#fff" stroke-linejoin="round" stroke-linecap="butt" d="M544.826 439.34l45.13 14.716v54.356l-45.26-14.76z"/><path fill="#6d9eeb" fill-opacity=".8" d="M589.957 453.884l42.026-18.176v54.528l-42.026 18.176z"/><path stroke="#fff" stroke-linejoin="round" stroke-linecap="butt" d="M589.957 453.884l42.026-18.176v54.528l-42.026 18.176z"/><path fill="#5e88cd" fill-opacity=".8" d="M544.697 439.343l42.027-18.176 45.26 14.54-42.027 18.177z"/><path stroke="#fff" stroke-linejoin="round" stroke-linecap="butt" d="M544.697 439.343l42.027-18.176 45.26 14.54-42.027 18.177z"/><path fill="#6d9eeb" fill-opacity=".8" d="M544.697 416.326l42.027-18.176 45.26 14.54-42.027 18.177z"/><path stroke="#fff" stroke-linejoin="round" stroke-linecap="butt" d="M544.697 416.326l42.027-18.176 45.26 14.54-42.027 18.177z"/><path fill="#6d9eeb" fill-opacity=".8" d="M544.697 361.798l42.027-18.176v54.528l-42.027 18.176z"/><path stroke="#fff" stroke-linejoin="round" stroke-linecap="butt" d="M544.697 361.798l42.027-18.176v54.528l-42.027 18.176z"/><path fill="#6d9eeb" fill-opacity=".8" d="M586.852 343.62l45.13 14.715v54.356l-45.26-14.75z"/><path stroke="#fff" stroke-linejoin="round" stroke-linecap="butt" d="M586.852 343.62l45.13 14.715v54.356l-45.26-14.75z"/><path fill="#6d9eeb" fill-opacity=".8" d="M544.826 361.795l45.13 14.716v54.36l-45.26-14.76z"/><path stroke="#fff" stroke-linejoin="round" stroke-linecap="butt" d="M544.826 361.795l45.13 14.716v54.36l-45.26-14.76z"/><path fill="#6d9eeb" fill-opacity=".8" d="M589.957 376.34l42.026-18.177v54.528l-42.026 18.18z"/><path stroke="#fff" stroke-linejoin="round" stroke-linecap="butt" d="M589.957 376.34l42.026-18.177v54.528l-42.026 18.18z"/><path fill="#5e88cd" fill-opacity=".8" d="M544.697 361.798l42.027-18.176 45.26 14.54-42.027 18.177z"/><path stroke="#fff" stroke-linejoin="round" stroke-linecap="butt" d="M544.697 361.798l42.027-18.176 45.26 14.54-42.027 18.177z"/><path fill="#6d9eeb" fill-opacity=".8" d="M544.697 339.974l42.027-18.176 45.26 14.54-42.027 18.177z"/><path stroke="#fff" stroke-linejoin="round" stroke-linecap="butt" d="M544.697 339.974l42.027-18.176 45.26 14.54-42.027 18.177z"/><path fill="#6d9eeb" fill-opacity=".8" d="M544.697 285.446l42.027-18.176v54.528l-42.027 18.176z"/><path stroke="#fff" stroke-linejoin="round" stroke-linecap="butt" d="M544.697 285.446l42.027-18.176v54.528l-42.027 18.176z"/><path fill="#6d9eeb" fill-opacity=".8" d="M586.852 267.267l45.13 14.716v54.356l-45.26-14.76z"/><path stroke="#fff" stroke-linejoin="round" stroke-linecap="butt" d="M586.852 267.267l45.13 14.716v54.356l-45.26-14.76z"/><path fill="#6d9eeb" fill-opacity=".8" d="M544.826 285.443l45.13 14.716v54.35l-45.26-14.76z"/><path stroke="#fff" stroke-linejoin="round" stroke-linecap="butt" d="M544.826 285.443l45.13 14.716v54.35l-45.26-14.76z"/><path fill="#6d9eeb" fill-opacity=".8" d="M589.957 299.987l42.026-18.176v54.53l-42.026 18.18z"/><path stroke="#fff" stroke-linejoin="round" stroke-linecap="butt" d="M589.957 299.987l42.026-18.176v54.53l-42.026 18.18z"/><path fill="#5e88cd" fill-opacity=".8" d="M544.697 285.446l42.027-18.176 45.26 14.54-42.027 18.177z"/><path stroke="#fff" stroke-linejoin="round" stroke-linecap="butt" d="M544.697 285.446l42.027-18.176 45.26 14.54-42.027 18.177z"/><path fill="#6d9eeb" fill-opacity=".8" d="M661.85 452.263l42.028-18.178 45.26 14.542-42.027 18.178z"/><path stroke="#fff" stroke-linejoin="round" stroke-linecap="butt" d="M661.85 452.263l42.028-18.178 45.26 14.542-42.027 18.178z"/><path fill="#6d9eeb" fill-opacity=".8" d="M661.85 397.73l42.028-18.177v54.532l-42.028 18.178z"/><path stroke="#fff" stroke-linejoin="round" stroke-linecap="butt" d="M661.85 397.73l42.028-18.177v54.532l-42.028 18.178z"/><path fill="#6d9eeb" fill-opacity=".8" d="M704.007 379.55l45.132 14.717v54.36l-45.27-14.76z"/><path stroke="#fff" stroke-linejoin="round" stroke-linecap="butt" d="M704.007 379.55l45.132 14.717v54.36l-45.27-14.76z"/><path fill="#6d9eeb" fill-opacity=".8" d="M661.98 397.727l45.13 14.718v54.36l-45.262-14.76z"/><path stroke="#fff" stroke-linejoin="round" stroke-linecap="butt" d="M661.98 397.727l45.13 14.718v54.36l-45.262-14.76z"/><path fill="#6d9eeb" fill-opacity=".8" d="M707.11 412.272l42.03-18.177v54.532l-42.03 18.178z"/><path stroke="#fff" stroke-linejoin="round" stroke-linecap="butt" d="M707.11 412.272l42.03-18.177v54.532l-42.03 18.178z"/><path fill="#5e88cd" fill-opacity=".8" d="M661.85 397.73l42.028-18.177 45.26 14.542-42.027 18.177z"/><path stroke="#fff" stroke-linejoin="round" stroke-linecap="butt" d="M661.85 397.73l42.028-18.177 45.26 14.542-42.027 18.177z"/><path fill="#6d9eeb" fill-opacity=".8" d="M661.844 383.894l42.027-18.176 45.26 14.54-42.02 18.177z"/><path stroke="#fff" stroke-linejoin="round" stroke-linecap="butt" d="M661.844 383.894l42.027-18.176 45.26 14.54-42.02 18.177z"/><path fill="#6d9eeb" fill-opacity=".8" d="M661.844 329.366l42.027-18.176v54.528l-42.02 18.176z"/><path stroke="#fff" stroke-linejoin="round" stroke-linecap="butt" d="M661.844 329.366l42.027-18.176v54.528l-42.02 18.176z"/><path fill="#6d9eeb" fill-opacity=".8" d="M704 311.187l45.13 14.716v54.356l-45.26-14.76z"/><path stroke="#fff" stroke-linejoin="round" stroke-linecap="butt" d="M704 311.187l45.13 14.716v54.356l-45.26-14.76z"/><path fill="#6d9eeb" fill-opacity=".8" d="M661.973 329.363l45.13 14.716v54.35l-45.26-14.76z"/><path stroke="#fff" stroke-linejoin="round" stroke-linecap="butt" d="M661.973 329.363l45.13 14.716v54.35l-45.26-14.76z"/><path fill="#6d9eeb" fill-opacity=".8" d="M707.103 343.907l42.027-18.176v54.53l-42.027 18.18z"/><path stroke="#fff" stroke-linejoin="round" stroke-linecap="butt" d="M707.103 343.907l42.027-18.176v54.53l-42.027 18.18z"/><path fill="#5e88cd" fill-opacity=".8" d="M661.844 329.366l42.027-18.176 45.26 14.54-42.02 18.177z"/><path stroke="#fff" stroke-linejoin="round" stroke-linecap="butt" d="M661.844 329.366l42.027-18.176 45.26 14.54-42.02 18.177z"/><path fill="#6d9eeb" fill-opacity=".8" d="M661.844 315.542l42.027-18.176 45.26 14.54-42.02 18.177z"/><path stroke="#fff" stroke-linejoin="round" stroke-linecap="butt" d="M661.844 315.542l42.027-18.176 45.26 14.54-42.02 18.177z"/><path fill="#6d9eeb" fill-opacity=".8" d="M661.844 261.014l42.027-18.176v54.528l-42.02 18.176z"/><path stroke="#fff" stroke-linejoin="round" stroke-linecap="butt" d="M661.844 261.014l42.027-18.176v54.528l-42.02 18.176z"/><path fill="#6d9eeb" fill-opacity=".8" d="M704 242.835l45.13 14.716v54.36l-45.26-14.76z"/><path stroke="#fff" stroke-linejoin="round" stroke-linecap="butt" d="M704 242.835l45.13 14.716v54.36l-45.26-14.76z"/><path fill="#6d9eeb" fill-opacity=".8" d="M661.973 261.01l45.13 14.717v54.356l-45.26-14.76z"/><path stroke="#fff" stroke-linejoin="round" stroke-linecap="butt" d="M661.973 261.01l45.13 14.717v54.356l-45.26-14.76z"/><path fill="#6d9eeb" fill-opacity=".8" d="M707.103 275.555l42.027-18.176v54.52l-42.027 18.17z"/><path stroke="#fff" stroke-linejoin="round" stroke-linecap="butt" d="M707.103 275.555l42.027-18.176v54.52l-42.027 18.17z"/><path fill="#5e88cd" fill-opacity=".8" d="M661.844 261.014l42.027-18.176 45.26 14.54-42.02 18.177z"/><path stroke="#fff" stroke-linejoin="round" stroke-linecap="butt" d="M661.844 261.014l42.027-18.176 45.26 14.54-42.02 18.177z"/><path fill="#6d9eeb" fill-opacity=".8" d="M661.856 246.22l42.027-18.175 45.26 14.54-42.027 18.177z"/><path stroke="#fff" stroke-linejoin="round" stroke-linecap="butt" d="M661.856 246.22l42.027-18.175 45.26 14.54-42.027 18.177z"/><path fill="#6d9eeb" fill-opacity=".8" d="M661.856 191.693l42.027-18.176v54.528l-42.027 18.176z"/><path stroke="#fff" stroke-linejoin="round" stroke-linecap="butt" d="M661.856 191.693l42.027-18.176v54.528l-42.027 18.176z"/><path fill="#6d9eeb" fill-opacity=".8" d="M704.01 173.514l45.132 14.716v54.356l-45.26-14.76z"/><path stroke="#fff" stroke-linejoin="round" stroke-linecap="butt" d="M704.01 173.514l45.132 14.716v54.356l-45.26-14.76z"/><path fill="#6d9eeb" fill-opacity=".8" d="M661.985 191.69l45.13 14.716v54.356l-45.26-14.76z"/><path stroke="#fff" stroke-linejoin="round" stroke-linecap="butt" d="M661.985 191.69l45.13 14.716v54.356l-45.26-14.76z"/><path fill="#6d9eeb" fill-opacity=".8" d="M707.116 206.234l42.026-18.176v54.528l-42.026 18.176z"/><path stroke="#fff" stroke-linejoin="round" stroke-linecap="butt" d="M707.116 206.234l42.026-18.176v54.528l-42.026 18.176z"/><path fill="#6d9eeb" fill-opacity=".8" d="M661.856 191.693l42.027-18.176 45.26 14.54-42.027 18.177z"/><path stroke="#fff" stroke-linejoin="round" stroke-linecap="butt" d="M661.856 191.693l42.027-18.176 45.26 14.54-42.027 18.177z"/><path fill="#e06666" fill-opacity=".8" d="M779.74 527.327l32.663-14.12 35.175 11.296-32.663 14.12z"/><path stroke="#f4bed8" stroke-linejoin="round" stroke-linecap="butt" d="M779.74 527.327l32.663-14.12 35.175 11.296-32.663 14.12z"/><path fill="#e06666" fill-opacity=".8" d="M779.74 484.962l32.663-14.12v42.364l-32.663 14.12z"/><path stroke="#f4bed8" stroke-linejoin="round" stroke-linecap="butt" d="M779.74 484.962l32.663-14.12v42.364l-32.663 14.12z"/><path fill="#e06666" fill-opacity=".8" d="M812.503 470.838l35.075 11.434v42.23L812.4 513.037z"/><path stroke="#f4bed8" stroke-linejoin="round" stroke-linecap="butt" d="M812.503 470.838l35.075 11.434v42.23L812.4 513.037z"/><path fill="#e06666" fill-opacity=".8" d="M779.84 484.96l35.075 11.433v42.23L779.74 527.16z"/><path stroke="#f4bed8" stroke-linejoin="round" stroke-linecap="butt" d="M779.84 484.96l35.075 11.433v42.23L779.74 527.16z"/><path fill="#b95454" fill-opacity=".8" d="M814.915 496.26l32.663-14.122v42.365l-32.663 14.12z"/><path stroke="#f4bed8" stroke-linejoin="round" stroke-linecap="butt" d="M814.915 496.26l32.663-14.122v42.365l-32.663 14.12z"/><path fill="#b95454" fill-opacity=".8" d="M779.74 484.962l32.663-14.12 35.175 11.296-32.663 14.122z"/><path stroke="#f4bed8" stroke-linejoin="round" stroke-linecap="butt" d="M779.74 484.962l32.663-14.12 35.175 11.296-32.663 14.122z"/><path fill="#e06666" fill-opacity=".8" d="M826.096 568.376l32.663-14.12 35.17 11.296-32.67 14.12z"/><path stroke="#f4bed8" stroke-linejoin="round" stroke-linecap="butt" d="M826.096 568.376l32.663-14.12 35.17 11.296-32.67 14.12z"/><path fill="#e06666" fill-opacity=".8" d="M826.096 526.01l32.663-14.12v42.365l-32.67 14.12z"/><path stroke="#f4bed8" stroke-linejoin="round" stroke-linecap="butt" d="M826.096 526.01l32.663-14.12v42.365l-32.67 14.12z"/><path fill="#e06666" fill-opacity=".8" d="M858.86 511.887l35.074 11.434v42.24l-35.177-11.463z"/><path stroke="#f4bed8" stroke-linejoin="round" stroke-linecap="butt" d="M858.86 511.887l35.074 11.434v42.24l-35.177-11.463z"/><path fill="#e06666" fill-opacity=".8" d="M826.196 526.01l35.075 11.433v42.23l-35.17-11.466z"/><path stroke="#f4bed8" stroke-linejoin="round" stroke-linecap="butt" d="M826.196 526.01l35.075 11.433v42.23l-35.17-11.466z"/><path fill="#b95454" fill-opacity=".8" d="M861.27 537.31l32.664-14.123v42.365l-32.663 14.12z"/><path stroke="#f4bed8" stroke-linejoin="round" stroke-linecap="butt" d="M861.27 537.31l32.664-14.123v42.365l-32.663 14.12z"/><path fill="#e06666" fill-opacity=".8" d="M826.096 526.01l32.663-14.12 35.17 11.297-32.67 14.122z"/><path stroke="#f4bed8" stroke-linejoin="round" stroke-linecap="butt" d="M826.096 526.01l32.663-14.12 35.17 11.297-32.67 14.122z"/><path fill="#e06666" fill-opacity=".8" d="M877.625 586.422l32.662-14.12 35.175 11.296L912.8 597.72z"/><path stroke="#f4bed8" stroke-linejoin="round" stroke-linecap="butt" d="M877.625 586.422l32.662-14.12 35.175 11.296L912.8 597.72z"/><path fill="#e06666" fill-opacity=".8" d="M877.625 544.058l32.662-14.122V572.3l-32.663 14.122z"/><path stroke="#f4bed8" stroke-linejoin="round" stroke-linecap="butt" d="M877.625 544.058l32.662-14.122V572.3l-32.663 14.122z"/><path fill="#e06666" fill-opacity=".8" d="M910.387 529.934l35.075 11.433v42.23l-35.176-11.466z"/><path stroke="#f4bed8" stroke-linejoin="round" stroke-linecap="butt" d="M910.387 529.934l35.075 11.433v42.23l-35.176-11.466z"/><path fill="#e06666" fill-opacity=".8" d="M877.724 544.055L912.8 555.49v42.23l-35.177-11.467z"/><path stroke="#f4bed8" stroke-linejoin="round" stroke-linecap="butt" d="M877.724 544.055L912.8 555.49v42.23l-35.177-11.467z"/><path fill="#e06666" fill-opacity=".8" d="M912.8 555.355l32.662-14.122v42.365L912.8 597.72z"/><path stroke="#f4bed8" stroke-linejoin="round" stroke-linecap="butt" d="M912.8 555.355l32.662-14.122v42.365L912.8 597.72z"/><path fill="#e06666" fill-opacity=".8" d="M877.625 544.058l32.662-14.122 35.175 11.297-32.663 14.122z"/><path stroke="#f4bed8" stroke-linejoin="round" stroke-linecap="butt" d="M877.625 544.058l32.662-14.122 35.175 11.297-32.663 14.122z"/><path fill="#e06666" fill-opacity=".8" d="M770 471.155l32.66-14.122 35.176 11.297-32.662 14.122z"/><path stroke="#f4bed8" stroke-linejoin="round" stroke-linecap="butt" d="M770 471.155l32.66-14.122 35.176 11.297-32.662 14.122z"/><path fill="#e06666" fill-opacity=".8" d="M770 428.79l32.66-14.122v42.365L770 471.155z"/><path stroke="#f4bed8" stroke-linejoin="round" stroke-linecap="butt" d="M770 428.79l32.66-14.122v42.365L770 471.155z"/><path fill="#e06666" fill-opacity=".8" d="M802.76 414.666l35.076 11.433v42.23l-35.176-11.47z"/><path stroke="#f4bed8" stroke-linejoin="round" stroke-linecap="butt" d="M802.76 414.666l35.076 11.433v42.23l-35.176-11.47z"/><path fill="#e06666" fill-opacity=".8" d="M770.1 428.788l35.074 11.433v42.24l-35.177-11.463z"/><path stroke="#f4bed8" stroke-linejoin="round" stroke-linecap="butt" d="M770.1 428.788l35.074 11.433v42.24l-35.177-11.463z"/><path fill="#e06666" fill-opacity=".8" d="M805.174 440.087l32.662-14.122v42.365l-32.662 14.122z"/><path stroke="#f4bed8" stroke-linejoin="round" stroke-linecap="butt" d="M805.174 440.087l32.662-14.122v42.365l-32.662 14.122z"/><path fill="#b95454" fill-opacity=".8" d="M770 428.79l32.66-14.122 35.176 11.297-32.662 14.122z"/><path stroke="#f4bed8" stroke-linejoin="round" stroke-linecap="butt" d="M770 428.79l32.66-14.122 35.176 11.297-32.662 14.122z"/><path fill="#e06666" fill-opacity=".8" d="M769.993 417.5l32.663-14.122 35.175 11.297-32.66 14.122z"/><path stroke="#f4bed8" stroke-linejoin="round" stroke-linecap="butt" d="M769.993 417.5l32.663-14.122 35.175 11.297-32.66 14.122z"/><path fill="#e06666" fill-opacity=".8" d="M769.993 375.135l32.663-14.122v42.365L769.993 417.5z"/><path stroke="#f4bed8" stroke-linejoin="round" stroke-linecap="butt" d="M769.993 375.135l32.663-14.122v42.365L769.993 417.5z"/><path fill="#e06666" fill-opacity=".8" d="M802.756 361.01l35.075 11.434v42.23l-35.17-11.464z"/><path stroke="#f4bed8" stroke-linejoin="round" stroke-linecap="butt" d="M802.756 361.01l35.075 11.434v42.23l-35.17-11.464z"/><path fill="#e06666" fill-opacity=".8" d="M770.093 375.133l35.075 11.433v42.23l-35.176-11.466z"/><path stroke="#f4bed8" stroke-linejoin="round" stroke-linecap="butt" d="M770.093 375.133l35.075 11.433v42.23l-35.176-11.466z"/><path fill="#e06666" fill-opacity=".8" d="M805.168 386.432l32.663-14.122v42.365l-32.66 14.122z"/><path stroke="#f4bed8" stroke-linejoin="round" stroke-linecap="butt" d="M805.168 386.432l32.663-14.122v42.365l-32.66 14.122z"/><path fill="#b95454" fill-opacity=".8" d="M769.993 375.135l32.663-14.122 35.175 11.297-32.66 14.122z"/><path stroke="#f4bed8" stroke-linejoin="round" stroke-linecap="butt" d="M769.993 375.135l32.663-14.122 35.175 11.297-32.66 14.122z"/><path fill="#e06666" fill-opacity=".8" d="M769.993 360.917l32.663-14.122 35.175 11.298-32.66 14.12z"/><path stroke="#f4bed8" stroke-linejoin="round" stroke-linecap="butt" d="M769.993 360.917l32.663-14.122 35.175 11.298-32.66 14.12z"/><path fill="#e06666" fill-opacity=".8" d="M769.993 318.552l32.663-14.122v42.365l-32.663 14.122z"/><path stroke="#f4bed8" stroke-linejoin="round" stroke-linecap="butt" d="M769.993 318.552l32.663-14.122v42.365l-32.663 14.122z"/><path fill="#e06666" fill-opacity=".8" d="M802.756 304.428l35.075 11.434v42.23l-35.17-11.466z"/><path stroke="#f4bed8" stroke-linejoin="round" stroke-linecap="butt" d="M802.756 304.428l35.075 11.434v42.23l-35.17-11.466z"/><path fill="#e06666" fill-opacity=".8" d="M770.093 318.55l35.075 11.433v42.23l-35.176-11.466z"/><path stroke="#f4bed8" stroke-linejoin="round" stroke-linecap="butt" d="M770.093 318.55l35.075 11.433v42.23l-35.176-11.466z"/><path fill="#e06666" fill-opacity=".8" d="M805.168 329.85l32.663-14.122v42.365l-32.66 14.12z"/><path stroke="#f4bed8" stroke-linejoin="round" stroke-linecap="butt" d="M805.168 329.85l32.663-14.122v42.365l-32.66 14.12z"/><path fill="#b95454" fill-opacity=".8" d="M769.993 318.552l32.663-14.122 35.175 11.298-32.66 14.12z"/><path stroke="#f4bed8" stroke-linejoin="round" stroke-linecap="butt" d="M769.993 318.552l32.663-14.122 35.175 11.298-32.66 14.12z"/><path fill="#e06666" fill-opacity=".8" d="M779.74 307.672l32.663-14.122 35.175 11.297-32.663 14.122z"/><path stroke="#f4bed8" stroke-linejoin="round" stroke-linecap="butt" d="M779.74 307.672l32.663-14.122 35.175 11.297-32.663 14.122z"/><path fill="#e06666" fill-opacity=".8" d="M779.74 265.307l32.663-14.122v42.365l-32.663 14.122z"/><path stroke="#f4bed8" stroke-linejoin="round" stroke-linecap="butt" d="M779.74 265.307l32.663-14.122v42.365l-32.663 14.122z"/><path fill="#e06666" fill-opacity=".8" d="M812.503 251.183l35.075 11.433v42.23L812.4 293.382z"/><path stroke="#f4bed8" stroke-linejoin="round" stroke-linecap="butt" d="M812.503 251.183l35.075 11.433v42.23L812.4 293.382z"/><path fill="#e06666" fill-opacity=".8" d="M779.84 265.305l35.075 11.433v42.23l-35.176-11.466z"/><path stroke="#f4bed8" stroke-linejoin="round" stroke-linecap="butt" d="M779.84 265.305l35.075 11.433v42.23l-35.176-11.466z"/><path fill="#b95454" fill-opacity=".8" d="M814.915 276.604l32.663-14.12v42.363l-32.663 14.122z"/><path stroke="#f4bed8" stroke-linejoin="round" stroke-linecap="butt" d="M814.915 276.604l32.663-14.12v42.363l-32.663 14.122z"/><path fill="#e06666" fill-opacity=".8" d="M779.74 265.307l32.663-14.122 35.175 11.298-32.663 14.12z"/><path stroke="#f4bed8" stroke-linejoin="round" stroke-linecap="butt" d="M779.74 265.307l32.663-14.122 35.175 11.298-32.663 14.12z"/><path fill="#e06666" fill-opacity=".8" d="M826.097 281.69l32.663-14.12 35.175 11.297-32.663 14.122z"/><path stroke="#f4bed8" stroke-linejoin="round" stroke-linecap="butt" d="M826.097 281.69l32.663-14.12 35.175 11.297-32.663 14.122z"/><path fill="#e06666" fill-opacity=".8" d="M826.097 239.327l32.663-14.122v42.365l-32.663 14.12z"/><path stroke="#f4bed8" stroke-linejoin="round" stroke-linecap="butt" d="M826.097 239.327l32.663-14.122v42.365l-32.663 14.12z"/><path fill="#e06666" fill-opacity=".8" d="M858.86 225.203l35.075 11.433v42.23L858.758 267.4z"/><path stroke="#f4bed8" stroke-linejoin="round" stroke-linecap="butt" d="M858.86 225.203l35.075 11.433v42.23L858.758 267.4z"/><path fill="#e06666" fill-opacity=".8" d="M826.197 239.324l35.075 11.434v42.23l-35.176-11.466z"/><path stroke="#f4bed8" stroke-linejoin="round" stroke-linecap="butt" d="M826.197 239.324l35.075 11.434v42.23l-35.176-11.466z"/><path fill="#b95454" fill-opacity=".8" d="M861.272 250.624l32.663-14.122v42.365l-32.663 14.122z"/><path stroke="#f4bed8" stroke-linejoin="round" stroke-linecap="butt" d="M861.272 250.624l32.663-14.122v42.365l-32.663 14.122z"/><path fill="#e06666" fill-opacity=".8" d="M826.097 239.327l32.663-14.122 35.175 11.297-32.663 14.122z"/><path stroke="#f4bed8" stroke-linejoin="round" stroke-linecap="butt" d="M826.097 239.327l32.663-14.122 35.175 11.297-32.663 14.122z"/><path fill="#e06666" fill-opacity=".8" d="M877.45 298.99l32.663-14.123 35.175 11.298-32.662 14.12z"/><path stroke="#f4bed8" stroke-linejoin="round" stroke-linecap="butt" d="M877.45 298.99l32.663-14.123 35.175 11.298-32.662 14.12z"/><path fill="#e06666" fill-opacity=".8" d="M877.45 256.624l32.663-14.12v42.363L877.45 298.99z"/><path stroke="#f4bed8" stroke-linejoin="round" stroke-linecap="butt" d="M877.45 256.624l32.663-14.12v42.363L877.45 298.99z"/><path fill="#e06666" fill-opacity=".8" d="M910.213 242.5l35.075 11.434v42.23L910.112 284.7z"/><path stroke="#f4bed8" stroke-linejoin="round" stroke-linecap="butt" d="M910.213 242.5l35.075 11.434v42.23L910.112 284.7z"/><path fill="#e06666" fill-opacity=".8" d="M877.55 256.622l35.076 11.433v42.23L877.45 298.82z"/><path stroke="#f4bed8" stroke-linejoin="round" stroke-linecap="butt" d="M877.55 256.622l35.076 11.433v42.23L877.45 298.82z"/><path fill="#e06666" fill-opacity=".8" d="M912.626 267.92l32.662-14.12v42.365l-32.662 14.12z"/><path stroke="#f4bed8" stroke-linejoin="round" stroke-linecap="butt" d="M912.626 267.92l32.662-14.12v42.365l-32.662 14.12z"/><path fill="#e06666" fill-opacity=".8" d="M877.45 256.624l32.663-14.12 35.175 11.296-32.662 14.12z"/><path stroke="#f4bed8" stroke-linejoin="round" stroke-linecap="butt" d="M877.45 256.624l32.663-14.12 35.175 11.296-32.662 14.12z"/><path fill="#fff" fill-opacity=".808" d="M323.234 261.75l22.547-8.672 24.29 6.938-22.542 8.672z"/><path stroke="#000" stroke-linejoin="round" stroke-linecap="butt" d="M323.234 261.75l22.547-8.672 24.29 6.938-22.542 8.672z"/><path fill="#fff" fill-opacity=".808" d="M323.234 235.734l22.547-8.672v26.016l-22.54 8.672z"/><path stroke="#000" stroke-linejoin="round" stroke-linecap="butt" d="M323.234 235.734l22.547-8.672v26.016l-22.54 8.672z"/><path fill="#fff" fill-opacity=".808" d="M345.85 227.06l24.213 7.022v25.934l-24.282-7.042z"/><path stroke="#000" stroke-linejoin="round" stroke-linecap="butt" d="M345.85 227.06l24.213 7.022v25.934l-24.282-7.042z"/><path fill="#fff" fill-opacity=".808" d="M323.303 235.733l24.213 7.02v25.935l-24.283-7.042z"/><path stroke="#000" stroke-linejoin="round" stroke-linecap="butt" d="M323.303 235.733l24.213 7.02v25.935l-24.283-7.042z"/><path fill="#fff" fill-opacity=".808" d="M347.516 242.672L370.063 234v26.016l-22.547 8.672z"/><path stroke="#000" stroke-linejoin="round" stroke-linecap="butt" d="M347.516 242.672L370.063 234v26.016l-22.547 8.672z"/><path fill="#fff" fill-opacity=".808" d="M323.234 235.734l22.547-8.672L370.07 234l-22.547 8.672z"/><path stroke="#000" stroke-linejoin="round" stroke-linecap="butt" d="M323.234 235.734l22.547-8.672L370.07 234l-22.547 8.672z"/></g></svg>