<?xml version="1.0" standalone="no"?>
<!DOCTYPE svg PUBLIC "-//W3C//DTD SVG 20010904//EN"
 "http://www.w3.org/TR/2001/REC-SVG-20010904/DTD/svg10.dtd">
<svg version="1.0" xmlns="http://www.w3.org/2000/svg"
 width="533.000000pt" height="533.000000pt" viewBox="0 0 533.000000 533.000000"
 preserveAspectRatio="xMidYMid meet">
<metadata>
Created by potrace 1.11, written by Peter Selinger 2001-2013
</metadata>
<g transform="translate(0.000000,533.000000) scale(0.100000,-0.100000)"
fill="#000000" stroke="none">
<path d="M813 5191 c-73 -31 -136 -60 -139 -64 -4 -4 -16 -7 -26 -7 -10 0 -18
-4 -18 -10 0 -5 -6 -10 -13 -10 -8 0 -54 -17 -103 -39 l-89 -38 0 -354 0 -353
93 -30 c50 -17 92 -33 92 -36 0 -4 -42 -25 -92 -47 l-93 -40 0 -353 0 -353 94
-29 c51 -16 90 -32 87 -35 -3 -3 -45 -23 -93 -43 l-88 -38 0 -353 0 -352 93
-31 93 -32 -68 -30 c-37 -17 -80 -36 -96 -42 l-27 -12 2 -352 3 -352 93 -30
c92 -30 107 -41 74 -53 -9 -3 -35 -14 -57 -23 -22 -10 -57 -25 -77 -33 l-38
-16 0 -294 0 -294 -108 -47 c-59 -26 -131 -57 -159 -69 -29 -12 -53 -24 -53
-28 0 -3 33 -15 73 -28 105 -32 538 -171 567 -181 14 -5 133 -43 265 -85 132
-42 308 -99 390 -125 83 -27 209 -67 280 -90 72 -23 141 -45 155 -50 32 -11
285 -92 514 -165 l178 -57 77 32 c81 34 515 222 566 245 17 7 111 48 210 91
271 116 442 190 740 319 268 116 612 264 650 280 15 6 -18 20 -140 60 l-160
53 -3 90 -3 90 58 -15 58 -14 195 80 195 79 0 259 c0 250 -1 258 -20 261 -11
2 -23 7 -27 11 -5 4 65 38 155 77 l162 69 3 257 2 256 -77 24 -77 24 75 30 74
30 0 258 0 258 -154 50 -154 51 64 27 64 27 3 256 2 256 -132 41 c-73 22 -170
53 -216 67 l-83 26 -78 -31 c-89 -37 -91 -37 -91 -17 0 14 -34 26 -343 121
l-88 27 -107 -44 c-59 -23 -147 -59 -197 -80 l-90 -38 -3 -54 -3 -54 -72 24
-73 24 -199 -85 -200 -84 0 -258 0 -257 85 -28 c63 -20 80 -29 65 -34 -11 -3
-49 -19 -85 -34 l-65 -28 -3 -256 -2 -257 75 -22 c41 -12 72 -24 69 -27 -3 -3
-36 -18 -72 -32 l-67 -27 0 -258 0 -257 75 -25 74 -25 -29 -14 c-17 -7 -51
-22 -77 -33 l-48 -19 0 -149 0 -150 -217 70 c-120 38 -284 91 -365 117 l-147
49 -308 -135 c-169 -74 -320 -134 -336 -134 -15 0 -59 -13 -97 -29 l-70 -29 0
64 0 64 -101 32 -102 31 99 43 99 42 3 221 2 221 102 -35 c59 -19 110 -31 124
-28 12 3 134 54 271 114 l248 108 0 352 0 352 -285 94 -285 95 -75 -32 c-41
-17 -81 -34 -87 -36 -10 -4 -13 13 -13 66 l0 70 -72 21 c-101 29 -134 43 -117
48 8 3 37 15 64 27 28 13 67 30 88 38 l37 16 0 214 0 214 87 -28 c102 -34 96
-33 136 -15 18 8 49 21 69 30 l37 15 3 -66 3 -66 265 -83 c146 -46 277 -86
292 -89 25 -6 144 41 423 165 22 10 61 27 88 39 l47 20 0 349 0 349 -132 42
c-73 23 -202 65 -287 93 l-155 50 -65 -27 c-36 -15 -72 -29 -78 -32 -10 -4
-13 12 -13 60 l0 64 -92 31 c-51 16 -181 58 -287 92 l-195 62 -73 -30 -73 -31
0 63 c0 60 -2 64 -27 74 -51 19 -553 182 -561 181 -4 0 -66 -26 -139 -58z
m3576 -1826 l153 -51 -64 -26 -63 -26 0 -258 0 -257 80 -25 79 -24 -79 -33
-80 -33 -3 -257 c-2 -250 -2 -257 18 -262 11 -3 20 -8 20 -12 0 -3 -69 -36
-152 -72 l-153 -66 -3 -158 c-2 -130 -5 -156 -17 -152 -69 27 -94 28 -152 3
l-58 -24 -5 156 -5 156 -65 19 c-61 18 -99 37 -72 37 6 0 41 13 77 30 l65 30
0 254 0 254 -67 23 c-38 12 -72 24 -77 27 -4 2 25 19 65 36 l74 32 3 256 2
256 -67 22 c-38 12 -75 24 -83 26 -8 3 20 20 65 39 l80 33 3 55 3 55 75 -25
c74 -25 76 -25 120 -8 26 10 41 21 38 27 -4 7 -2 8 4 4 6 -3 26 0 44 7 29 12
34 12 39 -2 3 -9 67 -35 158 -66z"/>
<path d="M3410 5141 l-65 -27 0 -94 0 -94 75 -24 75 -24 68 31 67 31 0 89 0
90 -55 20 c-84 32 -95 32 -165 2z"/>
<path d="M3940 4980 l-65 -29 -3 -70 c-2 -51 -6 -69 -15 -65 -7 2 -44 -8 -82
-24 l-70 -29 0 -93 c0 -91 1 -94 24 -100 l24 -5 -27 -13 c-27 -12 -27 -13 -24
-104 l3 -91 70 -24 c39 -13 80 -21 93 -18 13 3 54 -4 91 -15 l66 -21 68 30 67
30 0 55 c0 47 2 54 18 50 9 -3 49 8 87 24 l70 29 3 90 c3 87 2 92 -20 99 l-23
7 23 8 c21 8 22 14 22 103 l0 94 -80 27 c-44 15 -84 24 -90 20 -5 -3 -10 1
-10 9 0 9 -16 20 -42 27 -24 6 -56 15 -72 20 -38 12 -31 13 -106 -21z m110
-268 c0 -7 7 -15 16 -19 15 -5 15 -7 0 -15 -12 -6 -16 -24 -16 -62 l0 -52 -42
2 c-60 2 -66 4 -40 14 20 8 22 16 22 77 l0 68 30 0 c18 0 30 -5 30 -13z"/>
<path d="M3445 4796 c-16 -8 -47 -22 -67 -30 l-38 -15 0 -96 c0 -89 1 -96 22
-104 l22 -8 -22 -5 c-21 -6 -22 -12 -22 -98 0 -83 2 -92 20 -97 11 -3 20 -9
20 -13 0 -4 -9 -10 -20 -13 -16 -4 -20 -14 -20 -47 0 -32 -3 -41 -14 -37 -68
26 -94 29 -127 14 -19 -9 -51 -23 -72 -31 l-38 -15 3 -93 3 -92 75 -24 76 -25
67 31 c66 31 67 32 67 72 0 45 0 46 66 24 49 -15 50 -15 117 15 l68 31 -3 92
c-3 88 -4 92 -27 98 l-24 5 27 13 c27 12 27 13 24 104 -3 88 -4 92 -27 98
l-24 5 27 12 c25 12 26 15 26 102 l0 90 -55 20 c-81 30 -97 32 -130 17z"/>
</g>
</svg>
