<svg viewBox="0 0 100 100" fill="none" stroke-linecap="square" stroke-miterlimit="10" xmlns="http://www.w3.org/2000/svg">
  <g>
    <path class="o" d="M80.601 55.761c-20.418 9.812-45.297 16.854-69.97 23.385"/>
    <path class="o" d="M86.77 70.044c-6.354 4.135-14.097 7.103-21.775 9.855"/>
    <path class="o" d="M75.298 40.546c-5.772 3.377-12.804 5.8-19.778 8.048"/>
    <path class="o" d="M41.51 52.173c-6.354 3.377-14.096 5.8-21.775 8.048"/>
    <path class="o" d="M72.123 22.935c-6.744 2.722-14.617 4.754-22.006 7.075-7.394 2.321-14.275 5.256-22.705 6.58"/>
    <path class="o" d="M66.864 7.236c-5.191 1.604-11.25 2.802-16.939 4.17-5.69 1.368-10.987 3.097-17.475 3.878"/>
    <path class="o" d="M93.254 88.932c-3.187 1.604-6.908 2.802-10.4 4.17-3.495 1.367-6.747 3.097-10.73 3.877"/>
    <path class="o" d="M31.763 91.953c-2.984 1.002-6.467 1.75-9.736 2.604-3.272.855-6.316 1.935-10.045 2.423"/>
    
  	<path class="p" d="M48.508 29.22c3.124 6.247 4.93 13.102 6.626 19.878.822 3.285.256 7.412 2.65 9.806.638.637 1.405 2.432.53 2.65-4.027 1.009-8.304 0-12.456 0-2.297 0-5.268 1.626-6.891 0-2.213-2.215 1.25-6.21 2.65-9.011 1.592-3.186.463-7.146 1.325-10.601 1.097-4.395 4.771-8.193 4.771-12.722"/>
    <path class="p" d="M37.641 2.45c8.317-1.664 16.963-.265 25.444-.265"/>
    <path class="p" d="M1.861 97.865c9.012 0 18.022.265 27.034.265"/>
    <path class="p" d="M97.54 97.335c-8.453 1.88-17.314.53-25.973.53"/>
    <path class="p" d="M63.88 78.252c3.357 5.87 3.076 13.299 6.096 19.348"/>
    <path class="p" d="M28.365 98.396c2.682-4.32 3.624-9.214 5.08-13.898.554-1.783-.598-4.152 1.016-5.45"/>
    <path class="p" d="M63.42 77.987c-9.471 1.515-19.3.857-28.96.857"/>
    <path class="p" d="M37.907 2.185c-8.355 12.53-10.132 28.396-14.047 42.937-3.135 11.644-9.94 22.066-13.252 33.66-.866 3.032-.859 6.285-1.856 9.276-1.164 3.494-4.4 6.05-5.566 9.542"/>
    <path class="p" d="M63.42 2.185c8.354 12.53 10.132 28.396 14.047 42.937 3.135 11.644 9.94 22.066 13.252 33.66.866 3.032.858 6.285 1.855 9.276 1.164 3.494 4.4 6.05 5.566 9.542"/>
  </g>
</svg>