<svg viewBox="0 0 100 100" fill="none" stroke-linecap="square" stroke-miterlimit="10" xmlns="http://www.w3.org/2000/svg">
  <g>
  
    <path class="o" d="M80.912 25.726c-9.214 6.711-19.97 11.723-30.067 17.444-10.102 5.724-19.504 12.96-31.02 16.226"/>
    <path class="o" d="M76.484 58.277c-3.363 5.207-8.335 6.196-12.4 9.657"/>
    <path class="o" d="M36.793 34.547c-4.952 3.782-10.985 6.496-16.969 9.013"/>
    <path class="o" d="M82.444 72.786c-10.86 9.528-24.094 16.366-37.218 22.708"/>
    <path class="o" d="M61.624 52.29c-6.162 4.086-13.355 7.136-20.107 10.619-6.756 3.484-13.043 7.888-20.745 9.877"/>
    <path class="o" d="M57.042 5.804C46.182 15.78 32.948 22.94 19.824 29.58"/>
    <path class="o" d="M37.596 80.98c-2.56 1.926-5.549 3.363-8.354 5.004-2.807 1.642-5.42 3.718-8.62 4.655"/>
    <path class="o" d="M34.593 5.804c-3.166 2.342-6.522 4.236-9.689 6.576-1.793 1.326-4.573.86-5.718 3.083"/>
    <path class="o" d="M75.092 11.518c-2.324 1.798-5.038 3.14-7.585 4.671-2.548 1.533-4.92 3.47-7.825 4.345"/>
    
    <path class="p" d="M17.556 5.425c21.324 0 55.087-4.758 62.33 12.094 3.625 8.43 3.183 21.069-5.282 26.522-9.147 5.893-22.28 6.104-33.806 6.104"/>
    <path class="p" d="M19.187 4.503c0 30.331 1.584 60.661 1.584 90.993"/>
    <path class="p" d="M37.723 20.108c0 3.322.437 6.66 0 9.966-.221 1.68-1.883 4.468.202 5.06 3.728 1.06 7.962 0 11.942 0 4.782 0 11.303.04 13.763-3.066 2.466-3.113 1.635-8.81-2.428-10.734-6.44-3.048-15.077-1.686-22.67-1.686"/>
    <path class="p" d="M19.824 94.864c20.574 0 53.149 4.758 60.139-12.095 3.496-8.43 3.07-21.068-5.098-26.521-8.825-5.893-21.496-6.104-32.616-6.104"/>
    <path class="p" d="M37.664 65.458c0 3.322.437 6.66 0 9.966-.222 1.68-1.883 4.468.202 5.06 3.727 1.06 7.962 0 11.942 0 4.782 0 11.303.04 13.763-3.066 2.466-3.113 1.635-8.81-2.428-10.734-6.44-3.048-15.077-1.686-22.67-1.686"/>
  </g>
</svg>