<svg viewBox="0.0 0.0 377.9527559055118 377.9527559055118" fill="none" stroke-linecap="square" stroke-miterlimit="10" xmlns="http://www.w3.org/2000/svg"><clipPath id="a"><path d="M0 0h377.953v377.953H0V0z"/></clipPath><g clip-path="url(#a)"><path fill="none" d="M0 0h377.953v377.953H0z"/><path fill="#e3eaf8" d="M80.223 195.765c-21.945-52.597-5.825-113.376 39.3-148.186 45.126-34.81 108.006-34.97 153.31-.392 45.302 34.578 61.732 95.274 40.057 147.983z" fill-rule="evenodd"/><path fill="#9fc5e8" d="M80.87 196.135c-18.09-43.37-4.794-93.48 32.416-122.178 37.21-28.697 89.055-28.824 126.405-.31 37.35 28.516 50.892 78.56 33.016 122.02z" fill-rule="evenodd"/><path fill="#3d85c6" d="M37.444 196.39c-12.887-30.89-3.42-66.584 23.082-87.027 26.502-20.444 63.43-20.538 90.037-.23 26.606 20.31 36.254 55.955 23.524 86.91z" fill-rule="evenodd"/><path fill="#c9daf8" d="M150.887 195.75c-14.767-35.39-3.922-76.288 26.44-99.712 30.364-23.424 72.674-23.534 103.158-.268 30.485 23.266 41.542 64.106 26.958 99.573z" fill-rule="evenodd"/><path fill="#4a86e8" d="M264.794 195.013c-8.135-19.494-2.16-42.022 14.564-54.925 16.725-12.903 40.03-12.964 56.824-.148 16.792 12.815 22.882 35.312 14.85 54.85z" fill-rule="evenodd"/><path fill="none" d="M219.643 210.272l-23.905 41.417"/><path stroke="#1c4587" stroke-width="8" stroke-linejoin="round" stroke-linecap="round" d="M219.643 210.272l-23.905 41.417"/><path fill="none" d="M325.346 216.794l-34.96 60.535"/><path stroke="#c9daf8" stroke-width="8" stroke-linejoin="round" stroke-linecap="round" d="M325.346 216.794l-34.96 60.535"/><path fill="none" d="M177.806 253.634l-16.788 29.102"/><path stroke="#15c" stroke-width="8" stroke-linejoin="round" stroke-linecap="round" d="M177.806 253.634l-16.788 29.102"/><path fill="none" d="M124.848 230.828l-43.843 75.906"/><path stroke="#3c78d8" stroke-width="8" stroke-linejoin="round" stroke-linecap="round" d="M124.848 230.828l-43.843 75.906"/><path fill="none" d="M92.848 206.828l-43.843 75.906"/><path stroke="#15c" stroke-width="8" stroke-linejoin="round" stroke-linecap="round" d="M92.848 206.828l-43.843 75.906"/><path fill="none" d="M255.714 206.828L171.21 349.663"/><path stroke="#6d9eeb" stroke-width="8" stroke-linejoin="round" stroke-linecap="round" d="M255.714 206.828L171.21 349.663"/><path fill="none" d="M169.806 213.634l-16.788 29.102"/><path stroke="#15c" stroke-width="8" stroke-linejoin="round" stroke-linecap="round" d="M169.806 213.634l-16.788 29.102"/><path fill="none" d="M275.643 242.272l-23.905 41.417"/><path stroke="#15c" stroke-width="8" stroke-linejoin="round" stroke-linecap="round" d="M275.643 242.272l-23.905 41.417"/><path fill="none" d="M227.643 306.272l-23.905 41.417"/><path stroke="#15c" stroke-width="8" stroke-linejoin="round" stroke-linecap="round" d="M227.643 306.272l-23.905 41.417"/><path fill="none" d="M131.643 282.272l-23.905 41.417"/><path stroke="#1c4587" stroke-width="8" stroke-linejoin="round" stroke-linecap="round" d="M131.643 282.272l-23.905 41.417"/><path fill="none" d="M155.643 314.272l-23.905 41.417"/><path stroke="#15c" stroke-width="8" stroke-linejoin="round" stroke-linecap="round" d="M155.643 314.272l-23.905 41.417"/></g></svg>