<svg viewBox="0 0 269.404 480.47" fill="none" stroke-linecap="square" stroke-miterlimit="10" xmlns="http://www.w3.org/2000/svg"><clipPath id="a"><path d="M0 0h269.404v480.47H0V0z"/></clipPath><g clip-path="url(#a)"><path d="M0 0h269.404v480.47H0z"/><path fill="#434343" d="M134.724 12.65l12.667 1.235 1.236 10.813 7.722 10.504 10.504 9.887 7.724 9.578.31 26.26-6.178 27.188-3.09 14.213-6.797 19.462-6.179 12.976-10.814 9.268-12.666 12.05-3.709 16.682-2.47 17.302-5.252-22.86-2.472-17.612-8.341-9.578-9.578-8.031-3.399-15.449-.31-17.609V92.36l2.783-21.936 1.853-24.098 5.252-17.301 11.43-12.667z" fill-rule="evenodd"/><path d="M95.778 50.412C85.018 61.156 85.46 79.438 76.623 91.811c-8.21 11.497-26.596 16.484-29.661 30.276-2.567 11.546 3.021 23.464 4.325 35.22 2.907 26.21 3.505 52.772 1.856 79.092-2.175 34.71-27.151 73.27-10.504 103.806 17.873 32.784 52.353 54.044 83.415 74.766"/><path stroke="#000" stroke-width="3" stroke-linejoin="round" stroke-linecap="butt" d="M95.778 50.412C85.018 61.156 85.46 79.438 76.623 91.811c-8.21 11.497-26.596 16.484-29.661 30.276-2.567 11.546 3.021 23.464 4.325 35.22 2.907 26.21 3.505 52.772 1.856 79.092-2.175 34.71-27.151 73.27-10.504 103.806 17.873 32.784 52.353 54.044 83.415 74.766"/><path fill="#000" d="M88.685 79.919l-3.218 15.354-4.454 15.297-10.23 6.923-8.353 6.342-5.425 9.853-6.643 15.687-4.325-18.538 3.706-14.52 9.8-9.482 12.754-9.363 9.267-14.522 7.108-21.008zm97.305-2.838l1.853 14.11 3.708 10.505 1.853 11.74-.62 9.887 6.182 9.268 3.09 16.065v17.919l11.122 19.254-.929-17.609-4.942-24.716-4.325-21.934-8.958-23.79z" fill-rule="evenodd"/><path d="M175.918 51.646c13.197 33.608 29.66 66.957 34.314 102.572 7.293 55.802-1.321 112.575 2.59 168.685.873 12.511 1.303 26.822 9.711 36.457 4.144 4.747 11.653 8.65 11.653 14.829 0 13.638-22.813 16.46-33.665 25.333-13.284 10.863-19.212 28.68-33.02 38.93-10.067 7.471-27.894-4.699-34.96-14.83"/><path stroke="#000" stroke-width="3" stroke-linejoin="round" stroke-linecap="butt" d="M175.918 51.646c13.197 33.608 29.66 66.957 34.314 102.572 7.293 55.802-1.321 112.575 2.59 168.685.873 12.511 1.303 26.822 9.711 36.457 4.144 4.747 11.653 8.65 11.653 14.829 0 13.638-22.813 16.46-33.665 25.333-13.284 10.863-19.212 28.68-33.02 38.93-10.067 7.471-27.894-4.699-34.96-14.83"/><path fill="#000" d="M127.906 412.41l16.086-3.09 12.868 7.415 16.084 4.945 7.72-8.034 9.654-1.853-5.791 9.887-6.434 8.031-5.791 6.798-7.08 3.706-6.433.62-9.65-3.092-7.079-6.179-6.434-6.178z" fill-rule="evenodd"/><path fill="#666" d="M53.234 392.796l7.767-5.73 9.852.894 8.399 4.52.231 11.775.758 13.355 2.19 10.032 6.294 8.732 2.847 4.191-6.373 8.29-10.992-2.51-4.477-13.263-6.518 10.755-10.506 4.95-5.826 4.299-5.243-.31-2.176-5.083 4.703-11.483-14.988 7.469-8.473 1.975-6.768-.71-2.61-2.94 4.082-6.258 10.582-6.184 8.746-6.6 11.162-10.79 5.067-12.39z" fill-rule="evenodd"/><path d="M51.876 364.642c7.958 20.677-3.028 52.573-22.884 62.403-7.209 3.569-23.489 13.578-16.518 17.593 7.353 4.236 17.23-3.124 25.439-.97 3.387.888.943 8.908 4.386 9.546 7.88 1.46 14.368-7.56 22.211-9.208 6.603-1.387 13.28 8.137 19.483 5.484 3.35-1.432 4.974-5.376 7.877-7.58 3.971-3.014-6.805-7.6-8.559-12.267-4.528-12.054-3.433-25.683-2.672-38.537"/><path stroke="#000" stroke-width="4" stroke-linejoin="round" stroke-linecap="round" d="M51.876 364.642c7.958 20.677-3.028 52.573-22.884 62.403-7.209 3.569-23.489 13.578-16.518 17.593 7.353 4.236 17.23-3.124 25.439-.97 3.387.888.943 8.908 4.386 9.546 7.88 1.46 14.368-7.56 22.211-9.208 6.603-1.387 13.28 8.137 19.483 5.484 3.35-1.432 4.974-5.376 7.877-7.58 3.971-3.014-6.805-7.6-8.559-12.267-4.528-12.054-3.433-25.683-2.672-38.537"/><path fill="#666" d="M200.323 413.35l1.853-6.49 7.724-2.781 6.488-1.234 6.796 4.633 3.089 3.708.62 11.121 3.705 7.725 2.473 5.251 6.178 7.415 7.725 9.887 3.706 8.342-.927 4.635-3.706 1.853-6.488-2.473-6.798-3.706-9.268-16.065-4.635 16.372-6.178 3.709-4.326.31-3.399-4.635 1.546-16.066-13.903 12.36-6.797.926-6.796.926-2.782-2.782-.617-4.325 6.796-8.341 8.343-12.048 6.489-12.666z" fill-rule="evenodd"/><path d="M229.901 389.538c-4.192 12.08-3.766 25.842-.546 38.193 2.386 9.15 11.958 15.107 16.352 23.543 2.327 4.466 7.925 12.414 3.272 14.647-7.35 3.527-15.223-7.325-23.44-7.325-4.988 0-7.863 6.167-12.534 7.85-5.897 2.124-9.609-8.859-15.806-9.94-6.98-1.22-16.24 5.86-21.258 1.046-3.68-3.53 3.556-9.512 6.54-13.603 8.168-11.199 16.897-23.998 16.897-37.668"/><path stroke="#000" stroke-width="4" stroke-linejoin="round" stroke-linecap="round" d="M229.901 389.538c-4.192 12.08-3.766 25.842-.546 38.193 2.386 9.15 11.958 15.107 16.352 23.543 2.327 4.466 7.925 12.414 3.272 14.647-7.35 3.527-15.223-7.325-23.44-7.325-4.988 0-7.863 6.167-12.534 7.85-5.897 2.124-9.609-8.859-15.806-9.94-6.98-1.22-16.24 5.86-21.258 1.046-3.68-3.53 3.556-9.512 6.54-13.603 8.168-11.199 16.897-23.998 16.897-37.668"/><path fill="#999" d="M39.853 182.798l3.709-3.709 5.868 1.856.62 15.756.31 15.756-.62 15.446-.926 14.83-2.163 10.506-3.09 15.446-4.942 14.213-3.708 16.065-3.4 12.667-4.632 12.667-3.399 22.86 1.544 20.082-8.958-16.373-2.163-29.968 2.163-38 4.015-27.19 4.326-25.333 4.635-21.317z" fill-rule="evenodd"/><path d="M42.596 149.439c-1.002 25.78-11.724 50.25-17.765 75.331-6.246 25.931-7.69 52.801-10.501 79.325-2.21 20.849-3.041 43.544 5.603 62.647 2.24 4.952.783 14.865 6.216 15.076 5.366.209-.151-10.745-.612-16.094-1.164-13.54-2.836-27.71.964-40.758"/><path stroke="#000" stroke-width="8" stroke-linejoin="round" stroke-linecap="round" d="M42.596 149.439c-1.002 25.78-11.724 50.25-17.765 75.331-6.246 25.931-7.69 52.801-10.501 79.325-2.21 20.849-3.041 43.544 5.603 62.647 2.24 4.952.783 14.865 6.216 15.076 5.366.209-.151-10.745-.612-16.094-1.164-13.54-2.836-27.71.964-40.758"/><path fill="#999" d="M227.388 246.864l5.872-3.09 5.562 25.643 8.34 32.748 1.854 29.66 4.325 23.79 4.635 18.535-2.782 3.399-10.813-3.4-10.504-21.624-6.179-32.441-3.706-33.984-1.856-20.391z" fill-rule="evenodd"/><path d="M218.324 168.645c7.117 48.546 22.575 95.654 29.18 144.272 2.314 17.04 1.73 34.811 7.358 51.06 1.485 4.286 4.275 12.563-.14 13.607-7.37 1.742-13.463-8.608-16.62-15.492-12.236-26.69-11.765-57.565-16.026-86.616-1.733-11.821 11.046-33.354-.641-35.837"/><path stroke="#000" stroke-width="8" stroke-linejoin="round" stroke-linecap="round" d="M218.324 168.645c7.117 48.546 22.575 95.654 29.18 144.272 2.314 17.04 1.73 34.811 7.358 51.06 1.485 4.286 4.275 12.563-.14 13.607-7.37 1.742-13.463-8.608-16.62-15.492-12.236-26.69-11.765-57.565-16.026-86.616-1.733-11.821 11.046-33.354-.641-35.837"/><path fill="#efefef" d="M176.412 53.123l-6.795 12.667-1.546 17.302-2.78 12.667-3.092 10.813v9.268l-3.706 11.43-3.708 11.124 2.782 7.721 11.74-34.6 4.326-29.35zm-76.491 5.189l4.507 13.04 1.543 12.047.927 13.596-1.544 6.795-3.089 16.992-.31 21.008 4.326 19.774-9.268-9.577-.926-34.294.926-28.732z" fill-rule="evenodd"/><path d="M121.33 219.355c8.721-11.637 2.05-30.008 9.267-42.635 5.926-10.368 19.997-14.65 25.333-25.333 20.957-41.96 35.618-136.36-11.12-140.265-16.159-1.35-36.62 6.508-43.872 21.01-4.353 8.707-2.118 19.354-3.09 29.04-2.938 29.312-4.528 59.021-1.855 88.36.902 9.9 16.427 13.302 19.155 22.863 4.263 14.938 4.945 30.806 4.945 46.341"/><path stroke="#232323" stroke-width="8" stroke-linejoin="round" d="M121.33 219.355c8.721-11.637 2.05-30.008 9.267-42.635 5.926-10.368 19.997-14.65 25.333-25.333 20.957-41.96 35.618-136.36-11.12-140.265-16.159-1.35-36.62 6.508-43.872 21.01-4.353 8.707-2.118 19.354-3.09 29.04-2.938 29.312-4.528 59.021-1.855 88.36.902 9.9 16.427 13.302 19.155 22.863 4.263 14.938 4.945 30.806 4.945 46.341"/><path fill="#000" d="M101.847 135.653c-.917 2.654-2.524 4.1-4.028 3.623-1.505-.477-2.588-2.775-2.713-5.76-.126-2.983.732-6.021 2.149-7.611 1.417-1.59 3.094-1.395 4.201.488zm54.838-7.172c1.346-2.21 3.138-3.176 4.51-2.432 1.373.744 2.042 3.045 1.684 5.79-.358 2.744-1.67 5.367-3.3 6.597-1.63 1.231-3.242.817-4.057-1.042z" fill-rule="evenodd"/></g></svg>