<svg version="1.1" viewBox="0.0 0.0 269.40419947506564 480.4698162729659" fill="none" stroke="none" stroke-linecap="square" stroke-miterlimit="10" xmlns="http://www.w3.org/2000/svg" xmlns:xlink="http://www.w3.org/1999/xlink" onload="init(evt);">
    <defs>
        <script type="text/ecmascript"><![CDATA[
          var SVGDocument = null, SVGRoot = null;
          var state = true;
          function init(evt) {
             SVGDocument = evt.target.ownerDocument;
             SVGRoot = SVGDocument.documentElement;
             if (SVGRoot.tagName != "svg") SVGRoot = SVGRoot.getElementsByTagName("svg")[0];
             window.setTimeout(function() {pauseAnimation();}, 9900);
          };
          function pauseAnimation() {
             SVGRoot.pauseAnimations();
             state = false;
          };
          function playAnimation() {
             SVGRoot.unpauseAnimations();
             state = true;
          };
          function click() {
              state == true ? pauseAnimation() : playAnimation();
          };
        ]]></script>
    </defs>
    <clipPath id="p.0">
        <path d="m0 0l269.4042 0l0 480.46982l-269.4042 0l0 -480.46982z" clip-rule="nonzero"></path>
    </clipPath>
    <g clip-path="url(#p.0)" onclick="click();">
        <path fill="#000000" fill-opacity="0.0" d="m0 0l269.4042 0l0 480.46982l-269.4042 0z" fill-rule="evenodd"></path>
        <path fill="#000000" fill-opacity="0.0" d="m95.77802 50.412075c-10.759308 10.744083 -10.317726 29.025463 -19.154861 41.398945c-8.21109 11.496925 -26.595924 16.484146 -29.661415 30.275597c-2.5665092 11.546562 3.0216713 23.46418 4.3254623 35.220467c2.9067802 26.210526 3.504982 52.772293 1.8556404 79.09187c-2.175167 34.71054 -27.151144 73.27017 -10.503937 103.805756c17.872921 32.783905 52.353275 54.04413 83.4147 74.76642" fill-rule="evenodd"></path>
        <path stroke="#000000" stroke-width="3.0" stroke-linejoin="round" stroke-linecap="butt" d="m95.77802 50.412075c-10.759308 10.744083 -10.317726 29.025463 -19.154861 41.398945c-8.21109 11.496925 -26.595924 16.484146 -29.661415 30.275597c-2.5665092 11.546562 3.0216713 23.46418 4.3254623 35.220467c2.9067802 26.210526 3.504982 52.772293 1.8556404 79.09187c-2.175167 34.71054 -27.151144 73.27017 -10.503937 103.805756c17.872921 32.783905 52.353275 54.04413 83.4147 74.76642" fill-rule="evenodd"></path>
        <path fill="#000000" d="m88.685036 79.91863l-3.217842 15.354332l-4.454071 15.296593l-10.230972 6.9238815l-8.351704 6.3412094l-5.4251976 9.85302l-6.6430435 15.687668l-4.3254585 -18.53807l3.7060356 -14.519676l9.800526 -9.482941l12.753277 -9.3622055l9.267723 -14.522308l7.107605 -21.007877z" fill-rule="evenodd"></path>
        <path fill="#000000" d="m185.9895 77.08137l1.8530121 14.110237l3.708664 10.503937l1.8530273 11.74015l-0.61943054 9.887146l6.1811066 9.267708l3.0892334 16.065628l0 17.918625l11.123367 19.254593l-0.9291382 -17.608917l-4.9422607 -24.716537l-4.3254547 -21.93438l-8.958008 -23.790031z" fill-rule="evenodd"></path>
        <path fill="#000000" fill-opacity="0.0" d="m175.9185 51.645668c13.196365 33.60874 29.658615 66.95715 34.313385 102.57218c7.293152 55.801956 -1.321106 112.57472 2.590622 168.68504c0.87220764 12.511078 1.3020172 26.82248 9.710724 36.456696c4.143509 4.7473755 11.652298 8.650726 11.652298 14.829376c0 13.638306 -22.812576 16.459747 -33.664352 25.333344c-13.284317 10.862701 -19.21196 28.679565 -33.02083 38.92914c-10.066391 7.4717407 -27.892853 -4.698395 -34.95967 -14.829407" fill-rule="evenodd"></path>
        <path stroke="#000000" stroke-width="3.0" stroke-linejoin="round" stroke-linecap="butt" d="m175.9185 51.645668c13.196365 33.60874 29.658615 66.95715 34.313385 102.57218c7.293152 55.801956 -1.321106 112.57472 2.590622 168.68504c0.87220764 12.511078 1.3020172 26.82248 9.710724 36.456696c4.143509 4.7473755 11.652298 8.650726 11.652298 14.829376c0 13.638306 -22.812576 16.459747 -33.664352 25.333344c-13.284317 10.862701 -19.21196 28.679565 -33.02083 38.92914c-10.066391 7.4717407 -27.892853 -4.698395 -34.95967 -14.829407" fill-rule="evenodd"></path>
        <path fill="#000000" d="m127.90551 412.40945l16.08686 -3.0892334l12.867294 7.414673l16.084122 4.9448853l7.720932 -8.034119l9.653198 -1.8529968l-5.791382 9.8871155l-6.4336395 8.031494l-5.791382 6.7979126l-7.078659 3.7060242l-6.4336395 0.6194458l-9.650482 -3.0918884l-7.078644 -6.178467l-6.433655 -6.178467z" fill-rule="evenodd"></path>
        <path fill="#666666" d="m53.233738 392.79645l7.7672424 -5.729767l9.852024 0.89352417l8.39888 4.520172l0.23109436 11.774963l0.7580948 13.354858l2.190628 10.031982l6.2932205 8.731415l2.8466568 4.191498l-6.372673 8.289215l-10.992165 -2.509735l-4.476288 -13.262085l-6.5186462 10.754822l-10.505592 4.949768l-5.8261642 4.298584l-5.243038 -0.3103943l-2.1759949 -5.082611l4.7027626 -11.482849l-14.987967 7.4689026l-8.473148 1.9752808l-6.7680407 -0.7109375l-2.6105318 -2.939087l4.083188 -6.2581177l10.581271 -6.183716l8.746933 -6.599945l11.161621 -10.790222l5.066704 -12.389496z" fill-rule="evenodd"></path>
        <path fill="#000000" fill-opacity="0.0" d="m51.87573 364.64203c7.958191 20.676788 -3.0280952 52.57312 -22.883596 62.4028c-7.209133 3.5689392 -23.488777 13.578613 -16.518154 17.593506c7.3533306 4.2353516 17.230848 -3.123932 25.439009 -0.97088623c3.3873978 0.8885498 0.94260025 8.9086 4.3859787 9.546661c7.880604 1.4603271 14.367794 -7.559967 22.211311 -9.207886c6.6024094 -1.3871765 13.279373 8.136627 19.48256 5.4839783c3.3503113 -1.4326782 4.974449 -5.376526 7.8767548 -7.5796204c3.9714203 -3.014679 -6.80468 -7.600403 -8.558113 -12.267944c-4.528282 -12.053955 -3.4333344 -25.682861 -2.672371 -38.536804" fill-rule="evenodd"></path>
        <path stroke="#000000" stroke-width="4.0" stroke-linejoin="round" stroke-linecap="round" d="m51.87573 364.64203c7.958191 20.676788 -3.0280952 52.57312 -22.883596 62.4028c-7.209133 3.5689392 -23.488777 13.578613 -16.518154 17.593506c7.3533306 4.2353516 17.230848 -3.123932 25.439009 -0.97088623c3.3873978 0.8885498 0.94260025 8.9086 4.3859787 9.546661c7.880604 1.4603271 14.367794 -7.559967 22.211311 -9.207886c6.6024094 -1.3871765 13.279373 8.136627 19.48256 5.4839783c3.3503113 -1.4326782 4.974449 -5.376526 7.8767548 -7.5796204c3.9714203 -3.014679 -6.80468 -7.600403 -8.558113 -12.267944c-4.528282 -12.053955 -3.4333344 -25.682861 -2.672371 -38.536804" fill-rule="evenodd"></path>
        <path fill="#666666" d="m200.32283 413.3491l1.8530273 -6.4881897l7.724411 -2.7821655l6.4881897 -1.2335815l6.795273 4.632538l3.0892334 3.7086487l0.61943054 11.120758l3.7060242 7.7243958l2.4724426 5.2519836l6.178482 7.414673l7.724411 9.887146l3.7060394 8.341217l-0.9265137 4.6351624l-3.7060394 1.8530273l-6.4881897 -2.4724426l-6.7978973 -3.7060547l-9.267715 -16.065613l-4.6351776 16.372711l-6.178467 3.7086792l-4.32547 0.30969238l-3.398941 -4.6351624l1.545929 -16.065613l-13.902893 12.359558l-6.7978973 0.9265137l-6.795273 0.9265137l-2.7821503 -2.782135l-0.61680603 -4.32547l6.795288 -8.341217l8.343826 -12.047241l6.4881897 -12.6666565z" fill-rule="evenodd"></path>
        <path fill="#000000" fill-opacity="0.0" d="m229.90147 389.53806c-4.192795 12.079285 -3.766693 25.841461 -0.546402 38.192627c2.3856049 9.149719 11.957993 15.106964 16.352432 23.543152c2.3264465 4.4661865 7.9243164 12.414124 3.271408 14.647217c-7.3492737 3.5271912 -15.22258 -7.324707 -23.439316 -7.324707c-4.9887238 0 -7.8639526 6.1667786 -12.534622 7.849182c-5.8972626 2.124237 -9.608917 -8.858246 -15.80603 -9.940399c-6.9808655 -1.2189941 -16.239365 5.860901 -21.258377 1.0467224c-3.6801453 -3.5299377 3.5567322 -9.51178 6.540497 -13.602753c8.167908 -11.198822 16.8965 -23.997711 16.8965 -37.66815" fill-rule="evenodd"></path>
        <path stroke="#000000" stroke-width="4.0" stroke-linejoin="round" stroke-linecap="round" d="m229.90147 389.53806c-4.192795 12.079285 -3.766693 25.841461 -0.546402 38.192627c2.3856049 9.149719 11.957993 15.106964 16.352432 23.543152c2.3264465 4.4661865 7.9243164 12.414124 3.271408 14.647217c-7.3492737 3.5271912 -15.22258 -7.324707 -23.439316 -7.324707c-4.9887238 0 -7.8639526 6.1667786 -12.534622 7.849182c-5.8972626 2.124237 -9.608917 -8.858246 -15.80603 -9.940399c-6.9808655 -1.2189941 -16.239365 5.860901 -21.258377 1.0467224c-3.6801453 -3.5299377 3.5567322 -9.51178 6.540497 -13.602753c8.167908 -11.198822 16.8965 -23.997711 16.8965 -37.66815" fill-rule="evenodd"></path>
        <path fill="#999999" d="m39.85302 182.7979l3.7086601 -3.708664l5.868767 1.8556519l0.6194229 15.755905l0.30971146 15.755905l-0.6194229 15.4461975l-0.92650986 14.8293915l-2.1627312 10.506561l-3.0892372 15.446182l-4.942257 14.212616l-3.7086601 16.065613l-3.3989525 12.6666565l-4.6325455 12.666687l-3.3989506 22.86087l1.5433083 20.08136l-8.958006 -16.37268l-2.1627293 -29.968506l2.1627293 -38.0l4.015749 -27.18898l4.3254585 -25.333328l4.63517 -21.317596z" fill-rule="evenodd"></path>
        <path fill="#000000" fill-opacity="0.0" d="m42.59558 149.43854c-1.0014725 25.78012 -11.723364 50.249863 -17.76485 75.33194c-6.245867 25.930588 -7.6902637 52.800842 -10.500721 79.324585c-2.2091122 20.84851 -3.041049 43.54425 5.6027813 62.646973c2.2409382 4.9524536 0.78354263 14.864502 6.216402 15.07605c5.3662014 0.20892334 -0.15155602 -10.745483 -0.611763 -16.094421c-1.1649132 -13.539764 -2.8362103 -27.709839 0.9634819 -40.757324" fill-rule="evenodd"></path>
        <path stroke="#000000" stroke-width="8.0" stroke-linejoin="round" stroke-linecap="round" d="m42.59558 149.43854c-1.0014725 25.78012 -11.723364 50.249863 -17.76485 75.33194c-6.245867 25.930588 -7.6902637 52.800842 -10.500721 79.324585c-2.2091122 20.84851 -3.041049 43.54425 5.6027813 62.646973c2.2409382 4.9524536 0.78354263 14.864502 6.216402 15.07605c5.3662014 0.20892334 -0.15155602 -10.745483 -0.611763 -16.094421c-1.1649132 -13.539764 -2.8362103 -27.709839 0.9634819 -40.757324" fill-rule="evenodd"></path>
        <path fill="#999999" d="m227.38846 246.86351l5.8713837 -3.0892334l5.561676 25.643051l8.341217 32.748016l1.8530121 29.658813l4.3254547 23.790009l4.6351776 18.53543l-2.7821503 3.3989563l-10.813644 -3.3989563l-10.503937 -21.624664l-6.178482 -32.44095l-3.7060394 -33.984253l-1.8556366 -20.391083z" fill-rule="evenodd"></path>
        <path fill="#000000" fill-opacity="0.0" d="m218.32428 168.64517c7.11644 48.5455 22.574402 95.65405 29.179337 144.27179c2.314865 17.039337 1.7302704 34.81137 7.35849 51.06012c1.4845734 4.2859497 4.274765 12.562988 -0.13931274 13.606659c-7.3703156 1.7426147 -13.463577 -8.607605 -16.619888 -15.492065c-12.23674 -26.690582 -11.766357 -57.564392 -16.026611 -86.61563c-1.733551 -11.821289 11.045334 -33.354126 -0.64146423 -35.837418" fill-rule="evenodd"></path>
        <path stroke="#000000" stroke-width="8.0" stroke-linejoin="round" stroke-linecap="round" d="m218.32428 168.64517c7.11644 48.5455 22.574402 95.65405 29.179337 144.27179c2.314865 17.039337 1.7302704 34.81137 7.35849 51.06012c1.4845734 4.2859497 4.274765 12.562988 -0.13931274 13.606659c-7.3703156 1.7426147 -13.463577 -8.607605 -16.619888 -15.492065c-12.23674 -26.690582 -11.766357 -57.564392 -16.026611 -86.61563c-1.733551 -11.821289 11.045334 -33.354126 -0.64146423 -35.837418" fill-rule="evenodd"></path>
        <path fill="#000000" fill-opacity="0.0" d="m121.32912 219.35545c8.722214 -11.637848 2.050415 -30.008728 9.267715 -42.635178c5.926361 -10.367996 19.997131 -14.649582 25.333328 -25.333328c20.95729 -41.959106 35.61821 -136.36053 -11.120728 -140.26509c-16.15805 -1.3498402 -36.620125 6.507962 -43.8714 21.010498c-4.3533554 8.706722 -2.1181793 19.35352 -3.0892334 29.039371c-2.9387512 29.312748 -4.5289307 59.021435 -1.8556442 88.35959c0.9022064 9.901306 16.426552 13.302856 19.154854 22.86351c4.2629395 14.938416 4.9448853 30.806442 4.9448853 46.341217" fill-rule="evenodd"></path>
        <g id="head">
            <path fill="#434343" d="m134.72441 12.650919l12.666672 1.2335958l1.2362213 10.813647l7.7217712 10.503937l10.503937 9.887138l7.724411 9.577431l0.3097229 26.259838l-6.178482 27.18898l-3.0892487 14.212601l-6.7978973 19.461937l-6.178467 12.976379l-10.81366 9.267715l-12.6666565 12.049866l-3.708664 16.682419l-2.469818 17.301834l-5.2519684 -22.860886l-2.4724426 -17.611557l-8.341209 -9.577423l-9.577423 -8.031494l-3.3989487 -15.448822l-0.30971527 -17.608925l0 -26.56955l2.7821503 -21.937012l1.8530197 -24.09711l5.2519684 -17.301836l11.43045 -12.666668z" fill-rule="evenodd"></path>
            <path stroke="#000000" stroke-width="1.0" stroke-linejoin="round" stroke-linecap="butt" d="m134.72441 12.650919l12.666672 1.2335958l1.2362213 10.813647l7.7217712 10.503937l10.503937 9.887138l7.724411 9.577431l0.3097229 26.259838l-6.178482 27.18898l-3.0892487 14.212601l-6.7978973 19.461937l-6.178467 12.976379l-10.81366 9.267715l-12.6666565 12.049866l-3.708664 16.682419l-2.469818 17.301834l-5.2519684 -22.860886l-2.4724426 -17.611557l-8.341209 -9.577423l-9.577423 -8.031494l-3.3989487 -15.448822l-0.30971527 -17.608925l0 -26.56955l2.7821503 -21.937012l1.8530197 -24.09711l5.2519684 -17.301836l11.43045 -12.666668z" fill-rule="evenodd"></path>
            <path stroke="#000000" stroke-width="1.0" stroke-linejoin="round" stroke-linecap="butt" d="m176.41208 53.12336l-6.795288 12.666664l-1.545929 17.301842l-2.7795258 12.666664l-3.091858 10.813652l0 9.267715l-3.7060394 11.430443l-3.708664 11.123367l2.7821503 7.7217712l11.740158 -34.601044l4.32547 -29.349083z" fill-rule="evenodd"></path>
            <path stroke="#000000" stroke-width="1.0" stroke-linejoin="round" stroke-linecap="butt" d="m99.92126 58.312336l4.5065613 13.0393715l1.5433121 12.047241l0.92650604 13.595802l-1.5433044 6.795273l-3.089241 16.992126l-0.30970764 21.007874l4.3254547 19.774277l-9.267715 -9.577423l-0.92650604 -34.29396l0.92650604 -28.732285z" fill-rule="evenodd"></path>
            <path stroke="#232323" stroke-width="8.0" stroke-linejoin="round" d="m121.32912 219.35545c8.722214 -11.637848 2.050415 -30.008728 9.267715 -42.635178c5.926361 -10.367996 19.997131 -14.649582 25.333328 -25.333328c20.95729 -41.959106 35.61821 -136.36053 -11.120728 -140.26509c-16.15805 -1.3498402 -36.620125 6.507962 -43.8714 21.010498c-4.3533554 8.706722 -2.1181793 19.35352 -3.0892334 29.039371c-2.9387512 29.312748 -4.5289307 59.021435 -1.8556442 88.35959c0.9022064 9.901306 16.426552 13.302856 19.154854 22.86351c4.2629395 14.938416 4.9448853 30.806442 4.9448853 46.341217" fill-rule="evenodd"></path>
            <path fill="#efefef" d="m176.41208 53.12336l-6.795288 12.666664l-1.545929 17.301842l-2.7795258 12.666664l-3.091858 10.813652l0 9.267715l-3.7060394 11.430443l-3.708664 11.123367l2.7821503 7.7217712l11.740158 -34.601044l4.32547 -29.349083z" fill-rule="evenodd"></path>
        <path fill="#efefef" d="m99.92126 58.312336l4.5065613 13.0393715l1.5433121 12.047241l0.92650604 13.595802l-1.5433044 6.795273l-3.089241 16.992126l-0.30970764 21.007874l4.3254547 19.774277l-9.267715 -9.577423l-0.92650604 -34.29396l0.92650604 -28.732285z" fill-rule="evenodd"></path>
            <path fill="#000000" d="m101.84651 135.65291l0 0c-0.9160309 2.654007 -2.523529 4.1000214 -4.027931 3.6233063c-1.5044098 -0.47673035 -2.5871048 -2.7752075 -2.7129288 -5.759369c-0.1258316 -2.9841614 0.7318573 -6.0219727 2.1491165 -7.6119003c1.4172668 -1.5899353 3.0939407 -1.3952484 4.2012863 0.48781586z" fill-rule="evenodd"></path>
            <path fill="#000000" d="m156.68509 128.4813l0 0c1.3454285 -2.2093735 3.1380157 -3.175972 4.510315 -2.4320679c1.3722992 0.7439041 2.041275 3.0449066 1.6832275 5.7895203c-0.3580475 2.744629 -1.669281 5.3668213 -3.2991943 6.597702c-1.6299286 1.2308655 -3.2423706 0.8165741 -4.0570526 -1.0424194z" fill-rule="evenodd"></path>
            <animateTransform id="left" attributeType="xml"
                    attributeName="transform"
                    type="rotate"
                    from="0 140 50"
                    to="5 140 50"
                    dur="0.5s"
                    begin="0;back.end"
            />
            <animateTransform id="right" attributeType="xml"
                    attributeName="transform"
                    type="rotate"
                    from="5 140 50"
                    to="-13 140 50"
                    dur="1.5s"
                    begin="left.end"
            />
            <animateTransform id="back" attributeType="xml"
                    attributeName="transform"
                    type="rotate"
                    from="-13 140 50"
                    to="0 140 50"
                    dur="1.3s"
                    begin="right.end"
            />
        </g>
    </g>
</svg>