<svg xmlns="http://www.w3.org/2000/svg" fill="none" stroke-miterlimit="10" viewBox="0 0 100 100">
  <g>
    <path class="p" d="M63.47 42.909c2.229-5.077-2.384-12.217-6.566-15.3-4.735-3.493-12.203-4.557-16.896-.991-3.799 2.886-6.73 8.136-7.145 13.319-.284 3.551.774 7.118.58 10.678-.371 6.782-1.823 15.067 2.027 20.254 5.257 7.082 17.59 10.5 24.041 4.844 2.28-2 4.008-5.144 4.538-8.366.353-2.143-.676-4.953.676-6.495 2.89-3.295 8.175.11 12.262.11 2.16 0 6.855-1.982 6.47.44-1.23 7.707-2.1 16.381-6.663 22.236-4.055 5.203-10.049 8.154-15.738 10.677-3.64 1.614-7.783.756-11.683.991-9.31.56-19.96-2.501-26.551-10.017-3.391-3.866-3.883-10.074-4.924-15.41-2.53-12.968-4.364-27.324-.483-39.85C20.532 19.97 27.63 9.625 36.629 6.695c12.765-4.157 31.192-2.629 38.91 9.687 4.674 7.459 8.775 17.179 7.337 26.198-.242 1.52-2.7.33-4.055.33-5.117 0-10.234.11-15.351.11"/>
    <path class="o" d="M79.059 22.651c-4.617 5.207-11.442 6.197-17.023 9.658"/>
    <path class="o" d="M82.804 64.425c-7.206 5.696-15.62 9.948-23.517 14.803-7.902 4.858-15.255 10.999-24.263 13.77"/>
    <path class="o" d="M33.648 46.518c-3.498 2.342-7.204 4.236-10.702 6.576-1.98 1.326-5.051.86-6.316 3.083"/>
    <path class="o" d="M39.776 75.54c-3.497 2.342-7.204 4.236-10.701 6.577-1.98 1.325-5.052.86-6.316 3.083"/>
    <path class="o" d="M32.143 61.863c-3.954 4.655-9.8 5.54-14.579 8.634"/>
    <path class="o" d="M77.673 80.155c-7.34 6.392-16.284 10.98-25.153 15.234"/>
    <path class="o" d="M81.334 36.17c-4.092 2.981-9.077 5.12-14.022 7.104"/>
    <path class="o" d="M72.4 12.452c-3.287 2.255-7.123 3.94-10.724 5.862-3.603 1.924-6.956 4.356-11.064 5.454"/><path d="M36.941 29.008c-6.357 4.426-14.102 7.602-21.783 10.548"/>
    <path class="o" d="M36.941 29.008c-6.357 4.426-14.102 7.602-21.783 10.548"/>
    <path class="o" d="M59.274 6.51c-5.863 3.217-12.707 5.62-19.131 8.362-6.429 2.744-12.41 6.213-19.739 7.78"/>
    </g>
</svg>