<svg xmlns="http://www.w3.org/2000/svg" xmlns:xlink="http://www.w3.org/1999/xlink" viewBox="150 20 300 450" width="400" height="500">
  <defs>
    <path d="M301.9 189.65l.2.03.18.04.18.04.18.06.17.06.17.08.16.08.16.09.15.1.14.11.15.12.14.12.13.13.13.14.13.15.12.15.12.17.12.16.11.18.11.18.11.19.11.19.1.2.1.2.1.21.09.22.1.22.09.22.09.23.09.23.09.24.09.24.09.25.08.24.09.25.08.26.09.26.08.26 4.34 16.38 1.37.43 3.01 1.07 2.96 1.19 2.9 1.31 2.84 1.41.23.12 14.64-8.52.24-.13.24-.12.24-.12.24-.11.24-.12.23-.11.23-.11.23-.1.23-.1.22-.1.23-.09.22-.09.22-.08.21-.08.22-.07.21-.07.21-.06.21-.06.2-.05.21-.04.2-.04.2-.03.19-.02.2-.01.19-.01.19.01.18.01.18.01.18.03.18.04.18.05.17.05.17.07.16.07.17.09.16.1.16.1.15.12.15.13.15.15 21.31 21.42.14.15.13.16.12.16.11.16.1.16.09.17.08.17.07.18.06.17.05.19.04.18.04.19.02.19.02.19v.39l-.01.2-.01.2-.02.21-.04.2-.03.21-.05.21-.05.21-.06.22-.07.21-.07.22-.08.22-.08.22-.09.22-.09.22-.1.22-.11.23-.11.22-.11.23-.12.22-.13.23-.12.23-.14.23-.13.22-.14.23-8.46 14.7.17.32 1.4 2.86 1.3 2.91 1.18 2.98 1.07 3.03.42 1.37 16.29 4.37.26.06.26.06.25.07.25.07.25.07.24.08.24.07.24.08.23.09.23.09.22.08.22.1.21.09.21.1.2.11.2.1.19.11.19.11.18.12.17.12.17.12.16.13.15.13.15.14.14.14.13.14.12.15.12.15.11.16.1.16.09.16.08.17.07.17.07.18.05.18.05.19.04.19.02.2.02.2V306.01l-.02.2-.02.19-.04.19-.05.18-.05.18-.07.17-.07.17-.08.16-.09.16-.1.15-.11.15-.12.14-.12.14-.13.14-.14.13-.15.13-.15.12-.16.12-.17.12-.17.11-.18.12-.19.1-.19.11-.2.1-.2.1-.21.1-.21.1-.22.1-.22.09-.23.09-.23.09-.24.09-.24.09-.24.09-.25.08-.25.09-.25.08-.26.09-.26.08-16.29 4.37-.42 1.37-1.07 3.03-1.18 2.98-1.3 2.91-1.4 2.86-.16.29 8.45 14.67.14.23.13.22.14.23.12.23.13.23.12.22.11.23.11.22.11.23.1.22.09.22.09.22.08.22.08.22.07.22.07.21.06.22.05.21.05.21.03.21.04.2.02.21.01.2.01.2v.39l-.02.19-.02.19-.04.19-.04.19-.05.18-.06.17-.07.18-.08.17-.09.17-.1.16-.11.16-.12.16-.13.16-.14.15-21.31 21.42-.15.15-.15.13-.15.12-.16.1-.16.1-.17.09-.16.07-.17.07-.17.05-.18.05-.18.04-.18.03-.18.01-.18.01-.19.01-.19-.01-.2-.01-.19-.02-.2-.03-.2-.04-.21-.04-.2-.05-.21-.06-.21-.06-.21-.06-.22-.08-.21-.08-.22-.08-.22-.09-.23-.09-.22-.1-.23-.1-.23-.1-.23-.11-.23-.11-.24-.12-.24-.11-.24-.12-.24-.12-.24-.13-14.59-8.49-.28.16-2.84 1.41-2.9 1.3-2.96 1.19-3.01 1.07-1.37.43-4.34 16.38-.08.26-.09.26-.08.26-.09.25-.08.25-.09.24-.09.24-.09.24-.09.23-.09.23-.09.22-.1.22-.09.22-.1.21-.1.2-.1.2-.11.19-.11.19-.11.18-.11.18-.12.17-.12.16-.12.15-.13.15-.13.14-.13.13-.14.13-.15.11-.14.11-.15.1-.16.09-.16.09-.17.07-.17.06-.18.06-.18.04-.18.04-.2.03-.2.01-.2.01h-30.13l-.21-.01-.2-.01-.19-.03-.19-.04-.19-.04-.18-.06-.18-.06-.17-.07-.17-.09-.16-.09-.16-.1-.16-.11-.15-.11-.14-.13-.15-.13-.14-.14-.13-.15-.13-.15-.13-.16-.12-.17-.12-.18-.12-.18-.11-.19-.11-.19-.1-.2-.1-.2-.1-.21-.1-.22-.09-.22-.09-.22-.09-.23-.08-.23-.08-.24-.08-.24-.07-.24-.07-.25-.07-.25-.07-.26-.06-.26-.06-.26-4.35-16.38-1.36-.43-3.01-1.07-2.96-1.19-2.9-1.3-2.84-1.41-.34-.19-14.53 8.46-.23.14-.23.14-.22.13-.23.13-.22.12-.23.12-.22.12-.23.11-.22.11-.22.1-.22.09-.22.09-.22.09-.22.07-.21.08-.22.06-.21.06-.21.05-.21.05-.21.04-.2.03-.2.02-.2.02-.2.01h-.2l-.19-.01-.2-.02-.18-.02-.19-.04-.18-.04-.18-.05-.18-.06-.17-.07-.17-.08-.17-.09-.17-.1-.16-.11-.15-.12-.15-.13-.15-.15-21.31-21.42-.14-.15-.13-.16-.12-.15-.11-.16-.09-.16-.09-.17-.07-.16-.07-.17-.05-.18-.05-.17-.04-.18-.02-.18-.02-.19-.01-.18-.01-.19.01-.19.01-.2.02-.2.03-.2.04-.2.04-.2.05-.21.06-.21.06-.21.06-.21.08-.22.07-.22.09-.22.08-.22.1-.23.09-.22.1-.23.11-.23.1-.23.11-.24.12-.24.11-.23.12-.24.12-.25.13-.24 8.43-14.64-.14-.26-1.41-2.86-1.29-2.91-1.18-2.98-1.07-3.03-.42-1.37-16.3-4.37-.26-.08-.25-.09-.25-.08-.25-.09-.25-.08-.24-.09-.24-.09-.24-.09-.23-.09-.23-.09-.22-.09-.22-.1-.21-.1-.21-.1-.21-.1-.19-.1-.2-.11-.18-.1-.18-.12-.17-.11-.17-.12-.16-.12-.16-.12-.14-.13-.14-.13-.13-.14-.13-.14-.11-.14-.11-.15-.1-.15-.09-.16-.08-.16-.08-.17-.06-.17-.06-.18-.04-.18-.04-.19-.02-.19-.02-.2V275.29l.02-.2.02-.2.04-.19.04-.19.06-.18.06-.18.08-.17.08-.17.09-.16.1-.16.11-.16.11-.15.13-.15.13-.14.14-.14.14-.14.16-.13.16-.13.17-.12.17-.12.18-.12.18-.11.2-.11.19-.1.21-.11.21-.1.21-.09.22-.1.22-.08.23-.09.23-.09.24-.08.24-.07.24-.08.25-.07.25-.07.25-.07.25-.06.26-.06 16.3-4.37.42-1.37 1.07-3.03 1.18-2.98 1.29-2.91 1.41-2.86.15-.29-8.44-14.67-.13-.24-.12-.25-.12-.24-.11-.23-.12-.24-.11-.24-.1-.23-.11-.23-.1-.23-.09-.22-.1-.23-.08-.22-.09-.22-.07-.22-.08-.22-.06-.21-.06-.21-.06-.21-.05-.21-.04-.2-.04-.2-.03-.2-.02-.2-.01-.19-.01-.2.01-.19.01-.18.02-.19.02-.18.04-.18.05-.17.05-.18.07-.17.07-.16.09-.17.09-.16.11-.16.12-.15.13-.16.14-.14 21.31-21.43.15-.15.15-.13.15-.12.16-.11.17-.1.17-.09.17-.08.17-.07.18-.06.18-.05.18-.04.19-.04.18-.02.2-.02.19-.01h.2l.2.01.2.02.2.02.2.03.21.04.21.05.21.05.21.06.22.07.21.07.22.08.22.08.22.09.22.09.22.1.22.11.23.11.22.12.23.12.22.12.23.13.22.13.23.14.23.14 14.58 8.49.29-.15 2.84-1.41 2.9-1.31 2.96-1.19 3.01-1.07 1.36-.43 4.35-16.38.06-.26.06-.26.07-.26.07-.25.07-.24.07-.25.08-.24.08-.24.08-.23.09-.23.09-.22.09-.22.1-.22.1-.21.1-.2.1-.2.11-.19.11-.19.12-.18.12-.18.12-.16.13-.17.13-.15.13-.15.14-.14.15-.13.14-.12.15-.12.16-.11.16-.1.16-.09.17-.08.17-.08.18-.06.18-.06.19-.04.19-.04.19-.03.2-.01.21-.01h30.13l.2.01.2.01zm-19.07 56.95l-1.77.18-1.75.25-1.73.32-1.71.39-1.67.45-1.66.52-1.62.58-1.59.64-1.56.7-1.53.76-1.49.81-1.46.88-1.42.92-1.39.98-1.34 1.03-1.3 1.08-1.26 1.13-1.22 1.18-1.17 1.22-1.12 1.27-1.07 1.31-1.03 1.35-.97 1.39-.92 1.43-.87 1.47-.81 1.5-.76 1.54-.69 1.57-.64 1.6-.58 1.63-.51 1.66-.45 1.69-.39 1.71-.31 1.74-.25 1.76-.18 1.79-.11 1.8-.04 1.82.04 1.82.11 1.8.18 1.79.25 1.76.31 1.74.39 1.71.45 1.69.51 1.66.58 1.63.64 1.6.69 1.57.76 1.54.81 1.5.87 1.47.92 1.43.97 1.39 1.03 1.35 1.07 1.31 1.12 1.27 1.17 1.22 1.22 1.18 1.26 1.13 1.3 1.08 1.34 1.03 1.39.98 1.42.92 1.46.88 1.49.81 1.53.76 1.56.7 1.59.64 1.62.58 1.66.52 1.67.45 1.71.39 1.73.32 1.75.25 1.77.18 1.79.11 1.81.04 1.82-.04 1.79-.11 1.77-.18 1.75-.25 1.73-.32 1.7-.39 1.68-.45 1.65-.52 1.63-.58 1.59-.64 1.56-.7 1.53-.76 1.49-.81 1.46-.88 1.42-.92 1.39-.98 1.34-1.03 1.3-1.08 1.26-1.13 1.22-1.18 1.16-1.22 1.13-1.27 1.07-1.31 1.03-1.35.97-1.39.92-1.43.87-1.47.81-1.5.76-1.54.69-1.57.64-1.6.58-1.63.51-1.66.45-1.69.38-1.71.32-1.74.25-1.76.18-1.79.11-1.8.04-1.82-.04-1.82-.11-1.8-.18-1.79-.25-1.76-.32-1.74-.38-1.71-.45-1.69-.51-1.66-.58-1.63-.64-1.6-.69-1.57-.76-1.54-.81-1.5-.87-1.47-.92-1.43-.97-1.39-1.03-1.35-1.07-1.31-1.13-1.27-1.16-1.22-1.22-1.18-1.26-1.13-1.3-1.08-1.34-1.03L311 254l-1.42-.92-1.46-.88-1.49-.81-1.53-.76-1.56-.7-1.59-.64-1.63-.58-1.65-.52-1.68-.45-1.7-.39-1.73-.32-1.75-.25-1.77-.18-1.79-.11-1.82-.03-1.81.03-1.79.11z" id="a"/>
    <path d="M354.45 382.54l.06.03.05.03.05.04.05.04.05.04.05.05.04.04.04.05.03.05.04.06.03.05.03.06.02.06.03.06.02.06.02.07.02.06.02.07.01.07.02.07.01.08.01.07.01.08v.08l.01.08v.08l.01.08v.52l-.01.09v.19l-.01.09v.09l-.63 5.82.39.31.83.71.81.75.77.78.74.81.06.07 5.77-.94.1-.01.09-.01.09-.01.09-.01h.09l.09-.01.09-.01h.08l.09-.01H365.2l.08.01h.07l.07.01.08.01.07.01.07.01.06.02.07.02.06.02.07.02.06.02.06.03.05.03.06.03.05.03.05.04.05.04.04.04.05.05.04.04.04.05.04.06.03.06.04.06.03.06 4.21 9.54.03.06.02.07.02.07.01.06.02.07v.06l.01.07v.13l-.01.06-.01.07-.01.06-.02.06-.01.07-.03.06-.02.07-.03.06-.03.06-.03.06-.04.07-.04.06-.04.06-.04.06-.04.07-.05.06-.05.06-.05.06-.06.06-.05.06-.06.06-.06.06-.06.06-.07.06-.06.05-.07.06-.07.06-.06.06-.08.05-.07.06-.07.06-4.54 3.69.01.12.1 1.09.06 1.1.01 1.11-.03 1.11-.03.49 4.7 3.42.08.05.08.06.07.05.07.05.07.06.07.05.07.06.06.05.07.06.06.05.06.06.06.06.06.05.05.06.05.06.06.06.04.06.05.06.04.06.04.06.04.06.04.06.03.06.03.06.03.06.02.06.03.07.01.06.02.06.01.07.01.06.01.07v.13l-.01.06-.01.07-.01.06-.01.07-.02.07-.03.07-3.74 9.76-.03.06-.03.07-.03.05-.04.06-.04.05-.04.05-.04.05-.04.05-.05.04-.05.04-.05.04-.05.03-.06.03-.05.03-.06.03-.06.02-.07.03-.06.02-.07.02-.07.01-.07.02-.07.01-.07.01-.08.02h-.07l-.08.01-.08.01h-.08l-.08.01h-.52l-.09-.01H365l-.1-.01h-.09l-5.79-.61-.31.39-.71.84-.75.82-.78.78-.81.74-.08.07.9 5.78.02.09.02.09.01.09.01.08.02.09.01.09.01.09v.08l.01.09v.08l.01.09v.24l-.01.08v.08l-.01.07-.01.08-.01.07-.01.07-.02.07-.02.07-.02.07-.02.06-.02.07-.03.06-.03.06-.03.06-.03.05-.04.06-.04.05-.04.05-.05.05-.04.04-.05.05-.05.04-.06.03-.06.04-.06.03-.06.03-9.52 4.27-.06.03-.07.02-.06.02-.07.02-.06.01-.06.01h-.19l-.06-.01-.06-.01-.07-.01-.06-.02-.06-.02-.06-.02-.06-.03-.06-.03-.06-.03-.06-.03-.06-.04-.06-.04-.06-.04-.06-.04-.06-.05-.06-.04-.06-.05-.06-.06-.06-.05-.06-.06-.06-.05-.06-.06-.07-.06-.06-.06-.06-.07-.06-.06-.06-.07-.06-.07-.06-.06-.07-.07-.06-.07-3.65-4.54-.11.01-1.09.11-1.09.06-1.1.01-1.11-.02-.49-.03-3.42 4.74-.06.07-.06.07-.06.07-.06.08-.06.06-.06.07-.05.07-.06.06-.06.07-.06.06-.06.06-.05.06-.06.06-.06.05-.06.06-.05.05-.06.05-.06.04-.06.05-.06.04-.05.04-.06.04-.06.03-.06.03-.06.03-.06.03-.06.02-.06.02-.06.02-.06.01-.06.01-.07.01h-.19l-.06-.01-.06-.01-.07-.02-.07-.02-.06-.02-9.71-3.73-.06-.02-.07-.03-.06-.04-.05-.03-.06-.04-.05-.04-.05-.04-.05-.05-.04-.04-.04-.05-.04-.06-.04-.05-.03-.06-.03-.05-.03-.06-.03-.07-.02-.06-.03-.07-.02-.06-.02-.07-.01-.07-.02-.08-.01-.07-.01-.08-.01-.07-.01-.08-.01-.08v-.5l.01-.09v-.09l.01-.09.01-.09.01-.09.01-.09.01-.09.63-5.82-.39-.3-.83-.72-.81-.75-.77-.78-.74-.8-.09-.1-5.73.92-.09.02-.09.02-.09.01-.08.02-.09.01-.09.01-.09.01-.08.01h-.09l-.08.01h-.4l-.08-.01h-.08l-.07-.01-.07-.02-.08-.01-.07-.01-.06-.02-.07-.02-.07-.02-.06-.03-.06-.02-.06-.03-.06-.03-.05-.04-.06-.03-.05-.04-.05-.04-.05-.05-.04-.04-.04-.05-.04-.06-.04-.05-.04-.06-.03-.06-.03-.07-4.21-9.53-.03-.07-.02-.06-.02-.07-.02-.06-.01-.07-.01-.06v-.19l.01-.06.01-.06.01-.07.02-.06.02-.06.02-.06.03-.06.03-.06.03-.06.03-.06.04-.06.04-.07.04-.06.04-.06.05-.06.05-.06.05-.06.05-.06.05-.06.06-.06.06-.06.05-.06.07-.06.06-.07.06-.06.07-.06.06-.06.07-.06.07-.07.07-.06.07-.06 4.52-3.68-.01-.1-.1-1.09-.06-1.1-.01-1.1.03-1.11.03-.5-4.7-3.42-.08-.06-.07-.06-.07-.06-.07-.05-.07-.06-.07-.06-.06-.06-.07-.06-.06-.05-.06-.06-.06-.06-.06-.06-.06-.05-.05-.06-.06-.06-.05-.06-.05-.06-.04-.05-.05-.06-.04-.06-.04-.06-.04-.06-.03-.06-.03-.06-.03-.06-.02-.06-.03-.06-.02-.06-.01-.06-.02-.06-.01-.06v-.06l-.01-.07v-.06l.01-.06.01-.07.01-.06.01-.07.02-.06.03-.07 3.74-9.76.03-.07.03-.06.03-.06.04-.06.04-.05.04-.06.04-.05.05-.04.04-.05.05-.04.05-.04.06-.04.05-.03.06-.03.06-.03.07-.03.06-.02.06-.03.07-.02.07-.02.07-.02.07-.01.08-.01.07-.02.08-.01h.08l.08-.01h.08l.08-.01h.25l.09.01h.09l.08.01h.09l.09.01.09.01.09.01.09.02 5.79.6.31-.39.71-.84.75-.81.78-.78.81-.75.08-.07-.9-5.77-.01-.1-.01-.09-.01-.09-.01-.09-.01-.09v-.09l-.01-.09v-.09l-.01-.08v-.49l.01-.08v-.08l.01-.07.01-.07.01-.07.02-.07.01-.07.02-.07.02-.06.02-.07.02-.06.03-.05.03-.06.03-.06.04-.05.03-.05.04-.05.04-.05.05-.04.05-.04.05-.04.05-.04.06-.04.06-.03.06-.03 9.52-4.27.06-.03.07-.02.06-.02.07-.01.06-.02.07-.01h.19l.07.01.06.01.06.01.07.01.06.02.07.02.06.03.06.03.06.03.07.03.06.03.06.04.06.04.06.05.07.04.06.05.06.05.06.05.06.05.06.06.06.06.06.06.05.06.06.06.06.07.06.06.06.07.05.07.06.07.05.07.06.08 3.65 4.54.11-.02 1.09-.1 1.09-.06 1.1-.02 1.11.03.49.03 3.42-4.74.06-.08.05-.07.05-.08.06-.07.05-.07.05-.07.06-.07.05-.07.06-.06.05-.06.06-.07.06-.05.06-.06.05-.06.06-.05.06-.05.06-.05.06-.05.06-.04.06-.04.06-.04.06-.04.06-.03.06-.03.06-.03.07-.02.06-.03.06-.02.06-.01.07-.01.06-.01.07-.01h.19l.07.01.06.01.07.02.07.02.06.02 9.71 3.73.06.03.07.03zm-13.19 15.98l-.59-.16-.6-.13-.59-.12-.6-.08-.6-.06-.59-.04-.6-.02-.59.01-.59.04-.59.05-.58.08-.58.1-.57.12-.56.15-.56.16-.56.19-.54.21-.54.23-.53.25-.52.27-.5.29-.5.3-.49.33-.47.35-.46.36-.45.39-.43.4-.42.42-.4.44-.39.45-.37.47-.36.49-.33.5-.32.53-.3.53-.27.55-.26.57-.24.58-.21.59-.19.6-.16.6-.14.59-.11.6-.09.6-.07.6-.04.6-.01.6.01.59.03.59.05.59.07.59.1.58.12.57.14.57.17.56.18.56.21.54.22.54.25.53.26.52.29.51.3.5.33.48.34.48.36.46.39.45.39.43.42.42.43.4.45.39.47.37.49.35.5.34.52.32.53.29.55.28.56.26.58.23.59.22.59.18.59.16.6.14.59.11.6.09.6.06.59.03.6.02.59-.01.59-.03.59-.06.58-.08.58-.1.57-.12.56-.14.56-.17.56-.19.54-.21.54-.22.53-.25.52-.27.5-.29.5-.31.49-.33.47-.34.46-.37.45-.38.43-.41.42-.42.4-.43.39-.46.37-.47.36-.49.33-.5.32-.52.3-.54.27-.55.26-.57.24-.58.21-.59.19-.6.16-.59.14-.6.11-.6.09-.6.07-.6.04-.6.01-.59-.01-.6-.03-.59-.05-.59-.07-.58-.1-.58-.12-.58-.14-.57-.17-.56-.18-.55-.21-.55-.22-.54-.25-.53-.26-.52-.29-.51-.3-.49-.33-.49-.34-.47-.36-.47-.39-.44-.39-.44-.42-.42-.43-.4-.45-.39-.47-.37-.49-.35-.5-.34-.52-.31-.53-.3-.55-.28-.56-.25-.58-.24-.59-.21-.59-.19z" id="b"/>
    <path d="M251.55 380.64l.06.03.06.03.05.04.05.04.05.04.04.05.04.04.04.05.04.05.03.06.03.05.03.06.03.06.03.06.02.06.02.07.02.07.01.06.02.07.01.08.01.07.01.07.01.08.01.08.01.08v.16l.01.09v.34l-.01.09v.19l-.01.09v.09l-.01.1-.62 5.81.38.31.84.72.81.74.77.78.74.81.06.07 5.77-.94.09-.01.09-.01.1-.01h.09l.09-.01.09-.01.08-.01h.09l.09-.01H262.31l.07.01h.08l.07.01.07.01.07.01.07.02.07.01.07.02.06.02.06.02.06.02.06.03.06.03.05.03.06.03.05.04.04.04.05.04.05.05.04.05.04.05.03.05.04.06.03.06.03.06 4.22 9.54.02.07.03.06.02.07.01.06.01.07.01.06v.07l.01.06-.01.07v.06l-.01.07-.01.06-.02.07-.02.06-.02.06-.02.07-.03.06-.03.06-.03.07-.04.06-.04.06-.04.06-.04.07-.05.06-.05.06-.05.06-.05.06-.05.06-.06.06-.06.06-.06.06-.06.06-.06.06-.06.06-.07.05-.07.06-.07.06-.07.06-.07.05-.07.06-4.55 3.69.02.12.1 1.1.05 1.09.02 1.11-.03 1.11-.04.49 4.71 3.42.08.06.07.05.07.05.08.05.07.06.07.05.06.06.07.05.06.06.07.05.06.06.06.06.05.05.06.06.05.06.05.06.05.06.05.06.04.06.04.06.04.06.03.06.04.06.03.06.03.06.02.07.02.06.02.06.02.07.01.06.01.06v.07l.01.06-.01.07v.06l-.01.07-.01.07-.02.06-.02.07-.02.07-3.75 9.76-.03.06-.03.07-.03.06-.03.05-.04.06-.04.05-.04.04-.05.05-.04.04-.05.04-.05.04-.05.03-.06.03-.06.03-.06.03-.06.02-.06.03-.06.02-.07.02-.07.01-.07.02-.07.01-.08.02-.07.01-.08.01h-.07l-.08.01h-.08l-.09.01H262.29l-.1-.01h-.09l-.09-.01h-.09l-5.79-.61-.31.39-.72.85-.75.81-.77.78-.81.74-.09.08.91 5.77.02.09.01.09.02.09.01.09.01.08.01.09.01.09.01.08.01.09V439.18l.01.08-.01.08v.16l-.01.08v.07l-.01.08-.01.07-.02.07-.01.07-.02.07-.02.07-.02.06-.03.07-.02.06-.03.06-.03.06-.04.05-.03.06-.04.05-.05.05-.04.05-.05.04-.05.05-.05.04-.05.04-.06.03-.06.03-.07.04-9.51 4.26-.07.03-.06.02-.06.02-.07.02-.06.01-.07.01h-.18l-.07-.01-.06-.01-.06-.01-.06-.02-.06-.02-.06-.02-.06-.03-.06-.02-.06-.04-.06-.03-.06-.04-.07-.03-.06-.05-.06-.04-.06-.04-.06-.05-.06-.05-.06-.05-.06-.06-.06-.05-.06-.06-.06-.06-.06-.06-.06-.06-.06-.07-.06-.06-.06-.07-.07-.06-.06-.07-.06-.07-.06-.07-3.65-4.54-.11.01-1.09.11-1.1.06-1.1.01-1.1-.02-.49-.03-3.43 4.74-.06.07-.06.07-.06.08-.05.07-.06.07-.06.06-.06.07-.06.07-.05.06-.06.06-.06.06-.06.06-.05.06-.06.05-.06.06-.06.05-.06.05-.05.05-.06.04-.06.04-.06.04-.06.04-.06.03-.05.04-.06.02-.06.03-.06.02-.06.02-.07.02-.06.01-.06.01-.06.01h-.19l-.06-.01-.07-.01-.06-.02-.07-.01-.07-.03-9.7-3.72-.07-.03-.06-.03-.06-.03-.06-.04-.05-.04-.05-.04-.05-.04-.05-.04-.04-.05-.04-.05-.04-.05-.04-.06-.03-.05-.04-.06-.03-.06-.02-.07-.03-.06-.02-.07-.02-.06-.02-.07-.02-.07-.01-.08-.02-.07-.01-.08-.01-.07v-.08l-.01-.08v-.08l-.01-.08V440.08l.01-.09V439.82l.01-.09.01-.09.01-.09.01-.09.01-.09.01-.09.63-5.81-.39-.31-.84-.72-.8-.75-.78-.78-.74-.8-.08-.1-5.73.93-.09.01-.09.02-.09.01-.09.02-.09.01-.08.01-.09.01-.09.01h-.08l-.08.01H205.89l-.07-.01h-.08l-.07-.01-.08-.01-.07-.02-.07-.01-.07-.02-.06-.02-.07-.02-.06-.03-.06-.02-.06-.03-.06-.03-.06-.04-.05-.03-.05-.04-.05-.04-.05-.05-.04-.04-.05-.05-.04-.06-.04-.05-.03-.06-.03-.06-.03-.06-4.22-9.54-.02-.07-.03-.06-.02-.07-.01-.06-.01-.07-.01-.06v-.19l.01-.06.01-.06.01-.06.02-.07.02-.06.02-.06.03-.06.02-.06.04-.06.03-.06.04-.06.03-.06.05-.06.04-.06.05-.07.04-.06.05-.06.06-.06.05-.06.05-.06.06-.06.06-.06.06-.06.06-.06.07-.07.06-.06.07-.06.06-.06.07-.06.07-.07.07-.06 4.53-3.67-.02-.11-.09-1.09-.06-1.1-.01-1.1.03-1.11.03-.5-4.71-3.42-.07-.06-.07-.06-.07-.05-.07-.06-.07-.06-.07-.06-.07-.06-.06-.06-.07-.05-.06-.06-.06-.06-.06-.06-.05-.05-.06-.06-.05-.06-.05-.06-.05-.05-.05-.06-.04-.06-.04-.06-.04-.06-.04-.06-.03-.06-.03-.05-.03-.06-.03-.06-.02-.06-.02-.06-.02-.07-.01-.06-.01-.06-.01-.06v-.13l.01-.06v-.07l.01-.06.02-.07.02-.06.02-.07 3.75-9.76.03-.07.03-.06.03-.06.04-.06.03-.05.04-.06.05-.04.04-.05.05-.05.05-.04.05-.04.06-.03.05-.04.06-.03.06-.03.06-.03.07-.02.06-.03.07-.02.07-.02.07-.01.07-.02.08-.01.07-.01.08-.01.08-.01.07-.01h.09l.08-.01h.25l.08.01h.09l.09.01.09.01h.09l.09.01.09.01.09.02 5.79.6.3-.38.72-.85.75-.81.78-.78.8-.75.09-.07-.91-5.77-.01-.09-.01-.1v-.09l-.01-.09-.01-.09-.01-.09v-.09l-.01-.09V383.4l-.01-.08v-.16l.01-.08v-.16l.01-.08.01-.07.01-.07.01-.07.01-.07.02-.07.02-.07.02-.06.02-.06.02-.06.03-.06.03-.06.03-.06.03-.05.04-.05.04-.05.04-.04.04-.05.05-.04.05-.04.06-.04.06-.04.06-.03.06-.03 9.51-4.27.07-.02.06-.03.07-.02.06-.01.07-.02h.06l.07-.01h.13l.06.01.07.01.06.01.07.01.06.02.06.02.07.03.06.03.06.03.06.03.07.03.06.04.06.04.06.05.06.04.06.05.06.05.06.05.06.06.06.05.06.06.06.06.06.06.06.06.06.07.05.07.06.06.06.07.05.07.06.08.06.07 3.65 4.54.11-.02 1.09-.1 1.09-.06 1.1-.02 1.1.03.5.03 3.42-4.74.05-.08.06-.07.05-.08.05-.07.06-.07.05-.07.05-.07.06-.06.06-.07.05-.06.06-.06.05-.06.06-.06.06-.06.06-.05.06-.05.06-.05.05-.05.06-.04.06-.04.06-.04.07-.04.06-.03.06-.03.06-.03.06-.02.07-.03.06-.01.06-.02.07-.01.06-.01.06-.01h.13l.07.01h.06l.07.02.07.01.06.02.07.02 9.71 3.73.06.03.06.03zm-13.18 15.98l-.6-.16-.59-.13-.6-.11-.59-.09-.6-.06-.6-.04-.59-.01-.59.01-.59.03-.59.05-.58.08-.58.1-.57.13-.57.14-.56.17-.55.18-.55.21-.53.23-.53.25-.52.27-.51.29-.49.31-.49.32-.47.35-.46.37-.45.38-.44.4-.41.42-.41.44-.38.45-.38.47-.35.49-.33.51-.32.52-.3.53-.28.56-.26.56-.23.58-.22.6-.18.59-.17.6-.13.6-.12.59-.09.6-.06.6-.04.6-.02.6.01.59.03.6.06.58.07.59.1.58.12.57.14.57.16.56.19.56.2.54.23.54.24.53.27.52.29.51.3.5.33.49.34.47.36.46.38.45.4.43.42.42.43.4.45.39.47.37.48.36.51.33.51.32.54.29.54.28.57.26.58.23.58.22.6.18.59.16.59.14.6.11.6.09.59.06.6.04.59.01.6-.01.59-.03.58-.06.58-.08.58-.1.57-.12.57-.14.56-.17.55-.19.55-.2.54-.23.52-.25.52-.27.51-.29.5-.31.48-.33.48-.34.46-.37.44-.38.44-.4.42-.42.4-.44.39-.46.37-.47.35-.49.34-.5.31-.52.3-.54.28-.55.26-.57.24-.58.21-.59.19-.59.16-.6.14-.6.11-.6.09-.6.06-.6.04-.6.02-.59-.01-.6-.03-.59-.05-.59-.08-.58-.1-.58-.12-.58-.14-.56-.16-.57-.18-.55-.21-.55-.23-.54-.24-.53-.27-.52-.28-.5-.31-.5-.32-.49-.35-.47-.36-.46-.38-.45-.4-.44-.41-.41-.44-.41-.45-.38-.47-.38-.48-.35-.5-.33-.52-.32-.53-.3-.55-.28-.56-.25-.58-.24-.59-.21-.59-.19z" id="c"/><path d="M174.19 121.96h66.46v329.12h-66.46V121.96z" id="d"/>
    <path d="M424.97 311.66l.06.04.06.03.05.04.05.04.05.04.04.04.04.05.04.05.04.05.03.05.03.06.03.06.03.05.02.07.03.06.02.06.02.07.01.07.02.07.01.07.01.08.01.07.01.08.01.08v.08l.01.08v.16l.01.09v.08l-.01.09v.27l-.01.09v.19l-.01.09-.63 5.82.39.3.84.72.8.75.78.78.74.8.06.07 5.77-.93.09-.01.09-.01.09-.01.09-.01.09-.01h.09l.09-.01.09-.01h.25l.08-.01h.09l.07.01h.16l.07.01.08.01.07.01.07.01.07.01.07.02.06.01.07.02.06.03.06.02.06.03.06.02.05.04.05.03.05.04.05.04.05.04.04.04.04.05.04.05.04.06.04.05.03.06.03.07 4.21 9.54.03.06.02.07.02.06.02.07.01.06.01.07v.26l-.01.06-.02.07-.01.06-.02.07-.02.06-.03.06-.02.07-.03.06-.04.06-.03.06-.04.07-.04.06-.04.06-.05.06-.05.06-.05.07-.05.06-.05.06-.06.06-.06.06-.06.06-.06.05-.06.06-.07.06-.06.06-.07.06-.07.06-.07.05-.07.06-.08.05-4.54 3.69.02.13.1 1.09.05 1.1.01 1.11-.03 1.1-.03.5 4.71 3.42.07.05.08.05.07.06.07.05.08.05.06.06.07.05.07.06.06.05.06.06.07.06.05.05.06.06.06.06.05.06.05.05.05.06.04.06.05.06.04.06.04.06.03.06.04.07.03.06.02.06.03.06.02.06.02.07.01.06.02.06.01.07v.26l-.01.07-.01.06-.02.07-.02.07-.02.06-3.75 9.76-.03.07-.03.06-.03.06-.03.06-.04.05-.04.05-.04.05-.05.04-.04.05-.05.04-.05.03-.06.04-.05.03-.06.03-.06.03-.06.02-.06.02-.07.02-.06.02-.07.02-.07.02-.07.01-.08.01-.07.01-.08.01-.08.01h-.08l-.08.01h-.08l-.08.01h-.35l-.09-.01h-.18l-.09-.01h-.19l-5.79-.61-.3.39-.72.84-.75.81-.78.78-.8.75-.09.07.91 5.77.02.09.01.09.02.09.01.09.01.09.01.09.01.08.01.09v.09l.01.08V370.53l-.01.07-.01.08-.01.07-.01.08-.01.07-.02.07-.01.07-.02.07-.03.06-.02.06-.03.07-.03.06-.03.05-.03.06-.04.05-.04.06-.04.05-.04.04-.05.05-.05.04-.05.04-.06.04-.05.04-.07.03-.06.03-9.51 4.27-.07.03-.06.02-.07.02-.06.01-.06.02h-.07l-.06.01h-.06l-.07-.01h-.06l-.06-.01-.06-.02-.06-.01-.06-.02-.06-.02-.07-.03-.06-.03-.06-.03-.06-.03-.06-.04-.06-.04-.06-.04-.06-.04-.06-.05-.06-.05-.06-.05-.06-.05-.06-.05-.06-.06-.06-.06-.06-.06-.06-.06-.06-.06-.06-.06-.06-.07-.07-.06-.06-.07-.06-.07-.06-.07-.07-.07-3.64-4.54-.12.02-1.09.1-1.09.06-1.1.02-1.1-.03-.5-.03-3.42 4.74-.06.08-.06.07-.06.07-.06.07-.05.07-.06.07-.06.07-.06.06-.06.07-.05.06-.06.06-.06.06-.06.06-.05.05-.06.05-.06.06-.06.04-.06.05-.05.05-.06.04-.06.04-.06.04-.06.03-.06.03-.06.03-.06.03-.06.02-.06.02-.06.02-.06.01-.06.01-.06.01h-.19l-.07-.01-.06-.01-.07-.02-.06-.02-.07-.02-9.7-3.73-.07-.03-.06-.03-.06-.03-.06-.03-.05-.04-.06-.04-.04-.04-.05-.05-.05-.05-.04-.05-.04-.05-.03-.05-.04-.06-.03-.06-.03-.06-.02-.06-.03-.06-.02-.07-.02-.07-.02-.07-.02-.07-.01-.07-.02-.07-.01-.08-.01-.08-.01-.08v-.07l-.01-.09v-.33l.01-.09v-.08l.01-.09.01-.09v-.09l.01-.09.02-.09.01-.09.63-5.82-.39-.3-.84-.72-.8-.75-.78-.78-.74-.81-.08-.1-5.73.93-.09.02-.09.01-.09.02-.09.01-.09.02-.09.01-.08.01h-.09l-.08.01h-.09l-.08.01h-.24l-.08-.01h-.08l-.07-.01-.08-.01-.07-.01-.07-.01-.07-.02-.07-.01-.07-.02-.06-.03-.07-.02-.06-.03-.06-.02-.05-.04-.06-.03-.05-.04-.05-.04-.05-.04-.05-.04-.05-.05-.04-.05-.04-.05-.04-.06-.03-.05-.04-.06-.03-.07-4.21-9.54-.03-.06-.02-.07-.02-.06-.01-.07-.01-.06-.01-.06-.01-.07v-.06l.01-.06v-.06l.01-.07.02-.06.01-.06.02-.06.03-.06.02-.06.03-.07.03-.06.04-.06.03-.06.04-.06.04-.06.05-.06.04-.06.05-.06.05-.06.05-.06.06-.06.05-.06.06-.06.06-.07.06-.06.06-.06.06-.06.07-.06.07-.06.06-.07.07-.06.07-.06.07-.07 4.53-3.67-.02-.1-.1-1.09-.05-1.1-.02-1.11.03-1.11.04-.49-4.71-3.42-.07-.06-.08-.06-.07-.06-.07-.06-.07-.06-.06-.05-.07-.06-.06-.06-.07-.06-.06-.05-.06-.06-.06-.06-.05-.06-.06-.06-.05-.05-.05-.06-.05-.06-.05-.06-.04-.06-.04-.05-.04-.06-.04-.06-.03-.06-.04-.06-.02-.06-.03-.06-.02-.06-.02-.06-.02-.06-.01-.06-.01-.06-.01-.07v-.19l.01-.06.01-.07.02-.06.02-.07.02-.06 3.75-9.77.03-.06.03-.07.03-.06.03-.05.04-.06.04-.05.04-.05.05-.05.05-.04.05-.04.05-.04.05-.04.06-.03.06-.03.06-.03.06-.03.06-.03.07-.02.07-.02.07-.02.07-.02.07-.01.07-.02.08-.01.07-.01.08-.01h.08l.08-.01h.42l.09.01h.09l.09.01.08.01.09.01.09.01.1.01 5.78.61.31-.39.72-.84.75-.82.78-.77.8-.75.09-.07-.91-5.77-.01-.1-.01-.09-.01-.09-.01-.09v-.1l-.01-.08-.01-.09v-.18l-.01-.08v-.33l.01-.08v-.07l.01-.08.01-.07.01-.08.01-.07.01-.07.02-.07.01-.06.02-.07.03-.06.02-.06.03-.06.02-.05.04-.06.03-.05.04-.05.04-.05.04-.05.04-.04.05-.05.05-.04.06-.03.05-.04.06-.03.07-.03 9.51-4.27.07-.03.06-.02.07-.02.06-.02.07-.01.06-.01h.26l.07.01.06.02.06.01.07.02.06.02.06.02.07.03.06.03.06.04.06.03.07.04.06.04.06.04.06.05.06.05.06.04.06.06.06.05.06.06.06.05.06.06.06.07.06.06.05.06.06.07.06.07.06.07.05.07.06.07.05.07 3.65 4.54.11-.01 1.09-.1 1.1-.07 1.1-.01 1.1.02.49.04 3.43-4.75.05-.07.05-.08.06-.07.05-.07.05-.07.06-.07.05-.07.06-.07.05-.06.06-.07.06-.06.05-.06.06-.05.06-.06.06-.05.05-.05.06-.05.06-.05.06-.04.06-.04.06-.04.06-.04.06-.03.07-.03.06-.03.06-.03.06-.02.07-.02.06-.01.06-.02.07-.01h.26l.06.01.07.01.06.02.07.02.07.02 9.7 3.73.07.02.06.03zm-13.18 15.99l-.6-.16-.59-.14-.6-.11-.6-.08-.59-.07-.6-.03-.59-.02-.6.01-.58.03-.59.06-.58.08-.58.1-.57.12-.57.15-.56.16-.55.19-.55.21-.54.23-.52.24-.52.27-.51.29-.5.31-.48.33-.48.35-.46.36-.44.38-.44.41-.42.42-.4.43-.39.46-.37.47-.35.49-.34.5-.31.52-.3.54-.28.55-.26.57-.24.58-.21.59-.19.6-.16.59-.14.6-.11.6-.09.6-.06.6-.04.6-.02.59.01.6.03.59.05.59.08.58.1.58.12.58.14.57.16.56.19.55.2.55.23.54.24.53.27.52.28.51.31.49.32.49.35.48.36.46.38.44.4.44.41.42.44.4.45.39.47.37.48.35.5.34.52.31.53.3.55.28.57.25.57.24.59.21.59.19.6.16.59.14.6.11.59.08.6.06.6.04.59.02.59-.01.59-.04.59-.05.58-.08.58-.1.57-.12.57-.15.56-.16.55-.19.55-.21.53-.23.53-.25.52-.27.51-.28.5-.31.48-.33.47-.35.47-.36.44-.39.44-.4.41-.42.41-.44.39-.45.37-.47.35-.49.34-.5.31-.52.3-.54.28-.55.26-.57.23-.58.22-.59.19-.6.16-.59.14-.6.11-.6.09-.6.06-.6.04-.6.02-.6-.01-.59-.03-.59-.05-.59-.08-.59-.1-.58-.12-.57-.14-.57-.16-.56-.19-.56-.2-.54-.23-.54-.24-.53-.27-.52-.29-.51-.3-.5-.33-.48-.34-.48-.36-.46-.38-.45-.4-.43-.42-.42-.43-.4-.45-.39-.47-.37-.48-.35-.5-.34-.52-.31-.53-.3-.55-.28-.57-.26-.58-.23-.58-.21-.59-.19z" id="e"/>
    <path d="M424.97 208.87l.06.03.06.03.05.04.05.04.05.04.04.05.04.04.04.05.04.05.03.05.03.06.03.06.03.06.02.06.03.06.02.07.02.06.01.07.02.07.01.07.01.08.01.07.01.08.01.08v.08l.01.08v.16l.01.09v.09l-.01.08v.27l-.01.09v.19l-.01.09-.63 5.82.39.3.84.72.8.75.78.78.74.81.06.07 5.77-.94.09-.01.09-.01.09-.01.09-.01h.09l.09-.01.09-.01h.09l.08-.01h.49l.08.01h.07l.08.01.07.01.07.01.07.01.07.02.06.02.07.02.06.02.06.02.06.03.06.03.05.03.05.03.05.04.05.04.05.04.04.04.04.05.04.05.04.06.04.06.03.06.03.06 4.21 9.54.03.06.02.07.02.06.02.07.01.07.01.06v.26l-.01.06-.02.07-.01.06-.02.07-.02.06-.03.06-.02.07-.03.06-.04.06-.03.07-.04.06-.04.06-.04.06-.05.06-.05.07-.05.06-.05.06-.05.06-.06.06-.06.06-.06.06-.06.06-.06.06-.07.05-.06.06-.07.06-.07.06-.07.05-.07.06-.08.06-4.54 3.69.02.12.1 1.09.05 1.1.01 1.11-.03 1.11-.03.49 4.71 3.42.07.05.08.06.07.05.07.05.08.06.06.05.07.05.07.06.06.06.06.05.07.06.05.05.06.06.06.06.05.06.05.06.05.06.04.05.05.06.04.06.04.06.03.07.04.06.03.06.02.06.03.06.02.07.02.06.01.06.02.07.01.06v.26l-.01.07-.01.06-.02.07-.02.07-.02.06-3.75 9.77-.03.06-.03.06-.03.06-.03.06-.04.05-.04.05-.04.05-.05.05-.04.04-.05.04-.05.03-.06.04-.05.03-.06.03-.06.03-.06.02-.06.03-.07.02-.06.02-.07.01-.07.02-.07.01-.08.01-.07.01-.08.01-.08.01-.08.01h-.08l-.08.01H435.79l-.09-.01h-.18l-.09-.01h-.1l-5.79-.61-.3.39-.72.84-.75.82-.78.77-.8.75-.09.07.91 5.77.02.1.01.09.02.09.01.08.01.09.01.09.01.09.01.08v.09l.01.08V267.73l-.01.07-.01.08-.01.08-.01.07-.01.07-.02.07-.01.07-.02.07-.03.06-.02.07-.03.06-.03.06-.03.06-.03.05-.04.06-.04.05-.04.05-.04.05-.05.04-.05.04-.05.05-.06.03-.05.04-.07.03-.06.03-9.51 4.27-.07.03-.06.02-.07.02-.06.02-.06.01-.07.01h-.19l-.06-.01-.06-.01-.06-.01-.06-.02-.06-.02-.06-.02-.07-.03-.06-.03-.06-.03-.06-.03-.06-.04-.06-.04-.06-.04-.06-.04-.06-.05-.06-.04-.06-.06-.06-.05-.06-.05-.06-.06-.06-.05-.06-.06-.06-.06-.06-.07-.06-.06-.06-.06-.07-.07-.06-.07-.06-.07-.06-.06-.07-.07-3.64-4.54-.12.01-1.09.1-1.09.07-1.1.01-1.1-.02-.5-.04-3.42 4.75-.06.07-.06.07-.06.07-.06.07-.05.07-.06.07-.06.07-.06.06-.06.07-.05.06-.06.06-.06.06-.06.06-.05.05-.06.06-.06.05-.06.05-.06.04-.05.05-.06.04-.06.04-.06.04-.06.03-.06.03-.06.03-.06.03-.06.02-.06.02-.06.02-.06.01-.06.01-.06.01h-.19l-.07-.01-.06-.01-.07-.02-.06-.02-.07-.02-9.7-3.73-.07-.02-.06-.03-.06-.04-.06-.03-.05-.04-.06-.04-.04-.04-.05-.05-.05-.04-.04-.05-.04-.06-.03-.05-.04-.06-.03-.05-.03-.06-.02-.07-.03-.06-.02-.07-.02-.06-.02-.07-.02-.08-.01-.07-.02-.07-.01-.08-.01-.07-.01-.08v-.08l-.01-.08V268.22l.01-.09v-.08l.01-.09.01-.09v-.09l.01-.09.02-.09.01-.09.63-5.82-.39-.3-.84-.72-.8-.75-.78-.78-.74-.8-.08-.11-5.73.93-.09.02-.09.02-.09.01-.09.01-.09.02-.09.01-.08.01-.09.01h-.08l-.09.01h-.4l-.08-.01-.07-.01h-.08l-.07-.02-.07-.01-.07-.01-.07-.02-.07-.02-.06-.02-.07-.03-.06-.02-.06-.03-.05-.03-.06-.04-.05-.03-.05-.04-.05-.04-.05-.05-.05-.05-.04-.05-.04-.05-.04-.05-.03-.06-.04-.06-.03-.07-4.21-9.53-.03-.07-.02-.07-.02-.06-.01-.06-.01-.07-.01-.06-.01-.06v-.07l.01-.06v-.06l.01-.06.02-.07.01-.06.02-.06.03-.06.02-.06.03-.06.03-.06.04-.06.03-.07.04-.06.04-.06.05-.06.04-.06.05-.06.05-.06.05-.06.06-.06.05-.06.06-.06.06-.06.06-.06.06-.07.06-.06.07-.06.07-.06.06-.06.07-.07.07-.06.07-.06 4.53-3.68-.02-.1-.1-1.09-.05-1.1-.02-1.11.03-1.1.04-.5-4.71-3.42-.07-.06-.08-.06-.07-.06-.07-.05-.07-.06-.06-.06-.07-.06-.06-.06-.07-.06-.06-.05-.06-.06-.06-.06-.05-.06-.06-.05-.05-.06-.05-.06-.05-.06-.05-.05-.04-.06-.04-.06-.04-.06-.04-.06-.03-.06-.04-.06-.02-.06-.03-.06-.02-.06-.02-.06-.02-.06-.01-.06-.01-.06-.01-.06v-.19l.01-.07.01-.06.02-.07.02-.07.02-.06 3.75-9.76.03-.07.03-.06.03-.06.03-.06.04-.06.04-.05.04-.05.05-.04.05-.05.05-.04.05-.04.05-.04.06-.03.06-.03.06-.03.06-.03.06-.03.07-.02.07-.02.07-.02.07-.02.07-.01.07-.02.08-.01.07-.01h.08l.08-.01.08-.01H378.96l.08.01h.09l.09.01h.09l.08.01.09.01.09.01.1.01 5.78.61.31-.39.72-.84.75-.81.78-.78.8-.75.09-.07-.91-5.77-.01-.1-.01-.09-.01-.09-.01-.09v-.09l-.01-.09-.01-.09V211.72l-.01-.09v-.33l.01-.08v-.07l.01-.08.01-.07.01-.07.01-.08.01-.07.02-.06.01-.07.02-.06.03-.07.02-.06.03-.06.02-.05.04-.06.03-.05.04-.05.04-.05.04-.05.04-.04.05-.04.05-.04.06-.04.05-.04.06-.03.07-.03 9.51-4.27.07-.03.06-.02.07-.02.06-.02.07-.01.06-.01h.2l.06.01h.07l.06.02.06.01.07.02.06.02.06.03.07.02.06.03.06.04.06.03.07.04.06.04.06.04.06.05.06.05.06.05.06.05.06.05.06.06.06.06.06.06.06.06.06.06.05.07.06.06.06.07.06.07.05.07.06.07.05.08 3.65 4.54.11-.02 1.09-.1 1.1-.06 1.1-.02 1.1.03.49.03 3.43-4.74.05-.08.05-.08.06-.07.05-.07.05-.07.06-.07.05-.07.06-.07.05-.06.06-.06.06-.07.05-.06.06-.05.06-.06.06-.05.05-.05.06-.05.06-.05.06-.04.06-.04.06-.04.06-.04.06-.03.07-.03.06-.03.06-.03.06-.02.07-.02.06-.01.06-.01.07-.01.06-.01h.2l.06.01.07.01.06.02.07.02.07.02 9.7 3.73.07.03.06.03zm-13.18 15.98l-.6-.16-.59-.14-.6-.11-.6-.08-.59-.06-.6-.04-.59-.02-.6.01-.58.04-.59.05-.58.08-.58.1-.57.12-.57.15-.56.16-.55.19-.55.21-.54.23-.52.25-.52.27-.51.28-.5.31-.48.33-.48.35-.46.36-.44.39-.44.4-.42.42-.4.44-.39.45-.37.47-.35.49-.34.5-.31.52-.3.54-.28.55-.26.57-.24.58-.21.59-.19.6-.16.59-.14.6-.11.6-.09.6-.06.6-.04.6-.02.6.01.59.03.59.05.59.08.59.1.58.12.57.14.57.16.56.19.56.2.54.23.54.24.53.27.52.28.51.31.5.32.48.35.48.36.46.38.45.4.43.41.42.44.4.45.39.47.37.48.35.5.34.52.31.53.3.55.28.57.26.57.23.59.21.59.19.6.16.59.14.6.11.59.08.6.07.6.03.59.02.59-.01.59-.03.59-.06.58-.08.58-.1.57-.12.57-.15.56-.16.55-.19.55-.21.53-.23.53-.24.52-.27.51-.29.5-.31.48-.33.47-.35.47-.36.44-.38.44-.41.41-.42.41-.43.39-.46.37-.47.35-.49.34-.5.31-.52.3-.54.28-.55.26-.57.23-.58.22-.59.19-.6.16-.59.14-.6.11-.6.09-.6.06-.6.04-.6.02-.59-.01-.6-.03-.59-.05-.59-.08-.58-.1-.58-.12-.58-.14-.57-.16-.56-.19-.55-.2-.55-.23-.54-.24-.53-.27-.52-.29-.51-.3-.49-.33-.49-.34-.48-.36-.46-.38-.44-.4-.44-.42-.42-.43-.4-.45-.39-.47-.37-.48-.35-.5-.34-.52-.31-.53-.3-.55-.28-.57-.25-.58-.24-.58-.21-.59-.19z" id="f"/>
    <path d="M356.35 138.49l.05.03.06.03.05.04.05.04.05.04.04.05.05.04.03.05.04.05.04.06.03.05.03.06.02.06.03.06.02.06.02.07.02.06.02.07.01.07.02.07.01.08.01.07.01.08v.08l.01.08v.08l.01.08v.52l-.01.09v.09l-.01.1v.09l-.01.09-.62 5.82.38.3.84.72.81.75.77.78.74.81.06.07 5.77-.94.09-.01.1-.01.09-.01.09-.01h.09l.09-.01.09-.01h.08l.09-.01H367.1l.07.01h.08l.07.01.08.01.07.01.07.01.06.02.07.02.06.02.06.02.07.02.05.03.06.03.05.03.06.03.05.04.05.04.04.04.05.05.04.04.04.05.04.06.03.06.03.06.03.06 4.22 9.54.03.06.02.07.02.07.01.06.01.07.01.06.01.07v.13l-.01.06-.01.07-.01.06-.02.06-.02.07-.02.06-.02.06-.03.07-.03.06-.03.06-.04.07-.04.06-.04.06-.04.06-.05.07-.04.06-.05.06-.05.06-.06.06-.06.06-.05.06-.06.06-.06.06-.07.06-.06.05-.07.06-.07.06-.07.06-.07.05-.07.06-.07.06-4.55 3.69.02.12.1 1.09.06 1.1.01 1.11-.03 1.11-.03.49 4.7 3.42.08.05.07.06.08.05.07.05.07.06.07.05.07.05.06.06.07.06.06.05.06.06.06.05.06.06.05.06.05.06.05.06.05.06.05.05.04.06.04.06.04.07.04.06.03.06.03.06.03.06.02.06.02.07.02.06.02.06.01.07.01.06.01.07v.13l-.01.06-.01.07-.01.06-.01.07-.02.07-.03.06-3.75 9.77-.02.06-.03.07-.04.05-.03.06-.04.05-.04.05-.04.05-.04.05-.05.04-.05.04-.05.03-.05.04-.06.03-.05.03-.06.03-.06.02-.07.03-.06.02-.07.02-.07.01-.07.02-.07.01-.07.01-.08.01-.07.01-.08.01-.08.01h-.08l-.08.01h-.52l-.09-.01h-.19l-.09-.01h-.09l-5.79-.61-.31.39-.72.84-.74.82-.78.77-.81.75-.08.07.9 5.78.02.09.02.09.01.09.01.08.01.09.02.09v.09l.01.08.01.09v.08l.01.09v.24l-.01.08v.07l-.01.08-.01.08-.01.07-.02.07-.01.07-.02.07-.02.07-.02.06-.03.07-.02.06-.03.06-.03.06-.04.05-.03.06-.04.05-.04.05-.05.05-.04.04-.05.04-.06.05-.05.03-.06.04-.06.03-.06.03-9.52 4.27-.06.03-.07.02-.06.02-.07.02-.06.01-.06.01h-.19l-.06-.01-.07-.01-.06-.01-.06-.02-.06-.02-.06-.02-.06-.03-.06-.03-.06-.03-.06-.03-.06-.04-.06-.04-.06-.04-.06-.04-.06-.05-.06-.04-.06-.05-.06-.06-.06-.05-.06-.06-.06-.05-.07-.06-.06-.06-.06-.07-.06-.06-.06-.06-.06-.07-.06-.07-.07-.06-.06-.07-.06-.07-3.65-4.54-.11.01-1.09.1-1.1.07-1.1.01-1.1-.02-.49-.03-3.43 4.74-.06.07-.05.07-.06.07-.06.07-.06.07-.06.07-.06.07-.05.06-.06.07-.06.06-.06.06-.05.06-.06.06-.06.05-.06.06-.06.05-.05.05-.06.04-.06.05-.06.04-.06.04-.05.04-.06.03-.06.03-.06.03-.06.03-.06.02-.06.02-.06.02-.06.01-.07.01-.06.01h-.19l-.06-.01-.07-.01-.06-.02-.07-.02-.06-.02-9.71-3.73-.07-.02-.06-.03-.06-.04-.06-.03-.05-.04-.05-.04-.05-.04-.05-.05-.04-.04-.04-.05-.04-.06-.04-.05-.03-.06-.03-.05-.03-.06-.03-.07-.03-.06-.02-.07-.02-.06-.02-.07-.02-.08-.01-.07-.01-.07-.01-.08-.01-.07-.01-.08-.01-.08v-.5l.01-.09v-.09l.01-.09.01-.09.01-.09.01-.09.01-.09.63-5.82-.39-.3-.83-.72-.81-.75-.77-.78-.74-.8-.09-.11-5.73.93-.09.02-.09.02-.09.01-.09.02-.08.01-.09.01-.09.01-.08.01h-.09l-.08.01H310.68l-.07-.01-.08-.01h-.07l-.08-.02-.07-.01-.07-.01-.07-.02-.06-.02-.07-.02-.06-.03-.06-.02-.06-.03-.06-.03-.06-.04-.05-.03-.05-.04-.05-.04-.05-.05-.04-.05-.04-.05-.05-.05-.03-.05-.04-.06-.03-.06-.03-.07-4.22-9.53-.02-.07-.03-.06-.01-.07-.02-.06-.01-.07-.01-.06v-.19l.01-.06.01-.06.01-.07.02-.06.02-.06.02-.06.03-.06.03-.06.03-.06.03-.06.04-.07.04-.06.04-.06.04-.06.05-.06.05-.06.05-.06.05-.06.05-.06.06-.06.05-.06.06-.06.06-.06.07-.07.06-.06.06-.06.07-.06.07-.06.07-.07.06-.06.07-.06 4.53-3.68-.01-.1-.1-1.09-.06-1.1-.01-1.1.03-1.11.03-.5-4.71-3.42-.07-.06-.07-.06-.07-.06-.07-.05-.07-.06-.07-.06-.06-.06-.07-.06-.06-.05-.06-.06-.07-.06-.05-.06-.06-.06-.06-.05-.05-.06-.05-.06-.05-.06-.04-.05-.05-.06-.04-.06-.04-.06-.04-.06-.03-.06-.03-.06-.03-.06-.03-.06-.02-.06-.02-.06-.01-.06-.02-.06-.01-.06v-.06l-.01-.07v-.06l.01-.06.01-.07.01-.06.01-.07.02-.07.03-.06 3.74-9.76.03-.07.03-.06.03-.06.04-.06.04-.06.04-.05.04-.05.04-.04.05-.05.05-.04.05-.04.06-.04.05-.03.06-.03.06-.03.06-.03.07-.03.06-.02.07-.02.07-.02.07-.02.07-.01.08-.02.07-.01.08-.01h.08l.08-.01.08-.01h.33l.09.01h.08l.09.01h.09l.09.01.09.01.09.01.09.02 5.79.6.3-.39.72-.84.75-.81.78-.78.8-.75.09-.07-.91-5.77-.01-.1v-.09l-.01-.09-.01-.09-.01-.09v-.09l-.01-.09-.01-.09v-.25l-.01-.09.01-.08V140.85l.01-.08v-.08l.01-.07.01-.07.01-.08.02-.06.01-.07.02-.07.02-.06.02-.07.02-.06.03-.06.03-.05.03-.06.03-.05.04-.05.04-.05.04-.05.05-.04.05-.04.05-.04.05-.04.06-.04.06-.03.06-.03 9.52-4.27.06-.03.07-.02.06-.02.07-.02.06-.01.07-.01h.19l.07.01.06.01.06.01.07.01.06.02.06.02.07.03.06.02.06.03.07.04.06.03.06.04.06.04.06.04.06.05.07.05.06.05.06.05.06.05.06.06.06.06.05.06.06.06.06.06.06.07.06.06.05.07.06.07.06.07.05.07.06.08 3.65 4.54.11-.02 1.09-.1 1.09-.06 1.1-.02 1.11.03.49.03 3.42-4.74.06-.08.05-.08.05-.07.05-.07.06-.07.05-.07.06-.07.05-.07.06-.06.05-.06.06-.07.06-.06.05-.05.06-.06.06-.05.06-.05.06-.05.06-.05.06-.04.06-.04.06-.04.06-.04.06-.03.06-.03.06-.03.06-.03.07-.02.06-.02.06-.01.07-.01.06-.01.07-.01h.19l.07.01.06.01.07.02.06.02.07.02 9.71 3.73.06.03.07.03zm-13.19 15.98l-.59-.16-.6-.14-.6-.11-.59-.08-.6-.06-.59-.04-.6-.02-.59.01-.59.04-.59.05-.58.08-.58.1-.57.12-.57.15-.56.16-.55.19-.54.21-.54.23-.53.25-.52.27-.51.28-.49.31-.49.33-.47.35-.46.36-.45.39-.43.4-.42.42-.4.44-.39.45-.37.47-.36.49-.33.5-.32.52-.3.54-.28.55-.25.57-.24.58-.21.59-.19.6-.16.59-.14.6-.11.6-.09.6-.07.6-.04.6-.01.6v.59l.03.59.06.59.07.59.1.58.12.57.14.57.17.56.18.56.2.54.23.54.25.53.26.52.29.51.3.5.33.48.34.48.36.46.38.45.4.43.42.42.43.4.45.39.47.37.49.35.5.34.51.32.54.29.55.28.56.26.58.23.59.21.59.19.59.16.6.14.59.11.6.08.6.07.59.03.6.02.59-.01.59-.03.58-.06.59-.08.57-.1.58-.12.56-.15.56-.16.56-.19.54-.21.54-.22.53-.25.51-.27.51-.29.5-.31.49-.33.47-.35.46-.36.45-.38.43-.41.42-.42.4-.43.39-.46.37-.47.35-.49.34-.5.32-.52.3-.54.27-.55.26-.57.24-.58.21-.59.19-.6.16-.59.14-.6.11-.6.09-.6.06-.6.04-.6.02-.59-.01-.6-.03-.59-.05-.59-.08-.58-.09-.58-.12-.58-.15-.57-.16-.56-.18-.55-.21-.55-.22-.54-.25-.53-.27-.52-.28-.51-.31-.49-.32-.49-.34-.47-.37-.47-.38-.44-.39-.44-.42-.42-.43-.4-.46-.39-.46-.37-.49-.35-.5-.34-.52-.31-.53-.3-.55-.28-.56-.25-.58-.24-.59-.21-.59-.19z" id="g"/>
    <path d="M251.55 138.49l.06.03.06.03.05.04.05.04.05.04.04.05.04.04.04.05.04.05.03.06.03.05.03.06.03.06.03.06.02.06.02.07.02.06.01.07.02.07.01.07.01.08.01.07.01.08.01.08.01.08v.16l.01.08v.35l-.01.09v.18l-.01.1v.09l-.01.09-.62 5.82.38.3.84.72.81.75.77.78.74.81.06.07 5.77-.94.09-.01.09-.01.1-.01.09-.01h.09l.09-.01.08-.01h.09l.09-.01H262.31l.07.01h.08l.07.01.07.01.07.01.07.01.07.02.07.02.06.02.06.02.06.02.06.03.06.03.05.03.06.03.05.04.04.04.05.04.05.05.04.04.04.05.03.06.04.06.03.06.03.06 4.22 9.54.02.06.03.07.02.07.01.06.01.07.01.06v.07l.01.06-.01.07v.06l-.01.07-.01.06-.02.06-.02.07-.02.06-.02.06-.03.07-.03.06-.03.06-.04.07-.04.06-.04.06-.04.06-.05.07-.05.06-.05.06-.05.06-.05.06-.06.06-.06.06-.06.06-.06.06-.06.06-.06.05-.07.06-.07.06-.07.06-.07.05-.07.06-.07.06-4.55 3.69.02.12.1 1.09.05 1.1.02 1.11-.03 1.11-.04.49 4.71 3.42.08.05.07.06.07.05.08.05.07.06.07.05.06.05.07.06.06.06.07.05.06.06.06.05.05.06.06.06.05.06.05.06.05.06.05.05.04.06.04.06.04.07.03.06.04.06.03.06.03.06.02.06.02.07.02.06.02.06.01.07.01.06v.07l.01.06-.01.07v.06l-.01.07-.01.06-.02.07-.02.07-.02.06-3.75 9.77-.03.06-.03.07-.03.05-.03.06-.04.05-.04.05-.04.05-.05.05-.04.04-.05.04-.05.03-.05.04-.06.03-.06.03-.06.03-.06.02-.06.03-.06.02-.07.02-.07.01-.07.02-.07.01-.08.01-.07.01-.08.01-.07.01-.08.01h-.08l-.09.01H262.38l-.09-.01h-.19l-.09-.01h-.09l-5.79-.61-.31.39-.72.84-.75.82-.77.77-.81.75-.09.07.91 5.78.02.09.01.09.02.09.01.08.01.09.01.09.01.09.01.08.01.09V197.03l.01.08-.01.08v.16l-.01.07v.08l-.01.08-.01.07-.02.07-.01.07-.02.07-.02.07-.02.06-.03.07-.02.06-.03.06-.03.06-.04.05-.03.06-.04.05-.05.05-.04.05-.05.04-.05.04-.05.05-.05.03-.06.04-.06.03-.07.03-9.51 4.27-.07.03-.06.02-.06.02-.07.02-.06.01-.07.01h-.18l-.07-.01-.06-.01-.06-.01-.06-.02-.06-.02-.06-.02-.06-.03-.06-.03-.06-.03-.06-.03-.06-.04-.07-.04-.06-.04-.06-.04-.06-.05-.06-.04-.06-.05-.06-.06-.06-.05-.06-.06-.06-.05-.06-.06-.06-.06-.06-.07-.06-.06-.06-.06-.06-.07-.07-.07-.06-.06-.06-.07-.06-.07-3.65-4.54-.11.01-1.09.1-1.1.07-1.1.01-1.1-.02-.49-.03-3.43 4.74-.06.07-.06.07-.06.07-.05.07-.06.07-.06.07-.06.07-.06.06-.05.07-.06.06-.06.06-.06.06-.05.06-.06.05-.06.06-.06.05-.06.05-.05.04-.06.05-.06.04-.06.04-.06.04-.06.03-.05.03-.06.03-.06.03-.06.02-.06.02-.07.02-.06.01-.06.01-.06.01h-.19l-.06-.01-.07-.01-.06-.02-.07-.02-.07-.02-9.7-3.73-.07-.02-.06-.03-.06-.04-.06-.03-.05-.04-.05-.04-.05-.04-.05-.05-.04-.04-.04-.05-.04-.06-.04-.05-.03-.06-.04-.05-.03-.06-.02-.07-.03-.06-.02-.07-.02-.06-.02-.07-.02-.08-.01-.07-.02-.07-.01-.08-.01-.07v-.08l-.01-.08v-.08l-.01-.09v-.16l.01-.09V197.67l.01-.09.01-.09.01-.09.01-.09.01-.09.01-.09.63-5.82-.39-.3-.84-.72-.8-.75-.78-.78-.74-.8-.08-.11-5.73.93-.09.02-.09.02-.09.01-.09.02-.09.01-.08.01-.09.01-.09.01h-.08l-.08.01H205.89l-.07-.01-.08-.01h-.07l-.08-.02-.07-.01-.07-.01-.07-.02-.06-.02-.07-.02-.06-.03-.06-.02-.06-.03-.06-.03-.06-.04-.05-.03-.05-.04-.05-.04-.05-.05-.04-.05-.05-.05-.04-.05-.04-.05-.03-.06-.03-.06-.03-.07-4.22-9.53-.02-.07-.03-.06-.02-.07-.01-.06-.01-.07-.01-.06v-.19l.01-.06.01-.06.01-.07.02-.06.02-.06.02-.06.03-.06.02-.06.04-.06.03-.06.04-.07.03-.06.05-.06.04-.06.05-.06.04-.06.05-.06.06-.06.05-.06.05-.06.06-.06.06-.06.06-.06.06-.07.07-.06.06-.06.07-.06.06-.06.07-.07.07-.06.07-.06 4.53-3.68-.02-.1-.09-1.09-.06-1.1-.01-1.1.03-1.11.03-.5-4.71-3.42-.07-.06-.07-.06-.07-.06-.07-.05-.07-.06-.07-.06-.07-.06-.06-.06-.07-.05-.06-.06-.06-.06-.06-.06-.05-.06-.06-.05-.05-.06-.05-.06-.05-.06-.05-.05-.04-.06-.04-.06-.04-.06-.04-.06-.03-.06-.03-.06-.03-.06-.03-.06-.02-.06-.02-.06-.02-.06-.01-.06-.01-.06-.01-.06v-.13l.01-.06v-.07l.01-.06.02-.07.02-.07.02-.06 3.75-9.76.03-.07.03-.06.03-.06.04-.06.03-.06.04-.05.05-.05.04-.04.05-.05.05-.04.05-.04.06-.04.05-.03.06-.03.06-.03.06-.03.07-.03.06-.02.07-.02.07-.02.07-.02.07-.01.08-.02.07-.01.08-.01h.08l.07-.01.09-.01H205.54l.08.01h.09l.09.01h.09l.09.01.09.01.09.01.09.02 5.79.6.3-.39.72-.84.75-.81.78-.78.8-.75.09-.07-.91-5.77-.01-.1-.01-.09v-.09l-.01-.09-.01-.09-.01-.09v-.09l-.01-.09V141.25l-.01-.08V141l.01-.08V140.77l.01-.08.01-.07.01-.07.01-.08.01-.06.02-.07.02-.07.02-.06.02-.07.02-.06.03-.06.03-.05.03-.06.03-.05.04-.05.04-.05.04-.05.04-.04.05-.04.05-.04.06-.04.06-.04.06-.03.06-.03 9.51-4.27.07-.03.06-.02.07-.02.06-.02.07-.01.06-.01h.2l.06.01.07.01.06.01.07.01.06.02.06.02.07.03.06.02.06.03.06.04.07.03.06.04.06.04.06.04.06.05.06.05.06.05.06.05.06.05.06.06.06.06.06.06.06.06.06.06.06.07.05.06.06.07.06.07.05.07.06.07.06.08 3.65 4.54.11-.02 1.09-.1 1.09-.06 1.1-.02 1.1.03.5.03 3.42-4.74.05-.08.06-.08.05-.07.05-.07.06-.07.05-.07.05-.07.06-.07.06-.06.05-.06.06-.07.05-.06.06-.05.06-.06.06-.05.06-.05.06-.05.05-.05.06-.04.06-.04.06-.04.07-.04.06-.03.06-.03.06-.03.06-.03.07-.02.06-.02.06-.01.07-.01.06-.01.06-.01h.2l.06.01.07.01.07.02.06.02.07.02 9.71 3.73.06.03.06.03zm-13.18 15.98l-.6-.16-.59-.14-.6-.11-.59-.08-.6-.06-.6-.04-.59-.02-.59.01-.59.04-.59.05-.58.08-.58.1-.57.12-.57.15-.56.16-.55.19-.55.21-.53.23-.53.25-.52.27-.51.28-.49.31-.49.33-.47.35-.46.36-.45.39-.44.4-.41.42-.41.44-.38.45-.38.47-.35.49-.33.5-.32.52-.3.54-.28.55-.26.57-.23.58-.22.59-.18.6-.17.59-.13.6-.12.6-.09.6-.06.6-.04.6-.02.6.01.59.03.59.06.59.07.59.1.58.12.57.14.57.16.56.19.56.2.54.23.54.24.53.27.52.29.51.3.5.33.48.34.48.36.46.38.45.4.43.42.42.43.4.45.39.47.37.48.35.51.34.51.32.54.29.54.28.57.26.58.23.58.21.6.19.59.16.59.14.6.11.6.08.59.07.6.03.59.02.6-.01.59-.03.58-.06.58-.08.58-.1.57-.12.57-.15.56-.16.55-.19.55-.21.54-.22.52-.25.52-.27.51-.29.5-.31.48-.33.48-.35.46-.36.44-.38.44-.41.42-.42.4-.43.39-.46.37-.47.35-.49.34-.5.31-.52.3-.54.28-.55.26-.57.24-.58.21-.59.19-.6.16-.59.14-.6.11-.6.09-.6.06-.6.04-.6.02-.59-.01-.6-.03-.59-.05-.59-.08-.58-.1-.58-.12-.58-.14-.57-.16-.56-.18-.55-.21-.55-.23-.54-.24-.53-.27-.52-.28-.51-.31-.49-.32-.49-.35-.47-.36-.47-.38-.44-.4-.44-.41-.42-.44-.4-.45-.39-.47-.37-.48-.35-.5-.34-.52-.31-.53-.3-.55-.28-.56-.25-.58-.24-.59-.21-.59-.19z" id="h"/>
    <path d="M174.19 469.43V73.23" id="i"/>
    <path d="M312.8 451.08H150.14" id="j"/>
  </defs>
  <use xlink:href="#a" class="c"/>
  <use xlink:href="#b" class="f"/>
  <use xlink:href="#c" class="f"/>
  <use xlink:href="#d" class="d"/>
  <use xlink:href="#e" class="f"/>
  <use xlink:href="#f" class="f"/>
  <use xlink:href="#g" class="f"/>
  <use xlink:href="#h" class="f"/>
  <use xlink:href="#i" class="p"/>
  <use xlink:href="#j" class="p"/>
</svg>