<svg xmlns="http://www.w3.org/2000/svg" fill="none" stroke-miterlimit="10" viewBox="0 0 100 100">
	<g>
    <path class="p" d="M18.811 5.238c0 29.585-.538 59.168-.538 88.753"/>
    <path class="p" d="M37.436 25.682c11.703.522 26.57 12.814 25.934 25.285-.63 12.347-14.628 23.745-26.21 24.397"/>
    <path class="p" d="M36.9 24.304c0 17.215.538 34.428.538 51.643"/>
    <path class="p" d="M17.893 4.47c11.091 2.158 23.45-1.787 34.268 1.089 14.591 3.879 25.678 16.32 29.024 28.038 5.125 17.95-.609 40.492-17.311 53.495-11.416 8.888-31.06 8.439-47.205 8.439"/>
    <path class="o" d="M37.185 33.646c-2.8 1.763-6.069 3.08-9.137 4.582-3.07 1.504-5.926 3.405-9.426 4.263"/>
    <path class="o" d="M56.163 8.507c-5.715 4.207-12.387 7.349-18.649 10.935-6.266 3.588-12.097 8.124-19.241 10.172"/>
    <path class="o" d="M80.936 58.806C64.256 71.413 39.595 73.809 19.43 82.19"/>
    <path class="o" d="M37.258 47.684c-5.416 2.918-12.015 5.013-18.56 6.955"/>
    <path class="o" d="M79.428 27.32c-2.89 2.214-6.264 3.867-9.43 5.755-3.17 1.888-6.118 4.275-9.73 5.353"/>
    <path class="o" d="M83.33 42.719c-3.07 1.89-6.653 3.3-10.017 4.911-3.367 1.612-6.5 3.65-10.337 4.57"/>
    <path class="o" d="M76.582 73.986c-16.678 8.395-36.998 14.42-57.15 20.007"/>
    <path class="o" d="M68.603 16.213c-2.984 2.34-6.467 4.088-9.736 6.083-3.272 1.996-6.316 4.52-10.046 5.659"/>
    <path class="o" d="M34.837 4.93c-3.166 2.297-6.522 4.156-9.689 6.453-1.793 1.3-4.573.843-5.718 3.025"/>
    <path class="o" d="M36.634 61.727c-2.609 1.03-5.655 1.8-8.513 2.677-2.86.878-5.523 1.989-8.784 2.49"/>
  </g>
</svg>