<svg version="1.1" viewBox="0.0 0.0 128.0 128.0" fill="none" stroke="none" stroke-linecap="square" stroke-miterlimit="10" xmlns:xlink="http://www.w3.org/1999/xlink" xmlns="http://www.w3.org/2000/svg"><clipPath id="p.0"><path d="m0 0l128.0 0l0 128.0l-128.0 0l0 -128.0z" clip-rule="nonzero"/></clipPath><g clip-path="url(#p.0)"><path fill="#000000" d="m0 0l128.0 0l0 128.0l-128.0 0z" fill-rule="evenodd"/><path fill="#000000" fill-opacity="0.0" d="m-4.4593177 6.0104985l116.47244 0l0 97.98425l-116.47244 0z" fill-rule="evenodd"/><path fill="#ffff00" d="m37.665684 84.50762q1.0 0.3125 2.0 0.40625q1.0 0.09375 2.0 0.09375q2.5 0 4.8125 -0.6875q2.3125 -0.6875 4.34375 -1.96875q2.03125 -1.28125 3.625 -3.125q1.59375 -1.84375 2.59375 -4.09375l12.499996 12.5625q-2.375 3.375 -5.46875 6.0625q-3.0937462 2.6875 -6.687496 4.5625q-3.59375 1.875 -7.5625 2.84375q-3.96875 0.96875 -8.15625 0.96875q-7.0625 0 -13.281252 -2.625q-6.21875 -2.625 -10.875 -7.3125q-4.656249 -4.6875 -7.343749 -11.15625q-2.6875005 -6.46875 -2.6875005 -14.21875q0 -7.9375 2.6875005 -14.5q2.6875 -6.5625 7.343749 -11.1875q4.65625 -4.625 10.875 -7.1875q6.218752 -2.5625 13.281252 -2.5625q4.1875 0 8.1875 1.0q4.0 1.0 7.59375 2.875q3.59375 1.875 6.718746 4.59375q3.125 2.71875 5.5 6.09375l-31.999996 38.5625zm8.75 -35.1875q-1.1875 -0.4375 -2.34375 -0.5625q-1.15625 -0.125 -2.40625 -0.125q-3.5 0 -6.59375 1.28125q-3.093752 1.28125 -5.375002 3.65625q-2.28125 2.375 -3.59375 5.71875q-1.3125 3.34375 -1.3125 7.53125q0 0.9375 0.09375 2.125q0.09375 1.1875 0.3125 2.40625q0.21875 1.21875 0.53125 2.34375q0.3125 1.125 0.8125 2.0l19.875002 -26.375z" fill-rule="nonzero"/><path fill="#ffff00" d="m121.4319 57.057728l-44.413895 25.318386l-13.849369 -13.849365l25.318386 -44.413902z" fill-rule="evenodd"/></g></svg>