<svg xmlns="http://www.w3.org/2000/svg" fill="none" stroke-miterlimit="10" viewBox="0 0 100 100">
	<g>
    <path class="p" d="M15.481 4.115c15.876 0 31.752.206 47.628.206h18.065c2.057 0 5.395-1.5 6.159.41 1.652 4.135.616 8.891.616 13.344 0 2.262 1.53 5.61-.411 6.774-3.404 2.041-7.938 0-11.907 0H49.354c-3.148 0-7.217-2.226-9.443 0-1.646 1.646-.206 4.653-.206 6.98 0 2.191-1.343 5.02.206 6.57 2.371 2.371 6.705.205 10.06.205h24.223c2.54 0 6.29-1.563 7.596.616.41.684-.875 1.339-1.232 2.053-1.254 2.51 0 5.61 0 8.416 0 3.285 2.565 7.802 0 9.855-2.671 2.138-6.842.205-10.264.205H47.301c-2.6 0-6.24-2.08-7.801 0-1.522 2.028.41 5.06.41 7.596 0 2.057-1.499 5.394.411 6.158 4.195 1.68 9.031.411 13.55.411 8.075 0 16.148.41 24.224.41h7.596c.958 0 2.381-.821 2.874 0 2.148 3.58 0 8.349 0 12.523 0 2.737 2.19 6.57 0 8.212-1.151.863-2.873-.206-4.312-.206h-9.442c-9.177 0-18.334 1.027-27.51 1.027-7.801 0-15.601-.205-23.403-.205-3.15 0-7.554 2.11-9.443-.41-1.108-1.48 0-3.696 0-5.544V76.788v-42.29-21.555c0-3.024-.856-11.549.82-9.033"/>
    <path class="o" d="M85.75 6.333c-20.418 9.812-45.297 16.854-69.97 23.385"/>
    <path class="o" d="M44.97 74.257c-8.916 4.751-19.78 8.16-30.553 11.323"/>
    <path class="o" d="M80.335 45.236c-19.068 8.623-42.301 14.812-65.343 20.552"/>
    <path class="o" d="M41.055 4.433c-4.018 1.604-8.708 2.802-13.111 4.17-4.405 1.367-8.505 3.097-13.527 3.878"/>
    <path class="o" d="M48.832 38.93c-5.19 1.603-11.25 2.801-16.938 4.168-5.691 1.369-10.988 3.098-17.476 3.879"/>
    <path class="o" d="M89.587 82.525c-3.193 2.257-6.92 3.943-10.418 5.867-3.5 1.925-6.758 4.359-10.75 5.457"/>
    <path class="o" d="M72.833 76.023c-5.963 3.798-12.925 6.634-19.46 9.871-6.539 3.24-12.624 7.334-20.078 9.183"/>
  </g>
</svg>