<svg xmlns="http://www.w3.org/2000/svg" fill="none" stroke-miterlimit="10" viewBox="0 0 100 100">
  <clipPath id="a">
    <path d="M0 0h100v100H0V0z"/>
  </clipPath>
  <g clip-path="url(#a)">
		<path class="p" d="M18.32 5.62c5.75 0 11.5 1.57 17.22 1.07 9.3-.8 18.68-1.8 27.94-.7 4.82.6 9.7-.43 14.54-.43 1.37 0 3.7-.63 4.02.86 1 4.52-.2 9.3-.2 13.97 0 1.95 1.32 5.4-.37 5.8-3.24.83-6.63-.2-9.95-.2H51.04c-3.2 0-7.3-2.75-9.57-.2-1.45 1.63-.07 4.64-.57 6.9-.7 3.2-2.15 7.24-.38 9.9.65.95 2.17.1 3.25 0 4.2-.38 8.46-.9 12.63-.24.95.16 2.3-.86 2.87 0 2.37 3.56.2 8.9.2 13.34 0 2.66 2.1 6.78 0 7.96-1.4.78-3.06-.63-4.6-.86-3.1-.43-6.25.46-9.38.46-.9 0-2.3-.9-2.7 0-.8 1.8.4 4 .4 6.02 0 6.03.33 12.04.33 18.06 0 2.23 1.4 5.1 0 6.67-1.1 1.2-3.07-.03-4.6-.2-2.86-.3-5.74 0-8.6 0h-9c-1.2 0-2.78.98-3.64 0-.54-.6.2-1.7.2-2.6 0-3.03.57-6.13 1.52-9 1.66-4.96.4-10.6.4-15.9 0-19.8-1.54-39.56-1.54-59.35"/>
    <path class="o" d="M40.4 7.18c-6.43 6.06-13.34 12.18-21.8 15.9"/>
    <path class="o" d="M57.65 6.64c-5.7 5.27-12.36 9.2-18.6 13.7-6.25 4.5-12.07 10.16-19.2 12.73"/>
    <path class="o" d="M41.5 43.44C38.63 45.87 34.3 46.98 31 49c-3.26 2-7.14 4.1-11.3 4.1"/>
    <path class="o" d="M57.07 42.86C46.67 52 34.4 59.18 21.53 62.76"/>
    <path class="o" d="M59.74 54.72c-2.66 2-6.06 2.74-9.08 4.14-3.1 1.44-5.48 4.1-8.5 5.72-1.95 1.05-4.46.93-6.3 2.16-2.97 1.98-6.23 3.5-9.5 4.93-2.17.97-4.12 2.96-6.5 2.96"/>
    <path class="o" d="M41.74 30.22c-6.05 7.97-15 9.48-22.3 14.78"/>
    <path class="o" d="M43.33 82.04C39 84.8 34.43 87 30.1 89.74c-2.44 1.56-6.24 1.02-7.8 3.62"/>
    <path class="o" d="M70.25 8.04c-6.14 7.03-13.6 12.07-21.03 16.74"/>
    <path class="o" d="M42.15 73.1c-4.58 2.93-9.44 5.3-14.02 8.25-2.6 1.67-6.62 1.08-8.27 3.87"/>
    <path class="o" d="M26.8 6.5c-2.4 2.63-5.3 4.52-8.2 6.27"/>
    <path class="o" d="M81.24 8.9c-5.84 7.02-12.95 12.06-20 16.73"/>
  </g>
</svg>