<svg xmlns="http://www.w3.org/2000/svg" fill="none" stroke-miterlimit="10" viewBox="0 0 797.66 431.25" stroke-linecap="square">
  <clipPath id="a">
    <path d="M0 0h797.66v431.25H0V0z"/>
  </clipPath>
  <g clip-path="url(#a)">
    <path d="M0 0h797.66v431.25H0z"/>
    <path fill="#262626" fill-rule="evenodd" d="M420.46 361.74c.4-17.44 41.15-48.04 54.7-71.87 13.53-23.83 11.06-56.5 26.55-71.1 15.5-14.58 43.3-7.55 66.5-16.4 23.2-8.86 52.5-24.6 72.7-36.72 20.2-12.1 35.3-22.4 48.5-35.94 13.2-13.5 16.08-32.8 30.5-45.3s53.9-38.8 56.3-29.7c2.35 9.2-42.32 78.4-42.2 84.4.15 6 42.6-53.6 42.98-48.4.4 5.2-40.6 70.6-40.6 79.7 0 9.1 43.1-31.5 40.6-25-2.43 6.5-51.9 56-55.42 64.1-3.52 8.1 40.5-22 34.37-15.6-6.1 6.4-68.22 45.2-71.1 53.9-2.85 8.8 60.56-8 53.9-1.5-6.62 6.5-82.8 33.4-93.73 40.6-10.9 7.3 41.7-7.8 28.15 3.2-13.54 10.98-84.64 45.3-109.4 62.5-24.7 17.2-23.94 33.6-39.04 40.66-15.1 7.03-34.23 6.77-51.55 1.57-17.3-5.2-52.7-15.4-52.32-32.85z"/>
    <path fill="#efefef" fill-rule="evenodd" d="M530.62 237.34c11.33-9.38 24.22-1.95 42.97-9.38 18.7-7.42 69.2-36.98 69.5-35.15.2 1.9-50.7 36.2-68 46.1-17.3 9.9-39.3 12.4-36 13.3 3.4.9 57.1-11.3 56.2-7.8-.9 3.5-46.8 22.3-61.7 28.9-15 6.7-27.6 16.9-28.2 11-.5-6 13.7-37.5 25-46.8z"/>
    <path fill="#262626" fill-rule="evenodd" d="M377.2 361.74c-.4-17.44-41.15-48.04-54.7-71.87-13.54-23.83-11.06-56.5-26.56-71.1-15.5-14.58-43.23-7.55-66.4-16.4-23.18-8.86-52.48-24.6-72.66-36.72-20.18-12.1-35.3-22.4-48.44-35.94-13.15-13.5-16-32.8-30.47-45.3-14.45-12.5-53.9-38.8-56.25-29.7-2.34 9.2 42.32 78.4 42.2 84.4-.14 6-42.6-53.6-42.98-48.4-.4 5.2 40.63 70.6 40.63 79.7 0 9.1-43.1-31.5-40.63-25 2.48 6.5 51.95 56 55.47 64.1 3.6 8.1-40.4-22-34.3-15.6 6.1 6.4 68.2 45.2 71.1 53.9 2.9 8.8-60.5-8-53.9-1.5 6.7 6.5 82.8 33.4 93.8 40.6 11 7.3-41.6-7.8-28.1 3.2 13.6 10.98 84.7 45.3 109.4 62.5 24.8 17.2 24 33.6 39.1 40.66 15.1 7.03 34.3 6.77 51.6 1.57 17.3-5.2 52.77-15.4 52.38-32.85z"/>
    <path fill="#efefef" fill-rule="evenodd" d="M267.03 237.34c-11.32-9.38-24.2-1.95-42.96-9.38-18.75-7.42-69.27-36.98-69.53-35.15-.27 1.9 50.65 36.2 67.96 46.1 17.32 9.9 39.33 12.4 35.94 13.3-3.38.9-57.16-11.3-56.25-7.8.9 3.5 46.7 22.3 61.7 28.9 14.9 6.7 27.6 16.9 28.1 11 .5-6-13.7-37.5-25-46.8z"/>
    <path d="M286.45 26.63h225.98l2.53.5 3.33 1.52 3.4 3.43 1.5 3.34.5 2.52.1 1.3V163l-.1 1.2-.5 2.54-1.5 3.33-3.5 3.44-3.4 1.6-2.6.5-1.2.1H286.4l-1.3-.1-2.52-.5-3.33-1.5-3.43-3.4-1.52-3.3-.5-2.5V38l.5-2.55 1.52-3.34 3.43-3.5 3.34-1.5 2.5-.5h1.3z"/>
    <path stroke="#000" stroke-width="12" stroke-miterlimit="1099.46" d="M286.45 26.63h225.98l2.53.5 3.33 1.52 3.4 3.43 1.5 3.34.5 2.52.1 1.3V163l-.1 1.2-.5 2.54-1.5 3.33-3.5 3.44-3.4 1.6-2.6.5-1.2.1H286.4l-1.3-.1-2.52-.5-3.33-1.5-3.43-3.4-1.52-3.3-.5-2.5V38l.5-2.55 1.52-3.34 3.43-3.5 3.34-1.5 2.5-.5h1.3z" stroke-linecap="butt"/>
    <path fill="#000" fill-rule="evenodd" d="M305.34 58.14V144h25.25V94.8l25.2 31.53 25.3-31.53V144h25.2V58.15h-25.2l-25.3 31.62-25.3-31.62zm145.26 0v44.25h-25.25l37.88 41.6 37.88-41.6h-25.2V58.1z"/>
  </g>
</svg>