<svg viewBox="0 0 100 100" fill="none" stroke-miterlimit="10" xmlns="http://www.w3.org/2000/svg">
  <g>
    <path class="p" d="M66.923 27.432c4.163-2.498 7.928-5.616 11.719-8.65 1.236-.99 4.058-2.39 3.069-3.627-2.131-2.664-6.283-2.71-9.208-4.464-13.671-8.203-34.68-3.428-47.434 6.138-6.577 4.933-6.949 14.975-9.208 22.88-2.52 8.819-4.207 18.243-3.07 27.345.75 5.988 4.828 11.234 8.65 15.904 2.085 2.547 3.642 6.032 6.697 7.254 4.898 1.96 10.391 1.858 15.626 2.512 11.956 1.495 25.844 1.33 35.714-5.58 6.747-4.724 7.813-15.204 7.813-23.44 0-5.877 1.234-12.32-1.395-17.577-.63-1.26-2.782-.45-4.185-.558-3.812-.294-7.617.837-11.44.837-4.094 0-8.215-.787-12.277-.28-1.48.186-3.41-.775-4.464.28-1.186 1.186-.28 3.345-.28 5.022 0 3.168-.857 6.653.559 9.487.636 1.273 2.796-.528 4.185-.837 2.724-.606 5.978-1.436 8.37 0 1.755 1.053.402 4.132 0 6.138-1.68 8.399-18.982 6.467-25.67 1.117-6.604-5.284-5.678-16.907-3.627-25.112.98-3.922 1.587-8.636 4.743-11.162 3.308-2.646 7.784-4.606 11.999-4.185 3.021.302 5.055 4.185 8.091 4.185 1.935 0 3.878-1.617 4.744-3.348"/>
    <path class="o" d="M35.204 57.772c-5.697 6.723-14.12 8.001-21.007 12.47"/>
    <path class="o" d="M86.436 61.44c-8.782 5.75-19.033 10.042-28.656 14.94-9.628 4.903-18.588 11.1-29.565 13.898"/>
    <path class="o" d="M64.623 8.521c-9.638 5.123-19.853 9.267-29.492 14.388-5.458 2.9-13.92 1.881-17.406 6.745"/>
    <path class="o" d="M86.435 46.853c-6.576 6.724-16.297 8.001-24.246 12.471"/>
    <path class="o" d="M66.694 46.297c-3.93 2.627-8.72 4.513-13.47 6.262"/>
    <path class="o" d="M78.435 14.066c-4.135 2.485-8.962 4.341-13.493 6.46-4.533 2.12-8.752 4.8-13.92 6.01"/>
    <path class="o" d="M42.378 69.055c-3.358 2.095-7.279 3.66-10.959 5.446-3.682 1.787-7.109 4.045-11.307 5.065"/>
    <path class="o" d="M44.766 28.327c-8.92 6.028-19.789 10.354-30.568 14.367"/>
    <path class="o" d="M35.893 44.374c-3.502 2.336-7.591 4.08-11.43 6.071-3.84 1.993-7.413 4.511-11.791 5.648"/>
    <path class="o" d="M85.184 76.525c-5.153 3.14-11.168 5.485-16.815 8.162-5.65 2.679-10.907 6.064-17.348 7.593"/>
  </g>
</svg>