<svg xmlns="http://www.w3.org/2000/svg" fill="none" viewBox="0 0 268.79 522.18" stroke-linecap="square">
  <clipPath id="a">
    <path d="M0 0h268.8v522.18H0V0z"/>
  </clipPath>
  <g clip-path="url(#a)">
    <path d="M0 0h268.8v522.18H0z"/>
    <path class="f" d="M2.35 449.05l54.97-23.77 59.2 19-54.97 23.78z"/>
    <path class="o" d="M2.35 449.05l54.97-23.77 59.2 19-54.97 23.78z" />
    <path class="f" d="M2.35 377.74l54.97-23.77v71.3l-54.97 23.8z"/>
    <path class="o" d="M2.35 377.74l54.97-23.77v71.3l-54.97 23.8z" />
    <path class="f" d="M57.5 353.97l59.02 19.24v71.1L57.32 425z"/>
    <path class="o" d="M57.5 353.97l59.02 19.24v71.1L57.32 425z" />
    <path class="f" d="M2.52 377.74l59.03 19.24v71.08l-59.2-19.3z"/>
    <path class="o" d="M2.52 377.74l59.03 19.24v71.08l-59.2-19.3z" />
    <path class="f" d="M61.55 396.75L116.52 373v71.3l-54.97 23.76z"/>
    <path class="o" d="M61.55 396.75L116.52 373v71.3l-54.97 23.76z" />
    <path class="f" d="M2.35 377.74l54.97-23.77 59.2 19.02-54.97 23.73z"/>
    <path class="o" d="M2.35 377.74l54.97-23.77 59.2 19.02-54.97 23.73z" />
    <path class="f" d="M77.2 475.12l54.98-23.77 59.2 19.02-54.97 23.77z"/>
    <path class="o" d="M77.2 475.12l54.98-23.77 59.2 19.02-54.97 23.77z" />
    <path class="f" d="M77.2 403.8l54.98-23.76v71.3l-54.98 23.8z"/>
    <path class="o" d="M77.2 403.8l54.98-23.76v71.3l-54.98 23.8z" />
    <path class="f" d="M132.35 380.04l59.03 19.24v71.1l-59.2-19.3z"/>
    <path class="o" d="M132.35 380.04l59.03 19.24v71.1l-59.2-19.3z" />
    <path class="f" d="M77.38 403.8l59.03 19.25v71.1l-59.2-19.3z"/>
    <path class="o" d="M77.38 403.8l59.03 19.25v71.1l-59.2-19.3z" />
    <path class="f" d="M136.4 422.83l54.98-23.77v71.3l-54.97 23.78z"/>
    <path class="o" d="M136.4 422.83l54.98-23.77v71.3l-54.97 23.78z" />
    <path class="f" d="M77.2 403.8l54.98-23.76 59.2 19.02-54.97 23.77z"/>
    <path class="o" d="M77.2 403.8l54.98-23.76 59.2 19.02-54.97 23.77z" />
    <path class="f" d="M152.27 501.2l54.97-23.78 59.2 19.02-54.97 23.77z"/>
    <path class="o" d="M152.27 501.2l54.97-23.78 59.2 19.02-54.97 23.77z" />
    <path class="f" d="M152.27 429.88l54.97-23.77v71.34l-54.97 23.77z"/>
    <path class="o" d="M152.27 429.88l54.97-23.77v71.34l-54.97 23.77z" />
    <path class="f" d="M207.4 406.1l59.04 19.25v71.1l-59.2-19.3z"/>
    <path class="o" d="M207.4 406.1l59.04 19.25v71.1l-59.2-19.3z" />
    <path class="f" d="M152.44 429.88l59.03 19.24v71.1l-59.2-19.3z"/>
    <path class="o" d="M152.44 429.88l59.03 19.24v71.1l-59.2-19.3z" />
    <path class="f" d="M211.47 448.9l54.97-23.77v71.3l-54.97 23.78z"/>
    <path class="o" d="M211.47 448.9l54.97-23.77v71.3l-54.97 23.78z" />
    <path class="f" d="M152.27 429.88l54.97-23.77 59.2 19.05-54.97 23.77z"/>
    <path class="o" d="M152.27 429.88l54.97-23.77 59.2 19.05-54.97 23.77z" />
    <path class="f" d="M2.35 361.02l54.97-23.77 59.2 19.02-54.97 23.77z"/>
    <path class="o" d="M2.35 361.02l54.97-23.77 59.2 19.02-54.97 23.77z" />
    <path class="f" d="M2.35 289.7l54.97-23.76v71.3l-54.97 23.8z"/>
    <path class="o" d="M2.35 289.7l54.97-23.76v71.3l-54.97 23.8z" />
    <path class="f" d="M57.5 265.94l59.02 19.24v71.1l-59.2-19.3z"/>
    <path class="o" d="M57.5 265.94l59.02 19.24v71.1l-59.2-19.3z" />
    <path class="f" d="M2.52 289.7l59.03 19.25v71.1l-59.2-19.3z"/>
    <path class="o" d="M2.52 289.7l59.03 19.25v71.1l-59.2-19.3z" />
    <path class="f" d="M61.55 308.73l54.97-23.77v71.3l-54.97 23.78z"/>
    <path class="o" d="M61.55 308.73l54.97-23.77v71.3l-54.97 23.78z" />
    <path class="f" d="M2.35 289.7l54.97-23.76 59.2 19.02-54.97 23.77z"/>
    <path class="o" d="M2.35 289.7l54.97-23.76 59.2 19.02-54.97 23.77z" />
    <path class="f" d="M2.35 273.05l54.97-23.77 59.2 19-54.97 23.78z"/>
    <path class="o" d="M2.35 273.05l54.97-23.77 59.2 19-54.97 23.78z" />
    <path class="f" d="M2.35 201.74l54.97-23.77v71.3l-54.97 23.8z"/>
    <path class="o" d="M2.35 201.74l54.97-23.77v71.3l-54.97 23.8z" />
    <path class="f" d="M57.5 177.97l59.02 19.24v71.1L57.32 249z"/>
    <path class="o" d="M57.5 177.97l59.02 19.24v71.1L57.32 249z" />
    <path class="f" d="M2.52 201.74l59.03 19.24v71.08l-59.2-19.3z"/>
    <path class="o" d="M2.52 201.74l59.03 19.24v71.08l-59.2-19.3z" />
    <path class="f" d="M61.55 220.75L116.52 197v71.3l-54.97 23.76z"/>
    <path class="o" d="M61.55 220.75L116.52 197v71.3l-54.97 23.76z" />
    <path class="f" d="M2.35 201.74l54.97-23.77 59.2 19.02-54.97 23.73z"/>
    <path class="o" d="M2.35 201.74l54.97-23.77 59.2 19.02-54.97 23.73z" />
    <path class="f" d="M2.35 185.02l54.97-23.77 59.2 19.02-54.97 23.77z"/>
    <path class="o" d="M2.35 185.02l54.97-23.77 59.2 19.02-54.97 23.77z" />
    <path class="f" d="M2.35 113.72l54.97-23.77v71.3L2.35 185.02z"/>
    <path class="o" d="M2.35 113.72l54.97-23.77v71.3L2.35 185.02z" />
    <path class="f" d="M57.5 89.94l59.02 19.25v71.05l-59.2-19.3z"/>
    <path class="o" d="M57.5 89.94l59.02 19.25v71.05l-59.2-19.3z" />
    <path class="f" d="M2.52 113.7l59.03 19.26v71.08l-59.2-19.3z"/>
    <path class="o" d="M2.52 113.7l59.03 19.26v71.08l-59.2-19.3z" />
    <path class="f" d="M61.55 132.73l54.97-23.77v71.3l-54.97 23.78z"/>
    <path class="o" d="M61.55 132.73l54.97-23.77v71.3l-54.97 23.78z" />
    <path class="f" d="M2.35 113.72l54.97-23.77 59.2 19-54.97 23.78z"/>
    <path class="o" d="M2.35 113.72l54.97-23.77 59.2 19-54.97 23.78z" />
    <path class="f" d="M2.35 97.05l54.97-23.77 59.2 19.02-54.97 23.77z"/>
    <path class="o" d="M2.35 97.05l54.97-23.77 59.2 19.02-54.97 23.77z" />
    <path class="f" d="M2.35 25.74L57.32 1.97v71.3L2.35 97.07z"/>
    <path class="o" d="M2.35 25.74L57.32 1.97v71.3L2.35 97.07z" />
    <path class="f" d="M57.5 1.97l59 19.23v71.1L57.32 73z"/>
    <path class="o" d="M57.5 1.97l59 19.23v71.1L57.32 73z" />
    <path class="f" d="M2.52 25.74l59.03 19.24v71.1l-59.2-19.3z"/>
    <path class="o" d="M2.52 25.74l59.03 19.24v71.1l-59.2-19.3z" />
    <path class="f" d="M61.55 44.76L116.52 21v71.3l-54.97 23.77z"/>
    <path class="o" d="M61.55 44.76L116.52 21v71.3l-54.97 23.77z" />
    <path class="f" d="M2.35 25.74L57.32 1.97 116.52 21 61.55 44.75z"/>
    <path class="o" d="M2.35 25.74L57.32 1.97 116.52 21 61.55 44.75z" />
    <path class="f" d="M77.2 123.12l54.98-23.77 59.2 19.02-54.97 23.77z"/>
    <path class="o" d="M77.2 123.12l54.98-23.77 59.2 19.02-54.97 23.77z" />
    <path class="f" d="M77.2 51.82l54.98-23.77v71.3L77.2 123.12z"/>
    <path class="o" d="M77.2 51.82l54.98-23.77v71.3L77.2 123.12z" />
    <path class="f" d="M132.35 28.04l59.03 19.25v71.05l-59.2-19.3z"/>
    <path class="o" d="M132.35 28.04l59.03 19.25v71.05l-59.2-19.3z" />
    <path class="f" d="M77.38 51.8l59.03 19.26v71.08l-59.2-19.3z"/>
    <path class="o" d="M77.38 51.8l59.03 19.26v71.08l-59.2-19.3z" />
    <path class="f" d="M136.4 70.83l54.98-23.77v71.3l-54.97 23.78z"/>
    <path class="o" d="M136.4 70.83l54.98-23.77v71.3l-54.97 23.78z" />
    <path class="f" d="M77.2 51.82l54.98-23.77 59.2 19-54.97 23.78z"/>
    <path class="o" d="M77.2 51.82l54.98-23.77 59.2 19-54.97 23.78z" />
    <path class="f" d="M152.27 149.2l54.97-23.77 59.2 19-54.97 23.78z"/>
    <path class="o" d="M152.27 149.2l54.97-23.77 59.2 19-54.97 23.78z" />
    <path class="f" d="M152.27 77.9l54.97-23.78v71.3l-54.97 23.78z"/>
    <path class="o" d="M152.27 77.9l54.97-23.78v71.3l-54.97 23.78z" />
    <path class="f" d="M207.4 54.12l59.04 19.24v71.08l-59.2-19.3z"/>
    <path class="o" d="M207.4 54.12l59.04 19.24v71.08l-59.2-19.3z" />
    <path class="f" d="M152.44 77.9l59.03 19.23v71.08l-59.2-19.3z"/>
    <path class="o" d="M152.44 77.9l59.03 19.23v71.08l-59.2-19.3z" />
    <path class="f" d="M211.47 96.9l54.97-23.76v71.3l-54.97 23.77z"/>
    <path class="o" d="M211.47 96.9l54.97-23.76v71.3l-54.97 23.77z" />
    <path class="f" d="M152.27 77.9l54.97-23.78 59.2 19.02-54.97 23.76z"/>
    <path class="o" d="M152.27 77.9l54.97-23.78 59.2 19.02-54.97 23.76z" />
    <path class="f" d="M80.57 299.12l54.97-23.77 59.2 19.02-54.97 23.77z"/>
    <path class="o" d="M80.57 299.12l54.97-23.77 59.2 19.02-54.97 23.77z" />
    <path class="f" d="M80.57 227.8l54.97-23.76v71.3l-54.97 23.78z"/>
    <path class="o" d="M80.57 227.8l54.97-23.76v71.3l-54.97 23.78z" />
    <path class="f" d="M135.7 204.04l59.04 19.24v71.1l-59.2-19.3z"/>
    <path class="o" d="M135.7 204.04l59.04 19.24v71.1l-59.2-19.3z" />
    <path class="f" d="M80.74 227.8l59.03 19.25v71.1l-59.2-19.3z"/>
    <path class="o" d="M80.74 227.8l59.03 19.25v71.1l-59.2-19.3z" />
    <path class="f" d="M139.77 246.83l54.97-23.77v71.3l-54.97 23.78z"/>
    <path class="o" d="M139.77 246.83l54.97-23.77v71.3l-54.97 23.78z" />
    <path class="f" d="M80.57 227.8l54.97-23.76 59.2 19.02-54.97 23.77z"/>
    <path class="o" d="M80.57 227.8l54.97-23.76 59.2 19.02-54.97 23.77z" />
  </g>
</svg>