<svg viewBox="0 0 100 100" fill="none" stroke-miterlimit="10" xmlns="http://www.w3.org/2000/svg">
  <g>
    <path class="p" d="M8.687 95.292c1.832-7.63-.832-15.932-.496-23.886.53-12.544 1.267-25.156.496-37.68-.414-6.71-1.032-13.484-.496-20.18.17-2.121-1.75-5.2-.33-6.383 1.562-1.299 3.732-.618 5.609-.618 5.006 0 10.072-.409 15.01.618 3.255.677 6.945-2.047 9.897-.206.575.36.34 1.568.66 2.265.726 1.587 2.187 2.738 2.474 4.53 1.944 12.116 2.824 24.463 4.454 36.652.624 4.669 2.829 8.893 3.299 13.59.159 1.588.994 5.142 1.979 4.118 2.618-2.724 2.155-8.074 3.134-12.149 2.339-9.734 3.18-19.936 4.948-29.856.477-2.675 2.114-4.916 2.474-7.619.292-2.185 1.055-4.234 1.485-6.383.349-1.743-.726-4.402.495-5.354 3.311-2.584 7.84 1.056 11.711.412 4.142-.689 8.39-.854 12.536-.206 1.31.205 3.026-1.165 3.959 0 .877 1.095-.432 3.061-.825 4.53-.8 2.996-.148 6.338.165 9.472 1.33 13.28.165 26.768.165 40.152 0 7.552-.495 15.097-.495 22.65 0 3.78 3.407 10.286.495 11.324-3.384 1.207-7.055-.642-10.557-.205-1.754.219-4.988 2.583-5.278.412-.155-1.157.99-2.122.99-3.295 0-4.052-1.492-7.911-1.815-11.943-.357-4.465 1.155-8.897 1.155-13.384 0-5.912-.825-11.795-.825-17.708 0-4.189.145-8.413-.33-12.56-.227-1.99.478-4.55-.66-5.971-1.007-1.26-1.67 2.997-1.979 4.736-.682 3.835-2.23 7.355-3.134 11.119-3.198 13.311-5.865 27.84-13.196 38.298-1.057 1.509-2.336 2.893-2.969 4.736-.368 1.073-.385 3.089-1.32 3.089-1.133 0-1.485-2.143-2.143-3.295-2.315-4.047-3.498-8.936-5.279-13.384-1.14-2.848-3.306-4.888-4.618-7.618-3.253-6.766-5.55-14.185-8.083-21.415-1.29-3.684-3.145-7.032-4.453-10.707-.694-1.948-1.147-5.87-2.804-5.354-.702.22.24 1.782.33 2.678.333 3.337.462 6.746.164 10.089-.953 10.715-.824 21.546-.824 32.327 0 4.607.202 9.225.66 13.797.197 1.975 1.383 4.983 0 5.97-4.583 3.272-10.557 0-15.835 0"/>
    <path class="o" d="M91.687 28.472c-4.345 5.207-10.77 6.197-16.023 9.658"/>
    <path class="o" d="M43.302 28.472c-2.325 1.518-5.038 2.651-7.585 3.945-2.548 1.295-4.92 2.93-7.825 3.67"/>
    <path class="o" d="M63.297 68.698c-3.615 2.125-7.446 3.843-11.06 5.967-2.047 1.202-5.221.78-6.528 2.797"/>
    <path class="o" d="M57.372 82.215c-1.951.907-4.02 1.64-5.971 2.548-1.105.513-2.819.333-3.524 1.194"/>
    <path class="o" d="M23.14 62.173c-3.92 3.517-9.718 4.186-14.458 6.524"/>
    <path class="o" d="M47.876 63.193c-2.532 1.882-5.618 3.233-8.679 4.486"/>
    <path class="o" d="M23.82 50.013c-4.498 2.738-9.977 4.702-15.41 6.524"/>
    <path class="o" d="M90.427 17.575c-4.841 3.332-10.493 5.82-15.798 8.66-5.308 2.841-10.247 6.433-16.299 8.055"/>
    <path class="o" d="M45.709 52.116c-1.432 1.007-3.104 1.758-4.674 2.616-1.57.859-3.032 1.944-4.822 2.434"/>
    <path class="o" d="M41.138 15.336c-9.55 7.012-21.188 12.045-32.729 16.712"/>
    <path class="o" d="M85.048 7.144c-3.692 2.948-8.002 5.149-12.047 7.661-4.048 2.514-7.814 5.692-12.429 7.126"/>
    <path class="o" d="M34.033 7.144c-5.03 3.09-10.361 5.588-15.392 8.676-2.849 1.748-7.265 1.134-9.085 4.067"/>
    <path class="o" d="M44.231 40.383c-1.866 1.25-4.045 2.182-6.09 3.247-2.047 1.065-3.952 2.412-6.285 3.02"/>
    <path class="o" d="M24.01 37.897c-2.18 1.25-4.725 2.182-7.114 3.247-2.39 1.065-4.615 2.412-7.34 3.02"/>
    <path class="o" d="M71.008 40.383c-2.324 1.518-5.038 2.651-7.585 3.945-2.548 1.294-4.92 2.93-7.825 3.67"/>
    <path class="o" d="M67.14 54.766c-3.61 2.63-8.01 4.517-12.374 6.267"/>
    <path class="o" d="M91.606 53.536c-4.179 5.207-10.357 6.196-15.41 9.657"/>
    <path class="o" d="M24.011 85.094c-4.016 2.63-8.909 4.517-13.762 6.268"/>
    <path class="o" d="M23.617 73.696c-2.325 1.517-5.038 2.65-7.585 3.944-2.548 1.295-4.92 2.93-7.825 3.67"/>
    <path class="o" d="M92.23 41.585c-3.293 2.342-6.783 4.236-10.076 6.576-1.865 1.325-4.756.86-5.947 3.083"/>
    <path class="o" d="M90.424 67.803c-2.97 1.846-6.12 3.34-9.09 5.184-1.683 1.045-4.292.678-5.366 2.43"/>
    <path class="o" d="M91.606 78.599c-4.179 5.207-10.357 6.196-15.41 9.657"/>
  </g>
</svg>