<svg viewBox="0 0 100 100" fill="none" stroke-linecap="square" stroke-miterlimit="10" xmlns="http://www.w3.org/2000/svg">
	<g>
    <path class="o" d="M59.64 7.144c-6.123 4.486-13.272 7.835-19.983 11.658-6.714 3.825-12.963 8.66-20.618 10.844"/>
    <path class="o" d="M43.693 73.893c-6.595 6.524-16.345 7.764-24.318 12.102"/>
    <path class="o" d="M43.557 85.179c-4.497 3.784-9.976 6.5-15.41 9.018"/>
    <path class="o" d="M43.758 62.577C36.662 67.655 28.016 71.3 19.441 74.68"/>
    <path class="o" d="M81.429 29.646c-3.287 2.256-7.123 3.94-10.724 5.863-3.603 1.923-6.957 4.355-11.064 5.453"/>
    <path class="o" d="M48.4 45.748c-4.428 2.793-9.598 4.878-14.45 7.26-4.856 2.381-9.375 5.393-14.91 6.752"/>
    <path class="o" d="M82.307 41.845c-10.074 7.91-22.349 13.588-34.522 18.853"/>
    <path class="o" d="M75.544 15.063c-2.8 2.256-6.068 3.94-9.136 5.863-3.07 1.924-5.927 4.356-9.426 5.453"/>
    <path class="o" d="M34.847 7.916c-3.166 2.342-6.522 4.235-9.688 6.576-1.793 1.325-4.573.86-5.718 3.083"/>
    <path class="o" d="M39.236 36.09c-3.17 1.924-6.873 3.362-10.347 5.003-3.477 1.642-6.713 3.718-10.676 4.655"/>
    <path class="p" d="M18.255 7.595c21.674 0 55.993-5.756 63.357 14.63 3.683 10.198 3.234 25.485-5.37 32.081-9.298 7.128-22.647 7.383-34.363 7.383"/>
    <path class="p" d="M18.388 7.864c0 28.778.539 57.554.539 86.333"/>
    <path class="p" d="M43.673 60.698c.686 11.89-.047 23.775-.733 35.631"/>
    <path class="p" d="M43.76 95.535c-8.558-1.422-17.278-1.309-25.93-1.309"/>
    <path class="p" d="M38.709 25.615c0 4.522.344 9.067 0 13.566-.175 2.286-1.487 6.081.16 6.888 2.94 1.441 6.282 0 9.424 0 3.774 0 8.92.054 10.861-4.174 1.946-4.237 1.29-11.992-1.916-14.61-5.082-4.15-11.899-2.296-17.89-2.296"/>
  </g>
</svg>