<svg xmlns="http://www.w3.org/2000/svg" fill="none" stroke-miterlimit="10" viewBox="0 0 100 100">
  <clipPath id="a">
    <path d="M0 0h100v100H0V0z"/>
  </clipPath>
  <g clip-path="url(#a)">
    <path class="p" d="M18.1 8.5c1.3 9.3-.32 18.92-.32 28.4 0 9.87 1.6 19.77.96 29.62-.4 6.46-.96 12.93-.96 19.4 0 2.66-.9 5.58 0 7.94.5 1.32 2.23.42 3.36.42 2.87 0 5.78.53 8.62 0 3.06-.57 8.52 3.3 9.27-.63 1.4-7.36.8-15.15.8-22.75 0-2.8-2-6.37-.48-8.34 1-1.33 2.87 0 4.3 0 1.4 0 3.3-1.2 4.16.2 2.8 4.45 4.5 9.86 6.3 15.03 1.6 4.4 3.1 8.9 4.7 13.3.44 1.3.1 3.4 1.1 3.9 4.75 2.32 10.13 0 15.2 0h5.58c.8 0 1.96.86 2.4 0 1.28-2.5-3.74-4.34-4-7.3-.9-10.7-8.27-18.87-10.53-29.23-.37-1.7 2.3-1.93 3.5-2.7 3.08-2 6.2-5.48 7.04-9.8.42-2.2-.15-4.56.32-6.7 1-4.65 2.44-9.75 1.4-14.4-1.15-5.3-3.9-10.5-7.5-13.36-6.62-5.2-15.12-5-22.84-5-11.2 0-22.37.86-33.55.86"/>
    <path class="p" d="M38.7 25.62c0 4.52.35 9.06 0 13.56-.17 2.3-1.48 6.08.17 6.9 2.94 1.43 6.28 0 9.42 0 3.7 0 8.9.04 10.8-4.2 1.9-4.22 1.3-11.98-1.9-14.6-5.1-4.14-11.9-2.3-17.9-2.3"/>
    <path class="o" d="M68.64 62.24c-4.62 5.2-11.44 6.2-17.02 9.66"/>
    <path class="o" d="M59.64 7.14c-6.12 4.5-13.27 7.84-19.98 11.66-6.72 3.83-12.97 8.66-20.62 10.85"/>
    <path class="o" d="M73.68 72.8c-3.5 2.33-7.2 4.23-10.7 6.57-2 1.32-5.06.86-6.32 3.08"/>
    <path class="o" d="M76.9 82.63c-3.5 2.34-7.2 4.23-10.7 6.57-2 1.33-5.06.86-6.32 3.1"/>
    <path class="o" d="M39.62 75.65c-5.9 6.1-14.65 7.26-21.8 11.3"/>
    <path class="o" d="M39.8 87.93c-3.4 2.63-7.54 4.52-11.65 6.27"/>
    <path class="o" d="M38 65.83c-5.4 3.7-12 6.38-18.56 8.85"/>
    <path class="o" d="M81.43 29.65c-3.3 2.25-7.12 3.94-10.73 5.86-3.6 2-6.95 4.4-11.06 5.5"/>
    <path class="o" d="M48.4 45.75c-4.43 2.8-9.6 4.88-14.45 7.26-4.86 2.4-9.37 5.4-14.9 6.8"/>
    <path class="o" d="M79 43.87c-9.36 7.7-20.77 13.24-32.1 18.37"/>
    <path class="o" d="M75.54 15.06c-2.8 2.26-6.06 3.94-9.13 5.87-3 1.92-5.9 4.35-9.4 5.45"/>
    <path class="o" d="M34.85 7.92c-3.17 2.34-6.52 4.23-9.7 6.57-1.78 1.3-4.56.8-5.7 3"/>
    <path class="o" d="M39.24 36.1c-3.17 1.9-6.88 3.35-10.35 5-3.5 1.64-6.8 3.7-10.7 4.65"/>
  </g>
</svg>