<svg xmlns="http://www.w3.org/2000/svg" fill="none" stroke-miterlimit="10" viewBox="0 0 377.95 377.95" stroke-linecap="square">
  <clipPath id="a">
    <path d="M0 0h377.95v377.95H0V0z"/>
  </clipPath>
  <g clip-path="url(#a)">
    <path d="M0 0h377.95v377.95H0z"/>
    <path fill="#93c47d" fill-rule="evenodd" d="M27.53 188.98c0-89.17 72.28-161.45 161.45-161.45 42.82 0 83.88 17 114.16 47.28 30.28 30.3 47.3 71.4 47.3 114.2 0 89.2-72.3 161.5-161.46 161.5-89.17 0-161.45-72.3-161.45-161.42z"/>
    <path d="M123.66-52.26H392.4v422.74H123.67z"/>
    <path fill="#fff" d="M224.82 79.1q0 6.2-2.38 11.57-2.36 5.38-6.47 9.3-4.1 3.9-9.47 6.2-5.36 2.25-11.56 2.25t-11.56-2.26q-5.38-2.3-9.38-6.2-4-3.9-6.28-9.3-2.28-5.36-2.28-11.57 0-6.2 2.28-11.6T174 58q4-4.1 9.38-6.45 5.37-2.38 11.56-2.38 6.2 0 11.56 2.37 5.38 2.38 9.47 6.47 4.1 4.1 6.47 9.5 2.38 5.4 2.38 11.6zm23.12 169.2q-5.28 15.12-11.75 26.23-6.5 11.1-13.5 18.77-7 7.64-14.4 12.37-7.4 4.74-14.3 7.28-6.9 2.55-13.2 3.46-6.3 1-11.2 1-8.4 0-15.7-2.52-7.3-2.56-12.68-8-5.38-5.5-8.5-13.86-3.08-8.37-3.08-20.22 0-5.1.72-11.16.73-6.1 2.2-13.2l25.3-119.66h53.73L184.9 255.4q-.9 3.1-1.18 6.13-.27 3-.27 5.9 0 7.83 3.64 10.85 3.6 3 11.5 3 5.4 0 10.6-2.46 5.2-2.43 9.53-6.8 4.36-4.36 7.82-10.45 3.46-6.1 5.64-13.22h15.66z"/>
    <path d="M67.06 81.07c5.68-14.47 22.8-21 35.7-29.36 36.77-23.8 88.42-33.5 129.46-18.6 24.22 8.9 45.83 24.5 66.14 40.6 38.9 30.86 60.66 93.56 48.7 142.28-3.24 13.18-10.94 24.83-15.43 37.63-5.45 15.56-8.42 35.08-21.9 44.25-23.1 15.7-43.67 38.2-70.6 45.1-47.84 12.2-108.67 9.12-146.1-23.6-25.93-22.7-50.83-51-60.46-84.4-11.57-40.1-1.83-86.2 14.6-124.46 5-11.64 9.3-27.4 21.1-31.44"/>
    <path stroke="#38761d" stroke-width="12" d="M67.06 81.07c5.68-14.47 22.8-21 35.7-29.36 36.77-23.8 88.42-33.5 129.46-18.6 24.22 8.9 45.83 24.5 66.14 40.6 38.9 30.86 60.66 93.56 48.7 142.28-3.24 13.18-10.94 24.83-15.43 37.63-5.45 15.56-8.42 35.08-21.9 44.25-23.1 15.7-43.67 38.2-70.6 45.1-47.84 12.2-108.67 9.12-146.1-23.6-25.93-22.7-50.83-51-60.46-84.4-11.57-40.1-1.83-86.2 14.6-124.46 5-11.64 9.3-27.4 21.1-31.44" stroke-linejoin="round" stroke-linecap="butt"/>
  </g>
</svg>