<svg viewBox="0 0 264.6 264.6" fill="none" stroke-linecap="square" stroke-miterlimit="10" xmlns="http://www.w3.org/2000/svg">
  <clipPath id="a">
    <path d="M0 0h264.6v264.6H0V0z"/>
  </clipPath>
  <g clip-path="url(#a)">
    <path fill="none" d="M0 0h264.6v264.6H0z"/>
    <path fill="none" d="M38.8-37.4h187V302h-187z"/>
    <path fill="#000" d="M195.3 85.3q-5.4-2.4-12.5-4.8-7-2.4-14.8-4.3-7.8-2-15.7-3.2-8-1.3-15-1.3-12.2 0-19.1 3.2-7 3-7 10.5 0 3.5 2.5 6.2 2.4 2.7 6.8 5 4.5 2.2 10.6 4.4l13.8 4.5 9.5 3q12 3.6 21.5 8.7 9.5 5.2 16 12.1 6.6 7 10.1 16 3.6 9 3.6 20.4 0 13.4-4.3 24.5-4.2 11-13.2 18.8-9 7.8-23 12-14 4.4-33.6 4.4-17.5 0-34.7-2.9-17.3-2.9-34.9-10v-43q16.8 8.6 32.7 12.6 15.8 4 31.1 4 12.7 0 18.5-4 5.8-4.1 5.8-11.3 0-4.3-2.2-7.3-2.1-3.1-6.9-5.7-4.8-2.6-12.4-5.3-7.7-2.6-18.7-6-10.9-3.3-20.2-8.2-9.3-5-16-12-6.8-6.9-10.7-16.2-3.8-9.2-3.8-21 0-12.3 4.3-22.4 4.3-10.2 13.1-17.4Q85.4 42 99 38q13.6-4 32.3-4 7.5 0 15.8.6 8.3.7 17 2 8.6 1.3 17 3.4 8.6 2 16.1 5l-2 40.3z"/>
    <path fill="#ff0" fill-opacity=".3" d="M25 50l53 7.4h41.8l45.5 2 22.7 8.3 28.8-6.2 21.2-2 1.6 145.4-38 2-57.6-4.1-53.8 4.2-34.9-16.7-28.8-4.1z" fill-rule="evenodd"/>
  </g>
</svg>