<svg viewBox="0 0 100 100" fill="none" stroke-linecap="square" stroke-miterlimit="10" xmlns="http://www.w3.org/2000/svg">
	<g>
    <path class="o" d="M83.342 63.28c-16.68 12.608-41.34 15.004-61.505 23.385"/>
    <path class="o" d="M76.363 50.003C70.01 55.2 62.266 58.93 54.588 62.39"/>
    <path class="o" d="M37.53 65.94c-3.187 1.604-6.908 2.802-10.4 4.169-3.495 1.368-6.747 3.098-10.731 3.878"/>
    <path class="o" d="M83.335 79.147c-13.843 6.952-30.711 11.941-47.44 16.569"/>
    <path class="o" d="M63.654 42.461c-3.616 2.92-7.838 5.1-11.8 7.589-3.965 2.49-7.654 5.637-12.174 7.058"/>
    <path class="o" d="M79.67 16.129c-2.983 2.34-6.466 4.088-9.735 6.083-3.272 1.996-6.316 4.52-10.045 5.659"/>
    <path class="o" d="M66.187 5.586c-7.51 6.544-16.276 11.43-24.505 17.007-8.234 5.58-15.896 12.635-25.282 15.82"/>
    <path class="o" d="M45.208 2.407c-6.057 5.447-12.476 9.854-18.534 15.299-3.43 3.083-8.749 2-10.94 7.172"/>
    <path class="o" d="M46.36 36.346c-3.188 2.722-6.909 4.755-10.401 7.075-3.495 2.322-6.747 5.256-10.73 6.581"/>
    <path class="p" d="M60.625 32.587c0-3.798-3.222-7.897-6.641-8.896-5.31-1.55-16.768.56-15.433 6.279 1.037 4.441 6.972 5.773 11.135 6.803 3.925.97 7.613 2.839 11.33 4.5 3.546 1.585 7.89 1.198 11.037 3.558 5.148 3.861 9.707 9.69 11.233 16.222 2.068 8.854.945 20.144-4.786 26.897-3.84 4.525-9.965 6.195-15.433 7.953-9.918 3.19-21.501 3.64-31.06-.627-5.574-2.488-11.319-7.002-13.382-13.082-1.762-5.193-2.05-10.905-2.05-16.431"/>
    <path class="p" d="M39.374 66.21c0 3.727 3.223 7.751 6.642 8.732 5.309 1.523 16.768-.55 15.433-6.164-1.037-4.36-6.972-5.667-11.135-6.678-3.925-.953-7.613-2.787-11.33-4.418-3.546-1.556-7.89-1.176-11.038-3.493-5.148-3.79-9.707-9.513-11.232-15.926-2.069-8.691-.945-19.774 4.785-26.404 3.84-4.442 9.966-6.082 15.434-7.808 9.918-3.13 21.5-3.572 31.06.616 5.574 2.442 11.318 6.874 13.382 12.843 1.762 5.098 2.05 10.706 2.05 16.13"/>
    <path class="p" d="M16.469 65.658c7.593 2.906 15.28.411 22.92.411"/>
    <path class="p" d="M83.24 32.691c-7.603-.67-15.28-.217-22.92-.217"/>
  </g>
</svg>