<svg viewBox="0 0 100 100" fill="none" stroke-miterlimit="10" xmlns="http://www.w3.org/2000/svg">
  <g>
    <path class="p" d="M41.685 29.519c0 15.965.246 31.93.246 47.895 0 4.094.452 8.213 0 12.281-.181 1.63-1.27 3.632-.246 4.912.825 1.031 2.62.328 3.93.492 3.088.386 6.221.245 9.334.245 5.291 0 1.684-10.454 2.21-15.72 1.109-11.079 1.17-22.307.246-33.403-.333-3.999-.32-8.063.245-12.035.208-1.46-1.042-3.38 0-4.421 1.738-1.738 4.93.55 7.37.245 5.776-.722 11.695-1.94 17.438-.982 1.315.219-.5 3.434.737 3.93 2.28.912 5.631 1.736 7.368 0 2.212-2.213-1.425-6.237-.982-9.334.803-5.621 3.096-11.439 1.72-16.948-.738-2.948-6.065-.434-9.089-.737-8.478-.847-17.065-1.83-25.544-.982-11.922 1.192-24.111.107-35.86 2.456-2.65.53-5.423.581-8.105.246-1.005-.126-2.157-1.37-2.948-.737-2.816 2.253-.165 7.216-.491 10.807-.26 2.854.355 5.754 0 8.597-.236 1.884-1.585 3.95-.737 5.649.33.659 1.481.104 2.21 0 1.297-.185 3.144 1.048 3.93 0 .69-.92-.903-3.439.246-3.439 9.007 0 18.01.492 27.018.492"/>
    <path class="o" d="M90.28 26.378c-1.871 2.85-4.637 3.39-6.899 5.285"/>
    <path class="o" d="M57.875 71.688c-2.339 1.721-5.069 3.007-7.631 4.474-2.565 1.468-4.95 3.324-7.874 4.162"/>
    <path class="o" d="M56.947 84.992c-3.187 2.094-6.564 3.787-9.751 5.88-1.805 1.185-4.603.769-5.755 2.757"/>
    <path class="o" d="M56.944 45.081c-2.995 2.094-6.17 3.787-9.165 5.88-1.696 1.185-4.326.77-5.409 2.757"/>
    <path class="o" d="M56.947 58.387c-3.953 4.654-9.799 5.539-14.578 8.633"/>
    <path class="o" d="M90.862 9.638c-8.812 8.014-19.548 13.765-30.195 19.099"/>
    <path class="o" d="M57.011 30.755c-4.091 2.98-9.077 5.12-14.021 7.103"/>
    <path class="o" d="M23.097 6.59c-2.115 1.416-4.584 2.474-6.902 3.68-2.32 1.208-4.477 2.734-7.121 3.423"/>
    <path class="o" d="M74.384 5.33c-12.462 9.587-27.647 16.466-42.707 22.847"/>
    <path class="o" d="M53.462 5.893c-6.695 3.941-14.511 6.885-21.848 10.244-7.34 3.362-14.172 7.612-22.54 9.53"/>
  </g>
</svg>