<svg xmlns="http://www.w3.org/2000/svg" fill="none" stroke-miterlimit="10" viewBox="0 0 100 100">
  <g>
    <path class="p" d="M11.94 7.73c4.65 0 9.32.46 13.94 0 1.9-.2 5-1.25 5.7.53.46 1.1-.34 2.5.2 3.57 3.74 7.5 6.1 15.63 8.74 23.58 2.23 6.7 2.63 14 5.54 20.4 1.73 3.8 2.28 8.1 3.75 12 .7 1.7 0 4.2 1.5 5.2.5.38.8-1 .9-1.6.3-1.92 1.3-3.73 2.2-5.5 2.15-4.32 3.47-9 5-13.6C62.78 41.98 64 31 67.2 20.68c.95-3.18.7-6.6.7-9.87 0-1.2-.2-3 .9-3.5 2.82-1.4 6.32.5 9.46.18 2.2-.2 4.42-.17 6.62-.17.9 0 2.14-.74 2.68 0 1.14 1.5.1 3.8-.18 5.7-.68 4.77-2.35 9.36-3.2 14.1-.55 2.94-.24 6-.73 8.94-1.3 7.87-5 15.16-7.7 22.68-1.03 3-.82 6.36-1.93 9.3-1.4 3.76-3.24 7.47-3.6 11.45-.23 2.9-1 5.8-2.3 8.4-.68 1.36.74 4.1-.7 4.48-6.43 1.6-13.24.36-19.85.36-3.15 0-8.04 2.1-9.46-.72-1-2.1-.4-4.8-1.4-6.95-1.2-2.73-3.3-5.14-3.9-8.05-1.1-5 .2-10.44-1.23-15.36-3.1-10.1-7.3-19.72-10.6-29.7-1.77-5.32-3.1-10.8-4.46-16.25-.66-2.67-.8-6.64-3.4-7.5"/>
    <path class="o" d="M74.65 7.18c-2 2.06-3.77 4.88-6.5 5.6"/>
    <path class="o" d="M83.46 7.18c-5.96 4.4-10.44 11.22-16.84 14.77"/>
    <path class="o" d="M88.06 9.7C81.26 17.3 74 24.97 65.1 29.6"/>
    <path class="o" d="M85.66 21c-6.64 6.46-13.9 12.66-22.3 16.74"/>
    <path class="o" d="M83.34 32.8c-3.36 2.94-7.3 5.14-10.97 7.65-3.7 2.5-7.12 5.7-11.33 7.12"/>
    <path class="o" d="M80.86 45.07c-3.08 3.47-7.77 5.06-11.37 7.98-3.6 2.86-7.8 5.85-12.3 5.85"/>
    <path class="o" d="M76.05 57.75c-6.75 5.33-14.7 9.52-23.05 11.6"/>
    <path class="o" d="M72.64 70.6c-2.37 1.75-5.4 2.4-8.1 3.6-2.75 1.27-4.88 3.58-7.56 5-1.74.9-3.97.8-5.62 1.87-2.65 1.72-5.55 3.04-8.45 4.3-1.9.83-3.6 2.57-5.8 2.57"/>
    <path class="o" d="M69.8 82.04c-6.25 5.7-15.5 6.77-23.05 10.54"/>
    <path class="o" d="M49.96 70.6c-3.46 1.95-7.13 3.52-10.6 5.46-1.95 1.1-5 .7-6.24 2.55"/>
    <path class="o" d="M44.9 52.58c-3.86 4.34-8.88 6.73-13.5 9.66"/>
    <path class="o" d="M40.28 35.74c-2.93 2.2-5.6 4.76-8.53 6.96-1.7 1.28-4.33 1.56-5.25 3.57"/>
    <path class="o" d="M38.27 28.95c-4.38 4.06-9.72 6.97-15 9.66"/>
    <path class="o" d="M42.12 43.4c-4.57 3.13-8 8-12.92 10.53"/>
    <path class="o" d="M48.24 61.77c-3.25 2.03-6.7 3.68-9.93 5.7-1.8 1.16-4.6.76-5.8 2.7"/>
    <path class="o" d="M36 22.75c-3.15 2.03-6.5 3.68-9.64 5.7-1.78 1.16-4.54.76-5.68 2.7"/>
    <path class="o" d="M33.13 15.66c-4.24 3.53-9.4 6.06-14.54 8.4"/>
    <path class="o" d="M28.34 7.6c-3.47 3.75-7.7 6.45-11.87 8.96"/>
  </g>
</svg>