<svg viewBox="0 0 960 720" fill="none" stroke-linecap="square" stroke-miterlimit="10" xmlns="http://www.w3.org/2000/svg"><clipPath id="a"><path d="M0 0h960v720H0V0z"/></clipPath><g clip-path="url(#a)"><path d="M0 0h960v720H0z"/><path fill="#fff" fill-opacity=".589" d="M553.568 355.22l60.366-23.218 65.01 18.574-60.366 23.218z"/><path stroke="#000" stroke-linejoin="round" stroke-linecap="butt" d="M553.568 355.22l60.366-23.218 65.01 18.574-60.366 23.218z"/><path fill="#fff" fill-opacity=".589" d="M553.568 285.567l60.366-23.217v69.652l-60.366 23.218z"/><path stroke="#000" stroke-linejoin="round" stroke-linecap="butt" d="M553.568 285.567l60.366-23.217v69.652l-60.366 23.218z"/><path fill="#fff" fill-opacity=".589" d="M614.12 262.346l64.823 18.798v69.432l-65.012-18.852z"/><path stroke="#000" stroke-linejoin="round" stroke-linecap="butt" d="M614.12 262.346l64.823 18.798v69.432l-65.012-18.852z"/><path fill="#fff" fill-opacity=".589" d="M553.753 285.564l64.825 18.797v69.44l-65.012-18.85z"/><path stroke="#000" stroke-linejoin="round" stroke-linecap="butt" d="M553.753 285.564l64.825 18.797v69.44l-65.012-18.85z"/><path fill="#fff" fill-opacity=".589" d="M618.578 304.14l60.365-23.216v69.652l-60.365 23.218z"/><path stroke="#000" stroke-linejoin="round" stroke-linecap="butt" d="M618.578 304.14l60.365-23.216v69.652l-60.365 23.218z"/><path fill="#fff" fill-opacity=".589" d="M553.568 285.567l60.366-23.217 65.01 18.574-60.366 23.217z"/><path stroke="#000" stroke-linejoin="round" stroke-linecap="butt" d="M553.568 285.567l60.366-23.217 65.01 18.574-60.366 23.217z"/><path fill="#fff" fill-opacity=".589" d="M553.568 276.052l60.366-23.217 65.01 18.574-60.366 23.21z"/><path stroke="#000" stroke-linejoin="round" stroke-linecap="butt" d="M553.568 276.052l60.366-23.217 65.01 18.574-60.366 23.21z"/><path fill="#fff" fill-opacity=".589" d="M553.568 206.4l60.366-23.218v69.653l-60.366 23.217z"/><path stroke="#000" stroke-linejoin="round" stroke-linecap="butt" d="M553.568 206.4l60.366-23.218v69.653l-60.366 23.217z"/><path fill="#fff" fill-opacity=".589" d="M614.12 183.18l64.823 18.796v69.433l-65.013-18.86z"/><path stroke="#000" stroke-linejoin="round" stroke-linecap="butt" d="M614.12 183.18l64.823 18.796v69.433l-65.013-18.86z"/><path fill="#fff" fill-opacity=".589" d="M553.753 206.396l64.825 18.798v69.432l-65.012-18.852z"/><path stroke="#000" stroke-linejoin="round" stroke-linecap="butt" d="M553.753 206.396l64.825 18.798v69.432l-65.012-18.852z"/><path fill="#fff" fill-opacity=".589" d="M618.578 224.974l60.365-23.218v69.653l-60.365 23.21z"/><path stroke="#000" stroke-linejoin="round" stroke-linecap="butt" d="M618.578 224.974l60.365-23.218v69.653l-60.365 23.21z"/><path fill="#fff" fill-opacity=".589" d="M553.568 206.4l60.366-23.218 65.01 18.574-60.366 23.218z"/><path stroke="#000" stroke-linejoin="round" stroke-linecap="butt" d="M553.568 206.4l60.366-23.218 65.01 18.574-60.366 23.218z"/><path fill="#fff" fill-opacity=".589" d="M553.568 196.556l60.366-23.217 65.01 18.57-60.366 23.21z"/><path stroke="#000" stroke-linejoin="round" stroke-linecap="butt" d="M553.568 196.556l60.366-23.217 65.01 18.57-60.366 23.21z"/><path fill="#fff" fill-opacity=".589" d="M553.568 126.904l60.366-23.218v69.653l-60.366 23.21z"/><path stroke="#000" stroke-linejoin="round" stroke-linecap="butt" d="M553.568 126.904l60.366-23.218v69.653l-60.366 23.21z"/><path fill="#fff" fill-opacity=".589" d="M614.12 103.683l64.823 18.797v69.433L613.93 173.06z"/><path stroke="#000" stroke-linejoin="round" stroke-linecap="butt" d="M614.12 103.683l64.823 18.797v69.433L613.93 173.06z"/><path fill="#fff" fill-opacity=".589" d="M553.753 126.9l64.825 18.798v69.432l-65.012-18.852z"/><path stroke="#000" stroke-linejoin="round" stroke-linecap="butt" d="M553.753 126.9l64.825 18.798v69.432l-65.012-18.852z"/><path fill="#fff" fill-opacity=".589" d="M618.578 145.478l60.365-23.218v69.653l-60.365 23.217z"/><path stroke="#000" stroke-linejoin="round" stroke-linecap="butt" d="M618.578 145.478l60.365-23.218v69.653l-60.365 23.217z"/><path fill="#fff" fill-opacity=".589" d="M553.568 126.904l60.366-23.218 65.01 18.574-60.366 23.218z"/><path stroke="#000" stroke-linejoin="round" stroke-linecap="butt" d="M553.568 126.904l60.366-23.218 65.01 18.574-60.366 23.218z"/><path fill="#fff" fill-opacity=".589" d="M553.568 117.39l60.366-23.22 65.01 18.575-60.366 23.218z"/><path stroke="#000" stroke-linejoin="round" stroke-linecap="butt" d="M553.568 117.39l60.366-23.22 65.01 18.575-60.366 23.218z"/><path fill="#fff" fill-opacity=".589" d="M553.568 47.736l60.366-23.217v69.65l-60.366 23.22z"/><path stroke="#000" stroke-linejoin="round" stroke-linecap="butt" d="M553.568 47.736l60.366-23.217v69.65l-60.366 23.22z"/><path fill="#fff" fill-opacity=".589" d="M614.12 24.515l64.823 18.798v69.432L613.93 93.893z"/><path stroke="#000" stroke-linejoin="round" stroke-linecap="butt" d="M614.12 24.515l64.823 18.798v69.432L613.93 93.893z"/><path fill="#fff" fill-opacity=".589" d="M553.753 47.733l64.825 18.797v69.433l-65.012-18.853z"/><path stroke="#000" stroke-linejoin="round" stroke-linecap="butt" d="M553.753 47.733l64.825 18.797v69.433l-65.012-18.853z"/><path fill="#fff" fill-opacity=".589" d="M618.578 66.31l60.365-23.217v69.652l-60.365 23.218z"/><path stroke="#000" stroke-linejoin="round" stroke-linecap="butt" d="M618.578 66.31l60.365-23.217v69.652l-60.365 23.218z"/><path fill="#fff" fill-opacity=".589" d="M553.568 47.736l60.366-23.217 65.01 18.57-60.366 23.21z"/><path stroke="#000" stroke-linejoin="round" stroke-linecap="butt" d="M553.568 47.736l60.366-23.217 65.01 18.57-60.366 23.21z"/><path fill="#fff" fill-opacity=".589" d="M624.207 400.098l147.982-56.916 159.36 45.532-147.98 56.916z"/><path stroke="#000" stroke-linejoin="round" stroke-linecap="butt" d="M624.207 400.098l147.982-56.916 159.36 45.532-147.98 56.916z"/><path fill="#fff" fill-opacity=".589" d="M624.207 229.35l147.982-56.916v170.748L624.2 400.098z"/><path stroke="#000" stroke-linejoin="round" stroke-linecap="butt" d="M624.207 229.35l147.982-56.916v170.748L624.2 400.098z"/><path fill="#fff" fill-opacity=".589" d="M772.64 172.424l158.914 46.082v170.208L772.182 342.5z"/><path stroke="#000" stroke-linejoin="round" stroke-linecap="butt" d="M772.64 172.424l158.914 46.082v170.208L772.182 342.5z"/><path fill="#fff" fill-opacity=".589" d="M624.66 229.34l158.912 46.082V445.63l-159.37-46.215z"/><path stroke="#000" stroke-linejoin="round" stroke-linecap="butt" d="M624.66 229.34l158.912 46.082V445.63l-159.37-46.215z"/><path fill="#fff" fill-opacity=".589" d="M783.572 274.882l147.982-56.916v170.748L783.572 445.63z"/><path stroke="#000" stroke-linejoin="round" stroke-linecap="butt" d="M783.572 274.882l147.982-56.916v170.748L783.572 445.63z"/><path fill="#fff" fill-opacity=".589" d="M624.207 229.35l147.982-56.916 159.36 45.532-147.98 56.916z"/><path stroke="#000" stroke-linejoin="round" stroke-linecap="butt" d="M624.207 229.35l147.982-56.916 159.36 45.532-147.98 56.916z"/><path fill="#fff" fill-opacity=".808" d="M357.655 460.456l158.11-60.812 170.275 48.65-158.11 60.812z"/><path stroke="#000" stroke-linejoin="round" stroke-linecap="butt" d="M357.655 460.456l158.11-60.812 170.275 48.65-158.11 60.812z"/><path fill="#fff" fill-opacity=".808" d="M357.655 278.02l158.11-60.812v182.436l-158.11 60.812z"/><path stroke="#000" stroke-linejoin="round" stroke-linecap="butt" d="M357.655 278.02l158.11-60.812v182.436l-158.11 60.812z"/><path fill="#fff" fill-opacity=".808" d="M516.25 217.2l169.79 49.234v181.86l-170.28-49.38z"/><path stroke="#000" stroke-linejoin="round" stroke-linecap="butt" d="M516.25 217.2l169.79 49.234v181.86l-170.28-49.38z"/><path fill="#fff" fill-opacity=".808" d="M358.14 278.01l169.79 49.236v181.86l-170.282-49.38z"/><path stroke="#000" stroke-linejoin="round" stroke-linecap="butt" d="M358.14 278.01l169.79 49.236v181.86l-170.282-49.38z"/><path fill="#fff" fill-opacity=".808" d="M527.93 326.67l158.11-60.812v182.436l-158.11 60.812z"/><path stroke="#000" stroke-linejoin="round" stroke-linecap="butt" d="M527.93 326.67l158.11-60.812v182.436l-158.11 60.812z"/><path fill="#fff" fill-opacity=".808" d="M357.655 278.02l158.11-60.812 170.275 48.65-158.11 60.812z"/><path stroke="#000" stroke-linejoin="round" stroke-linecap="butt" d="M357.655 278.02l158.11-60.812 170.275 48.65-158.11 60.812z"/><path fill="#fff" fill-opacity=".808" d="M439.918 289.346l81.443-31.324 87.71 25.06-81.44 31.323z"/><path stroke="#000" stroke-linejoin="round" stroke-linecap="butt" d="M439.918 289.346l81.443-31.324 87.71 25.06-81.44 31.323z"/><path fill="#fff" fill-opacity=".808" d="M439.918 195.374l81.443-31.324v93.972l-81.44 31.324z"/><path stroke="#000" stroke-linejoin="round" stroke-linecap="butt" d="M439.918 195.374l81.443-31.324v93.972l-81.44 31.324z"/><path fill="#fff" fill-opacity=".808" d="M521.61 164.045l87.458 25.36v93.676l-87.71-25.43z"/><path stroke="#000" stroke-linejoin="round" stroke-linecap="butt" d="M521.61 164.045l87.458 25.36v93.676l-87.71-25.43z"/><path fill="#fff" fill-opacity=".808" d="M440.167 195.37l87.458 25.36v93.675l-87.71-25.435z"/><path stroke="#000" stroke-linejoin="round" stroke-linecap="butt" d="M440.167 195.37l87.458 25.36v93.675l-87.71-25.435z"/><path fill="#fff" fill-opacity=".808" d="M527.625 220.433l81.443-31.324v93.97l-81.443 31.32z"/><path stroke="#000" stroke-linejoin="round" stroke-linecap="butt" d="M527.625 220.433l81.443-31.324v93.97l-81.443 31.32z"/><path fill="#fff" fill-opacity=".808" d="M439.918 195.374l81.443-31.324 87.71 25.06-81.44 31.323z"/><path stroke="#000" stroke-linejoin="round" stroke-linecap="butt" d="M439.918 195.374l81.443-31.324 87.71 25.06-81.44 31.323z"/><path fill="#fff" fill-opacity=".735" d="M48.633 543.24l221.832-85.31 238.896 68.25-221.83 85.31z"/><path stroke="#000" stroke-linejoin="round" stroke-linecap="butt" d="M48.633 543.24l221.832-85.31 238.896 68.25-221.83 85.31z"/><path fill="#fff" fill-opacity=".735" d="M48.633 287.305l221.832-85.312V457.93L48.633 543.24z"/><path stroke="#000" stroke-linejoin="round" stroke-linecap="butt" d="M48.633 287.305l221.832-85.312V457.93L48.633 543.24z"/><path fill="#fff" fill-opacity=".735" d="M271.143 201.98l238.218 69.072V526.18l-238.9-69.274z"/><path stroke="#000" stroke-linejoin="round" stroke-linecap="butt" d="M271.143 201.98l238.218 69.072V526.18l-238.9-69.274z"/><path fill="#fff" fill-opacity=".735" d="M49.31 287.292l238.22 69.072V611.49L48.622 542.22z"/><path stroke="#000" stroke-linejoin="round" stroke-linecap="butt" d="M49.31 287.292l238.22 69.072V611.49L48.622 542.22z"/><path fill="#fff" fill-opacity=".735" d="M287.53 355.555l221.83-85.312V526.18l-221.83 85.31z"/><path stroke="#000" stroke-linejoin="round" stroke-linecap="butt" d="M287.53 355.555l221.83-85.312V526.18l-221.83 85.31z"/><path fill="#fff" fill-opacity=".735" d="M48.633 287.305l221.832-85.312 238.896 68.25-221.83 85.312z"/><path stroke="#000" stroke-linejoin="round" stroke-linecap="butt" d="M48.633 287.305l221.832-85.312 238.896 68.25-221.83 85.312z"/><path fill="#fff" fill-opacity=".808" d="M183.592 249.99l81.442-31.325 87.708 25.06-81.443 31.323z"/><path stroke="#000" stroke-linejoin="round" stroke-linecap="butt" d="M183.592 249.99l81.442-31.325 87.708 25.06-81.443 31.323z"/><path fill="#fff" fill-opacity=".808" d="M183.592 156.017l81.442-31.324v93.972l-81.442 31.324z"/><path stroke="#000" stroke-linejoin="round" stroke-linecap="butt" d="M183.592 156.017l81.442-31.324v93.972l-81.442 31.324z"/><path fill="#fff" fill-opacity=".808" d="M265.283 124.688l87.46 25.36v93.676L265.03 218.29z"/><path stroke="#000" stroke-linejoin="round" stroke-linecap="butt" d="M265.283 124.688l87.46 25.36v93.676L265.03 218.29z"/><path fill="#fff" fill-opacity=".808" d="M183.84 156.012l87.46 25.36v93.676l-87.712-25.435z"/><path stroke="#000" stroke-linejoin="round" stroke-linecap="butt" d="M183.84 156.012l87.46 25.36v93.676l-87.712-25.435z"/><path fill="#fff" fill-opacity=".808" d="M271.3 181.076l81.442-31.324v93.972L271.3 275.048z"/><path stroke="#000" stroke-linejoin="round" stroke-linecap="butt" d="M271.3 181.076l81.442-31.324v93.972L271.3 275.048z"/><path fill="#fff" fill-opacity=".808" d="M183.592 156.017l81.442-31.324 87.708 25.06-81.443 31.323z"/><path stroke="#000" stroke-linejoin="round" stroke-linecap="butt" d="M183.592 156.017l81.442-31.324 87.708 25.06-81.443 31.323z"/><path fill="#fff" fill-opacity=".808" d="M482.638 190.084l40.27-15.488 43.365 12.39-40.27 15.488z"/><path stroke="#000" stroke-linejoin="round" stroke-linecap="butt" d="M482.638 190.084l40.27-15.488 43.365 12.39-40.27 15.488z"/><path fill="#fff" fill-opacity=".808" d="M482.638 143.62l40.27-15.488v46.464l-40.27 15.488z"/><path stroke="#000" stroke-linejoin="round" stroke-linecap="butt" d="M482.638 143.62l40.27-15.488v46.464l-40.27 15.488z"/><path fill="#fff" fill-opacity=".808" d="M523.03 128.13l43.243 12.54v46.316l-43.368-12.576z"/><path stroke="#000" stroke-linejoin="round" stroke-linecap="butt" d="M523.03 128.13l43.243 12.54v46.316l-43.368-12.576z"/><path fill="#fff" fill-opacity=".808" d="M482.76 143.618l43.244 12.54v46.316l-43.368-12.576z"/><path stroke="#000" stroke-linejoin="round" stroke-linecap="butt" d="M482.76 143.618l43.244 12.54v46.316l-43.368-12.576z"/><path fill="#fff" fill-opacity=".808" d="M526.004 156.01l40.27-15.488v46.464l-40.27 15.488z"/><path stroke="#000" stroke-linejoin="round" stroke-linecap="butt" d="M526.004 156.01l40.27-15.488v46.464l-40.27 15.488z"/><path fill="#fff" fill-opacity=".808" d="M482.638 143.62l40.27-15.488 43.365 12.39-40.27 15.488z"/><path stroke="#000" stroke-linejoin="round" stroke-linecap="butt" d="M482.638 143.62l40.27-15.488 43.365 12.39-40.27 15.488z"/><path fill="#f1c232" fill-opacity=".8" d="M18.323 627.394l53.13-22.973 57.214 18.38-53.13 22.98z"/><path stroke="#fff" stroke-linejoin="round" stroke-linecap="butt" d="M18.323 627.394l53.13-22.973 57.214 18.38-53.13 22.98z"/><path fill="#f1c232" fill-opacity=".8" d="M18.323 558.475l53.13-22.972v68.918l-53.13 22.98z"/><path stroke="#fff" stroke-linejoin="round" stroke-linecap="butt" d="M18.323 558.475l53.13-22.972v68.918l-53.13 22.98z"/><path fill="#f1c232" fill-opacity=".8" d="M71.614 535.5l57.053 18.6v68.7L71.45 604.146z"/><path stroke="#fff" stroke-linejoin="round" stroke-linecap="butt" d="M71.614 535.5l57.053 18.6v68.7L71.45 604.146z"/><path fill="#f1c232" fill-opacity=".8" d="M18.486 558.472l57.052 18.6v68.7L18.32 627.12z"/><path stroke="#fff" stroke-linejoin="round" stroke-linecap="butt" d="M18.486 558.472l57.052 18.6v68.7L18.32 627.12z"/><path fill="#d1a82b" fill-opacity=".8" d="M75.538 576.854l53.13-22.973v68.92l-53.13 22.98z"/><path stroke="#fff" stroke-linejoin="round" stroke-linecap="butt" d="M75.538 576.854l53.13-22.973v68.92l-53.13 22.98z"/><path fill="#d1a82b" fill-opacity=".8" d="M18.323 558.475l53.13-22.972 57.214 18.378-53.13 22.98z"/><path stroke="#fff" stroke-linejoin="round" stroke-linecap="butt" d="M18.323 558.475l53.13-22.972 57.214 18.378-53.13 22.98z"/><path fill="#f1c232" fill-opacity=".8" d="M90.676 652.594l53.13-22.973L201.02 648l-53.128 22.973z"/><path stroke="#fff" stroke-linejoin="round" stroke-linecap="butt" d="M90.676 652.594l53.13-22.973L201.02 648l-53.128 22.973z"/><path fill="#f1c232" fill-opacity=".8" d="M90.676 583.676l53.13-22.973v68.918l-53.13 22.98z"/><path stroke="#fff" stroke-linejoin="round" stroke-linecap="butt" d="M90.676 583.676l53.13-22.973v68.918l-53.13 22.98z"/><path fill="#f1c232" fill-opacity=".8" d="M143.967 560.7l57.053 18.6V648l-57.218-18.654z"/><path stroke="#fff" stroke-linejoin="round" stroke-linecap="butt" d="M143.967 560.7l57.053 18.6V648l-57.218-18.654z"/><path fill="#f1c232" fill-opacity=".8" d="M90.84 583.672l57.052 18.6v68.7L90.674 652.32z"/><path stroke="#fff" stroke-linejoin="round" stroke-linecap="butt" d="M90.84 583.672l57.052 18.6v68.7L90.674 652.32z"/><path fill="#d1a82b" fill-opacity=".8" d="M147.892 602.054l53.128-22.973V648l-53.128 22.973z"/><path stroke="#fff" stroke-linejoin="round" stroke-linecap="butt" d="M147.892 602.054l53.128-22.973V648l-53.128 22.973z"/><path fill="#f1c232" fill-opacity=".8" d="M90.676 583.676l53.13-22.973 57.214 18.378-53.128 22.98z"/><path stroke="#fff" stroke-linejoin="round" stroke-linecap="butt" d="M90.676 583.676l53.13-22.973 57.214 18.378-53.128 22.98z"/><path fill="#f1c232" fill-opacity=".8" d="M163.224 677.79l53.13-22.972 57.214 18.38-53.13 22.972z"/><path stroke="#fff" stroke-linejoin="round" stroke-linecap="butt" d="M163.224 677.79l53.13-22.972 57.214 18.38-53.13 22.972z"/><path fill="#f1c232" fill-opacity=".8" d="M163.224 608.872l53.13-22.973v68.91l-53.13 22.97z"/><path stroke="#fff" stroke-linejoin="round" stroke-linecap="butt" d="M163.224 608.872l53.13-22.973v68.91l-53.13 22.97z"/><path fill="#f1c232" fill-opacity=".8" d="M216.515 585.896l57.053 18.6v68.7l-57.218-18.653z"/><path stroke="#fff" stroke-linejoin="round" stroke-linecap="butt" d="M216.515 585.896l57.053 18.6v68.7l-57.218-18.653z"/><path fill="#f1c232" fill-opacity=".8" d="M163.387 608.87l57.052 18.598v68.702l-57.22-18.654z"/><path stroke="#fff" stroke-linejoin="round" stroke-linecap="butt" d="M163.387 608.87l57.052 18.598v68.702l-57.22-18.654z"/><path fill="#f1c232" fill-opacity=".8" d="M220.44 627.25l53.128-22.972v68.92l-53.13 22.972z"/><path stroke="#fff" stroke-linejoin="round" stroke-linecap="butt" d="M220.44 627.25l53.128-22.972v68.92l-53.13 22.972z"/><path fill="#f1c232" fill-opacity=".8" d="M163.224 608.872l53.13-22.973 57.214 18.37-53.13 22.97z"/><path stroke="#fff" stroke-linejoin="round" stroke-linecap="butt" d="M163.224 608.872l53.13-22.973 57.214 18.37-53.13 22.97z"/><path fill="#f1c232" fill-opacity=".8" d="M18.324 542.317l53.13-22.973 57.214 18.38-53.13 22.972z"/><path stroke="#fff" stroke-linejoin="round" stroke-linecap="butt" d="M18.324 542.317l53.13-22.973 57.214 18.38-53.13 22.972z"/><path fill="#f1c232" fill-opacity=".8" d="M18.324 473.4l53.13-22.974v68.918l-53.13 22.973z"/><path stroke="#fff" stroke-linejoin="round" stroke-linecap="butt" d="M18.324 473.4l53.13-22.974v68.918l-53.13 22.973z"/><path fill="#f1c232" fill-opacity=".8" d="M71.615 450.422l57.053 18.6v68.7L71.45 519.07z"/><path stroke="#fff" stroke-linejoin="round" stroke-linecap="butt" d="M71.615 450.422l57.053 18.6v68.7L71.45 519.07z"/><path fill="#f1c232" fill-opacity=".8" d="M18.487 473.395l57.052 18.6v68.7l-57.22-18.652z"/><path stroke="#fff" stroke-linejoin="round" stroke-linecap="butt" d="M18.487 473.395l57.052 18.6v68.7l-57.22-18.652z"/><path fill="#f1c232" fill-opacity=".8" d="M75.54 491.777l53.128-22.973v68.92l-53.13 22.972z"/><path stroke="#fff" stroke-linejoin="round" stroke-linecap="butt" d="M75.54 491.777l53.128-22.973v68.92l-53.13 22.972z"/><path fill="#d1a82b" fill-opacity=".8" d="M18.324 473.4l53.13-22.974 57.214 18.378-53.13 22.973z"/><path stroke="#fff" stroke-linejoin="round" stroke-linecap="butt" d="M18.324 473.4l53.13-22.974 57.214 18.378-53.13 22.973z"/><path fill="#f1c232" fill-opacity=".8" d="M18.324 457.29l53.13-22.972 57.214 18.38-53.13 22.972z"/><path stroke="#fff" stroke-linejoin="round" stroke-linecap="butt" d="M18.324 457.29l53.13-22.972 57.214 18.38-53.13 22.972z"/><path fill="#f1c232" fill-opacity=".8" d="M18.324 388.372l53.13-22.973v68.91l-53.13 22.97z"/><path stroke="#fff" stroke-linejoin="round" stroke-linecap="butt" d="M18.324 388.372l53.13-22.973v68.91l-53.13 22.97z"/><path fill="#f1c232" fill-opacity=".8" d="M71.615 365.396l57.053 18.6v68.7L71.45 434.044z"/><path stroke="#fff" stroke-linejoin="round" stroke-linecap="butt" d="M71.615 365.396l57.053 18.6v68.7L71.45 434.044z"/><path fill="#f1c232" fill-opacity=".8" d="M18.487 388.37l57.052 18.6v68.7l-57.22-18.654z"/><path stroke="#fff" stroke-linejoin="round" stroke-linecap="butt" d="M18.487 388.37l57.052 18.6v68.7l-57.22-18.654z"/><path fill="#d1a82b" fill-opacity=".8" d="M75.54 406.75l53.128-22.972v68.92l-53.13 22.972z"/><path stroke="#fff" stroke-linejoin="round" stroke-linecap="butt" d="M75.54 406.75l53.128-22.972v68.92l-53.13 22.972z"/><path fill="#d1a82b" fill-opacity=".8" d="M18.324 388.372l53.13-22.973 57.214 18.37-53.13 22.97z"/><path stroke="#fff" stroke-linejoin="round" stroke-linecap="butt" d="M18.324 388.372l53.13-22.973 57.214 18.37-53.13 22.97z"/><path fill="#f1c232" fill-opacity=".8" d="M18.324 372.217l53.13-22.973 57.214 18.38-53.13 22.972z"/><path stroke="#fff" stroke-linejoin="round" stroke-linecap="butt" d="M18.324 372.217l53.13-22.973 57.214 18.38-53.13 22.972z"/><path fill="#f1c232" fill-opacity=".8" d="M18.324 303.3l53.13-22.974v68.918l-53.13 22.973z"/><path stroke="#fff" stroke-linejoin="round" stroke-linecap="butt" d="M18.324 303.3l53.13-22.974v68.918l-53.13 22.973z"/><path fill="#f1c232" fill-opacity=".8" d="M71.615 280.322l57.053 18.6v68.7L71.45 348.97z"/><path stroke="#fff" stroke-linejoin="round" stroke-linecap="butt" d="M71.615 280.322l57.053 18.6v68.7L71.45 348.97z"/><path fill="#f1c232" fill-opacity=".8" d="M18.487 303.295l57.052 18.6v68.7l-57.22-18.652z"/><path stroke="#fff" stroke-linejoin="round" stroke-linecap="butt" d="M18.487 303.295l57.052 18.6v68.7l-57.22-18.652z"/><path fill="#f1c232" fill-opacity=".8" d="M75.54 321.677l53.128-22.973v68.92l-53.13 22.972z"/><path stroke="#fff" stroke-linejoin="round" stroke-linecap="butt" d="M75.54 321.677l53.128-22.973v68.92l-53.13 22.972z"/><path fill="#d1a82b" fill-opacity=".8" d="M18.324 303.3l53.13-22.974 57.214 18.378-53.13 22.973z"/><path stroke="#fff" stroke-linejoin="round" stroke-linecap="butt" d="M18.324 303.3l53.13-22.974 57.214 18.378-53.13 22.973z"/><path fill="#f1c232" fill-opacity=".8" d="M18.324 287.19l53.13-22.972 57.214 18.38-53.13 22.972z"/><path stroke="#fff" stroke-linejoin="round" stroke-linecap="butt" d="M18.324 287.19l53.13-22.972 57.214 18.38-53.13 22.972z"/><path fill="#f1c232" fill-opacity=".8" d="M18.324 218.272l53.13-22.973v68.91l-53.13 22.97z"/><path stroke="#fff" stroke-linejoin="round" stroke-linecap="butt" d="M18.324 218.272l53.13-22.973v68.91l-53.13 22.97z"/><path fill="#f1c232" fill-opacity=".8" d="M71.615 195.296l57.053 18.6v68.7L71.45 263.944z"/><path stroke="#fff" stroke-linejoin="round" stroke-linecap="butt" d="M71.615 195.296l57.053 18.6v68.7L71.45 263.944z"/><path fill="#f1c232" fill-opacity=".8" d="M18.487 218.27l57.052 18.6v68.7l-57.22-18.654z"/><path stroke="#fff" stroke-linejoin="round" stroke-linecap="butt" d="M18.487 218.27l57.052 18.6v68.7l-57.22-18.654z"/><path fill="#d1a82b" fill-opacity=".8" d="M75.54 236.65l53.128-22.972v68.92l-53.13 22.972z"/><path stroke="#fff" stroke-linejoin="round" stroke-linecap="butt" d="M75.54 236.65l53.128-22.972v68.92l-53.13 22.972z"/><path fill="#f1c232" fill-opacity=".8" d="M18.324 218.272l53.13-22.973 57.214 18.37-53.13 22.97z"/><path stroke="#fff" stroke-linejoin="round" stroke-linecap="butt" d="M18.324 218.272l53.13-22.973 57.214 18.37-53.13 22.97z"/><path fill="#f1c232" fill-opacity=".8" d="M90.678 312.39l53.128-22.972 57.216 18.38-53.13 22.972z"/><path stroke="#fff" stroke-linejoin="round" stroke-linecap="butt" d="M90.678 312.39l53.128-22.972 57.216 18.38-53.13 22.972z"/><path fill="#f1c232" fill-opacity=".8" d="M90.678 243.472l53.128-22.973v68.91l-53.128 22.98z"/><path stroke="#fff" stroke-linejoin="round" stroke-linecap="butt" d="M90.678 243.472l53.128-22.973v68.91l-53.128 22.98z"/><path fill="#f1c232" fill-opacity=".8" d="M143.97 220.496l57.052 18.6v68.7l-57.218-18.653z"/><path stroke="#fff" stroke-linejoin="round" stroke-linecap="butt" d="M143.97 220.496l57.052 18.6v68.7l-57.218-18.653z"/><path fill="#f1c232" fill-opacity=".8" d="M90.84 243.47l57.053 18.598v68.702l-57.217-18.654z"/><path stroke="#fff" stroke-linejoin="round" stroke-linecap="butt" d="M90.84 243.47l57.053 18.598v68.702l-57.217-18.654z"/><path fill="#d1a82b" fill-opacity=".8" d="M147.893 261.85l53.13-22.972v68.92l-53.13 22.972z"/><path stroke="#fff" stroke-linejoin="round" stroke-linecap="butt" d="M147.893 261.85l53.13-22.972v68.92l-53.13 22.972z"/><path fill="#f1c232" fill-opacity=".8" d="M90.678 243.472l53.128-22.973 57.216 18.37-53.13 22.97z"/><path stroke="#fff" stroke-linejoin="round" stroke-linecap="butt" d="M90.678 243.472l53.128-22.973 57.216 18.37-53.13 22.97z"/><path fill="#f1c232" fill-opacity=".8" d="M163.224 337.59l53.13-22.972 57.214 18.38-53.13 22.972z"/><path stroke="#fff" stroke-linejoin="round" stroke-linecap="butt" d="M163.224 337.59l53.13-22.972 57.214 18.38-53.13 22.972z"/><path fill="#f1c232" fill-opacity=".8" d="M163.224 268.672l53.13-22.973v68.91l-53.13 22.97z"/><path stroke="#fff" stroke-linejoin="round" stroke-linecap="butt" d="M163.224 268.672l53.13-22.973v68.91l-53.13 22.97z"/><path fill="#f1c232" fill-opacity=".8" d="M216.515 245.696l57.053 18.6v68.7l-57.218-18.653z"/><path stroke="#fff" stroke-linejoin="round" stroke-linecap="butt" d="M216.515 245.696l57.053 18.6v68.7l-57.218-18.653z"/><path fill="#f1c232" fill-opacity=".8" d="M163.387 268.67l57.052 18.598v68.702l-57.22-18.654z"/><path stroke="#fff" stroke-linejoin="round" stroke-linecap="butt" d="M163.387 268.67l57.052 18.598v68.702l-57.22-18.654z"/><path fill="#f1c232" fill-opacity=".8" d="M220.44 287.05l53.128-22.972v68.92l-53.13 22.972z"/><path stroke="#fff" stroke-linejoin="round" stroke-linecap="butt" d="M220.44 287.05l53.128-22.972v68.92l-53.13 22.972z"/><path fill="#f1c232" fill-opacity=".8" d="M163.224 268.672l53.13-22.973 57.214 18.37-53.13 22.97z"/><path stroke="#fff" stroke-linejoin="round" stroke-linecap="butt" d="M163.224 268.672l53.13-22.973 57.214 18.37-53.13 22.97z"/><path fill="#f1c232" fill-opacity=".8" d="M93.924 482.49l53.13-22.972 57.214 18.38-53.13 22.972z"/><path stroke="#fff" stroke-linejoin="round" stroke-linecap="butt" d="M93.924 482.49l53.13-22.972 57.214 18.38-53.13 22.972z"/><path fill="#f1c232" fill-opacity=".8" d="M93.924 413.572l53.13-22.973v68.91l-53.13 22.97z"/><path stroke="#fff" stroke-linejoin="round" stroke-linecap="butt" d="M93.924 413.572l53.13-22.973v68.91l-53.13 22.97z"/><path fill="#f1c232" fill-opacity=".8" d="M147.215 390.596l57.053 18.6v68.7l-57.218-18.653z"/><path stroke="#fff" stroke-linejoin="round" stroke-linecap="butt" d="M147.215 390.596l57.053 18.6v68.7l-57.218-18.653z"/><path fill="#f1c232" fill-opacity=".8" d="M94.087 413.57l57.052 18.598v68.702l-57.22-18.654z"/><path stroke="#fff" stroke-linejoin="round" stroke-linecap="butt" d="M94.087 413.57l57.052 18.598v68.702l-57.22-18.654z"/><path fill="#f1c232" fill-opacity=".8" d="M151.14 431.95l53.128-22.972v68.92l-53.13 22.972z"/><path stroke="#fff" stroke-linejoin="round" stroke-linecap="butt" d="M151.14 431.95l53.128-22.972v68.92l-53.13 22.972z"/><path fill="#f1c232" fill-opacity=".8" d="M93.924 413.572l53.13-22.973 57.214 18.37-53.13 22.97z"/><path stroke="#fff" stroke-linejoin="round" stroke-linecap="butt" d="M93.924 413.572l53.13-22.973 57.214 18.37-53.13 22.97z"/><path fill="#93c47d" fill-opacity=".8" d="M414.405 602.396l40.66-17.102 43.787 13.68-40.66 17.103z"/><path stroke="#fff" stroke-linejoin="round" stroke-linecap="butt" d="M414.405 602.396l40.66-17.102 43.787 13.68-40.66 17.103z"/><path fill="#93c47d" fill-opacity=".8" d="M414.405 551.09l40.66-17.102v51.306l-40.66 17.102z"/><path stroke="#fff" stroke-linejoin="round" stroke-linecap="butt" d="M414.405 551.09l40.66-17.102v51.306l-40.66 17.102z"/><path fill="#93c47d" fill-opacity=".8" d="M455.19 533.985l43.662 13.846v51.15l-43.79-13.88z"/><path stroke="#fff" stroke-linejoin="round" stroke-linecap="butt" d="M455.19 533.985l43.662 13.846v51.15l-43.79-13.88z"/><path fill="#7faa6c" fill-opacity=".8" d="M414.53 551.087l43.662 13.846v51.144l-43.79-13.886z"/><path stroke="#fff" stroke-linejoin="round" stroke-linecap="butt" d="M414.53 551.087l43.662 13.846v51.144l-43.79-13.886z"/><path fill="#93c47d" fill-opacity=".8" d="M458.192 564.77l40.66-17.1v51.305l-40.66 17.102z"/><path stroke="#fff" stroke-linejoin="round" stroke-linecap="butt" d="M458.192 564.77l40.66-17.1v51.305l-40.66 17.102z"/><path fill="#7faa6c" fill-opacity=".8" d="M414.405 551.09l40.66-17.102 43.787 13.68-40.66 17.103z"/><path stroke="#fff" stroke-linejoin="round" stroke-linecap="butt" d="M414.405 551.09l40.66-17.102 43.787 13.68-40.66 17.103z"/><path fill="#93c47d" fill-opacity=".8" d="M362.6 648.332l40.66-17.102 43.786 13.68-40.66 17.103z"/><path stroke="#fff" stroke-linejoin="round" stroke-linecap="butt" d="M362.6 648.332l40.66-17.102 43.786 13.68-40.66 17.103z"/><path fill="#93c47d" fill-opacity=".8" d="M362.6 597.026l40.66-17.102v51.306l-40.66 17.102z"/><path stroke="#fff" stroke-linejoin="round" stroke-linecap="butt" d="M362.6 597.026l40.66-17.102v51.306l-40.66 17.102z"/><path fill="#93c47d" fill-opacity=".8" d="M403.383 579.92l43.663 13.848v51.143l-43.79-13.88z"/><path stroke="#fff" stroke-linejoin="round" stroke-linecap="butt" d="M403.383 579.92l43.663 13.848v51.143l-43.79-13.88z"/><path fill="#7faa6c" fill-opacity=".8" d="M362.724 597.023l43.663 13.846v51.14l-43.79-13.89z"/><path stroke="#fff" stroke-linejoin="round" stroke-linecap="butt" d="M362.724 597.023l43.663 13.846v51.14l-43.79-13.89z"/><path fill="#93c47d" fill-opacity=".8" d="M406.387 610.707l40.66-17.102v51.306l-40.66 17.11z"/><path stroke="#fff" stroke-linejoin="round" stroke-linecap="butt" d="M406.387 610.707l40.66-17.102v51.306l-40.66 17.11z"/><path fill="#93c47d" fill-opacity=".8" d="M362.6 597.026l40.66-17.102 43.786 13.68-40.66 17.103z"/><path stroke="#fff" stroke-linejoin="round" stroke-linecap="butt" d="M362.6 597.026l40.66-17.102 43.786 13.68-40.66 17.103z"/><path fill="#93c47d" fill-opacity=".8" d="M442.663 533.492l40.66-17.102 43.786 13.68-40.66 17.103z"/><path stroke="#fff" stroke-linejoin="round" stroke-linecap="butt" d="M442.663 533.492l40.66-17.102 43.786 13.68-40.66 17.103z"/><path fill="#93c47d" fill-opacity=".8" d="M442.663 482.186l40.66-17.102v51.306l-40.66 17.102z"/><path stroke="#fff" stroke-linejoin="round" stroke-linecap="butt" d="M442.663 482.186l40.66-17.102v51.306l-40.66 17.102z"/><path fill="#93c47d" fill-opacity=".8" d="M483.446 465.08l43.663 13.847v51.144l-43.79-13.88z"/><path stroke="#fff" stroke-linejoin="round" stroke-linecap="butt" d="M483.446 465.08l43.663 13.847v51.144l-43.79-13.88z"/><path fill="#93c47d" fill-opacity=".8" d="M442.787 482.183l43.663 13.846v51.14l-43.79-13.89z"/><path stroke="#fff" stroke-linejoin="round" stroke-linecap="butt" d="M442.787 482.183l43.663 13.846v51.14l-43.79-13.89z"/><path fill="#93c47d" fill-opacity=".8" d="M486.45 495.867l40.66-17.102v51.306l-40.66 17.11z"/><path stroke="#fff" stroke-linejoin="round" stroke-linecap="butt" d="M486.45 495.867l40.66-17.102v51.306l-40.66 17.11z"/><path fill="#7faa6c" fill-opacity=".8" d="M442.663 482.186l40.66-17.102 43.786 13.68-40.66 17.103z"/><path stroke="#fff" stroke-linejoin="round" stroke-linecap="butt" d="M442.663 482.186l40.66-17.102 43.786 13.68-40.66 17.103z"/><path fill="#93c47d" fill-opacity=".8" d="M442.663 469.18l40.66-17.1 43.786 13.68-40.66 17.103z"/><path stroke="#fff" stroke-linejoin="round" stroke-linecap="butt" d="M442.663 469.18l40.66-17.1 43.786 13.68-40.66 17.103z"/><path fill="#93c47d" fill-opacity=".8" d="M442.663 417.875l40.66-17.102v51.306l-40.66 17.1z"/><path stroke="#fff" stroke-linejoin="round" stroke-linecap="butt" d="M442.663 417.875l40.66-17.102v51.306l-40.66 17.1z"/><path fill="#93c47d" fill-opacity=".8" d="M483.446 400.77l43.663 13.847v51.144l-43.79-13.88z"/><path stroke="#fff" stroke-linejoin="round" stroke-linecap="butt" d="M483.446 400.77l43.663 13.847v51.144l-43.79-13.88z"/><path fill="#93c47d" fill-opacity=".8" d="M442.787 417.873l43.663 13.846v51.14l-43.79-13.89z"/><path stroke="#fff" stroke-linejoin="round" stroke-linecap="butt" d="M442.787 417.873l43.663 13.846v51.14l-43.79-13.89z"/><path fill="#93c47d" fill-opacity=".8" d="M486.45 431.557l40.66-17.102v51.306l-40.66 17.11z"/><path stroke="#fff" stroke-linejoin="round" stroke-linecap="butt" d="M486.45 431.557l40.66-17.102v51.306l-40.66 17.11z"/><path fill="#7faa6c" fill-opacity=".8" d="M442.663 417.875l40.66-17.102 43.786 13.682-40.66 17.102z"/><path stroke="#fff" stroke-linejoin="round" stroke-linecap="butt" d="M442.663 417.875l40.66-17.102 43.786 13.682-40.66 17.102z"/><path fill="#93c47d" fill-opacity=".8" d="M423.824 400.87l40.66-17.102 43.787 13.68-40.66 17.103z"/><path stroke="#fff" stroke-linejoin="round" stroke-linecap="butt" d="M423.824 400.87l40.66-17.102 43.787 13.68-40.66 17.103z"/><path fill="#93c47d" fill-opacity=".8" d="M423.824 349.564l40.66-17.102v51.306l-40.66 17.102z"/><path stroke="#fff" stroke-linejoin="round" stroke-linecap="butt" d="M423.824 349.564l40.66-17.102v51.306l-40.66 17.102z"/><path fill="#93c47d" fill-opacity=".8" d="M464.608 332.46l43.663 13.846v51.143l-43.78-13.89z"/><path stroke="#fff" stroke-linejoin="round" stroke-linecap="butt" d="M464.608 332.46l43.663 13.846v51.143l-43.78-13.89z"/><path fill="#7faa6c" fill-opacity=".8" d="M423.95 349.56l43.66 13.848v51.143l-43.788-13.88z"/><path stroke="#fff" stroke-linejoin="round" stroke-linecap="butt" d="M423.95 349.56l43.66 13.848v51.143l-43.788-13.88z"/><path fill="#93c47d" fill-opacity=".8" d="M467.61 363.246l40.66-17.102v51.305l-40.66 17.1z"/><path stroke="#fff" stroke-linejoin="round" stroke-linecap="butt" d="M467.61 363.246l40.66-17.102v51.305l-40.66 17.1z"/><path fill="#93c47d" fill-opacity=".8" d="M423.824 349.564l40.66-17.102 43.787 13.682-40.66 17.102z"/><path stroke="#fff" stroke-linejoin="round" stroke-linecap="butt" d="M423.824 349.564l40.66-17.102 43.787 13.682-40.66 17.102z"/><path fill="#93c47d" fill-opacity=".8" d="M362.367 390.34l40.66-17.103 43.786 13.682-40.66 17.1z"/><path stroke="#fff" stroke-linejoin="round" stroke-linecap="butt" d="M362.367 390.34l40.66-17.103 43.786 13.682-40.66 17.1z"/><path fill="#93c47d" fill-opacity=".8" d="M362.367 339.033l40.66-17.102v51.31l-40.66 17.1z"/><path stroke="#fff" stroke-linejoin="round" stroke-linecap="butt" d="M362.367 339.033l40.66-17.102v51.31l-40.66 17.1z"/><path fill="#93c47d" fill-opacity=".8" d="M403.15 321.928l43.663 13.847v51.144l-43.79-13.89z"/><path stroke="#fff" stroke-linejoin="round" stroke-linecap="butt" d="M403.15 321.928l43.663 13.847v51.144l-43.79-13.89z"/><path fill="#7faa6c" fill-opacity=".8" d="M362.49 339.03l43.664 13.847v51.144l-43.79-13.88z"/><path stroke="#fff" stroke-linejoin="round" stroke-linecap="butt" d="M362.49 339.03l43.664 13.847v51.144l-43.79-13.88z"/><path fill="#93c47d" fill-opacity=".8" d="M406.154 352.715l40.66-17.102v51.306l-40.66 17.1z"/><path stroke="#fff" stroke-linejoin="round" stroke-linecap="butt" d="M406.154 352.715l40.66-17.102v51.306l-40.66 17.1z"/><path fill="#93c47d" fill-opacity=".8" d="M362.367 339.033l40.66-17.102 43.786 13.69-40.66 17.1z"/><path stroke="#fff" stroke-linejoin="round" stroke-linecap="butt" d="M362.367 339.033l40.66-17.102 43.786 13.69-40.66 17.1z"/><path fill="#93c47d" fill-opacity=".8" d="M306.075 671.896l40.66-17.102 43.786 13.682-40.65 17.102z"/><path stroke="#fff" stroke-linejoin="round" stroke-linecap="butt" d="M306.075 671.896l40.66-17.102 43.786 13.682-40.65 17.102z"/><path fill="#93c47d" fill-opacity=".8" d="M306.075 620.59l40.66-17.1v51.304l-40.66 17.102z"/><path stroke="#fff" stroke-linejoin="round" stroke-linecap="butt" d="M306.075 620.59l40.66-17.1v51.304l-40.66 17.102z"/><path fill="#93c47d" fill-opacity=".8" d="M346.858 603.486l43.663 13.846v51.144l-43.78-13.886z"/><path stroke="#fff" stroke-linejoin="round" stroke-linecap="butt" d="M346.858 603.486l43.663 13.846v51.144l-43.78-13.886z"/><path fill="#93c47d" fill-opacity=".8" d="M306.2 620.588l43.662 13.846v51.144l-43.79-13.887z"/><path stroke="#fff" stroke-linejoin="round" stroke-linecap="butt" d="M306.2 620.588l43.662 13.846v51.144l-43.79-13.887z"/><path fill="#93c47d" fill-opacity=".8" d="M349.862 634.272l40.66-17.102v51.306l-40.66 17.102z"/><path stroke="#fff" stroke-linejoin="round" stroke-linecap="butt" d="M349.862 634.272l40.66-17.102v51.306l-40.66 17.102z"/><path fill="#7faa6c" fill-opacity=".8" d="M306.075 620.59l40.66-17.1 43.786 13.68-40.65 17.102z"/><path stroke="#fff" stroke-linejoin="round" stroke-linecap="butt" d="M306.075 620.59l40.66-17.1 43.786 13.68-40.65 17.102z"/><path fill="#93c47d" fill-opacity=".8" d="M306.084 607.582l40.66-17.102 43.787 13.682-40.66 17.1z"/><path stroke="#fff" stroke-linejoin="round" stroke-linecap="butt" d="M306.084 607.582l40.66-17.102 43.787 13.682-40.66 17.1z"/><path fill="#93c47d" fill-opacity=".8" d="M306.084 556.276l40.66-17.102v51.306l-40.66 17.102z"/><path stroke="#fff" stroke-linejoin="round" stroke-linecap="butt" d="M306.084 556.276l40.66-17.102v51.306l-40.66 17.102z"/><path fill="#93c47d" fill-opacity=".8" d="M346.868 539.17l43.663 13.848v51.143l-43.78-13.88z"/><path stroke="#fff" stroke-linejoin="round" stroke-linecap="butt" d="M346.868 539.17l43.663 13.848v51.143l-43.78-13.88z"/><path fill="#93c47d" fill-opacity=".8" d="M306.21 556.273l43.66 13.847v51.143l-43.788-13.886z"/><path stroke="#fff" stroke-linejoin="round" stroke-linecap="butt" d="M306.21 556.273l43.66 13.847v51.143l-43.788-13.886z"/><path fill="#93c47d" fill-opacity=".8" d="M349.87 569.957l40.66-17.1v51.304l-40.66 17.11z"/><path stroke="#fff" stroke-linejoin="round" stroke-linecap="butt" d="M349.87 569.957l40.66-17.1v51.304l-40.66 17.11z"/><path fill="#7faa6c" fill-opacity=".8" d="M306.084 556.276l40.66-17.102 43.787 13.682-40.66 17.102z"/><path stroke="#fff" stroke-linejoin="round" stroke-linecap="butt" d="M306.084 556.276l40.66-17.102 43.787 13.682-40.66 17.102z"/><path fill="#93c47d" fill-opacity=".8" d="M306.084 543.27l40.66-17.1 43.787 13.68-40.66 17.103z"/><path stroke="#fff" stroke-linejoin="round" stroke-linecap="butt" d="M306.084 543.27l40.66-17.1 43.787 13.68-40.66 17.103z"/><path fill="#93c47d" fill-opacity=".8" d="M306.084 491.966l40.66-17.102v51.306l-40.66 17.1z"/><path stroke="#fff" stroke-linejoin="round" stroke-linecap="butt" d="M306.084 491.966l40.66-17.102v51.306l-40.66 17.1z"/><path fill="#93c47d" fill-opacity=".8" d="M346.868 474.86l43.663 13.847v51.144l-43.78-13.88z"/><path stroke="#fff" stroke-linejoin="round" stroke-linecap="butt" d="M346.868 474.86l43.663 13.847v51.144l-43.78-13.88z"/><path fill="#93c47d" fill-opacity=".8" d="M306.21 491.963l43.66 13.846v51.14l-43.788-13.89z"/><path stroke="#fff" stroke-linejoin="round" stroke-linecap="butt" d="M306.21 491.963l43.66 13.846v51.14l-43.788-13.89z"/><path fill="#93c47d" fill-opacity=".8" d="M349.87 505.647l40.66-17.102v51.306l-40.66 17.11z"/><path stroke="#fff" stroke-linejoin="round" stroke-linecap="butt" d="M349.87 505.647l40.66-17.102v51.306l-40.66 17.11z"/><path fill="#7faa6c" fill-opacity=".8" d="M306.084 491.966l40.66-17.102 43.787 13.68-40.66 17.103z"/><path stroke="#fff" stroke-linejoin="round" stroke-linecap="butt" d="M306.084 491.966l40.66-17.102 43.787 13.68-40.66 17.103z"/><path fill="#93c47d" fill-opacity=".8" d="M306.084 478.96l40.66-17.1 43.787 13.68-40.66 17.103z"/><path stroke="#fff" stroke-linejoin="round" stroke-linecap="butt" d="M306.084 478.96l40.66-17.1 43.787 13.68-40.66 17.103z"/><path fill="#93c47d" fill-opacity=".8" d="M306.084 427.655l40.66-17.102v51.306l-40.66 17.1z"/><path stroke="#fff" stroke-linejoin="round" stroke-linecap="butt" d="M306.084 427.655l40.66-17.102v51.306l-40.66 17.1z"/><path fill="#93c47d" fill-opacity=".8" d="M346.868 410.55l43.663 13.847v51.144l-43.78-13.88z"/><path stroke="#fff" stroke-linejoin="round" stroke-linecap="butt" d="M346.868 410.55l43.663 13.847v51.144l-43.78-13.88z"/><path fill="#93c47d" fill-opacity=".8" d="M306.21 427.652l43.66 13.847v51.14l-43.788-13.89z"/><path stroke="#fff" stroke-linejoin="round" stroke-linecap="butt" d="M306.21 427.652l43.66 13.847v51.14l-43.788-13.89z"/><path fill="#93c47d" fill-opacity=".8" d="M349.87 441.337l40.66-17.102v51.306l-40.66 17.11z"/><path stroke="#fff" stroke-linejoin="round" stroke-linecap="butt" d="M349.87 441.337l40.66-17.102v51.306l-40.66 17.11z"/><path fill="#7faa6c" fill-opacity=".8" d="M306.084 427.655l40.66-17.102 43.787 13.682-40.66 17.102z"/><path stroke="#fff" stroke-linejoin="round" stroke-linecap="butt" d="M306.084 427.655l40.66-17.102 43.787 13.682-40.66 17.102z"/><path fill="#93c47d" fill-opacity=".8" d="M306.096 413.74l40.66-17.103 43.786 13.682-40.66 17.1z"/><path stroke="#fff" stroke-linejoin="round" stroke-linecap="butt" d="M306.096 413.74l40.66-17.103 43.786 13.682-40.66 17.1z"/><path fill="#93c47d" fill-opacity=".8" d="M306.096 362.433l40.66-17.102v51.31l-40.66 17.1z"/><path stroke="#fff" stroke-linejoin="round" stroke-linecap="butt" d="M306.096 362.433l40.66-17.102v51.31l-40.66 17.1z"/><path fill="#93c47d" fill-opacity=".8" d="M346.88 345.328l43.662 13.847v51.144l-43.788-13.89z"/><path stroke="#fff" stroke-linejoin="round" stroke-linecap="butt" d="M346.88 345.328l43.662 13.847v51.144l-43.788-13.89z"/><path fill="#93c47d" fill-opacity=".8" d="M306.22 362.43l43.663 13.847v51.144l-43.79-13.88z"/><path stroke="#fff" stroke-linejoin="round" stroke-linecap="butt" d="M306.22 362.43l43.663 13.847v51.144l-43.79-13.88z"/><path fill="#93c47d" fill-opacity=".8" d="M349.883 376.115l40.66-17.102v51.306l-40.66 17.1z"/><path stroke="#fff" stroke-linejoin="round" stroke-linecap="butt" d="M349.883 376.115l40.66-17.102v51.306l-40.66 17.1z"/><path fill="#93c47d" fill-opacity=".8" d="M306.096 362.433l40.66-17.102 43.786 13.69-40.66 17.1z"/><path stroke="#fff" stroke-linejoin="round" stroke-linecap="butt" d="M306.096 362.433l40.66-17.102 43.786 13.69-40.66 17.1z"/><path d="M226.543 700.937l-3.37-1.134"/><path stroke="#000" stroke-linejoin="round" stroke-linecap="butt" d="M226.543 700.937l-3.37-1.134"/><path fill="#fff" fill-opacity=".808" d="M215.666 157.905l25.73-9.896 27.708 7.91-25.73 9.89z"/><path stroke="#000" stroke-linejoin="round" stroke-linecap="butt" d="M215.666 157.905l25.73-9.896 27.708 7.91-25.73 9.89z"/><path fill="#fff" fill-opacity=".808" d="M215.666 128.217l25.73-9.896v29.69l-25.73 9.9z"/><path stroke="#000" stroke-linejoin="round" stroke-linecap="butt" d="M215.666 128.217l25.73-9.896v29.69l-25.73 9.9z"/><path fill="#fff" fill-opacity=".808" d="M241.474 118.32l27.63 8.01v29.595l-27.71-8.035z"/><path stroke="#000" stroke-linejoin="round" stroke-linecap="butt" d="M241.474 118.32l27.63 8.01v29.595l-27.71-8.035z"/><path fill="#fff" fill-opacity=".808" d="M215.745 128.215l27.63 8.012v29.594l-27.71-8.03z"/><path stroke="#000" stroke-linejoin="round" stroke-linecap="butt" d="M215.745 128.215l27.63 8.012v29.594l-27.71-8.03z"/><path fill="#fff" fill-opacity=".808" d="M243.375 136.133l25.73-9.896v29.688l-25.73 9.896z"/><path stroke="#000" stroke-linejoin="round" stroke-linecap="butt" d="M243.375 136.133l25.73-9.896v29.688l-25.73 9.896z"/><path fill="#fff" fill-opacity=".808" d="M215.666 128.217l25.73-9.896 27.708 7.92-25.73 9.9z"/><path stroke="#000" stroke-linejoin="round" stroke-linecap="butt" d="M215.666 128.217l25.73-9.896 27.708 7.92-25.73 9.9z"/><path fill="#fff" fill-opacity=".808" d="M285.42 147.2l22.547-8.67 24.28 6.937-22.546 8.672z"/><path stroke="#000" stroke-linejoin="round" stroke-linecap="butt" d="M285.42 147.2l22.547-8.67 24.28 6.937-22.546 8.672z"/><path fill="#fff" fill-opacity=".808" d="M285.42 121.185l22.547-8.672v26.016l-22.548 8.67z"/><path stroke="#000" stroke-linejoin="round" stroke-linecap="butt" d="M285.42 121.185l22.547-8.672v26.016l-22.548 8.67z"/><path fill="#fff" fill-opacity=".808" d="M308.036 112.512l24.212 7.02v25.935l-24.282-7.042z"/><path stroke="#000" stroke-linejoin="round" stroke-linecap="butt" d="M308.036 112.512l24.212 7.02v25.935l-24.282-7.042z"/><path fill="#fff" fill-opacity=".808" d="M285.488 121.184l24.213 7.02v25.935l-24.28-7.05z"/><path stroke="#000" stroke-linejoin="round" stroke-linecap="butt" d="M285.488 121.184l24.213 7.02v25.935l-24.28-7.05z"/><path fill="#fff" fill-opacity=".808" d="M309.7 128.123l22.548-8.672v26.02l-22.548 8.67z"/><path stroke="#000" stroke-linejoin="round" stroke-linecap="butt" d="M309.7 128.123l22.548-8.672v26.02l-22.548 8.67z"/><path fill="#fff" fill-opacity=".808" d="M285.42 121.185l22.547-8.672 24.28 6.938-22.546 8.68z"/><path stroke="#000" stroke-linejoin="round" stroke-linecap="butt" d="M285.42 121.185l22.547-8.672 24.28 6.938-22.546 8.68z"/><path fill="#444" fill-opacity=".642" d="M789.418 178.792l15.31-6.602 16.49 5.28-15.312 6.603z"/><path stroke="#fff" stroke-linejoin="round" stroke-linecap="butt" d="M789.418 178.792l15.31-6.602 16.49 5.28-15.312 6.603z"/><path fill="#444" fill-opacity=".642" d="M789.418 158.986l15.31-6.6v19.804l-15.31 6.602z"/><path stroke="#fff" stroke-linejoin="round" stroke-linecap="butt" d="M789.418 158.986l15.31-6.6v19.804l-15.31 6.602z"/><path fill="#444" fill-opacity=".642" d="M804.775 152.384l16.442 5.345v19.74l-16.49-5.36z"/><path stroke="#fff" stroke-linejoin="round" stroke-linecap="butt" d="M804.775 152.384l16.442 5.345v19.74l-16.49-5.36z"/><path fill="#000" fill-opacity=".642" d="M789.464 158.985l16.442 5.345v19.743l-16.49-5.36z"/><path stroke="#fff" stroke-linejoin="round" stroke-linecap="butt" d="M789.464 158.985l16.442 5.345v19.743l-16.49-5.36z"/><path fill="#444" fill-opacity=".642" d="M805.906 164.268l15.31-6.602v19.805l-15.31 6.61z"/><path stroke="#fff" stroke-linejoin="round" stroke-linecap="butt" d="M805.906 164.268l15.31-6.602v19.805l-15.31 6.61z"/><path fill="#000" fill-opacity=".642" d="M789.418 158.986l15.31-6.6 16.49 5.28-15.312 6.602z"/><path stroke="#fff" stroke-linejoin="round" stroke-linecap="butt" d="M789.418 158.986l15.31-6.6 16.49 5.28-15.312 6.602z"/><path fill="#444" fill-opacity=".642" d="M709.345 219.436l15.31-6.602 16.49 5.28-15.312 6.603z"/><path stroke="#fff" stroke-linejoin="round" stroke-linecap="butt" d="M709.345 219.436l15.31-6.602 16.49 5.28-15.312 6.603z"/><path fill="#444" fill-opacity=".642" d="M709.345 199.63l15.31-6.6v19.804l-15.31 6.602z"/><path stroke="#fff" stroke-linejoin="round" stroke-linecap="butt" d="M709.345 199.63l15.31-6.6v19.804l-15.31 6.602z"/><path fill="#444" fill-opacity=".642" d="M724.702 193.027l16.442 5.346v19.742l-16.49-5.36z"/><path stroke="#fff" stroke-linejoin="round" stroke-linecap="butt" d="M724.702 193.027l16.442 5.346v19.742l-16.49-5.36z"/><path fill="#444" fill-opacity=".642" d="M709.39 199.63l16.443 5.344v19.743l-16.49-5.36z"/><path stroke="#fff" stroke-linejoin="round" stroke-linecap="butt" d="M709.39 199.63l16.443 5.344v19.743l-16.49-5.36z"/><path fill="#444" fill-opacity=".642" d="M725.833 204.912l15.31-6.602v19.805l-15.31 6.602z"/><path stroke="#fff" stroke-linejoin="round" stroke-linecap="butt" d="M725.833 204.912l15.31-6.602v19.805l-15.31 6.602z"/><path fill="#000" fill-opacity=".642" d="M709.345 199.63l15.31-6.6 16.49 5.28-15.312 6.602z"/><path stroke="#fff" stroke-linejoin="round" stroke-linecap="butt" d="M709.345 199.63l15.31-6.6 16.49 5.28-15.312 6.602z"/><path fill="#444" fill-opacity=".642" d="M709.348 194.606l15.31-6.602 16.49 5.282-15.31 6.6z"/><path stroke="#fff" stroke-linejoin="round" stroke-linecap="butt" d="M709.348 194.606l15.31-6.602 16.49 5.282-15.31 6.6z"/><path fill="#444" fill-opacity=".642" d="M709.348 174.8l15.31-6.6v19.804l-15.31 6.602z"/><path stroke="#fff" stroke-linejoin="round" stroke-linecap="butt" d="M709.348 174.8l15.31-6.6v19.804l-15.31 6.602z"/><path fill="#444" fill-opacity=".642" d="M724.706 168.198l16.442 5.345v19.743l-16.49-5.36z"/><path stroke="#fff" stroke-linejoin="round" stroke-linecap="butt" d="M724.706 168.198l16.442 5.345v19.743l-16.49-5.36z"/><path fill="#444" fill-opacity=".642" d="M709.395 174.8l16.442 5.345v19.742l-16.49-5.36z"/><path stroke="#fff" stroke-linejoin="round" stroke-linecap="butt" d="M709.395 174.8l16.442 5.345v19.742l-16.49-5.36z"/><path fill="#444" fill-opacity=".642" d="M725.837 180.082l15.31-6.602v19.806l-15.31 6.6z"/><path stroke="#fff" stroke-linejoin="round" stroke-linecap="butt" d="M725.837 180.082l15.31-6.602v19.806l-15.31 6.6z"/><path fill="#000" fill-opacity=".642" d="M709.348 174.8l15.31-6.6 16.49 5.28-15.31 6.602z"/><path stroke="#fff" stroke-linejoin="round" stroke-linecap="butt" d="M709.348 174.8l15.31-6.6 16.49 5.28-15.31 6.602z"/><path fill="#444" fill-opacity=".642" d="M709.348 169.778l15.31-6.602 16.49 5.28-15.31 6.603z"/><path stroke="#fff" stroke-linejoin="round" stroke-linecap="butt" d="M709.348 169.778l15.31-6.602 16.49 5.28-15.31 6.603z"/><path fill="#444" fill-opacity=".642" d="M709.348 149.972l15.31-6.602v19.806l-15.31 6.602z"/><path stroke="#fff" stroke-linejoin="round" stroke-linecap="butt" d="M709.348 149.972l15.31-6.602v19.806l-15.31 6.602z"/><path fill="#444" fill-opacity=".642" d="M724.706 143.37l16.442 5.344v19.743l-16.49-5.36z"/><path stroke="#fff" stroke-linejoin="round" stroke-linecap="butt" d="M724.706 143.37l16.442 5.344v19.743l-16.49-5.36z"/><path fill="#444" fill-opacity=".642" d="M709.395 149.97l16.442 5.346v19.743l-16.49-5.37z"/><path stroke="#fff" stroke-linejoin="round" stroke-linecap="butt" d="M709.395 149.97l16.442 5.346v19.743l-16.49-5.37z"/><path fill="#444" fill-opacity=".642" d="M725.837 155.254l15.31-6.602v19.805l-15.31 6.602z"/><path stroke="#fff" stroke-linejoin="round" stroke-linecap="butt" d="M725.837 155.254l15.31-6.602v19.805l-15.31 6.602z"/><path fill="#444" fill-opacity=".642" d="M709.348 149.972l15.31-6.602 16.49 5.282-15.31 6.602z"/><path stroke="#fff" stroke-linejoin="round" stroke-linecap="butt" d="M709.348 149.972l15.31-6.602 16.49 5.282-15.31 6.602z"/><path fill="#444" fill-opacity=".642" d="M709.353 128.76l15.31-6.6 16.49 5.28-15.312 6.603z"/><path stroke="#fff" stroke-linejoin="round" stroke-linecap="butt" d="M709.353 128.76l15.31-6.6 16.49 5.28-15.312 6.603z"/><path fill="#444" fill-opacity=".642" d="M709.353 108.956l15.31-6.602v19.805l-15.31 6.6z"/><path stroke="#fff" stroke-linejoin="round" stroke-linecap="butt" d="M709.353 108.956l15.31-6.602v19.805l-15.31 6.6z"/><path fill="#444" fill-opacity=".642" d="M724.71 102.353l16.442 5.345v19.743l-16.49-5.36z"/><path stroke="#fff" stroke-linejoin="round" stroke-linecap="butt" d="M724.71 102.353l16.442 5.345v19.743l-16.49-5.36z"/><path fill="#444" fill-opacity=".642" d="M709.4 108.955l16.44 5.345v19.743l-16.488-5.36z"/><path stroke="#fff" stroke-linejoin="round" stroke-linecap="butt" d="M709.4 108.955l16.44 5.345v19.743l-16.488-5.36z"/><path fill="#444" fill-opacity=".642" d="M725.84 114.237l15.312-6.602v19.806l-15.31 6.61z"/><path stroke="#fff" stroke-linejoin="round" stroke-linecap="butt" d="M725.84 114.237l15.312-6.602v19.806l-15.31 6.61z"/><path fill="#444" fill-opacity=".642" d="M709.353 108.956l15.31-6.602 16.49 5.28-15.312 6.603z"/><path stroke="#fff" stroke-linejoin="round" stroke-linecap="butt" d="M709.353 108.956l15.31-6.602 16.49 5.28-15.312 6.603z"/><path fill="#444" fill-opacity=".642" d="M671.9 235.636l15.308-6.6 16.486 5.28-15.31 6.6z"/><path stroke="#fff" stroke-linejoin="round" stroke-linecap="butt" d="M671.9 235.636l15.308-6.6 16.486 5.28-15.31 6.6z"/><path fill="#444" fill-opacity=".642" d="M671.9 215.836l15.308-6.6v19.8l-15.31 6.6z"/><path stroke="#fff" stroke-linejoin="round" stroke-linecap="butt" d="M671.9 215.836l15.308-6.6v19.8l-15.31 6.6z"/><path fill="#444" fill-opacity=".642" d="M687.255 209.235l16.44 5.343v19.738l-16.488-5.36z"/><path stroke="#fff" stroke-linejoin="round" stroke-linecap="butt" d="M687.255 209.235l16.44 5.343v19.738l-16.488-5.36z"/><path fill="#444" fill-opacity=".642" d="M671.946 215.835l16.44 5.343v19.738l-16.488-5.36z"/><path stroke="#fff" stroke-linejoin="round" stroke-linecap="butt" d="M671.946 215.835l16.44 5.343v19.738l-16.488-5.36z"/><path fill="#444" fill-opacity=".642" d="M688.385 221.116l15.31-6.6v19.8l-15.31 6.6z"/><path stroke="#fff" stroke-linejoin="round" stroke-linecap="butt" d="M688.385 221.116l15.31-6.6v19.8l-15.31 6.6z"/><path fill="#444" fill-opacity=".642" d="M671.9 215.836l15.308-6.6 16.486 5.28-15.31 6.6z"/><path stroke="#fff" stroke-linejoin="round" stroke-linecap="butt" d="M671.9 215.836l15.308-6.6 16.486 5.28-15.31 6.6z"/><path fill="#444" fill-opacity=".642" d="M769.906 196.528l15.31-6.602 16.49 5.282-15.31 6.6z"/><path stroke="#fff" stroke-linejoin="round" stroke-linecap="butt" d="M769.906 196.528l15.31-6.602 16.49 5.282-15.31 6.6z"/><path fill="#444" fill-opacity=".642" d="M769.906 176.722l15.31-6.6v19.804l-15.31 6.602z"/><path stroke="#fff" stroke-linejoin="round" stroke-linecap="butt" d="M769.906 176.722l15.31-6.6v19.804l-15.31 6.602z"/><path fill="#444" fill-opacity=".642" d="M785.264 170.12l16.442 5.345v19.743l-16.49-5.36z"/><path stroke="#fff" stroke-linejoin="round" stroke-linecap="butt" d="M785.264 170.12l16.442 5.345v19.743l-16.49-5.36z"/><path fill="#000" fill-opacity=".642" d="M769.953 176.72l16.442 5.346v19.743l-16.49-5.36z"/><path stroke="#fff" stroke-linejoin="round" stroke-linecap="butt" d="M769.953 176.72l16.442 5.346v19.743l-16.49-5.36z"/><path fill="#444" fill-opacity=".642" d="M786.395 182.004l15.31-6.602v19.806l-15.31 6.6z"/><path stroke="#fff" stroke-linejoin="round" stroke-linecap="butt" d="M786.395 182.004l15.31-6.602v19.806l-15.31 6.6z"/><path fill="#444" fill-opacity=".642" d="M769.906 176.722l15.31-6.6 16.49 5.28-15.31 6.602z"/><path stroke="#fff" stroke-linejoin="round" stroke-linecap="butt" d="M769.906 176.722l15.31-6.6 16.49 5.28-15.31 6.602z"/><path fill="#444" fill-opacity=".642" d="M789.418 153.964l15.31-6.602 16.49 5.28-15.312 6.603z"/><path stroke="#fff" stroke-linejoin="round" stroke-linecap="butt" d="M789.418 153.964l15.31-6.602 16.49 5.28-15.312 6.603z"/><path fill="#444" fill-opacity=".642" d="M789.418 134.158l15.31-6.602v19.806l-15.31 6.602z"/><path stroke="#fff" stroke-linejoin="round" stroke-linecap="butt" d="M789.418 134.158l15.31-6.602v19.806l-15.31 6.602z"/><path fill="#444" fill-opacity=".642" d="M804.775 127.555l16.442 5.345v19.743l-16.49-5.36z"/><path stroke="#fff" stroke-linejoin="round" stroke-linecap="butt" d="M804.775 127.555l16.442 5.345v19.743l-16.49-5.36z"/><path fill="#000" fill-opacity=".642" d="M789.464 134.157l16.442 5.345v19.743l-16.49-5.36z"/><path stroke="#fff" stroke-linejoin="round" stroke-linecap="butt" d="M789.464 134.157l16.442 5.345v19.743l-16.49-5.36z"/><path fill="#444" fill-opacity=".642" d="M805.906 139.44l15.31-6.602v19.805l-15.31 6.602z"/><path stroke="#fff" stroke-linejoin="round" stroke-linecap="butt" d="M805.906 139.44l15.31-6.602v19.805l-15.31 6.602z"/><path fill="#444" fill-opacity=".642" d="M789.418 134.158l15.31-6.602 16.49 5.282-15.312 6.602z"/><path stroke="#fff" stroke-linejoin="round" stroke-linecap="butt" d="M789.418 134.158l15.31-6.602 16.49 5.282-15.312 6.602z"/><path fill="#444" fill-opacity=".642" d="M769.906 146.51l15.31-6.603 16.49 5.282-15.31 6.6z"/><path stroke="#fff" stroke-linejoin="round" stroke-linecap="butt" d="M769.906 146.51l15.31-6.603 16.49 5.282-15.31 6.6z"/><path fill="#444" fill-opacity=".642" d="M769.906 126.704l15.31-6.602v19.805l-15.31 6.602z"/><path stroke="#fff" stroke-linejoin="round" stroke-linecap="butt" d="M769.906 126.704l15.31-6.602v19.805l-15.31 6.602z"/><path fill="#444" fill-opacity=".642" d="M785.264 120.1l16.442 5.346v19.743l-16.49-5.37z"/><path stroke="#fff" stroke-linejoin="round" stroke-linecap="butt" d="M785.264 120.1l16.442 5.346v19.743l-16.49-5.37z"/><path fill="#444" fill-opacity=".642" d="M769.953 126.703l16.442 5.345v19.743l-16.49-5.36z"/><path stroke="#fff" stroke-linejoin="round" stroke-linecap="butt" d="M769.953 126.703l16.442 5.345v19.743l-16.49-5.36z"/><path fill="#444" fill-opacity=".642" d="M786.395 131.985l15.31-6.602v19.806l-15.31 6.6z"/><path stroke="#fff" stroke-linejoin="round" stroke-linecap="butt" d="M786.395 131.985l15.31-6.602v19.806l-15.31 6.6z"/><path fill="#444" fill-opacity=".642" d="M769.906 126.704l15.31-6.602 16.49 5.28-15.31 6.603z"/><path stroke="#fff" stroke-linejoin="round" stroke-linecap="butt" d="M769.906 126.704l15.31-6.602 16.49 5.28-15.31 6.603z"/><path fill="#444" fill-opacity=".642" d="M750.402 192.98l15.31-6.6 16.49 5.28-15.31 6.603z"/><path stroke="#fff" stroke-linejoin="round" stroke-linecap="butt" d="M750.402 192.98l15.31-6.6 16.49 5.28-15.31 6.603z"/><path fill="#444" fill-opacity=".642" d="M750.402 173.176l15.31-6.602v19.805l-15.31 6.6z"/><path stroke="#fff" stroke-linejoin="round" stroke-linecap="butt" d="M750.402 173.176l15.31-6.602v19.805l-15.31 6.6z"/><path fill="#444" fill-opacity=".642" d="M765.76 166.573l16.442 5.345v19.743l-16.49-5.36z"/><path stroke="#fff" stroke-linejoin="round" stroke-linecap="butt" d="M765.76 166.573l16.442 5.345v19.743l-16.49-5.36z"/><path fill="#444" fill-opacity=".642" d="M750.45 173.175l16.44 5.345v19.743l-16.49-5.36z"/><path stroke="#fff" stroke-linejoin="round" stroke-linecap="butt" d="M750.45 173.175l16.44 5.345v19.743l-16.49-5.36z"/><path fill="#444" fill-opacity=".642" d="M766.89 178.457l15.312-6.602v19.806l-15.31 6.61z"/><path stroke="#fff" stroke-linejoin="round" stroke-linecap="butt" d="M766.89 178.457l15.312-6.602v19.806l-15.31 6.61z"/><path fill="#000" fill-opacity=".642" d="M750.402 173.176l15.31-6.602 16.49 5.28-15.31 6.603z"/><path stroke="#fff" stroke-linejoin="round" stroke-linecap="butt" d="M750.402 173.176l15.31-6.602 16.49 5.28-15.31 6.603z"/><path fill="#444" fill-opacity=".642" d="M750.402 168.153l15.31-6.602 16.49 5.29-15.31 6.6z"/><path stroke="#fff" stroke-linejoin="round" stroke-linecap="butt" d="M750.402 168.153l15.31-6.602 16.49 5.29-15.31 6.6z"/><path fill="#444" fill-opacity=".642" d="M750.402 148.347l15.31-6.6v19.804l-15.31 6.61z"/><path stroke="#fff" stroke-linejoin="round" stroke-linecap="butt" d="M750.402 148.347l15.31-6.6v19.804l-15.31 6.61z"/><path fill="#444" fill-opacity=".642" d="M765.76 141.745l16.442 5.345v19.743l-16.49-5.36z"/><path stroke="#fff" stroke-linejoin="round" stroke-linecap="butt" d="M765.76 141.745l16.442 5.345v19.743l-16.49-5.36z"/><path fill="#444" fill-opacity=".642" d="M750.45 148.346l16.44 5.346v19.742l-16.49-5.36z"/><path stroke="#fff" stroke-linejoin="round" stroke-linecap="butt" d="M750.45 148.346l16.44 5.346v19.742l-16.49-5.36z"/><path fill="#444" fill-opacity=".642" d="M766.89 153.63l15.312-6.603v19.806l-15.31 6.6z"/><path stroke="#fff" stroke-linejoin="round" stroke-linecap="butt" d="M766.89 153.63l15.312-6.603v19.806l-15.31 6.6z"/><path fill="#444" fill-opacity=".642" d="M750.402 148.347l15.31-6.6 16.49 5.28-15.31 6.602z"/><path stroke="#fff" stroke-linejoin="round" stroke-linecap="butt" d="M750.402 148.347l15.31-6.6 16.49 5.28-15.31 6.602z"/><path fill="#fff" fill-opacity=".808" d="M323.234 261.75l22.547-8.672 24.29 6.938-22.542 8.672z"/><path stroke="#000" stroke-linejoin="round" stroke-linecap="butt" d="M323.234 261.75l22.547-8.672 24.29 6.938-22.542 8.672z"/><path fill="#fff" fill-opacity=".808" d="M323.234 235.734l22.547-8.672v26.016l-22.54 8.672z"/><path stroke="#000" stroke-linejoin="round" stroke-linecap="butt" d="M323.234 235.734l22.547-8.672v26.016l-22.54 8.672z"/><path fill="#fff" fill-opacity=".808" d="M345.85 227.06l24.213 7.022v25.934l-24.282-7.042z"/><path stroke="#000" stroke-linejoin="round" stroke-linecap="butt" d="M345.85 227.06l24.213 7.022v25.934l-24.282-7.042z"/><path fill="#fff" fill-opacity=".808" d="M323.303 235.733l24.213 7.02v25.935l-24.283-7.042z"/><path stroke="#000" stroke-linejoin="round" stroke-linecap="butt" d="M323.303 235.733l24.213 7.02v25.935l-24.283-7.042z"/><path fill="#fff" fill-opacity=".808" d="M347.516 242.672L370.063 234v26.016l-22.547 8.672z"/><path stroke="#000" stroke-linejoin="round" stroke-linecap="butt" d="M347.516 242.672L370.063 234v26.016l-22.547 8.672z"/><path fill="#fff" fill-opacity=".808" d="M323.234 235.734l22.547-8.672L370.07 234l-22.547 8.672z"/><path stroke="#000" stroke-linejoin="round" stroke-linecap="butt" d="M323.234 235.734l22.547-8.672L370.07 234l-22.547 8.672z"/><path fill="#e06666" fill-opacity=".8" d="M850.744 432.9l29.96-12.92 32.267 10.336-29.96 12.92z"/><path stroke="#fff" stroke-linejoin="round" stroke-linecap="butt" d="M850.744 432.9l29.96-12.92 32.267 10.336-29.96 12.92z"/><path fill="#e06666" fill-opacity=".8" d="M850.744 394.14l29.96-12.92v38.76l-29.96 12.92z"/><path stroke="#fff" stroke-linejoin="round" stroke-linecap="butt" d="M850.744 394.14l29.96-12.92v38.76l-29.96 12.92z"/><path fill="#e06666" fill-opacity=".8" d="M880.797 381.217l32.174 10.46v38.64l-32.26-10.492z"/><path stroke="#fff" stroke-linejoin="round" stroke-linecap="butt" d="M880.797 381.217l32.174 10.46v38.64l-32.26-10.492z"/><path fill="#b95454" fill-opacity=".8" d="M850.836 394.137l32.174 10.46v38.64l-32.267-10.492z"/><path stroke="#fff" stroke-linejoin="round" stroke-linecap="butt" d="M850.836 394.137l32.174 10.46v38.64l-32.267-10.492z"/><path fill="#e06666" fill-opacity=".8" d="M883.01 404.475l29.96-12.92v38.76l-29.96 12.92z"/><path stroke="#fff" stroke-linejoin="round" stroke-linecap="butt" d="M883.01 404.475l29.96-12.92v38.76l-29.96 12.92z"/><path fill="#e06666" fill-opacity=".8" d="M850.744 394.14l29.96-12.92 32.267 10.335-29.96 12.92z"/><path stroke="#fff" stroke-linejoin="round" stroke-linecap="butt" d="M850.744 394.14l29.96-12.92 32.267 10.335-29.96 12.92z"/><path fill="#e06666" fill-opacity=".8" d="M812.57 467.604l29.96-12.92 32.267 10.336-29.96 12.92z"/><path stroke="#fff" stroke-linejoin="round" stroke-linecap="butt" d="M812.57 467.604l29.96-12.92 32.267 10.336-29.96 12.92z"/><path fill="#e06666" fill-opacity=".8" d="M812.57 428.843l29.96-12.92v38.76l-29.96 12.92z"/><path stroke="#fff" stroke-linejoin="round" stroke-linecap="butt" d="M812.57 428.843l29.96-12.92v38.76l-29.96 12.92z"/><path fill="#e06666" fill-opacity=".8" d="M842.623 415.92l32.174 10.462v38.638l-32.267-10.49z"/><path stroke="#fff" stroke-linejoin="round" stroke-linecap="butt" d="M842.623 415.92l32.174 10.462v38.638l-32.267-10.49z"/><path fill="#b95454" fill-opacity=".8" d="M812.662 428.84l32.174 10.462v38.638l-32.267-10.49z"/><path stroke="#fff" stroke-linejoin="round" stroke-linecap="butt" d="M812.662 428.84l32.174 10.462v38.638l-32.267-10.49z"/><path fill="#e06666" fill-opacity=".8" d="M844.836 439.18l29.96-12.92v38.76l-29.96 12.92z"/><path stroke="#fff" stroke-linejoin="round" stroke-linecap="butt" d="M844.836 439.18l29.96-12.92v38.76l-29.96 12.92z"/><path fill="#e06666" fill-opacity=".8" d="M812.57 428.843l29.96-12.92 32.267 10.336-29.96 12.92z"/><path stroke="#fff" stroke-linejoin="round" stroke-linecap="butt" d="M812.57 428.843l29.96-12.92 32.267 10.336-29.96 12.92z"/><path fill="#e06666" fill-opacity=".8" d="M857.685 232.065l29.96-12.92 32.267 10.336-29.96 12.92z"/><path stroke="#fff" stroke-linejoin="round" stroke-linecap="butt" d="M857.685 232.065l29.96-12.92 32.267 10.336-29.96 12.92z"/><path fill="#e06666" fill-opacity=".8" d="M857.685 193.304l29.96-12.92v38.76l-29.96 12.92z"/><path stroke="#fff" stroke-linejoin="round" stroke-linecap="butt" d="M857.685 193.304l29.96-12.92v38.76l-29.96 12.92z"/><path fill="#e06666" fill-opacity=".8" d="M887.738 180.38l32.174 10.462v38.64l-32.267-10.493z"/><path stroke="#fff" stroke-linejoin="round" stroke-linecap="butt" d="M887.738 180.38l32.174 10.462v38.64l-32.267-10.493z"/><path fill="#b95454" fill-opacity=".8" d="M857.777 193.302l32.174 10.46v38.64l-32.26-10.492z"/><path stroke="#fff" stroke-linejoin="round" stroke-linecap="butt" d="M857.777 193.302l32.174 10.46v38.64l-32.26-10.492z"/><path fill="#e06666" fill-opacity=".8" d="M889.95 203.64l29.962-12.92v38.76l-29.96 12.92z"/><path stroke="#fff" stroke-linejoin="round" stroke-linecap="butt" d="M889.95 203.64l29.962-12.92v38.76l-29.96 12.92z"/><path fill="#e06666" fill-opacity=".8" d="M857.685 193.304l29.96-12.92 32.267 10.336-29.96 12.92z"/><path stroke="#fff" stroke-linejoin="round" stroke-linecap="butt" d="M857.685 193.304l29.96-12.92 32.267 10.336-29.96 12.92z"/><path fill="#e06666" fill-opacity=".8" d="M812.4 224.11l29.96-12.922 32.265 10.337-29.96 12.92z"/><path stroke="#fff" stroke-linejoin="round" stroke-linecap="butt" d="M812.4 224.11l29.96-12.922 32.265 10.337-29.96 12.92z"/><path fill="#e06666" fill-opacity=".8" d="M812.4 185.348l29.96-12.92v38.76l-29.96 12.92z"/><path stroke="#fff" stroke-linejoin="round" stroke-linecap="butt" d="M812.4 185.348l29.96-12.92v38.76l-29.96 12.92z"/><path fill="#e06666" fill-opacity=".8" d="M842.45 172.425l32.175 10.46v38.64l-32.267-10.492z"/><path stroke="#fff" stroke-linejoin="round" stroke-linecap="butt" d="M842.45 172.425l32.175 10.46v38.64l-32.267-10.492z"/><path fill="#b95454" fill-opacity=".8" d="M812.49 185.346l32.174 10.46v38.64l-32.267-10.492z"/><path stroke="#fff" stroke-linejoin="round" stroke-linecap="butt" d="M812.49 185.346l32.174 10.46v38.64l-32.267-10.492z"/><path fill="#e06666" fill-opacity=".8" d="M844.664 195.684l29.96-12.92v38.76l-29.96 12.92z"/><path stroke="#fff" stroke-linejoin="round" stroke-linecap="butt" d="M844.664 195.684l29.96-12.92v38.76l-29.96 12.92z"/><path fill="#e06666" fill-opacity=".8" d="M812.4 185.348l29.96-12.92 32.265 10.336-29.96 12.92z"/><path stroke="#fff" stroke-linejoin="round" stroke-linecap="butt" d="M812.4 185.348l29.96-12.92 32.265 10.336-29.96 12.92z"/><path fill="#e06666" fill-opacity=".8" d="M770.918 454.173l29.96-12.92 32.267 10.336-29.96 12.92z"/><path stroke="#fff" stroke-linejoin="round" stroke-linecap="butt" d="M770.918 454.173l29.96-12.92 32.267 10.336-29.96 12.92z"/><path fill="#e06666" fill-opacity=".8" d="M770.918 415.412l29.96-12.92v38.76l-29.96 12.92z"/><path stroke="#fff" stroke-linejoin="round" stroke-linecap="butt" d="M770.918 415.412l29.96-12.92v38.76l-29.96 12.92z"/><path fill="#e06666" fill-opacity=".8" d="M800.97 402.49l32.175 10.46v38.64l-32.267-10.492z"/><path stroke="#fff" stroke-linejoin="round" stroke-linecap="butt" d="M800.97 402.49l32.175 10.46v38.64l-32.267-10.492z"/><path fill="#e06666" fill-opacity=".8" d="M771.01 415.41l32.174 10.46v38.64l-32.267-10.492z"/><path stroke="#fff" stroke-linejoin="round" stroke-linecap="butt" d="M771.01 415.41l32.174 10.46v38.64l-32.267-10.492z"/><path fill="#e06666" fill-opacity=".8" d="M803.184 425.75l29.96-12.922v38.76l-29.96 12.922z"/><path stroke="#fff" stroke-linejoin="round" stroke-linecap="butt" d="M803.184 425.75l29.96-12.922v38.76l-29.96 12.922z"/><path fill="#b95454" fill-opacity=".8" d="M770.918 415.412l29.96-12.92 32.267 10.336-29.96 12.92z"/><path stroke="#fff" stroke-linejoin="round" stroke-linecap="butt" d="M770.918 415.412l29.96-12.92 32.267 10.336-29.96 12.92z"/><path fill="#e06666" fill-opacity=".8" d="M760.514 409.055l29.96-12.92 32.267 10.336-29.96 12.92z"/><path stroke="#fff" stroke-linejoin="round" stroke-linecap="butt" d="M760.514 409.055l29.96-12.92 32.267 10.336-29.96 12.92z"/><path fill="#e06666" fill-opacity=".8" d="M760.514 370.294l29.96-12.92v38.76l-29.96 12.92z"/><path stroke="#fff" stroke-linejoin="round" stroke-linecap="butt" d="M760.514 370.294l29.96-12.92v38.76l-29.96 12.92z"/><path fill="#e06666" fill-opacity=".8" d="M790.567 357.372l32.174 10.46v38.64l-32.26-10.492z"/><path stroke="#fff" stroke-linejoin="round" stroke-linecap="butt" d="M790.567 357.372l32.174 10.46v38.64l-32.26-10.492z"/><path fill="#e06666" fill-opacity=".8" d="M760.606 370.292l32.174 10.46v38.64L760.513 408.9z"/><path stroke="#fff" stroke-linejoin="round" stroke-linecap="butt" d="M760.606 370.292l32.174 10.46v38.64L760.513 408.9z"/><path fill="#e06666" fill-opacity=".8" d="M792.78 380.63l29.96-12.92v38.76l-29.96 12.92z"/><path stroke="#fff" stroke-linejoin="round" stroke-linecap="butt" d="M792.78 380.63l29.96-12.92v38.76l-29.96 12.92z"/><path fill="#b95454" fill-opacity=".8" d="M760.514 370.294l29.96-12.92 32.267 10.336-29.96 12.92z"/><path stroke="#fff" stroke-linejoin="round" stroke-linecap="butt" d="M760.514 370.294l29.96-12.92 32.267 10.336-29.96 12.92z"/><path fill="#e06666" fill-opacity=".8" d="M760.514 360.47l29.96-12.92 32.267 10.335-29.96 12.92z"/><path stroke="#fff" stroke-linejoin="round" stroke-linecap="butt" d="M760.514 360.47l29.96-12.92 32.267 10.335-29.96 12.92z"/><path fill="#e06666" fill-opacity=".8" d="M760.514 321.708l29.96-12.92v38.76l-29.96 12.92z"/><path stroke="#fff" stroke-linejoin="round" stroke-linecap="butt" d="M760.514 321.708l29.96-12.92v38.76l-29.96 12.92z"/><path fill="#e06666" fill-opacity=".8" d="M790.567 308.786l32.174 10.46v38.64l-32.26-10.492z"/><path stroke="#fff" stroke-linejoin="round" stroke-linecap="butt" d="M790.567 308.786l32.174 10.46v38.64l-32.26-10.492z"/><path fill="#e06666" fill-opacity=".8" d="M760.606 321.706l32.174 10.46v38.64l-32.267-10.492z"/><path stroke="#fff" stroke-linejoin="round" stroke-linecap="butt" d="M760.606 321.706l32.174 10.46v38.64l-32.267-10.492z"/><path fill="#e06666" fill-opacity=".8" d="M792.78 332.045l29.96-12.92v38.76l-29.96 12.92z"/><path stroke="#fff" stroke-linejoin="round" stroke-linecap="butt" d="M792.78 332.045l29.96-12.92v38.76l-29.96 12.92z"/><path fill="#b95454" fill-opacity=".8" d="M760.514 321.708l29.96-12.92 32.267 10.336-29.96 12.92z"/><path stroke="#fff" stroke-linejoin="round" stroke-linecap="butt" d="M760.514 321.708l29.96-12.92 32.267 10.336-29.96 12.92z"/><path fill="#e06666" fill-opacity=".8" d="M760.514 311.884l29.96-12.92L822.74 309.3l-29.96 12.92z"/><path stroke="#fff" stroke-linejoin="round" stroke-linecap="butt" d="M760.514 311.884l29.96-12.92L822.74 309.3l-29.96 12.92z"/><path fill="#e06666" fill-opacity=".8" d="M760.514 273.123l29.96-12.92v38.76l-29.96 12.92z"/><path stroke="#fff" stroke-linejoin="round" stroke-linecap="butt" d="M760.514 273.123l29.96-12.92v38.76l-29.96 12.92z"/><path fill="#e06666" fill-opacity=".8" d="M790.567 260.2l32.174 10.46v38.64l-32.26-10.49z"/><path stroke="#fff" stroke-linejoin="round" stroke-linecap="butt" d="M790.567 260.2l32.174 10.46v38.64l-32.26-10.49z"/><path fill="#e06666" fill-opacity=".8" d="M760.606 273.12l32.174 10.462v38.638l-32.267-10.49z"/><path stroke="#fff" stroke-linejoin="round" stroke-linecap="butt" d="M760.606 273.12l32.174 10.462v38.638l-32.267-10.49z"/><path fill="#e06666" fill-opacity=".8" d="M792.78 283.46l29.96-12.92v38.76l-29.96 12.92z"/><path stroke="#fff" stroke-linejoin="round" stroke-linecap="butt" d="M792.78 283.46l29.96-12.92v38.76l-29.96 12.92z"/><path fill="#b95454" fill-opacity=".8" d="M760.514 273.123l29.96-12.92 32.267 10.336-29.96 12.92z"/><path stroke="#fff" stroke-linejoin="round" stroke-linecap="butt" d="M760.514 273.123l29.96-12.92 32.267 10.336-29.96 12.92z"/><path fill="#e06666" fill-opacity=".8" d="M770.934 259.14l29.96-12.92 32.266 10.335-29.96 12.92z"/><path stroke="#fff" stroke-linejoin="round" stroke-linecap="butt" d="M770.934 259.14l29.96-12.92 32.266 10.335-29.96 12.92z"/><path fill="#e06666" fill-opacity=".8" d="M770.934 220.378l29.96-12.92v38.76l-29.96 12.92z"/><path stroke="#fff" stroke-linejoin="round" stroke-linecap="butt" d="M770.934 220.378l29.96-12.92v38.76l-29.96 12.92z"/><path fill="#e06666" fill-opacity=".8" d="M800.986 207.456l32.174 10.46v38.64l-32.267-10.492z"/><path stroke="#fff" stroke-linejoin="round" stroke-linecap="butt" d="M800.986 207.456l32.174 10.46v38.64l-32.267-10.492z"/><path fill="#e06666" fill-opacity=".8" d="M771.025 220.376l32.174 10.46v38.64l-32.27-10.492z"/><path stroke="#fff" stroke-linejoin="round" stroke-linecap="butt" d="M771.025 220.376l32.174 10.46v38.64l-32.27-10.492z"/><path fill="#e06666" fill-opacity=".8" d="M803.2 230.714l29.96-12.92v38.76l-29.96 12.92z"/><path stroke="#fff" stroke-linejoin="round" stroke-linecap="butt" d="M803.2 230.714l29.96-12.92v38.76l-29.96 12.92z"/><path fill="#e06666" fill-opacity=".8" d="M770.934 220.378l29.96-12.92 32.266 10.336-29.96 12.92z"/><path stroke="#fff" stroke-linejoin="round" stroke-linecap="butt" d="M770.934 220.378l29.96-12.92 32.266 10.336-29.96 12.92z"/><path fill="#6d9eeb" fill-opacity=".8" d="M661.674 522.37l42.026-18.175 45.26 14.54-42.027 18.177z"/><path stroke="#fff" stroke-linejoin="round" stroke-linecap="butt" d="M661.674 522.37l42.026-18.175 45.26 14.54-42.027 18.177z"/><path fill="#6d9eeb" fill-opacity=".8" d="M661.674 467.843l42.026-18.176v54.528l-42.026 18.176z"/><path stroke="#fff" stroke-linejoin="round" stroke-linecap="butt" d="M661.674 467.843l42.026-18.176v54.528l-42.026 18.176z"/><path fill="#6d9eeb" fill-opacity=".8" d="M703.83 449.664l45.13 14.716v54.356l-45.262-14.76z"/><path stroke="#fff" stroke-linejoin="round" stroke-linecap="butt" d="M703.83 449.664l45.13 14.716v54.356l-45.262-14.76z"/><path fill="#5e88cd" fill-opacity=".8" d="M661.802 467.84l45.13 14.716v54.356l-45.26-14.76z"/><path stroke="#fff" stroke-linejoin="round" stroke-linecap="butt" d="M661.802 467.84l45.13 14.716v54.356l-45.26-14.76z"/><path fill="#6d9eeb" fill-opacity=".8" d="M706.933 482.384l42.027-18.176v54.528l-42.027 18.176z"/><path stroke="#fff" stroke-linejoin="round" stroke-linecap="butt" d="M706.933 482.384l42.027-18.176v54.528l-42.027 18.176z"/><path fill="#5e88cd" fill-opacity=".8" d="M661.674 467.843l42.026-18.176 45.26 14.54-42.027 18.177z"/><path stroke="#fff" stroke-linejoin="round" stroke-linecap="butt" d="M661.674 467.843l42.026-18.176 45.26 14.54-42.027 18.177z"/><path fill="#6d9eeb" fill-opacity=".8" d="M603.28 546.44l42.026-18.177 45.26 14.54-42.028 18.177z"/><path stroke="#fff" stroke-linejoin="round" stroke-linecap="butt" d="M603.28 546.44l42.026-18.177 45.26 14.54-42.028 18.177z"/><path fill="#6d9eeb" fill-opacity=".8" d="M603.28 491.91l42.026-18.175v54.528L603.28 546.44z"/><path stroke="#fff" stroke-linejoin="round" stroke-linecap="butt" d="M603.28 491.91l42.026-18.175v54.528L603.28 546.44z"/><path fill="#6d9eeb" fill-opacity=".8" d="M645.434 473.732l45.13 14.716v54.356l-45.26-14.76z"/><path stroke="#fff" stroke-linejoin="round" stroke-linecap="butt" d="M645.434 473.732l45.13 14.716v54.356l-45.26-14.76z"/><path fill="#5e88cd" fill-opacity=".8" d="M603.408 491.908l45.13 14.716v54.356l-45.26-14.76z"/><path stroke="#fff" stroke-linejoin="round" stroke-linecap="butt" d="M603.408 491.908l45.13 14.716v54.356l-45.26-14.76z"/><path fill="#6d9eeb" fill-opacity=".8" d="M648.538 506.452l42.027-18.176v54.528l-42.027 18.176z"/><path stroke="#fff" stroke-linejoin="round" stroke-linecap="butt" d="M648.538 506.452l42.027-18.176v54.528l-42.027 18.176z"/><path fill="#6d9eeb" fill-opacity=".8" d="M603.28 491.91l42.026-18.175 45.26 14.54-42.028 18.177z"/><path stroke="#fff" stroke-linejoin="round" stroke-linecap="butt" d="M603.28 491.91l42.026-18.175 45.26 14.54-42.028 18.177z"/><path fill="#6d9eeb" fill-opacity=".8" d="M544.527 571.997l42.026-18.176 45.26 14.54-42.027 18.18z"/><path stroke="#fff" stroke-linejoin="round" stroke-linecap="butt" d="M544.527 571.997l42.026-18.176 45.26 14.54-42.027 18.18z"/><path fill="#6d9eeb" fill-opacity=".8" d="M544.527 517.47l42.026-18.177v54.528L544.527 572z"/><path stroke="#fff" stroke-linejoin="round" stroke-linecap="butt" d="M544.527 517.47l42.026-18.177v54.528L544.527 572z"/><path fill="#6d9eeb" fill-opacity=".8" d="M586.682 499.29l45.13 14.716v54.355l-45.26-14.75z"/><path stroke="#fff" stroke-linejoin="round" stroke-linecap="butt" d="M586.682 499.29l45.13 14.716v54.355l-45.26-14.75z"/><path fill="#6d9eeb" fill-opacity=".8" d="M544.655 517.466l45.13 14.716v54.355l-45.26-14.758z"/><path stroke="#fff" stroke-linejoin="round" stroke-linecap="butt" d="M544.655 517.466l45.13 14.716v54.355l-45.26-14.758z"/><path fill="#6d9eeb" fill-opacity=".8" d="M589.786 532.01l42.027-18.177v54.528l-42.027 18.18z"/><path stroke="#fff" stroke-linejoin="round" stroke-linecap="butt" d="M589.786 532.01l42.027-18.177v54.528l-42.027 18.18z"/><path fill="#5e88cd" fill-opacity=".8" d="M544.527 517.47l42.026-18.177 45.26 14.54-42.027 18.176z"/><path stroke="#fff" stroke-linejoin="round" stroke-linecap="butt" d="M544.527 517.47l42.026-18.177 45.26 14.54-42.027 18.176z"/><path fill="#6d9eeb" fill-opacity=".8" d="M661.844 452.246l42.027-18.176 45.26 14.54-42.02 18.177z"/><path stroke="#fff" stroke-linejoin="round" stroke-linecap="butt" d="M661.844 452.246l42.027-18.176 45.26 14.54-42.02 18.177z"/><path fill="#6d9eeb" fill-opacity=".8" d="M661.844 397.718l42.027-18.176v54.528l-42.02 18.176z"/><path stroke="#fff" stroke-linejoin="round" stroke-linecap="butt" d="M661.844 397.718l42.027-18.176v54.528l-42.02 18.176z"/><path fill="#6d9eeb" fill-opacity=".8" d="M704 379.54l45.13 14.715v54.356l-45.26-14.75z"/><path stroke="#fff" stroke-linejoin="round" stroke-linecap="butt" d="M704 379.54l45.13 14.715v54.356l-45.26-14.75z"/><path fill="#6d9eeb" fill-opacity=".8" d="M661.973 397.715l45.13 14.716v54.36l-45.26-14.76z"/><path stroke="#fff" stroke-linejoin="round" stroke-linecap="butt" d="M661.973 397.715l45.13 14.716v54.36l-45.26-14.76z"/><path fill="#6d9eeb" fill-opacity=".8" d="M707.103 412.26l42.027-18.177v54.528l-42.027 18.18z"/><path stroke="#fff" stroke-linejoin="round" stroke-linecap="butt" d="M707.103 412.26l42.027-18.177v54.528l-42.027 18.18z"/><path fill="#5e88cd" fill-opacity=".8" d="M661.844 397.718l42.027-18.176 45.26 14.54-42.02 18.177z"/><path stroke="#fff" stroke-linejoin="round" stroke-linecap="butt" d="M661.844 397.718l42.027-18.176 45.26 14.54-42.02 18.177z"/><path fill="#6d9eeb" fill-opacity=".8" d="M661.844 383.894l42.027-18.176 45.26 14.54-42.02 18.177z"/><path stroke="#fff" stroke-linejoin="round" stroke-linecap="butt" d="M661.844 383.894l42.027-18.176 45.26 14.54-42.02 18.177z"/><path fill="#6d9eeb" fill-opacity=".8" d="M661.844 329.366l42.027-18.176v54.528l-42.02 18.176z"/><path stroke="#fff" stroke-linejoin="round" stroke-linecap="butt" d="M661.844 329.366l42.027-18.176v54.528l-42.02 18.176z"/><path fill="#6d9eeb" fill-opacity=".8" d="M704 311.187l45.13 14.716v54.356l-45.26-14.76z"/><path stroke="#fff" stroke-linejoin="round" stroke-linecap="butt" d="M704 311.187l45.13 14.716v54.356l-45.26-14.76z"/><path fill="#6d9eeb" fill-opacity=".8" d="M661.973 329.363l45.13 14.716v54.35l-45.26-14.76z"/><path stroke="#fff" stroke-linejoin="round" stroke-linecap="butt" d="M661.973 329.363l45.13 14.716v54.35l-45.26-14.76z"/><path fill="#6d9eeb" fill-opacity=".8" d="M707.103 343.907l42.027-18.176v54.53l-42.027 18.18z"/><path stroke="#fff" stroke-linejoin="round" stroke-linecap="butt" d="M707.103 343.907l42.027-18.176v54.53l-42.027 18.18z"/><path fill="#5e88cd" fill-opacity=".8" d="M661.844 329.366l42.027-18.176 45.26 14.54-42.02 18.177z"/><path stroke="#fff" stroke-linejoin="round" stroke-linecap="butt" d="M661.844 329.366l42.027-18.176 45.26 14.54-42.02 18.177z"/><path fill="#6d9eeb" fill-opacity=".8" d="M661.844 315.542l42.027-18.176 45.26 14.54-42.02 18.177z"/><path stroke="#fff" stroke-linejoin="round" stroke-linecap="butt" d="M661.844 315.542l42.027-18.176 45.26 14.54-42.02 18.177z"/><path fill="#6d9eeb" fill-opacity=".8" d="M661.844 261.014l42.027-18.176v54.528l-42.02 18.176z"/><path stroke="#fff" stroke-linejoin="round" stroke-linecap="butt" d="M661.844 261.014l42.027-18.176v54.528l-42.02 18.176z"/><path fill="#6d9eeb" fill-opacity=".8" d="M704 242.835l45.13 14.716v54.36l-45.26-14.76z"/><path stroke="#fff" stroke-linejoin="round" stroke-linecap="butt" d="M704 242.835l45.13 14.716v54.36l-45.26-14.76z"/><path fill="#6d9eeb" fill-opacity=".8" d="M661.973 261.01l45.13 14.717v54.356l-45.26-14.76z"/><path stroke="#fff" stroke-linejoin="round" stroke-linecap="butt" d="M661.973 261.01l45.13 14.717v54.356l-45.26-14.76z"/><path fill="#6d9eeb" fill-opacity=".8" d="M707.103 275.555l42.027-18.176v54.52l-42.027 18.17z"/><path stroke="#fff" stroke-linejoin="round" stroke-linecap="butt" d="M707.103 275.555l42.027-18.176v54.52l-42.027 18.17z"/><path fill="#6d9eeb" fill-opacity=".8" d="M661.844 261.014l42.027-18.176 45.26 14.54-42.02 18.177z"/><path stroke="#fff" stroke-linejoin="round" stroke-linecap="butt" d="M661.844 261.014l42.027-18.176 45.26 14.54-42.02 18.177z"/><path fill="#6d9eeb" fill-opacity=".8" d="M544.528 500.246l42.026-18.176 45.26 14.54-42.027 18.177z"/><path stroke="#fff" stroke-linejoin="round" stroke-linecap="butt" d="M544.528 500.246l42.026-18.176 45.26 14.54-42.027 18.177z"/><path fill="#6d9eeb" fill-opacity=".8" d="M544.528 445.718l42.026-18.176v54.528l-42.026 18.176z"/><path stroke="#fff" stroke-linejoin="round" stroke-linecap="butt" d="M544.528 445.718l42.026-18.176v54.528l-42.026 18.176z"/><path fill="#6d9eeb" fill-opacity=".8" d="M586.683 427.54l45.13 14.715v54.356l-45.26-14.75z"/><path stroke="#fff" stroke-linejoin="round" stroke-linecap="butt" d="M586.683 427.54l45.13 14.715v54.356l-45.26-14.75z"/><path fill="#6d9eeb" fill-opacity=".8" d="M544.656 445.715l45.13 14.716v54.36l-45.26-14.76z"/><path stroke="#fff" stroke-linejoin="round" stroke-linecap="butt" d="M544.656 445.715l45.13 14.716v54.36l-45.26-14.76z"/><path fill="#6d9eeb" fill-opacity=".8" d="M589.787 460.26l42.027-18.177v54.528l-42.027 18.18z"/><path stroke="#fff" stroke-linejoin="round" stroke-linecap="butt" d="M589.787 460.26l42.027-18.177v54.528l-42.027 18.18z"/><path fill="#5e88cd" fill-opacity=".8" d="M544.528 445.718l42.026-18.176 45.26 14.54-42.027 18.177z"/><path stroke="#fff" stroke-linejoin="round" stroke-linecap="butt" d="M544.528 445.718l42.026-18.176 45.26 14.54-42.027 18.177z"/><path fill="#6d9eeb" fill-opacity=".8" d="M544.528 431.894l42.026-18.176 45.26 14.54-42.027 18.177z"/><path stroke="#fff" stroke-linejoin="round" stroke-linecap="butt" d="M544.528 431.894l42.026-18.176 45.26 14.54-42.027 18.177z"/><path fill="#6d9eeb" fill-opacity=".8" d="M544.528 377.366l42.026-18.176v54.528l-42.026 18.176z"/><path stroke="#fff" stroke-linejoin="round" stroke-linecap="butt" d="M544.528 377.366l42.026-18.176v54.528l-42.026 18.176z"/><path fill="#6d9eeb" fill-opacity=".8" d="M586.683 359.187l45.13 14.716v54.356l-45.26-14.76z"/><path stroke="#fff" stroke-linejoin="round" stroke-linecap="butt" d="M586.683 359.187l45.13 14.716v54.356l-45.26-14.76z"/><path fill="#6d9eeb" fill-opacity=".8" d="M544.656 377.363l45.13 14.716v54.35l-45.26-14.76z"/><path stroke="#fff" stroke-linejoin="round" stroke-linecap="butt" d="M544.656 377.363l45.13 14.716v54.35l-45.26-14.76z"/><path fill="#6d9eeb" fill-opacity=".8" d="M589.787 391.907l42.027-18.176v54.53l-42.027 18.18z"/><path stroke="#fff" stroke-linejoin="round" stroke-linecap="butt" d="M589.787 391.907l42.027-18.176v54.53l-42.027 18.18z"/><path fill="#5e88cd" fill-opacity=".8" d="M544.528 377.366l42.026-18.176 45.26 14.54-42.027 18.177z"/><path stroke="#fff" stroke-linejoin="round" stroke-linecap="butt" d="M544.528 377.366l42.026-18.176 45.26 14.54-42.027 18.177z"/><path fill="#6d9eeb" fill-opacity=".8" d="M544.528 363.542l42.026-18.176 45.26 14.54-42.027 18.177z"/><path stroke="#fff" stroke-linejoin="round" stroke-linecap="butt" d="M544.528 363.542l42.026-18.176 45.26 14.54-42.027 18.177z"/><path fill="#6d9eeb" fill-opacity=".8" d="M544.528 309.014l42.026-18.176v54.528l-42.026 18.176z"/><path stroke="#fff" stroke-linejoin="round" stroke-linecap="butt" d="M544.528 309.014l42.026-18.176v54.528l-42.026 18.176z"/><path fill="#6d9eeb" fill-opacity=".8" d="M586.683 290.835l45.13 14.716v54.36l-45.26-14.76z"/><path stroke="#fff" stroke-linejoin="round" stroke-linecap="butt" d="M586.683 290.835l45.13 14.716v54.36l-45.26-14.76z"/><path fill="#6d9eeb" fill-opacity=".8" d="M544.656 309.01l45.13 14.717v54.356l-45.26-14.76z"/><path stroke="#fff" stroke-linejoin="round" stroke-linecap="butt" d="M544.656 309.01l45.13 14.717v54.356l-45.26-14.76z"/><path fill="#6d9eeb" fill-opacity=".8" d="M589.787 323.555l42.027-18.176v54.52l-42.027 18.17z"/><path stroke="#fff" stroke-linejoin="round" stroke-linecap="butt" d="M589.787 323.555l42.027-18.176v54.52l-42.027 18.17z"/><path fill="#6d9eeb" fill-opacity=".8" d="M544.528 309.014l42.026-18.176 45.26 14.54-42.027 18.177z"/><path stroke="#fff" stroke-linejoin="round" stroke-linecap="butt" d="M544.528 309.014l42.026-18.176 45.26 14.54-42.027 18.177z"/></g></svg>