<svg xmlns="http://www.w3.org/2000/svg" fill="none" stroke-miterlimit="10" viewBox="0 0 282.32 532.67" stroke-linecap="square">
  <clipPath id="a">
    <path d="M0 0h282.32v532.67H0V0z"/>
  </clipPath>
  <g clip-path="url(#a)">
    <path d="M0 0h282.32v532.67H0z"/>
    <path fill="#f5f5f5" fill-opacity=".92" fill-rule="evenodd" d="M6.78 452.85l54.97-23.77 59.2 19.02-54.97 23.76z"/>
    <path stroke="#af0ad9" d="M6.78 452.85l54.97-23.77 59.2 19.02-54.97 23.76z" stroke-linejoin="round" stroke-linecap="butt"/>
    <path fill="#f5f5f5" fill-opacity=".92" fill-rule="evenodd" d="M6.78 381.54l54.97-23.77v71.3l-54.97 23.8z"/>
    <path stroke="#af0ad9" d="M6.78 381.54l54.97-23.77v71.3l-54.97 23.8z" stroke-linejoin="round" stroke-linecap="butt"/>
    <path fill="#f5f5f5" fill-opacity=".92" fill-rule="evenodd" d="M61.92 357.77L120.95 377v71.1l-59.2-19.3z"/>
    <path stroke="#af0ad9" d="M61.92 357.77L120.95 377v71.1l-59.2-19.3z" stroke-linejoin="round" stroke-linecap="butt"/>
    <path fill="#f5f5f5" fill-opacity=".92" fill-rule="evenodd" d="M6.95 381.54l59.03 19.24v71.08l-59.2-19.3z"/>
    <path stroke="#af0ad9" d="M6.95 381.54l59.03 19.24v71.08l-59.2-19.3z" stroke-linejoin="round" stroke-linecap="butt"/>
    <path fill="#f5f5f5" fill-opacity=".92" fill-rule="evenodd" d="M65.98 400.56l54.97-23.77v71.3l-54.97 23.74z"/>
    <path stroke="#af0ad9" d="M65.98 400.56l54.97-23.77v71.3l-54.97 23.74z" stroke-linejoin="round" stroke-linecap="butt"/>
    <path fill="#f5f5f5" fill-opacity=".92" fill-rule="evenodd" d="M6.78 381.54l54.97-23.77 59.2 19.02-54.97 23.74z"/>
    <path stroke="#af0ad9" d="M6.78 381.54l54.97-23.77 59.2 19.02-54.97 23.74z" stroke-linejoin="round" stroke-linecap="butt"/>
    <path fill="#f5f5f5" fill-opacity=".92" fill-rule="evenodd" d="M81.64 478.92l54.97-23.77 59.2 19.02-54.94 23.77z"/>
    <path stroke="#af0ad9" d="M81.64 478.92l54.97-23.77 59.2 19.02-54.94 23.77z" stroke-linejoin="round" stroke-linecap="butt"/>
    <path fill="#f5f5f5" fill-opacity=".92" fill-rule="evenodd" d="M81.64 407.6l54.97-23.75v71.3l-54.94 23.77z"/>
    <path stroke="#af0ad9" d="M81.64 407.6l54.97-23.75v71.3l-54.94 23.77z" stroke-linejoin="round" stroke-linecap="butt"/>
    <path fill="#f5f5f5" fill-opacity=".92" fill-rule="evenodd" d="M136.78 383.84l59.03 19.25v71.05l-59.2-19.3z"/>
    <path stroke="#af0ad9" d="M136.78 383.84l59.03 19.25v71.05l-59.2-19.3z" stroke-linejoin="round" stroke-linecap="butt"/>
    <path fill="#f5f5f5" fill-opacity=".92" fill-rule="evenodd" d="M81.8 407.6l59.04 19.26v71.08l-59.2-19.3z"/>
    <path stroke="#af0ad9" d="M81.8 407.6l59.04 19.26v71.08l-59.2-19.3z" stroke-linejoin="round" stroke-linecap="butt"/>
    <path fill="#f5f5f5" fill-opacity=".92" fill-rule="evenodd" d="M140.84 426.63l54.97-23.77v71.3l-54.94 23.78z"/>
    <path stroke="#af0ad9" d="M140.84 426.63l54.97-23.77v71.3l-54.94 23.78z" stroke-linejoin="round" stroke-linecap="butt"/>
    <path fill="#f5f5f5" fill-opacity=".92" fill-rule="evenodd" d="M81.64 407.6l54.97-23.75 59.2 19-54.94 23.78z"/>
    <path stroke="#af0ad9" d="M81.64 407.6l54.97-23.75 59.2 19-54.94 23.78z" stroke-linejoin="round" stroke-linecap="butt"/>
    <path fill="#f5f5f5" fill-opacity=".92" fill-rule="evenodd" d="M156.7 505l54.97-23.78 59.2 19.02L215.9 524z"/>
    <path stroke="#af0ad9" d="M156.7 505l54.97-23.78 59.2 19.02L215.9 524z" stroke-linejoin="round" stroke-linecap="butt"/>
    <path fill="#f5f5f5" fill-opacity=".92" fill-rule="evenodd" d="M156.7 433.68l54.97-23.76v71.3L156.7 505z"/>
    <path stroke="#af0ad9" d="M156.7 433.68l54.97-23.76v71.3L156.7 505z" stroke-linejoin="round" stroke-linecap="butt"/>
    <path fill="#f5f5f5" fill-opacity=".92" fill-rule="evenodd" d="M211.84 409.9l59.03 19.26v71.08l-59.2-19.3z"/>
    <path stroke="#af0ad9" d="M211.84 409.9l59.03 19.26v71.08l-59.2-19.3z" stroke-linejoin="round" stroke-linecap="butt"/>
    <path fill="#f5f5f5" fill-opacity=".92" fill-rule="evenodd" d="M156.87 433.68l59.03 19.25V524l-59.2-19.3z"/>
    <path stroke="#af0ad9" d="M156.87 433.68l59.03 19.25V524l-59.2-19.3z" stroke-linejoin="round" stroke-linecap="butt"/>
    <path fill="#f5f5f5" fill-opacity=".92" fill-rule="evenodd" d="M215.9 452.7l54.97-23.77v71.3L215.9 524z"/>
    <path stroke="#af0ad9" d="M215.9 452.7l54.97-23.77v71.3L215.9 524z" stroke-linejoin="round" stroke-linecap="butt"/>
    <path fill="#f5f5f5" fill-opacity=".92" fill-rule="evenodd" d="M156.7 433.68l54.97-23.76 59.2 19-54.97 23.78z"/>
    <path stroke="#af0ad9" d="M156.7 433.68l54.97-23.76 59.2 19-54.97 23.78z" stroke-linejoin="round" stroke-linecap="butt"/>
    <path fill="#f5f5f5" fill-opacity=".92" fill-rule="evenodd" d="M6.78 364.82l54.97-23.77 59.2 19.02-54.97 23.77z"/>
    <path stroke="#af0ad9" d="M6.78 364.82l54.97-23.77 59.2 19.02-54.97 23.77z" stroke-linejoin="round" stroke-linecap="butt"/>
    <path fill="#f5f5f5" fill-opacity=".92" fill-rule="evenodd" d="M6.78 293.5l54.97-23.75v71.3L6.78 364.82z"/>
    <path stroke="#af0ad9" d="M6.78 293.5l54.97-23.75v71.3L6.78 364.82z" stroke-linejoin="round" stroke-linecap="butt"/>
    <path fill="#f5f5f5" fill-opacity=".92" fill-rule="evenodd" d="M61.92 269.74L120.95 289v71.07l-59.2-19.3z"/>
    <path stroke="#af0ad9" d="M61.92 269.74L120.95 289v71.07l-59.2-19.3z" stroke-linejoin="round" stroke-linecap="butt"/>
    <path fill="#f5f5f5" fill-opacity=".92" fill-rule="evenodd" d="M6.95 293.5l59.03 19.26v71.08l-59.2-19.3z"/>
    <path stroke="#af0ad9" d="M6.95 293.5l59.03 19.26v71.08l-59.2-19.3z" stroke-linejoin="round" stroke-linecap="butt"/>
    <path fill="#f5f5f5" fill-opacity=".92" fill-rule="evenodd" d="M65.98 312.53l54.97-23.77v71.3l-54.97 23.78z"/>
    <path stroke="#af0ad9" d="M65.98 312.53l54.97-23.77v71.3l-54.97 23.78z" stroke-linejoin="round" stroke-linecap="butt"/>
    <path fill="#f5f5f5" fill-opacity=".92" fill-rule="evenodd" d="M6.78 293.5l54.97-23.75 59.2 19-54.97 23.78z"/>
    <path stroke="#af0ad9" d="M6.78 293.5l54.97-23.75 59.2 19-54.97 23.78z" stroke-linejoin="round" stroke-linecap="butt"/>
    <path fill="#f5f5f5" fill-opacity=".92" fill-rule="evenodd" d="M6.78 276.85l54.97-23.77 59.2 19.02-54.97 23.76z"/>
    <path stroke="#af0ad9" d="M6.78 276.85l54.97-23.77 59.2 19.02-54.97 23.76z" stroke-linejoin="round" stroke-linecap="butt"/>
    <path fill="#f5f5f5" fill-opacity=".92" fill-rule="evenodd" d="M6.78 205.54l54.97-23.77v71.3l-54.97 23.8z"/>
    <path stroke="#af0ad9" d="M6.78 205.54l54.97-23.77v71.3l-54.97 23.8z" stroke-linejoin="round" stroke-linecap="butt"/>
    <path fill="#f5f5f5" fill-opacity=".92" fill-rule="evenodd" d="M61.92 181.77L120.95 201v71.1l-59.2-19.3z"/>
    <path stroke="#af0ad9" d="M61.92 181.77L120.95 201v71.1l-59.2-19.3z" stroke-linejoin="round" stroke-linecap="butt"/>
    <path fill="#f5f5f5" fill-opacity=".92" fill-rule="evenodd" d="M6.95 205.54l59.03 19.24v71.08l-59.2-19.3z"/>
    <path stroke="#af0ad9" d="M6.95 205.54l59.03 19.24v71.08l-59.2-19.3z" stroke-linejoin="round" stroke-linecap="butt"/>
    <path fill="#f5f5f5" fill-opacity=".92" fill-rule="evenodd" d="M65.98 224.56l54.97-23.77v71.3l-54.97 23.74z"/>
    <path stroke="#af0ad9" d="M65.98 224.56l54.97-23.77v71.3l-54.97 23.74z" stroke-linejoin="round" stroke-linecap="butt"/>
    <path fill="#f5f5f5" fill-opacity=".92" fill-rule="evenodd" d="M6.78 205.54l54.97-23.77 59.2 19.02-54.97 23.74z"/>
    <path stroke="#af0ad9" d="M6.78 205.54l54.97-23.77 59.2 19.02-54.97 23.74z" stroke-linejoin="round" stroke-linecap="butt"/>
    <path fill="#f5f5f5" fill-opacity=".92" fill-rule="evenodd" d="M6.78 188.83l54.97-23.77 59.2 19-54.97 23.78z"/>
    <path stroke="#af0ad9" d="M6.78 188.83l54.97-23.77 59.2 19-54.97 23.78z" stroke-linejoin="round" stroke-linecap="butt"/>
    <path fill="#f5f5f5" fill-opacity=".92" fill-rule="evenodd" d="M6.78 117.52l54.97-23.77v71.3l-54.97 23.8z"/>
    <path stroke="#af0ad9" d="M6.78 117.52l54.97-23.77v71.3l-54.97 23.8z" stroke-linejoin="round" stroke-linecap="butt"/>
    <path fill="#f5f5f5" fill-opacity=".92" fill-rule="evenodd" d="M61.92 93.74L120.95 113v71.07l-59.2-19.3z"/>
    <path stroke="#af0ad9" d="M61.92 93.74L120.95 113v71.07l-59.2-19.3z" stroke-linejoin="round" stroke-linecap="butt"/>
    <path fill="#f5f5f5" fill-opacity=".92" fill-rule="evenodd" d="M6.95 117.5l59.03 19.26v71.08l-59.2-19.3z"/>
    <path stroke="#af0ad9" d="M6.95 117.5l59.03 19.26v71.08l-59.2-19.3z" stroke-linejoin="round" stroke-linecap="butt"/>
    <path fill="#f5f5f5" fill-opacity=".92" fill-rule="evenodd" d="M65.98 136.53l54.97-23.77v71.3l-54.97 23.78z"/>
    <path stroke="#af0ad9" d="M65.98 136.53l54.97-23.77v71.3l-54.97 23.78z" stroke-linejoin="round" stroke-linecap="butt"/>
    <path fill="#f5f5f5" fill-opacity=".92" fill-rule="evenodd" d="M6.78 117.52l54.97-23.77 59.2 19-54.97 23.78z"/>
    <path stroke="#af0ad9" d="M6.78 117.52l54.97-23.77 59.2 19-54.97 23.78z" stroke-linejoin="round" stroke-linecap="butt"/>
    <path fill="#f5f5f5" fill-opacity=".92" fill-rule="evenodd" d="M6.78 100.85l54.97-23.77 59.2 19.02-54.97 23.77z"/>
    <path stroke="#af0ad9" d="M6.78 100.85l54.97-23.77 59.2 19.02-54.97 23.77z" stroke-linejoin="round" stroke-linecap="butt"/>
    <path fill="#f5f5f5" fill-opacity=".92" fill-rule="evenodd" d="M6.78 29.54L61.75 5.77v71.3l-54.97 23.8z"/>
    <path stroke="#af0ad9" d="M6.78 29.54L61.75 5.77v71.3l-54.97 23.8z" stroke-linejoin="round" stroke-linecap="butt"/>
    <path fill="#f5f5f5" fill-opacity=".92" fill-rule="evenodd" d="M61.92 5.77l59.03 19.25V96.1l-59.2-19.3z"/>
    <path stroke="#af0ad9" d="M61.92 5.77l59.03 19.25V96.1l-59.2-19.3z" stroke-linejoin="round" stroke-linecap="butt"/>
    <path fill="#f5f5f5" fill-opacity=".92" fill-rule="evenodd" d="M6.95 29.54l59.03 19.24v71.1l-59.2-19.3z"/>
    <path stroke="#af0ad9" d="M6.95 29.54l59.03 19.24v71.1l-59.2-19.3z" stroke-linejoin="round" stroke-linecap="butt"/>
    <path fill="#f5f5f5" fill-opacity=".92" fill-rule="evenodd" d="M65.98 48.56l54.97-23.77v71.3l-54.97 23.75z"/>
    <path stroke="#af0ad9" d="M65.98 48.56l54.97-23.77v71.3l-54.97 23.75z" stroke-linejoin="round" stroke-linecap="butt"/>
    <path fill="#f5f5f5" fill-opacity=".92" fill-rule="evenodd" d="M6.78 29.54L61.75 5.77l59.2 19.02-54.97 23.74z"/>
    <path stroke="#af0ad9" d="M6.78 29.54L61.75 5.77l59.2 19.02-54.97 23.74z" stroke-linejoin="round" stroke-linecap="butt"/>
    <path fill="#f5f5f5" fill-opacity=".92" fill-rule="evenodd" d="M81.64 126.93l54.97-23.77 59.2 19-54.94 23.78z"/>
    <path stroke="#af0ad9" d="M81.64 126.93l54.97-23.77 59.2 19-54.94 23.78z" stroke-linejoin="round" stroke-linecap="butt"/>
    <path fill="#f5f5f5" fill-opacity=".92" fill-rule="evenodd" d="M81.64 55.62l54.97-23.77v71.3l-54.94 23.78z"/>
    <path stroke="#af0ad9" d="M81.64 55.62l54.97-23.77v71.3l-54.94 23.78z" stroke-linejoin="round" stroke-linecap="butt"/>
    <path fill="#f5f5f5" fill-opacity=".92" fill-rule="evenodd" d="M136.78 31.84L195.8 51.1v71.07l-59.2-19.3z"/>
    <path stroke="#af0ad9" d="M136.78 31.84L195.8 51.1v71.07l-59.2-19.3z" stroke-linejoin="round" stroke-linecap="butt"/>
    <path fill="#f5f5f5" fill-opacity=".92" fill-rule="evenodd" d="M81.8 55.6l59.04 19.26v71.08l-59.2-19.3z"/>
    <path stroke="#af0ad9" d="M81.8 55.6l59.04 19.26v71.08l-59.2-19.3z" stroke-linejoin="round" stroke-linecap="butt"/>
    <path fill="#f5f5f5" fill-opacity=".92" fill-rule="evenodd" d="M140.84 74.63l54.97-23.77v71.3l-54.94 23.78z"/>
    <path stroke="#af0ad9" d="M140.84 74.63l54.97-23.77v71.3l-54.94 23.78z" stroke-linejoin="round" stroke-linecap="butt"/>
    <path fill="#f5f5f5" fill-opacity=".92" fill-rule="evenodd" d="M81.64 55.62l54.97-23.77 59.2 19-54.94 23.78z"/>
    <path stroke="#af0ad9" d="M81.64 55.62l54.97-23.77 59.2 19-54.94 23.78z" stroke-linejoin="round" stroke-linecap="butt"/>
    <path fill="#f5f5f5" fill-opacity=".92" fill-rule="evenodd" d="M156.7 153l54.97-23.77 59.2 19.02L215.9 172z"/>
    <path stroke="#af0ad9" d="M156.7 153l54.97-23.77 59.2 19.02L215.9 172z" stroke-linejoin="round" stroke-linecap="butt"/>
    <path fill="#f5f5f5" fill-opacity=".92" fill-rule="evenodd" d="M156.7 81.7l54.97-23.78v71.3L156.7 153z"/>
    <path stroke="#af0ad9" d="M156.7 81.7l54.97-23.78v71.3L156.7 153z" stroke-linejoin="round" stroke-linecap="butt"/>
    <path fill="#f5f5f5" fill-opacity=".92" fill-rule="evenodd" d="M211.84 57.92l59.03 19.24v71.1l-59.2-19.32z"/>
    <path stroke="#af0ad9" d="M211.84 57.92l59.03 19.24v71.1l-59.2-19.32z" stroke-linejoin="round" stroke-linecap="butt"/>
    <path fill="#f5f5f5" fill-opacity=".92" fill-rule="evenodd" d="M156.87 81.7l59.03 19.23V172l-59.2-19.3z"/>
    <path stroke="#af0ad9" d="M156.87 81.7l59.03 19.23V172l-59.2-19.3z" stroke-linejoin="round" stroke-linecap="butt"/>
    <path fill="#f5f5f5" fill-opacity=".92" fill-rule="evenodd" d="M215.9 100.7l54.97-23.76v71.3L215.9 172z"/>
    <path stroke="#af0ad9" d="M215.9 100.7l54.97-23.76v71.3L215.9 172z" stroke-linejoin="round" stroke-linecap="butt"/>
    <path fill="#f5f5f5" fill-opacity=".92" fill-rule="evenodd" d="M156.7 81.7l54.97-23.78 59.2 19.02-54.97 23.77z"/>
    <path stroke="#af0ad9" d="M156.7 81.7l54.97-23.78 59.2 19.02-54.97 23.77z" stroke-linejoin="round" stroke-linecap="butt"/>
    <path fill="#f5f5f5" fill-opacity=".92" fill-rule="evenodd" d="M85 302.92l54.97-23.77 59.2 19.02-54.97 23.77z"/>
    <path stroke="#af0ad9" d="M85 302.92l54.97-23.77 59.2 19.02-54.97 23.77z" stroke-linejoin="round" stroke-linecap="butt"/>
    <path fill="#f5f5f5" fill-opacity=".92" fill-rule="evenodd" d="M85 231.6l54.97-23.75v71.3L85 302.92z"/>
    <path stroke="#af0ad9" d="M85 231.6l54.97-23.75v71.3L85 302.92z" stroke-linejoin="round" stroke-linecap="butt"/>
    <path fill="#f5f5f5" fill-opacity=".92" fill-rule="evenodd" d="M140.14 207.84l59.03 19.25v71.05l-59.2-19.3z"/>
    <path stroke="#af0ad9" d="M140.14 207.84l59.03 19.25v71.05l-59.2-19.3z" stroke-linejoin="round" stroke-linecap="butt"/>
    <path fill="#f5f5f5" fill-opacity=".92" fill-rule="evenodd" d="M85.17 231.6l59.03 19.26v71.08L85 302.64z"/>
    <path stroke="#af0ad9" d="M85.17 231.6l59.03 19.26v71.08L85 302.64z" stroke-linejoin="round" stroke-linecap="butt"/>
    <path fill="#f5f5f5" fill-opacity=".92" fill-rule="evenodd" d="M144.2 250.63l54.97-23.77v71.3l-54.97 23.78z"/>
    <path stroke="#af0ad9" d="M144.2 250.63l54.97-23.77v71.3l-54.97 23.78z" stroke-linejoin="round" stroke-linecap="butt"/>
    <path fill="#f5f5f5" fill-opacity=".92" fill-rule="evenodd" d="M85 231.6l54.97-23.75 59.2 19-54.97 23.78z"/>
    <path stroke="#af0ad9" d="M85 231.6l54.97-23.75 59.2 19-54.97 23.78z" stroke-linejoin="round" stroke-linecap="butt"/>
  </g>
</svg>